<svg width="803" height="508" viewBox="0 0 803 508" fill="none" xmlns="http://www.w3.org/2000/svg">
<g clip-path="url(#clip0_111_877)">
<path d="M706.756 463.869L707.538 446.293C715.686 441.938 724.775 439.637 734.015 439.591C721.298 449.988 722.887 470.029 714.266 484.01C708.751 492.801 699.538 498.608 689.227 499.789L678.586 506.304C675.631 489.83 680.037 472.887 690.645 459.941C693.621 456.381 697.034 453.21 700.802 450.503C703.351 457.224 706.756 463.869 706.756 463.869Z" fill="#F2F2F2"/>
<path d="M168.805 444.609L143.125 436.834C139.757 423.151 139.78 408.852 143.192 395.18C153.767 417.889 183.984 423.089 201.399 441.096C212.314 452.557 217.424 468.36 215.287 484.042L220.908 502.223C195.448 500.385 172.069 487.492 156.931 466.939C152.791 461.2 149.391 454.962 146.809 448.373C157.701 447.138 168.805 444.609 168.805 444.609H168.805Z" fill="#F2F2F2"/>
<path d="M617.773 503.43C617.769 503.962 617.557 504.472 617.183 504.85C616.809 505.223 616.301 505.432 615.773 505.43H607.733C606.632 505.434 605.737 504.545 605.733 503.444V260.29C605.733 254.93 603.933 250.58 601.723 250.57H101.233C99.0129 250.58 97.2229 254.93 97.2129 260.29V501.94C97.2095 502.97 96.4275 503.829 95.4029 503.93C93.7829 504.09 92.1629 504.23 90.5529 504.36C90.5129 504.36 90.4729 504.37 90.4329 504.37C89.5529 504.45 88.6729 504.51 87.7929 504.58H87.7829C87.3229 503.75 86.8829 502.9 86.4329 502.05C86.2886 501.761 86.2134 501.443 86.2129 501.12V247.68C86.2129 246.2 86.2729 244.71 86.3729 243.24C86.5156 241.222 86.7659 239.212 87.1229 237.22C88.8129 227.93 92.6329 221.64 96.9729 221.62H605.973C606.606 221.624 607.232 221.757 607.813 222.01C608.666 222.388 609.437 222.928 610.083 223.6C610.96 224.512 611.71 225.538 612.313 226.65C614.453 230.42 615.983 236.04 616.523 242.58C616.523 242.64 616.533 242.7 616.533 242.76C616.673 244.38 616.743 246.03 616.733 247.68L616.873 269.11L616.963 281.89L617.233 321.99L617.333 336.23L617.773 503.43Z" fill="#E6E6E6"/>
<path d="M432.024 147.486H381.018C379.516 147.489 378.299 148.708 378.301 150.211V230.785H434.748V150.211C434.749 148.707 433.53 147.487 432.027 147.486H432.024ZM406.693 193.268C403.373 193.252 400.685 190.565 400.67 187.245V177.951C400.67 174.625 403.366 171.928 406.693 171.928C410.019 171.928 412.715 174.625 412.715 177.951V187.245C412.7 190.565 410.013 193.252 406.693 193.268Z" fill="#CCCCCC"/>
<path d="M378.125 228.207V235.981C378.127 236.82 378.807 237.499 379.645 237.501H433.403C434.241 237.497 434.919 236.819 434.923 235.981V228.207H378.125Z" fill="#3F3D56"/>
<path d="M516.484 21.7419H298.455C294.555 21.7481 291.395 24.9082 291.389 28.8083V175.935C291.392 179.836 294.554 182.998 298.455 183.002H516.484C520.385 182.998 523.547 179.836 523.55 175.935V28.8083C523.544 24.9082 520.384 21.7481 516.484 21.7419Z" fill="#E6E6E6"/>
<path d="M514.664 26.8459H300.277C298.188 26.8504 296.498 28.5445 296.498 30.6329V174.113C296.501 176.199 298.191 177.889 300.277 177.892H514.664C516.75 177.889 518.44 176.199 518.443 174.113V30.6328C518.443 28.5445 516.752 26.8504 514.664 26.8459Z" fill="white"/>
<path d="M472.905 240.206H345.357C344.061 240.206 343.01 239.155 343.01 237.86C343.01 237.697 343.027 237.535 343.061 237.376L345.04 227.977C345.272 226.893 346.227 226.118 347.335 226.114H470.927C472.035 226.118 472.99 226.893 473.222 227.977L475.201 237.376C475.468 238.644 474.657 239.889 473.389 240.156C473.23 240.189 473.068 240.206 472.905 240.206Z" fill="#CCCCCC"/>
<path d="M351.681 227.806H348.729C348.459 227.806 348.241 228.025 348.241 228.294V229.675C348.241 229.945 348.459 230.163 348.729 230.163H351.681C351.951 230.163 352.169 229.945 352.169 229.675V228.294C352.169 228.025 351.951 227.806 351.681 227.806Z" fill="#E6E6E6"/>
<path d="M359.538 227.806H356.586C356.316 227.806 356.098 228.025 356.098 228.294V229.675C356.098 229.945 356.316 230.163 356.586 230.163H359.538C359.807 230.163 360.026 229.945 360.026 229.675V228.294C360.026 228.025 359.807 227.806 359.538 227.806Z" fill="#E6E6E6"/>
<path d="M367.395 227.806H364.443C364.173 227.806 363.955 228.025 363.955 228.294V229.675C363.955 229.945 364.173 230.163 364.443 230.163H367.395C367.664 230.163 367.883 229.945 367.883 229.675V228.294C367.883 228.025 367.664 227.806 367.395 227.806Z" fill="#E6E6E6"/>
<path d="M375.251 227.806H372.299C372.03 227.806 371.811 228.025 371.811 228.294V229.675C371.811 229.945 372.03 230.163 372.299 230.163H375.251C375.521 230.163 375.739 229.945 375.739 229.675V228.294C375.739 228.025 375.521 227.806 375.251 227.806Z" fill="#E6E6E6"/>
<path d="M383.108 227.806H380.156C379.887 227.806 379.668 228.025 379.668 228.294V229.675C379.668 229.945 379.887 230.163 380.156 230.163H383.108C383.378 230.163 383.596 229.945 383.596 229.675V228.294C383.596 228.025 383.378 227.806 383.108 227.806Z" fill="#E6E6E6"/>
<path d="M390.965 227.806H388.013C387.743 227.806 387.525 228.025 387.525 228.294V229.675C387.525 229.945 387.743 230.163 388.013 230.163H390.965C391.235 230.163 391.453 229.945 391.453 229.675V228.294C391.453 228.025 391.235 227.806 390.965 227.806Z" fill="#E6E6E6"/>
<path d="M398.822 227.806H395.87C395.6 227.806 395.381 228.025 395.381 228.294V229.675C395.381 229.945 395.6 230.163 395.87 230.163H398.822C399.091 230.163 399.31 229.945 399.31 229.675V228.294C399.31 228.025 399.091 227.806 398.822 227.806Z" fill="#E6E6E6"/>
<path d="M406.678 227.806H403.726C403.457 227.806 403.238 228.025 403.238 228.294V229.675C403.238 229.945 403.457 230.163 403.726 230.163H406.678C406.948 230.163 407.167 229.945 407.167 229.675V228.294C407.167 228.025 406.948 227.806 406.678 227.806Z" fill="#E6E6E6"/>
<path d="M414.535 227.806H411.583C411.314 227.806 411.095 228.025 411.095 228.294V229.675C411.095 229.945 411.314 230.163 411.583 230.163H414.535C414.805 230.163 415.024 229.945 415.024 229.675V228.294C415.024 228.025 414.805 227.806 414.535 227.806Z" fill="#E6E6E6"/>
<path d="M422.392 227.806H419.44C419.17 227.806 418.952 228.025 418.952 228.294V229.675C418.952 229.945 419.17 230.163 419.44 230.163H422.392C422.661 230.163 422.88 229.945 422.88 229.675V228.294C422.88 228.025 422.661 227.806 422.392 227.806Z" fill="#E6E6E6"/>
<path d="M430.249 227.806H427.297C427.027 227.806 426.809 228.025 426.809 228.294V229.675C426.809 229.945 427.027 230.163 427.297 230.163H430.249C430.518 230.163 430.737 229.945 430.737 229.675V228.294C430.737 228.025 430.518 227.806 430.249 227.806Z" fill="#E6E6E6"/>
<path d="M438.106 227.806H435.154C434.884 227.806 434.666 228.025 434.666 228.294V229.675C434.666 229.945 434.884 230.163 435.154 230.163H438.106C438.375 230.163 438.594 229.945 438.594 229.675V228.294C438.594 228.025 438.375 227.806 438.106 227.806Z" fill="#E6E6E6"/>
<path d="M445.962 227.806H443.01C442.741 227.806 442.522 228.025 442.522 228.294V229.675C442.522 229.945 442.741 230.163 443.01 230.163H445.962C446.232 230.163 446.45 229.945 446.45 229.675V228.294C446.45 228.025 446.232 227.806 445.962 227.806Z" fill="#E6E6E6"/>
<path d="M453.819 227.806H450.867C450.597 227.806 450.379 228.025 450.379 228.294V229.675C450.379 229.945 450.597 230.163 450.867 230.163H453.819C454.089 230.163 454.307 229.945 454.307 229.675V228.294C454.307 228.025 454.089 227.806 453.819 227.806Z" fill="#E6E6E6"/>
<path d="M461.676 227.806H458.724C458.454 227.806 458.236 228.025 458.236 228.294V229.675C458.236 229.945 458.454 230.163 458.724 230.163H461.676C461.946 230.163 462.164 229.945 462.164 229.675V228.294C462.164 228.025 461.946 227.806 461.676 227.806Z" fill="#E6E6E6"/>
<path d="M469.533 227.806H466.58C466.311 227.806 466.092 228.025 466.092 228.294V229.675C466.092 229.945 466.311 230.163 466.58 230.163H469.533C469.802 230.163 470.021 229.945 470.021 229.675V228.294C470.021 228.025 469.802 227.806 469.533 227.806Z" fill="#E6E6E6"/>
<path d="M351.588 231.735H348.636C348.367 231.735 348.148 231.953 348.148 232.223V233.603C348.148 233.873 348.367 234.092 348.636 234.092H351.588C351.858 234.092 352.076 233.873 352.076 233.603V232.223C352.076 231.953 351.858 231.735 351.588 231.735Z" fill="#E6E6E6"/>
<path d="M359.445 231.735H356.493C356.223 231.735 356.005 231.953 356.005 232.223V233.603C356.005 233.873 356.223 234.092 356.493 234.092H359.445C359.715 234.092 359.933 233.873 359.933 233.603V232.223C359.933 231.953 359.715 231.735 359.445 231.735Z" fill="#E6E6E6"/>
<path d="M367.302 231.735H364.35C364.08 231.735 363.862 231.953 363.862 232.223V233.603C363.862 233.873 364.08 234.092 364.35 234.092H367.302C367.572 234.092 367.79 233.873 367.79 233.603V232.223C367.79 231.953 367.572 231.735 367.302 231.735Z" fill="#E6E6E6"/>
<path d="M375.158 231.735H372.206C371.937 231.735 371.718 231.953 371.718 232.223V233.603C371.718 233.873 371.937 234.092 372.206 234.092H375.158C375.428 234.092 375.647 233.873 375.647 233.603V232.223C375.647 231.953 375.428 231.735 375.158 231.735Z" fill="#E6E6E6"/>
<path d="M383.015 231.735H380.063C379.794 231.735 379.575 231.953 379.575 232.223V233.603C379.575 233.873 379.794 234.092 380.063 234.092H383.015C383.285 234.092 383.504 233.873 383.504 233.603V232.223C383.504 231.953 383.285 231.735 383.015 231.735Z" fill="#E6E6E6"/>
<path d="M390.872 231.735H387.92C387.65 231.735 387.432 231.953 387.432 232.223V233.603C387.432 233.873 387.65 234.092 387.92 234.092H390.872C391.141 234.092 391.36 233.873 391.36 233.603V232.223C391.36 231.953 391.141 231.735 390.872 231.735Z" fill="#E6E6E6"/>
<path d="M398.729 231.735H395.777C395.507 231.735 395.289 231.953 395.289 232.223V233.603C395.289 233.873 395.507 234.092 395.777 234.092H398.729C398.998 234.092 399.217 233.873 399.217 233.603V232.223C399.217 231.953 398.998 231.735 398.729 231.735Z" fill="#E6E6E6"/>
<path d="M406.586 231.735H403.634C403.364 231.735 403.146 231.953 403.146 232.223V233.603C403.146 233.873 403.364 234.092 403.634 234.092H406.586C406.855 234.092 407.074 233.873 407.074 233.603V232.223C407.074 231.953 406.855 231.735 406.586 231.735Z" fill="#E6E6E6"/>
<path d="M414.442 231.735H411.49C411.221 231.735 411.002 231.953 411.002 232.223V233.603C411.002 233.873 411.221 234.092 411.49 234.092H414.442C414.712 234.092 414.93 233.873 414.93 233.603V232.223C414.93 231.953 414.712 231.735 414.442 231.735Z" fill="#E6E6E6"/>
<path d="M422.299 231.735H419.347C419.077 231.735 418.859 231.953 418.859 232.223V233.603C418.859 233.873 419.077 234.092 419.347 234.092H422.299C422.569 234.092 422.787 233.873 422.787 233.603V232.223C422.787 231.953 422.569 231.735 422.299 231.735Z" fill="#E6E6E6"/>
<path d="M430.156 231.735H427.204C426.934 231.735 426.716 231.953 426.716 232.223V233.603C426.716 233.873 426.934 234.092 427.204 234.092H430.156C430.426 234.092 430.644 233.873 430.644 233.603V232.223C430.644 231.953 430.426 231.735 430.156 231.735Z" fill="#E6E6E6"/>
<path d="M438.012 231.735H435.06C434.791 231.735 434.572 231.953 434.572 232.223V233.603C434.572 233.873 434.791 234.092 435.06 234.092H438.012C438.282 234.092 438.501 233.873 438.501 233.603V232.223C438.501 231.953 438.282 231.735 438.012 231.735Z" fill="#E6E6E6"/>
<path d="M445.869 231.735H442.917C442.648 231.735 442.429 231.953 442.429 232.223V233.603C442.429 233.873 442.648 234.092 442.917 234.092H445.869C446.139 234.092 446.358 233.873 446.358 233.603V232.223C446.358 231.953 446.139 231.735 445.869 231.735Z" fill="#E6E6E6"/>
<path d="M453.726 231.735H450.774C450.505 231.735 450.286 231.953 450.286 232.223V233.603C450.286 233.873 450.505 234.092 450.774 234.092H453.726C453.996 234.092 454.215 233.873 454.215 233.603V232.223C454.215 231.953 453.996 231.735 453.726 231.735Z" fill="#E6E6E6"/>
<path d="M461.583 231.735H458.631C458.361 231.735 458.143 231.953 458.143 232.223V233.603C458.143 233.873 458.361 234.092 458.631 234.092H461.583C461.852 234.092 462.071 233.873 462.071 233.603V232.223C462.071 231.953 461.852 231.735 461.583 231.735Z" fill="#E6E6E6"/>
<path d="M469.44 231.735H466.488C466.218 231.735 466 231.953 466 232.223V233.603C466 233.873 466.218 234.092 466.488 234.092H469.44C469.709 234.092 469.928 233.873 469.928 233.603V232.223C469.928 231.953 469.709 231.735 469.44 231.735Z" fill="#E6E6E6"/>
<path d="M416.799 236.449H386.349C386.079 236.449 385.86 236.667 385.86 236.937V238.317C385.86 238.587 386.079 238.806 386.349 238.806H416.799C417.069 238.806 417.287 238.587 417.287 238.317V236.937C417.287 236.667 417.069 236.449 416.799 236.449Z" fill="#E6E6E6"/>
<path d="M503.887 46.6142H303.286C302.845 46.6045 302.496 46.2395 302.506 45.799C302.515 45.372 302.859 45.0281 303.286 45.0188H503.887C504.328 45.0284 504.677 45.3935 504.667 45.834C504.658 46.261 504.314 46.6048 503.887 46.6142Z" fill="#CACACA"/>
<path d="M316.941 40.9457C319.523 40.9457 321.616 38.8059 321.616 36.1664C321.616 33.5268 319.523 31.3871 316.941 31.3871C314.359 31.3871 312.266 33.5268 312.266 36.1664C312.266 38.8059 314.359 40.9457 316.941 40.9457Z" fill="#CCCCCC"/>
<path d="M333.092 40.9457C335.674 40.9457 337.767 38.8059 337.767 36.1664C337.767 33.5268 335.674 31.3871 333.092 31.3871C330.51 31.3871 328.417 33.5268 328.417 36.1664C328.417 38.8059 330.51 40.9457 333.092 40.9457Z" fill="#CCCCCC"/>
<path d="M349.242 40.9457C351.824 40.9457 353.917 38.8059 353.917 36.1664C353.917 33.5268 351.824 31.3871 349.242 31.3871C346.66 31.3871 344.567 33.5268 344.567 36.1664C344.567 38.8059 346.66 40.9457 349.242 40.9457Z" fill="#CCCCCC"/>
<path d="M403.381 58.71L402.733 56.817L485.591 13.765L486.238 15.658L403.381 58.71Z" fill="#3F3D56"/>
<path d="M653.381 138.452L652.733 136.559L702.591 93.725L703.238 95.617L653.381 138.452Z" fill="#3F3D56"/>
<path d="M557.591 148.423L474.733 105.371L475.381 103.478L558.238 146.53L557.591 148.423Z" fill="#3F3D56"/>
<path d="M600.006 118.465L551.431 38.719L552.966 37.436L601.54 117.182L600.006 118.465Z" fill="#3F3D56"/>
<path d="M637.914 14.554L590.607 14.336V12.336L637.914 12.554V14.554Z" fill="#3F3D56"/>
<path d="M723.611 26.9595H670.611C663.432 26.9595 657.611 21.1392 657.611 13.9595C657.611 6.77977 663.432 0.959473 670.611 0.959473H723.611C730.791 0.959473 736.611 6.77977 736.611 13.9595C736.611 21.1392 730.791 26.9595 723.611 26.9595Z" fill="#FF4000"/>
<path d="M789.611 102.959H736.611C729.432 102.959 723.611 97.1392 723.611 89.9595C723.611 82.7798 729.432 76.9595 736.611 76.9595H789.611C796.791 76.9595 802.611 82.7798 802.611 89.9595C802.611 97.1392 796.791 102.959 789.611 102.959Z" fill="#FF4000"/>
<path d="M703.914 156.553L656.607 156.336V154.336L703.914 154.553V156.553Z" fill="#3F3D56"/>
<path d="M789.611 168.959H736.611C729.432 168.959 723.611 163.139 723.611 155.959C723.611 148.78 729.432 142.959 736.611 142.959H789.611C796.791 142.959 802.611 148.78 802.611 155.959C802.611 163.139 796.791 168.959 789.611 168.959Z" fill="#FF4000"/>
<path d="M634.611 160H581.611C574.432 160 568.611 154.18 568.611 147C568.611 139.82 574.432 134 581.611 134H634.611C641.791 134 647.611 139.82 647.611 147C647.611 154.18 641.791 160 634.611 160Z" fill="#FF4000"/>
<path d="M562.611 26H509.611C502.432 26 496.611 20.1797 496.611 13C496.611 5.8203 502.432 0 509.611 0H562.611C569.791 0 575.611 5.8203 575.611 13C575.611 20.1797 569.791 26 562.611 26Z" fill="#FF4000"/>
<path d="M309.283 249.18H249.283C244.864 249.18 241.283 252.762 241.283 257.18C241.283 261.598 244.864 265.18 249.283 265.18H271.283V327.18H287.283V265.18H309.283C313.701 265.18 317.283 261.598 317.283 257.18C317.283 252.762 313.701 249.18 309.283 249.18Z" fill="#3F3D56"/>
<path d="M348.884 361.517H188.401C156.242 361.4 129.034 337.717 124.484 305.881L118.804 284.986C107.046 241.685 89.1362 200.296 65.6223 162.083C54.875 144.629 49.3434 127.734 61.9075 111.467C62.0145 111.329 62.1197 111.192 62.2231 111.058C72.3003 97.9414 122.457 95.1021 138.809 94.5498C139.455 94.5278 140.103 94.5169 140.754 94.5171H240.573C241.224 94.5171 241.872 94.5281 242.518 94.5498C260.476 95.0733 276.697 105.413 284.754 121.471C293.351 137.866 292.254 157.656 281.898 173.001C246.834 225.671 236.099 258.698 247.09 280.086C257.721 300.773 290.31 311.35 349.648 313.371C365.595 313.914 372.913 326.331 372.964 337.637C373.014 348.652 365.978 360.813 350.412 361.485C349.906 361.506 349.396 361.517 348.884 361.517Z" fill="#3F3D56"/>
<path d="M215.664 504.017H275.664C280.082 504.017 283.664 500.435 283.664 496.017C283.664 491.599 280.082 488.017 275.664 488.017H253.664V353.017H237.664V488.017H215.664C211.245 488.017 207.664 491.599 207.664 496.017C207.664 500.435 211.245 504.017 215.664 504.017Z" fill="#3F3D56"/>
<path d="M269.969 449.592L280.305 455.206L307.667 417.375L292.411 409.088L269.969 449.592Z" fill="#A0616A"/>
<path d="M274.944 436.111L293.708 441.987L290.722 449.848L303.589 468.522C305.235 470.911 304.633 474.182 302.244 475.828C300.823 476.808 299.011 477.027 297.398 476.413L275.554 468.114L274.743 458.908L270.319 466.125L262.083 462.996L274.944 436.111V436.111Z" fill="#2F2E41"/>
<path d="M296.085 68.0756C297.01 74.4229 292.616 80.3189 286.268 81.2447C285.591 81.3435 284.907 81.3822 284.224 81.3605L244.372 166.156L231.874 148.726L272.897 68.545C273.528 62.1266 279.242 57.4345 285.66 58.0648C291.031 58.5922 295.34 62.7308 296.085 68.0755V68.0756Z" fill="#A0616A"/>
<path d="M163.835 183.301C163.835 183.301 162.767 198.114 179.52 201.02C196.273 203.925 241.059 175.605 248.414 171.256C255.77 166.908 269.476 112.195 269.476 112.195L257.556 92.0336C242.839 110.651 231.281 127.818 230.579 140.004L163.835 183.301H163.835Z" fill="#FF4000"/>
<path d="M183.175 234.327L186.793 249.873C186.793 249.873 186.829 264.208 189.368 266.851C191.889 269.482 247.323 264.2 247.323 264.2C247.323 264.2 241.446 241.1 241.524 223.622L183.175 234.327Z" fill="#A0616A"/>
<path d="M300.283 433.18L280.283 422.18C279.902 396.155 295.556 360.937 314.122 324.048C272.599 331.189 233.426 333.477 199.543 324.838C187.969 321.781 180.993 309.998 183.88 298.38C184.012 297.832 184.165 297.29 184.338 296.753C188.393 284.381 179.3 276.625 187.664 263.017C209.66 255.505 230.556 253.383 249.664 260.017L261.636 286.488L320.979 278.809C332.978 277.375 343.869 285.939 345.303 297.939C345.31 297.993 345.316 298.048 345.322 298.103C345.402 298.747 345.454 299.394 345.478 300.043C333.479 356.296 320.025 406.912 300.283 433.18Z" fill="#2F2E41"/>
<path d="M175.12 135.904L197.981 134.554C199.957 134.438 201.79 135.587 202.545 137.418L209.005 153.079L235.856 175.271C235.856 175.271 246.486 188.799 246.511 206.27C246.536 223.742 250.283 264.18 250.283 264.18C250.283 264.18 234.768 242.342 225.191 248.15C223.562 249.138 222.989 251.159 221.283 252.18C220.431 252.69 218.465 252.194 217.605 252.705C204.409 260.538 190.647 268.191 189.362 266.849C186.837 264.215 183.774 250.752 183.774 250.752L162.848 173.865C160.551 165.673 162.036 156.884 166.897 149.903C168.359 147.845 169.891 146.313 171.315 146.06C174.511 145.379 172.811 138.216 175.12 135.904Z" fill="#FF4000"/>
<path d="M369.589 482.16L379.239 475.451L357.378 434.207L343.136 444.109L369.589 482.16Z" fill="#A0616A"/>
<path d="M371.048 454.486L355.924 468.005C331.876 441.209 313.697 403.629 298.291 360.952C257.925 349.13 227.484 330.064 200.909 307.425C191.893 299.797 185.135 289.997 192.824 280.704C193.183 280.27 193.559 279.85 193.95 279.444C203.028 270.114 226.051 271.892 239.535 263.344L269.656 295.541L267.761 304.172L324.339 323.337C335.728 327.329 341.725 339.798 337.733 351.187C337.714 351.243 337.694 351.299 337.674 351.354C337.462 351.968 337.224 352.572 336.961 353.166L371.048 454.486V454.486Z" fill="#2F2E41"/>
<path d="M363.963 479.44L379.41 467.275L384.21 474.18L406.888 474.111C409.789 474.102 412.148 476.446 412.158 479.347C412.163 481.073 411.32 482.692 409.903 483.677L390.716 497.015L382.661 492.484L386.117 500.211L378.883 505.24L363.963 479.44Z" fill="#2F2E41"/>
<path d="M208.878 329.673C202.974 327.167 200.219 320.349 202.725 314.444C202.992 313.814 203.314 313.21 203.688 312.637L151.934 234.535L173.32 232.909L220.522 309.616C225.679 313.489 226.72 320.809 222.848 325.966C219.607 330.281 213.832 331.813 208.878 329.673V329.673Z" fill="#A0616A"/>
<path d="M179.121 156.811C179.121 156.811 167.018 148.203 155.832 161.009C144.647 173.815 145.581 226.796 145.476 235.339C145.443 238.015 149.306 243.788 154.629 250.456C157.018 253.45 159.702 256.624 162.46 259.779C164.055 261.605 162.68 265.406 164.283 267.18C165.876 268.945 170.447 268.685 171.962 270.323C179.157 278.098 185.001 284.017 185.001 284.017L208.421 284.305C208.685 266.895 196.763 251.354 181.445 236.335L179.121 156.811Z" fill="#FF4000"/>
<path d="M155.514 81.0078C153.297 82.6082 150.964 84.2569 148.259 84.6535C145.553 85.0501 142.386 83.7421 141.637 81.1121C140.721 77.8964 143.625 74.9684 146.235 72.8785L154.511 66.2515C156.026 64.9074 157.737 63.8012 159.585 62.9708C161.465 62.1436 163.619 62.2156 165.439 63.1665C167.248 64.3878 168.294 66.4596 168.202 68.6401C168.084 70.7893 167.375 72.8641 166.153 74.6358C163.048 79.4745 158.103 82.8362 152.462 83.9426" fill="#2F2E41"/>
<path d="M218.283 253.18H158.283C153.864 253.18 150.283 256.762 150.283 261.18C150.283 265.598 153.864 269.18 158.283 269.18H180.283V331.18H196.283V269.18H218.283C222.701 269.18 226.283 265.598 226.283 261.18C226.283 256.762 222.701 253.18 218.283 253.18Z" fill="#3F3D56"/>
<path d="M159.19 64.2235C159.432 58.2254 153.04 53.4759 147.051 53.8513C141.061 54.2268 135.912 58.4398 132.516 63.3891C129.12 68.3342 127.08 74.0621 124.405 79.4314C121.73 84.8006 118.168 90.0577 112.852 92.8401C107.537 95.6183 100.139 95.1226 96.4657 90.3791C94.1491 93.8922 93.6452 98.299 95.1091 102.244C96.613 106.139 99.4176 109.393 103.047 111.455C104.492 112.312 106.035 112.991 107.643 113.476C108.306 111.687 109.239 110.009 110.41 108.501C109.881 110.286 109.679 112.152 109.814 114.008C112.292 114.483 114.842 114.443 117.304 113.89C122.207 112.793 126.306 109.451 128.366 104.869C130.612 99.5511 129.468 93.488 129.949 87.7357C130.425 81.9823 133.892 75.4143 139.665 75.3206C144.061 75.2482 143.479 75.6107 146.265 79.0123" fill="#2F2E41"/>
<path d="M199.111 95.7419C199.111 110.101 187.471 121.742 173.111 121.742C158.752 121.742 145.111 105.101 145.111 90.7419C145.111 76.3825 158.752 69.7419 173.111 69.7419C187.471 69.7419 199.111 81.3825 199.111 95.7419Z" fill="#2F2E41"/>
<path d="M185.923 126.9C199.345 124.154 207.999 111.047 205.252 97.6258C202.506 84.2044 189.4 75.5505 175.978 78.2968C162.557 81.043 153.903 94.1495 156.649 107.571C159.396 120.992 172.502 129.646 185.923 126.9Z" fill="#A0616A"/>
<path d="M212.111 98.7419C204.768 100.747 197.354 102.849 194.491 98.7419C193.935 96.0189 192.881 93.4221 191.381 91.0819C191.099 93.7027 190.484 96.2767 189.551 98.7419C180.274 100.758 171.604 101.24 164.111 98.7419C163.081 100.605 162.483 102.676 162.361 104.802C161.991 104.569 161.603 104.365 161.201 104.192C160.719 103.92 160.144 103.869 159.621 104.052C159.26 104.27 159.02 104.643 158.971 105.062C158.922 105.479 158.942 105.902 159.031 106.312C159.136 107.742 159.564 109.13 160.281 110.372C160.855 111.237 161.766 111.821 162.791 111.982C163.831 117.832 172.111 125.742 172.111 125.742C147.111 126.742 147.111 109.782 147.111 93.7419L150.111 87.7419H160.111V74.7419H188.111C201.365 74.7454 212.108 85.4886 212.111 98.7419V98.7419Z" fill="#2F2E41"/>
<path d="M439.947 506.911L1.1969 507.219C0.539307 507.222 0.00344655 506.692 1.65456e-05 506.034C-0.00341345 505.377 0.526887 504.841 1.18448 504.837H1.1969L439.947 504.53C440.604 504.532 441.136 505.067 441.134 505.725C441.132 506.379 440.602 506.909 439.947 506.911Z" fill="#CACACA"/>
<path d="M732.947 506.911L506.197 507.219C505.539 507.222 505.003 506.692 505 506.034C504.997 505.377 505.527 504.841 506.185 504.837H506.197L732.947 504.53C733.605 504.528 734.139 505.059 734.141 505.717C734.144 506.374 733.612 506.909 732.955 506.911H732.947Z" fill="#CACACA"/>
<path d="M449.974 148H364.021C356.556 147.992 350.506 141.942 350.498 134.477V77.5235C350.506 70.0581 356.556 64.0083 364.021 64H449.974C457.439 64.0083 463.489 70.0581 463.498 77.5235V134.477C463.489 141.942 457.439 147.992 449.974 148ZM364.021 66C357.66 66.0072 352.505 71.1622 352.498 77.5235V134.477C352.505 140.838 357.66 145.993 364.021 146H449.974C456.335 145.993 461.49 140.838 461.498 134.477V77.5235C461.49 71.1622 456.335 66.0072 449.974 66L364.021 66Z" fill="#E6E6E6"/>
<path d="M389.489 82H366.498V84H389.489V82Z" fill="#E6E6E6"/>
<path d="M417.498 90H366.498V92H417.498V90Z" fill="#E6E6E6"/>
<path d="M417.498 97H366.498V99H417.498V97Z" fill="#E6E6E6"/>
<path d="M431.498 104H366.498V106H431.498V104Z" fill="#E6E6E6"/>
<path d="M400.498 111H366.498V113H400.498V111Z" fill="#E6E6E6"/>
<path d="M428.498 118H366.498V120H428.498V118Z" fill="#E6E6E6"/>
<path d="M377.498 125H366.498V127H377.498V125Z" fill="#E6E6E6"/>
<path d="M365.749 38.9583C365.652 38.9583 365.555 38.9207 365.482 38.8459L363.348 36.6647C363.206 36.5194 363.206 36.2871 363.348 36.1418L365.482 33.9608C365.626 33.8133 365.863 33.8109 366.01 33.955C366.158 34.0994 366.161 34.3362 366.016 34.4837L364.138 36.4033L366.016 38.3229C366.161 38.4705 366.158 38.7073 366.01 38.8517C365.938 38.9229 365.843 38.9583 365.749 38.9583V38.9583Z" fill="#CCCCCC"/>
<path d="M369.334 38.9583C369.24 38.9583 369.146 38.9229 369.073 38.8517C368.925 38.7073 368.923 38.4706 369.067 38.3229L370.945 36.4032L369.067 34.4837C368.923 34.3362 368.925 34.0994 369.073 33.9549C369.22 33.8103 369.457 33.8131 369.602 33.9608L371.735 36.1418C371.877 36.2871 371.877 36.5194 371.735 36.6647L369.602 38.8459C369.529 38.9207 369.432 38.9583 369.334 38.9583V38.9583Z" fill="#CCCCCC"/>
<path d="M480.958 33.5449H476.99C476.538 33.5449 476.171 33.9113 476.171 34.3638V38.335C476.171 38.7875 476.538 39.1539 476.99 39.1539H480.958C481.41 39.1539 481.78 38.7875 481.78 38.335V34.3638C481.78 33.9113 481.41 33.5449 480.958 33.5449Z" fill="#CCCCCC"/>
<path d="M471.236 33.5449H467.268C466.816 33.5449 466.449 33.9113 466.449 34.3638V38.335C466.449 38.7875 466.816 39.1539 467.268 39.1539H471.236C471.688 39.1539 472.058 38.7875 472.058 38.335V34.3638C472.058 33.9113 471.688 33.5449 471.236 33.5449Z" fill="#CCCCCC"/>
<path d="M490.119 33.7319H486.151C485.699 33.7319 485.333 34.0983 485.333 34.5508V38.522C485.333 38.9744 485.699 39.3409 486.151 39.3409H490.119C490.571 39.3409 490.942 38.9744 490.942 38.522V34.5508C490.942 34.0983 490.571 33.7319 490.119 33.7319Z" fill="#CCCCCC"/>
<path d="M430.319 35.2426H398.605C398.052 35.2426 397.607 35.6913 397.607 36.241C397.607 36.7907 398.052 37.2394 398.605 37.2394H430.319C430.868 37.2394 431.317 36.7906 431.317 36.241C431.317 35.6913 430.868 35.2426 430.319 35.2426Z" fill="#CCCCCC"/>
</g>
<defs>
<clipPath id="clip0_111_877">
<rect width="802.611" height="507.219" fill="white"/>
</clipPath>
</defs>
</svg>
