<svg width="590" height="582" viewBox="0 0 590 582" fill="none" xmlns="http://www.w3.org/2000/svg">
<path d="M298.116 582C418.834 582 516.695 565.636 516.695 545.449C516.695 525.263 418.834 508.899 298.116 508.899C177.398 508.899 79.5366 525.263 79.5366 545.449C79.5366 565.636 177.398 582 298.116 582Z" fill="#3F3D56"/>
<path d="M115.954 201.173C115.954 147.924 198.54 104.758 300.415 104.758C402.29 104.758 484.877 147.924 484.877 201.173" stroke="#3F3D56" stroke-width="2" stroke-miterlimit="10"/>
<path d="M358.416 141.881H208.347C178.665 94.5871 178.665 47.2935 208.347 0H358.416C316.914 47.2935 316.914 94.5871 358.416 141.881Z" fill="#E6E6E6"/>
<path d="M314.348 16.8906H229.785V27.0249H314.348V16.8906Z" fill="#FF4000"/>
<path d="M314.348 50.1086H202.392V53.4868H314.348V50.1086Z" fill="white"/>
<path d="M314.348 67.5622H202.392V70.9403H314.348V67.5622Z" fill="white"/>
<path d="M314.348 85.0157H202.392V88.3939H314.348V85.0157Z" fill="white"/>
<path d="M418.331 455.942C418.331 500.939 448.189 537.349 485.088 537.349L418.331 455.942Z" fill="#3F3D56"/>
<path d="M485.088 537.349C485.088 491.847 518.408 455.027 559.584 455.027L485.088 537.349Z" fill="#FF4000"/>
<path d="M442.519 460.021C442.519 502.763 461.558 537.35 485.088 537.35L442.519 460.021Z" fill="#FF4000"/>
<path d="M485.088 537.35C485.088 479.208 523.6 432.16 571.194 432.16L485.088 537.35Z" fill="#3F3D56"/>
<path d="M471.044 537.923C471.044 537.923 480.511 537.648 483.364 535.727C486.217 533.806 497.927 531.512 498.635 534.593C499.343 537.674 512.862 549.915 502.174 549.996C491.486 550.078 477.339 548.422 474.491 546.782C471.644 545.142 471.044 537.923 471.044 537.923Z" fill="#A8A8A8"/>
<path opacity="0.2" d="M502.365 548.924C491.676 549.005 477.53 547.35 474.682 545.71C472.513 544.461 471.649 539.979 471.36 537.912C471.16 537.92 471.044 537.924 471.044 537.924C471.044 537.924 471.644 545.142 474.491 546.782C477.339 548.422 491.486 550.078 502.174 549.996C505.259 549.973 506.325 548.935 506.266 547.398C505.838 548.326 504.661 548.906 502.365 548.924Z" fill="black"/>
<path d="M266.034 110.834C266.903 111.211 267.949 110.649 268.461 109.886C270.412 106.98 266.82 103.233 267.598 99.8703C268.221 97.1765 271.459 95.5776 272.121 92.892C272.764 90.2825 270.782 87.3412 272.122 84.98C273.171 83.1302 275.793 82.6434 277.987 82.9675C280.18 83.2915 282.263 84.2033 284.479 84.331C287.432 84.5012 290.247 83.2722 293.135 82.6632C296.022 82.0542 299.545 82.2927 301.243 84.5828C303.425 87.5234 301.212 91.6181 301.972 95.1372C302.575 97.9316 305.049 100.245 305.102 103.097C305.121 104.111 302.303 103.294 302.453 104.298C302.602 105.302 301.27 104.418 302.335 104.298C302.77 104.198 303.16 103.969 303.448 103.645C303.736 103.321 303.907 102.919 303.938 102.497C304.064 101.661 305.726 101.382 305.707 100.538C305.662 98.5587 309.446 99.893 310.069 98.0034C311.502 93.5985 311.208 88.8528 309.241 84.6362C308.392 82.836 307.236 81.1324 306.827 79.1999C306.271 76.5761 307.146 73.7595 306.229 71.2279C304.993 67.8163 300.905 66.0771 297.109 65.7238C293.313 65.3706 289.455 66.0029 285.681 65.482C282.3 65.0154 279.027 63.63 275.616 63.8308C271.524 64.0716 267.963 66.5643 265.127 69.3632C262.29 72.162 259.884 75.3811 256.662 77.7788C255.676 78.4205 254.766 79.1611 253.948 79.9878C252.308 81.8783 252.141 84.5713 252.598 86.9784C253.054 89.3855 254.047 91.6816 254.467 94.0947C254.861 96.3624 254.739 98.6793 254.909 100.972C255.079 103.264 255.582 105.626 257.042 107.464C257.627 108.214 258.385 108.828 259.259 109.26C260.133 109.692 261.099 109.929 262.085 109.954C262.768 109.969 263.344 109.389 264.034 109.54C264.895 109.729 265.27 110.503 266.034 110.834Z" fill="#2F2E41"/>
<path d="M236.828 277.439L239.359 292.138L244.421 285.642L241.528 275.729L236.828 277.439Z" fill="#A0616A"/>
<path d="M240.082 166.341L236.097 176.271C236.097 176.271 232.128 226.847 232.128 230.607C232.128 234.367 235.02 282.566 236.105 284.617C236.105 284.617 240.805 278.122 246.952 279.148C253.099 280.173 250.568 262.056 250.568 262.056L256.353 217.275L255.268 194.714L240.082 166.341Z" fill="#575A89"/>
<path opacity="0.1" d="M240.082 166.341L236.097 176.271C236.097 176.271 232.128 226.847 232.128 230.607C232.128 234.367 235.02 282.566 236.105 284.617C236.105 284.617 240.805 278.122 246.952 279.148C253.099 280.173 250.568 262.056 250.568 262.056L256.353 217.275L255.268 194.714L240.082 166.341Z" fill="black"/>
<path d="M264.669 111.647C264.669 111.647 276.601 140.362 269.731 145.831C262.861 151.301 308.057 136.601 308.057 136.601L306.972 132.841C306.972 132.841 292.148 127.372 299.379 111.647C306.611 95.9228 264.669 111.647 264.669 111.647Z" fill="#A0616A"/>
<path opacity="0.1" d="M264.669 111.647C264.669 111.647 276.601 140.362 269.731 145.831C262.861 151.301 308.057 136.601 308.057 136.601L306.972 132.841C306.972 132.841 292.148 127.372 299.379 111.647C306.611 95.9228 264.669 111.647 264.669 111.647Z" fill="black"/>
<path d="M245.867 495.19C245.867 495.19 240.805 493.822 237.913 497.241C235.02 500.659 224.173 509.205 224.173 509.205C224.173 509.205 203.202 507.154 200.31 517.067C197.417 526.981 233.212 526.98 241.89 524.588C250.568 522.195 252.376 524.588 252.376 524.588C252.376 524.588 279.132 526.639 279.132 522.537C279.132 518.434 276.601 504.419 276.601 504.419L245.867 495.19Z" fill="#575A89"/>
<path d="M330.836 518.093L326.135 531.766C326.135 531.766 312.034 550.225 319.989 553.986C327.943 557.746 356.145 561.506 356.145 551.593V532.792C356.145 532.792 353.253 519.46 350.36 518.093C347.468 516.725 330.836 518.093 330.836 518.093Z" fill="#575A89"/>
<path d="M250.988 272.437C250.988 272.437 235.743 284.959 236.105 286.668C236.467 288.378 243.698 398.108 243.698 398.108L247.675 469.21C247.675 469.21 242.613 485.96 245.144 489.72C247.675 493.48 241.528 494.506 241.528 494.506C241.528 494.506 267.561 516.725 278.408 507.154L288.532 383.067L316.373 473.312C316.373 473.312 321.073 521.169 326.497 521.169C331.92 521.169 353.976 522.195 353.614 519.46C353.253 516.725 354.699 495.873 352.168 483.567C349.637 471.261 332.643 373.837 332.643 373.837C332.643 373.837 331.182 290.317 334.986 282.511C338.79 274.704 333.005 266.5 333.005 266.5L307.695 257.27L277.324 260.689L250.988 272.437Z" fill="#2F2E41"/>
<path d="M281.663 123.27C295.641 123.27 306.972 112.557 306.972 99.3411C306.972 86.1257 295.641 75.4125 281.663 75.4125C267.685 75.4125 256.353 86.1257 256.353 99.3411C256.353 112.557 267.685 123.27 281.663 123.27Z" fill="#A0616A"/>
<path d="M343.129 150.959C341.879 147.614 339.771 144.615 336.995 142.229C334.219 139.842 330.861 138.144 327.22 137.285C319.927 135.551 312.793 133.264 305.888 130.448C305.888 130.448 280.216 142.071 275.154 142.071C270.093 142.071 270.093 138.994 270.093 138.994C270.093 138.994 257.076 151.984 250.206 153.352C243.337 154.719 233.213 170.785 236.828 179.673C239.284 185.371 242.84 190.587 247.314 195.056C247.314 195.056 245.868 242.913 250.568 251.801C250.568 251.801 238.998 272.653 249.845 274.02C260.692 275.388 302.272 270.602 309.503 275.388C316.735 280.173 330.113 274.362 331.921 280.857C333.728 287.352 337.706 288.719 337.706 288.719C337.706 288.719 343.852 279.49 340.237 274.02C336.621 268.551 343.129 150.959 343.129 150.959Z" fill="#575A89"/>
<path d="M316.373 279.49L310.588 282.908C310.588 282.908 316.735 303.077 319.266 303.76C321.796 304.444 327.754 286.515 327.754 286.515L316.373 279.49Z" fill="#A0616A"/>
<path d="M261.695 108.441C262.565 108.818 263.61 108.256 264.122 107.493C266.073 104.587 262.481 100.84 263.259 97.4775C263.882 94.7836 267.12 93.1847 267.782 90.4991C268.425 87.8896 266.443 84.9483 267.783 82.5871C268.832 80.7373 271.454 80.2505 273.648 80.5746C275.842 80.8986 277.924 81.8104 280.14 81.9381C283.093 82.1083 285.908 80.8793 288.796 80.2703C291.684 79.6613 295.206 79.8998 296.905 82.1899C299.086 85.1305 296.873 89.2252 297.633 92.7443C298.236 95.5387 305.107 97.5001 305.73 95.6105C307.163 91.2056 306.869 86.4599 304.902 82.2433C304.053 80.4432 302.898 78.7395 302.488 76.807C301.932 74.1833 302.807 71.3666 301.89 68.835C300.654 65.4234 296.566 63.6842 292.77 63.331C288.974 62.9777 285.116 63.61 281.342 63.0892C277.961 62.6226 274.688 61.2372 271.278 61.4379C267.185 61.6787 263.625 64.1715 260.788 66.9703C257.951 69.7692 255.545 72.9883 252.324 75.386C251.337 76.0276 250.427 76.7683 249.61 77.595C247.969 79.4854 247.802 82.1785 248.259 84.5855C248.715 86.9926 249.708 89.2887 250.128 91.7018C250.522 93.9696 250.4 96.2864 250.57 98.579C250.74 100.872 251.243 103.234 252.704 105.071C253.288 105.821 254.046 106.436 254.92 106.867C255.794 107.299 256.761 107.536 257.746 107.561C258.429 107.576 259.006 106.996 259.695 107.147C260.556 107.337 260.931 108.11 261.695 108.441Z" fill="#2F2E41"/>
<path opacity="0.1" d="M328.847 156.941L340.598 150.959C340.598 150.959 369.162 215.224 362.292 233C355.423 250.775 329.028 287.352 329.028 287.352C329.028 287.352 308.057 283.25 310.227 279.148C312.396 275.046 326.497 248.724 327.582 245.306C328.667 241.888 335.898 219.668 332.644 217.275C329.39 214.882 323.062 159.334 323.062 159.334L328.847 156.941Z" fill="black"/>
<path d="M328.666 147.198L343.129 150.959C343.129 150.959 371.693 215.224 364.823 233C357.953 250.775 331.559 287.352 331.559 287.352C331.559 287.352 310.588 283.25 312.758 279.148C314.927 275.046 329.028 248.724 330.113 245.306C331.197 241.888 338.429 219.668 335.175 217.275C331.921 214.882 316.373 155.744 316.373 155.744L328.666 147.198Z" fill="#575A89"/>
<path d="M484.877 201.173C484.877 257.001 402.29 302.258 300.415 302.258C198.54 302.258 115.954 257.001 115.954 201.173" stroke="#3F3D56" stroke-width="2" stroke-miterlimit="10"/>
<path d="M451.324 303.693C410.092 324.717 356.292 337.44 297.44 337.44C241.014 337.44 189.231 325.744 148.717 306.249" stroke="#3F3D56" stroke-width="2" stroke-miterlimit="10"/>
<path d="M392.534 78.6584C471.002 98.1575 526.887 141.049 532.084 191.565" stroke="#3F3D56" stroke-width="2" stroke-miterlimit="10"/>
<path d="M73.7246 158.731C86.9461 135.756 111.099 115.537 142.745 100.004" stroke="#3F3D56" stroke-width="2" stroke-miterlimit="10"/>
<path d="M235.945 404.664H386.014C415.696 357.37 415.696 310.076 386.014 262.783H235.945C277.447 310.076 277.447 357.37 235.945 404.664Z" fill="#F2F2F2"/>
<path d="M370.162 289.808H285.6V299.942H370.162V289.808Z" fill="#FF4000"/>
<path d="M391.005 320.211H279.049V323.589H391.005V320.211Z" fill="white"/>
<path d="M391.005 337.664H279.049V341.042H391.005V337.664Z" fill="white"/>
<path d="M172.33 308.361H22.2611C-7.42038 261.068 -7.42038 213.774 22.2611 166.481H172.33C130.829 213.774 130.829 261.068 172.33 308.361Z" fill="#F2F2F2"/>
<path d="M123.498 183.371H38.9355V193.506H123.498V183.371Z" fill="#FF4000"/>
<path d="M132.431 211.522H20.4746V214.9H132.431V211.522Z" fill="white"/>
<path d="M132.431 228.976H20.4746V232.354H132.431V228.976Z" fill="white"/>
<path d="M132.431 246.429H20.4746V249.807H132.431V246.429Z" fill="white"/>
<path d="M132.431 263.883H20.4746V267.261H132.431V263.883Z" fill="white"/>
<path d="M417.669 243.006H567.739C597.42 195.713 597.42 148.419 567.739 101.126H417.669C459.171 148.419 459.171 195.713 417.669 243.006Z" fill="#F2F2F2"/>
<path d="M550.1 115.201H465.538V125.335H550.1V115.201Z" fill="#FF4000"/>
<path d="M568.561 143.352H456.605V146.73H568.561V143.352Z" fill="white"/>
</svg>
