<svg width="810" height="403" viewBox="0 0 810 403" fill="none" xmlns="http://www.w3.org/2000/svg">
<g clip-path="url(#clip0_113_198)">
<path d="M266.749 402.282C242.308 402.282 217.904 401.849 193.536 400.982C158.717 399.743 122.712 398.462 89.2471 380.074C65.837 367.211 45.1037 346.575 29.2893 320.394C18.7191 302.649 10.9687 283.397 6.31008 263.316C-2.37999 226.756 -2.08399 188.662 7.17317 152.238C10.4172 139.75 14.8894 127.607 20.5255 115.984C44.9301 65.9154 89.4423 32.3059 142.649 23.7737C143.089 23.7172 143.533 23.7078 143.974 23.7457C144.214 23.7584 144.452 23.772 144.695 23.7619L145.008 23.6633C145.811 23.387 146.635 23.1774 147.473 23.0367C229.532 10.9338 316.28 35.4222 398.333 93.8526C461.776 139.037 545.856 163.368 655.378 168.236L656.933 168.317C687.422 170.052 716.913 182.505 742.223 204.331C767.204 225.874 785.96 254.616 796.465 287.451C797.756 291.454 798.94 295.621 799.983 299.836C800.954 303.752 800.886 307.851 799.784 311.734C798.682 315.617 796.585 319.151 793.696 321.992V322L793.423 322.278C792.767 322.925 792.076 323.545 791.369 324.123L790.539 324.801C783.54 330.513 778.012 335.026 771.395 338.53C766.983 340.852 762.29 342.607 757.429 343.754C730.74 350.201 703.637 356.177 676.872 361.519C624.894 371.902 571.546 380.468 518.31 386.977C434.852 397.172 350.84 402.284 266.749 402.282ZM143.352 25.519C143.189 25.5174 143.025 25.5284 142.863 25.5518C90.154 34.0043 46.0632 67.2838 21.9006 116.856C16.3201 128.365 11.8922 140.387 8.68043 152.752C-0.492381 188.853 -0.784693 226.608 7.82807 262.844C12.4411 282.733 20.1164 301.8 30.5845 319.376C46.2441 345.3 66.7654 365.73 89.9301 378.456C123.095 396.68 158.929 397.955 193.585 399.187C301.974 403.024 410.5 398.344 518.142 385.192C571.344 378.687 624.657 370.128 676.601 359.751C703.347 354.413 730.432 348.441 757.103 341.998C761.846 340.88 766.427 339.167 770.733 336.902C777.216 333.468 782.691 328.999 789.623 323.341L790.454 322.664C791.061 322.167 791.657 321.636 792.227 321.084L792.391 320.914C798.088 315.225 800.303 307.72 798.469 300.324V300.323C797.437 296.153 796.266 292.031 794.987 288.069C773.529 220.993 718.019 173.59 656.858 170.11L655.312 170.029C605.283 167.805 561.505 161.644 521.48 151.193C473.7 138.717 431.987 119.937 397.5 95.3748C315.759 37.1683 229.374 12.7711 147.673 24.8166C146.91 24.947 146.159 25.1399 145.428 25.3932L144.864 25.5496C144.543 25.5638 144.222 25.56 143.902 25.5382C143.713 25.5286 143.531 25.519 143.352 25.519H143.352Z" fill="#F0F0F0"/>
<path d="M253.011 131.068C250.748 128.918 248.434 116.924 245.545 115.707C247.705 120.435 246.137 121.686 246.125 126.875C246.153 129.822 245.805 132.76 245.092 135.62H196.157V97.7845C196.157 94.3849 196.833 91.0186 198.146 87.8777C199.459 84.7369 201.384 81.883 203.81 79.4792C206.237 77.0753 209.117 75.1684 212.287 73.8675C215.458 72.5665 218.856 71.897 222.287 71.8971C223.597 71.9225 224.898 72.1112 226.16 72.4589C230.366 73.5839 234.2 75.785 237.276 78.8412C240.352 81.8975 242.564 85.7015 243.688 89.8716C247.418 103.381 253.351 125.867 253.011 131.068Z" fill="#2F2E41"/>
<path d="M199.028 177.613L199.052 148.123L181.554 149.672L187.73 168.271L184.84 215.022C183.438 215.334 182.158 216.043 181.156 217.062C180.154 218.082 179.473 219.369 179.196 220.765C178.92 222.162 179.059 223.608 179.598 224.928C180.136 226.247 181.051 227.383 182.229 228.196C183.408 229.01 184.8 229.466 186.236 229.509C187.672 229.552 189.09 229.18 190.316 228.439C191.542 227.698 192.525 226.619 193.143 225.334C193.761 224.049 193.989 222.614 193.798 221.204L199.028 177.613Z" fill="#FFB6B6"/>
<path d="M233.463 388.353L240.532 388.352L243.895 361.339H233.461L233.463 388.353Z" fill="#FFB6B6"/>
<path d="M231.069 384.898L242.244 384.237V388.98L252.868 396.25C253.393 396.609 253.788 397.124 253.996 397.722C254.204 398.319 254.214 398.966 254.024 399.57C253.834 400.173 253.455 400.7 252.941 401.074C252.427 401.449 251.806 401.651 251.169 401.651H237.865L235.572 396.959L234.676 401.651H229.66L231.069 384.898Z" fill="#2F2E41"/>
<path d="M192.589 388.353L199.658 388.352L203.021 361.339H192.588L192.589 388.353Z" fill="#FFB6B6"/>
<path d="M190.195 384.898L201.37 384.237V388.98L211.994 396.25C212.519 396.609 212.914 397.124 213.122 397.722C213.33 398.319 213.34 398.966 213.15 399.57C212.96 400.173 212.581 400.7 212.067 401.074C211.553 401.449 210.932 401.651 210.295 401.651H196.991L194.698 396.959L193.802 401.651H188.786L190.195 384.898Z" fill="#2F2E41"/>
<path d="M227.168 116.276L212.524 116.56L202.187 127.37L193.9 128.574C190.151 129.119 186.704 130.922 184.136 133.682C181.568 136.442 180.034 139.992 179.79 143.738L181.226 151.551H189.84L194.823 180.539C192.886 185.431 192.754 189.292 196.731 190.808L209.078 213.851L245.545 197.636C247.395 194.486 247.987 191.322 246.097 188.246L248.704 143.87H257.469C257.469 135.57 254.636 128.573 246.31 127.65C243.004 127.295 239.682 127.107 236.357 127.086L227.168 116.276Z" fill="#E6E6E6"/>
<path d="M245.545 197.636C245.545 197.636 209.939 203.894 196.731 190.809C196.731 190.809 195.39 193.064 193.369 196.804C192.788 197.88 191.666 198.609 190.988 199.912C190.372 201.096 188.788 202.552 188.117 203.895C187.577 204.975 188.443 206.387 187.881 207.555C181.117 221.611 173.214 241.439 174.908 254.531C176.001 262.975 178.257 282.621 180.634 303.723C180.82 305.371 179.316 307.489 179.502 309.151C179.678 310.718 181.545 311.828 181.721 313.399C181.838 314.442 180.534 315.506 180.651 316.547C180.779 317.69 182.327 318.81 182.454 319.949C185.71 349.085 188.691 376.288 188.691 376.288H205.345L208.487 314.16L205.919 291.513L211.949 245.713L220.276 289.238L221.347 313.734L230.148 377.426H245.545V315.768L246.693 312.565L245.545 308.457L246.693 304.03L245.545 299.21V197.636Z" fill="#2F2E41"/>
<path d="M231.663 107.862C229.394 110.848 226.167 112.979 222.513 113.904C218.859 114.83 214.996 114.495 211.559 112.955C208.123 111.414 205.318 108.761 203.607 105.43C201.897 102.1 201.382 98.2917 202.147 94.6327C202.913 90.9737 204.914 87.6822 207.82 85.3001C210.726 82.9181 214.364 81.5877 218.136 81.5279C221.907 81.4681 225.586 82.6825 228.568 84.9712C231.549 87.2598 233.655 90.4863 234.539 94.1191C234.587 94.3162 234.627 94.5122 234.666 94.7157C235.133 96.9928 235.106 99.342 234.589 101.608C234.071 103.874 233.074 106.006 231.663 107.862Z" fill="#FFB6B6"/>
<path d="M228.202 98.4786C227.849 96.7277 226.959 95.1277 225.652 93.8985C225.781 95.5765 225.546 97.2623 224.963 98.8428C220.597 99.2258 216.211 98.3652 212.323 96.3622C209.394 94.3936 205.667 94.5642 201.325 96.3622C201.325 94.27 201.741 92.1983 202.549 90.2654C203.357 88.3325 204.541 86.5762 206.034 85.0969C207.527 83.6175 209.3 82.4441 211.251 81.6436C213.202 80.8431 215.293 80.4312 217.405 80.4314H220.276C224.541 80.4322 228.63 82.1109 231.646 85.0983C234.661 88.0857 236.356 92.1373 236.356 96.3622C233.706 97.3039 230.977 98.0121 228.202 98.4786Z" fill="#2F2E41"/>
<path d="M102.579 301.522C128.092 301.522 148.775 281.031 148.775 255.755C148.775 230.479 128.092 209.988 102.579 209.988C77.0666 209.988 56.3843 230.479 56.3843 255.755C56.3843 281.031 77.0666 301.522 102.579 301.522Z" fill="#F0F0F0"/>
<path d="M396.961 91.5334C422.474 91.5334 443.156 71.0429 443.156 45.7667C443.156 20.4904 422.474 0 396.961 0C371.448 0 350.766 20.4904 350.766 45.7667C350.766 71.0429 371.448 91.5334 396.961 91.5334Z" fill="#F0F0F0"/>
<path d="M763.805 308.701C789.317 308.701 810 288.21 810 262.934C810 237.658 789.317 217.167 763.805 217.167C738.292 217.167 717.609 237.658 717.609 262.934C717.609 288.21 738.292 308.701 763.805 308.701Z" fill="#F0F0F0"/>
<path d="M480.293 50.7578V154.537C480.293 156.693 479.435 158.761 477.905 160.294C476.374 161.826 474.295 162.698 472.12 162.72C472.09 162.724 472.059 162.725 472.029 162.724H459.837C450.083 162.724 440.727 158.885 433.83 152.051C426.932 145.217 423.057 135.949 423.057 126.284V50.7577C423.057 48.5864 423.927 46.5039 425.477 44.9685C427.027 43.4331 429.129 42.5705 431.32 42.5705H436.261C433.972 49.1849 465.033 51.9696 466.739 42.5705H472.029C474.221 42.5706 476.323 43.4331 477.873 44.9685C479.423 46.5039 480.293 48.5864 480.293 50.7578Z" fill="#FF4000"/>
<path d="M444.113 34.8103C444.114 34.5258 444.228 34.2531 444.431 34.052C444.634 33.8508 444.909 33.7377 445.196 33.7373H452.561C452.847 33.7381 453.122 33.8515 453.325 34.0527C453.527 34.2538 453.641 34.5263 453.641 34.8103C453.641 35.0943 453.527 35.3668 453.325 35.5679C453.122 35.769 452.847 35.8824 452.561 35.8832H445.196C444.909 35.8829 444.634 35.7698 444.431 35.5686C444.228 35.3675 444.114 35.0947 444.113 34.8103Z" fill="#3F3D56"/>
<path d="M474.559 175.888H427.987C424.374 175.884 420.91 174.46 418.355 171.929C415.8 169.397 414.363 165.965 414.358 162.386V89.8398C414.103 89.6579 413.894 89.4182 413.751 89.1406C413.607 88.863 413.533 88.5555 413.533 88.2436V80.9475C413.533 80.6356 413.607 80.3282 413.751 80.0506C413.894 79.7731 414.103 79.5335 414.358 79.3516V77.3934C414.103 77.2116 413.894 76.9719 413.751 76.6944C413.607 76.4169 413.533 76.1094 413.533 75.7976V68.5011C413.533 68.1892 413.607 67.8818 413.751 67.6042C413.894 67.3267 414.103 67.0871 414.358 66.9052V63.3661C414.043 63.1981 413.779 62.9482 413.595 62.6432C413.412 62.3382 413.315 61.9895 413.316 61.6344V54.3383C413.315 53.9832 413.412 53.6344 413.595 53.3293C413.779 53.0243 414.043 52.7743 414.358 52.6062V42.9085C414.363 39.3287 415.8 35.8968 418.355 33.3656C420.91 30.8343 424.374 29.4105 427.987 29.4065H474.559C478.172 29.4106 481.636 30.8344 484.191 33.3656C486.746 35.8969 488.184 39.3288 488.188 42.9085V64.0474C488.433 64.1996 488.635 64.411 488.776 64.6618C488.916 64.9127 488.99 65.1948 488.99 65.4816V79.3937C488.99 79.6806 488.916 79.9627 488.776 80.2136C488.635 80.4646 488.433 80.6761 488.188 80.8283V162.386C488.184 165.965 486.746 169.397 484.191 171.929C481.636 174.46 478.172 175.884 474.559 175.888ZM427.987 31.2013C424.854 31.2048 421.851 32.4393 419.635 34.6341C417.42 36.8288 416.174 39.8046 416.17 42.9085V54.1328L415.299 54.1661C415.253 54.1677 415.21 54.1865 415.179 54.2185C415.147 54.2506 415.129 54.2934 415.128 54.3383V61.6343C415.129 61.6792 415.147 61.722 415.179 61.754C415.211 61.786 415.253 61.8048 415.299 61.8066L416.17 61.8394V68.1654L415.481 68.3336C415.443 68.3428 415.409 68.3641 415.384 68.3944C415.359 68.4247 415.346 68.4622 415.345 68.501V75.7976C415.346 75.8364 415.359 75.8739 415.384 75.9042C415.409 75.9345 415.443 75.9558 415.481 75.9649L416.17 76.1332V80.6118L415.481 80.78C415.443 80.7892 415.409 80.8105 415.384 80.8408C415.359 80.8711 415.346 80.9086 415.345 80.9475V88.2435C415.345 88.2825 415.359 88.32 415.384 88.3504C415.409 88.3808 415.443 88.4022 415.481 88.4113L416.17 88.5796V162.386C416.174 165.49 417.42 168.465 419.635 170.66C421.851 172.855 424.854 174.089 427.987 174.093H474.559C477.692 174.089 480.696 172.855 482.911 170.66C485.126 168.465 486.372 165.49 486.376 162.386V79.2916H487.178V65.5841H486.376V42.9085C486.372 39.8046 485.126 36.8289 482.911 34.6341C480.696 32.4394 477.692 31.2048 474.559 31.2013L427.987 31.2013Z" fill="#3F3D56"/>
<path d="M456.676 35.8832C457.274 35.8832 457.759 35.4029 457.759 34.8103C457.759 34.2177 457.274 33.7373 456.676 33.7373C456.078 33.7373 455.593 34.2177 455.593 34.8103C455.593 35.4029 456.078 35.8832 456.676 35.8832Z" fill="#3F3D56"/>
<path d="M221.085 242.656H99.9021C98.1812 242.651 96.532 241.972 95.3151 240.767C94.0981 239.561 93.4124 237.927 93.4077 236.222V177.723C93.4121 176.018 94.0977 174.384 95.3145 173.178C96.5313 171.973 98.1803 171.293 99.9013 171.289H221.084C222.805 171.293 224.454 171.972 225.671 173.178C226.888 174.383 227.574 176.017 227.578 177.722V236.222C227.574 237.927 226.888 239.56 225.672 240.766C224.455 241.972 222.806 242.651 221.085 242.656Z" fill="white"/>
<path d="M221.085 242.656H99.9021C98.1812 242.651 96.532 241.972 95.3151 240.767C94.0981 239.561 93.4124 237.927 93.4077 236.222V177.723C93.4121 176.018 94.0977 174.384 95.3145 173.178C96.5313 171.973 98.1803 171.293 99.9013 171.289H221.084C222.805 171.293 224.454 171.972 225.671 173.178C226.888 174.383 227.574 176.017 227.578 177.722V236.222C227.574 237.927 226.888 239.56 225.672 240.766C224.455 241.972 222.806 242.651 221.085 242.656ZM99.9021 173.083C98.6611 173.087 97.472 173.577 96.5946 174.447C95.7171 175.316 95.2227 176.494 95.2193 177.724V236.222C95.2229 237.451 95.7175 238.629 96.5951 239.498C97.4728 240.368 98.662 240.858 99.903 240.861H221.083C222.324 240.858 223.514 240.368 224.391 239.498C225.269 238.629 225.763 237.45 225.767 236.221V177.723C225.763 176.493 225.269 175.315 224.391 174.446C223.513 173.577 222.324 173.087 221.083 173.083L99.9021 173.083Z" fill="#3F3D56"/>
<path d="M166.988 234.01C143.088 234.01 118.167 233.784 108.869 233.637C107.645 233.612 106.48 233.115 105.622 232.25C104.764 231.386 104.282 230.223 104.277 229.011V180.587C104.277 180.153 104.451 179.736 104.761 179.429C105.07 179.122 105.49 178.948 105.928 178.947H215.054C215.492 178.947 215.912 179.12 216.222 179.426C216.532 179.733 216.707 180.148 216.709 180.582V213.438C216.688 218.801 214.547 223.942 210.744 227.759C206.941 231.576 201.78 233.765 196.367 233.855C187.701 233.967 177.44 234.01 166.988 234.01Z" fill="#FF4000"/>
<path d="M208.576 210.419H109.973C109.147 210.417 108.342 210.163 107.667 209.691C106.992 209.22 106.48 208.554 106.201 207.785L95.0403 176.765C94.8253 176.167 94.7582 175.526 94.8449 174.897C94.9315 174.268 95.1693 173.668 95.5383 173.149C95.9073 172.63 96.3966 172.206 96.9653 171.913C97.534 171.62 98.1653 171.466 98.8063 171.465L222.059 171.295C222.645 171.294 223.224 171.421 223.755 171.666C224.286 171.911 224.756 172.269 225.133 172.713C225.509 173.158 225.783 173.679 225.934 174.24C226.085 174.801 226.11 175.388 226.008 175.959L226.103 175.999L225.749 176.817L225.745 176.825L212.254 208.014C211.946 208.728 211.434 209.337 210.78 209.765C210.126 210.192 209.36 210.42 208.576 210.419ZM222.065 173.089L98.8099 173.259C98.4587 173.26 98.1128 173.344 97.8013 173.505C97.4898 173.665 97.2217 173.897 97.0195 174.182C96.8174 174.466 96.6871 174.795 96.6396 175.139C96.5921 175.484 96.6288 175.835 96.7466 176.163L107.907 207.181C108.06 207.603 108.341 207.967 108.711 208.226C109.08 208.484 109.521 208.623 109.974 208.624H208.576C209.005 208.625 209.424 208.5 209.782 208.266C210.14 208.032 210.42 207.699 210.588 207.308L224.081 176.118L224.744 176.4L224.081 176.118C224.224 175.788 224.282 175.427 224.249 175.069C224.217 174.711 224.096 174.366 223.896 174.066C223.696 173.766 223.424 173.52 223.104 173.349C222.785 173.179 222.428 173.089 222.065 173.089Z" fill="#3F3D56"/>
<path d="M160.309 217.171C164.573 217.171 168.03 213.746 168.03 209.522C168.03 205.297 164.573 201.873 160.309 201.873C156.045 201.873 152.588 205.297 152.588 209.522C152.588 213.746 156.045 217.171 160.309 217.171Z" fill="white"/>
<path d="M451.973 150.765C456.237 150.765 459.694 147.34 459.694 143.115C459.694 138.891 456.237 135.466 451.973 135.466C447.709 135.466 444.252 138.891 444.252 143.115C444.252 147.34 447.709 150.765 451.973 150.765Z" fill="white"/>
<path d="M743.995 254.068L723.37 233.895C722.366 232.905 721.175 232.121 719.865 231.588C718.554 231.056 717.151 230.784 715.734 230.79H715.662C714.235 230.794 712.823 231.078 711.507 231.627C710.192 232.175 709 232.976 707.999 233.984C703.387 238.608 700.764 244.823 700.682 251.323C700.599 257.823 703.063 264.101 707.555 268.839C707.773 269.072 707.999 269.297 708.225 269.521C709.48 270.756 710.865 271.854 712.356 272.796C716.433 275.406 721.188 276.787 726.042 276.772H726.196C729.528 276.761 732.825 276.095 735.895 274.813C738.966 273.532 741.75 271.66 744.086 269.306C746.11 267.271 747.237 264.525 747.22 261.668C747.203 258.812 746.043 256.079 743.995 254.068ZM742.799 268.04C738.97 271.862 733.928 274.259 728.523 274.828C723.118 275.397 717.68 274.103 713.126 271.163C711.823 270.309 710.607 269.332 709.494 268.247C705.049 263.898 702.531 257.979 702.492 251.791C702.453 245.603 704.896 239.653 709.285 235.25C710.119 234.408 711.114 233.738 712.212 233.281C713.31 232.823 714.489 232.586 715.68 232.585H715.734C716.914 232.58 718.082 232.807 719.173 233.25C720.264 233.693 721.256 234.346 722.093 235.169L742.718 255.351C744.425 257.024 745.393 259.3 745.408 261.679C745.423 264.058 744.485 266.346 742.799 268.04Z" fill="#3F3D56"/>
<path d="M676.324 187.859L655.699 167.677C653.669 165.681 650.923 164.564 648.063 164.572H648C646.571 164.577 645.157 164.863 643.84 165.413C642.523 165.963 641.33 166.766 640.328 167.775C636.515 171.611 634.043 176.556 633.274 181.885C632.504 187.215 633.478 192.648 636.052 197.389L636.061 197.398C637.123 199.337 638.442 201.127 639.983 202.719C640.156 202.917 640.355 203.114 640.554 203.312C645.29 207.97 651.698 210.577 658.371 210.563H658.534C661.866 210.549 665.163 209.881 668.234 208.598C671.304 207.315 674.088 205.442 676.423 203.087C677.426 202.081 678.219 200.889 678.757 199.579C679.295 198.269 679.567 196.867 679.557 195.453C679.548 194.038 679.258 192.64 678.703 191.337C678.148 190.034 677.34 188.852 676.324 187.859V187.859ZM675.128 201.831C672.96 204.016 670.377 205.754 667.527 206.945C664.677 208.135 661.618 208.755 658.525 208.768H658.371C653.726 208.766 649.186 207.404 645.321 204.852C641.456 202.301 638.438 198.674 636.648 194.428C634.858 190.182 634.376 185.506 635.261 180.989C636.146 176.472 638.359 172.315 641.623 169.041C643.312 167.349 645.609 166.391 648.01 166.376C650.411 166.36 652.721 167.29 654.431 168.96L675.056 189.133C676.762 190.809 677.728 193.087 677.741 195.467C677.755 197.848 676.815 200.136 675.128 201.831L675.128 201.831Z" fill="#3F3D56"/>
<path d="M745.314 260.41L722.576 238.161C721.085 236.705 719.072 235.895 716.978 235.908C714.885 235.921 712.882 236.756 711.41 238.23C709.567 240.073 708.11 242.259 707.121 244.661C706.132 247.064 705.63 249.635 705.645 252.23C705.66 254.824 706.19 257.39 707.207 259.781C708.223 262.172 709.706 264.342 711.569 266.165C713.432 267.988 715.64 269.429 718.066 270.407C720.491 271.384 723.088 271.878 725.707 271.86C728.325 271.843 730.915 271.314 733.327 270.304C735.739 269.295 737.927 267.824 739.765 265.976L745.314 260.41Z" fill="#FF4000"/>
<path d="M677.646 194.197L654.908 171.948C653.417 170.492 651.404 169.682 649.31 169.695C647.217 169.708 645.214 170.543 643.742 172.017C641.899 173.861 640.442 176.046 639.453 178.448C638.464 180.851 637.962 183.423 637.977 186.017C637.992 188.611 638.522 191.178 639.539 193.569C640.555 195.96 642.038 198.129 643.901 199.952C645.764 201.775 647.972 203.216 650.398 204.194C652.823 205.171 655.42 205.665 658.039 205.648C660.657 205.63 663.247 205.101 665.659 204.092C668.072 203.082 670.259 201.611 672.097 199.763L677.646 194.197Z" fill="#FF4000"/>
<path d="M720.327 274.268L719.784 275.686C717.229 274.726 714.754 273.763 712.356 272.796C669.893 255.629 649.621 235.537 636.062 197.398L636.053 197.389C635.41 195.594 634.785 193.758 634.178 191.879L635.609 191.421C636.087 193.228 636.787 194.97 637.692 196.608C638.435 198.699 639.199 200.736 639.984 202.72C652.728 234.909 671.523 253.305 707.556 268.839C709.367 269.62 711.224 270.394 713.126 271.163C715.335 272.589 717.769 273.638 720.327 274.268Z" fill="#3F3D56"/>
<path d="M655.321 208.929L654.048 210.206L701.093 256.24L702.366 254.963L655.321 208.929Z" fill="#3F3D56"/>
<path d="M257.031 170.786L257.055 141.295L239.557 142.844L245.733 161.444L223.317 195.109C221.915 195.42 220.635 196.129 219.633 197.149C218.631 198.169 217.95 199.455 217.674 200.852C217.397 202.249 217.537 203.695 218.075 205.014C218.614 206.334 219.528 207.469 220.707 208.283C221.886 209.096 223.278 209.552 224.714 209.595C226.15 209.639 227.567 209.267 228.794 208.526C230.02 207.784 231.002 206.705 231.62 205.421C232.238 204.136 232.466 202.701 232.275 201.29L257.031 170.786Z" fill="#FFB6B6"/>
</g>
<defs>
<clipPath id="clip0_113_198">
<rect width="810" height="402.282" fill="white"/>
</clipPath>
</defs>
</svg>
