<svg width="510" height="368" viewBox="0 0 510 368" fill="none" xmlns="http://www.w3.org/2000/svg">
<g clip-path="url(#clip0_111_539)">
<path d="M480.105 2.43571H90.9322C90.9212 1.78624 90.6536 1.16702 90.1869 0.711441C89.7202 0.255859 89.0918 0.0003667 88.4371 0H73.1093C72.4546 0.000276711 71.8262 0.255733 71.3594 0.711334C70.8927 1.16693 70.6251 1.78621 70.6142 2.43571H66.8606C66.8497 1.78624 66.582 1.16702 66.1153 0.711441C65.6487 0.255859 65.0203 0.0003667 64.3655 0H49.0378C48.3831 0.0003667 47.7547 0.255859 47.288 0.711441C46.8213 1.16702 46.5537 1.78624 46.5427 2.43571H32.885C24.9591 2.44454 17.3603 5.57221 11.7558 11.1325C6.15123 16.6928 2.99863 24.2317 2.9896 32.0953V32.3873C2.94274 32.3846 2.89782 32.3733 2.84997 32.3733H2.49947C2.17124 32.3733 1.84621 32.4374 1.54296 32.5621C1.2397 32.6867 0.964156 32.8693 0.732058 33.0996C0.499959 33.3299 0.315849 33.6032 0.190242 33.9041C0.0646358 34.205 -9.24235e-06 34.5274 9.91106e-10 34.8531V63.859C-9.24235e-06 64.1847 0.0646358 64.5071 0.190242 64.808C0.315849 65.1088 0.499959 65.3822 0.732058 65.6125C0.964156 65.8428 1.2397 66.0254 1.54296 66.1501C1.84621 66.2747 2.17124 66.3388 2.49947 66.3388H2.84997C2.89783 66.3388 2.94274 66.3275 2.9896 66.3248V338.34C2.99863 346.204 6.15123 353.743 11.7558 359.303C17.3603 364.863 24.9591 367.991 32.885 368H480.105C488.031 367.991 495.63 364.863 501.234 359.303C506.839 353.743 509.991 346.204 510 338.34V32.0953C509.991 24.2318 506.839 16.693 501.234 11.1327C495.63 5.57235 488.031 2.44464 480.105 2.43571ZM501.002 338.34C500.996 343.837 498.792 349.107 494.874 352.993C490.957 356.88 485.645 359.066 480.105 359.073H32.885C27.3447 359.067 22.0331 356.88 18.1154 352.994C14.1977 349.107 11.994 343.837 11.9877 338.34V32.0953C11.994 26.5986 14.1977 21.3288 18.1154 17.4421C22.0331 13.5554 27.3447 11.3691 32.885 11.3629H480.105C485.645 11.3692 490.957 13.5555 494.874 17.4422C498.792 21.329 500.996 26.5987 501.002 32.0953V338.34Z" fill="#CCCCCC"/>
<path d="M480.105 364.032H32.8847C26.0191 364.025 19.4368 361.315 14.5821 356.499C9.72733 351.682 6.99652 345.152 6.98877 338.34V32.0953C6.99652 25.2837 9.72733 18.7533 14.5821 13.9368C19.4368 9.12027 26.0191 6.41098 32.8847 6.40332H480.105C486.97 6.41096 493.552 9.12022 498.407 13.9367C503.262 18.7532 505.993 25.2836 506.001 32.0952V338.34C505.993 345.152 503.262 351.682 498.407 356.499C493.552 361.315 486.97 364.025 480.105 364.032Z" fill="#E6E6E6"/>
<path d="M480.242 343.335H32.7479C31.2368 343.333 29.788 342.737 28.7195 341.677C27.651 340.616 27.05 339.179 27.0483 337.68V32.7554C27.05 31.2562 27.6511 29.8189 28.7196 28.7588C29.7881 27.6988 31.2368 27.1025 32.7479 27.1008H480.242C481.753 27.1025 483.201 27.6987 484.27 28.7588C485.339 29.8189 485.94 31.2562 485.941 32.7554V337.68C485.94 339.179 485.339 340.616 484.27 341.677C483.201 342.737 481.753 343.333 480.242 343.335Z" fill="white"/>
<path d="M17.1172 186.81C18.2989 186.81 19.2569 185.859 19.2569 184.687C19.2569 183.515 18.2989 182.564 17.1172 182.564C15.9355 182.564 14.9775 183.515 14.9775 184.687C14.9775 185.859 15.9355 186.81 17.1172 186.81Z" fill="white"/>
<path d="M195.286 67.4492H100.222C92.7646 67.4575 85.6152 70.4003 80.3421 75.6319C75.069 80.8634 72.1029 87.9565 72.0945 95.3551V103.88C71.8993 103.827 71.6944 103.819 71.4959 103.858C71.2973 103.897 71.1105 103.981 70.9503 104.104C70.7901 104.226 70.6609 104.384 70.5727 104.565C70.4846 104.746 70.44 104.944 70.4425 105.145V111.701C70.44 111.901 70.4846 112.1 70.5727 112.281C70.6609 112.461 70.7901 112.619 70.9503 112.742C71.1105 112.865 71.2973 112.949 71.4959 112.988C71.6944 113.026 71.8993 113.019 72.0945 112.966V122.892C71.8993 122.839 71.6944 122.831 71.4959 122.87C71.2973 122.909 71.1105 122.993 70.9503 123.115C70.7901 123.238 70.6608 123.396 70.5727 123.577C70.4846 123.757 70.44 123.956 70.4425 124.157V140.546C70.44 140.747 70.4846 140.946 70.5727 141.126C70.6608 141.307 70.7901 141.465 70.9503 141.588C71.1105 141.71 71.2973 141.794 71.4959 141.833C71.6944 141.872 71.8993 141.864 72.0945 141.811V147.804C71.8993 147.751 71.6944 147.743 71.4959 147.782C71.2973 147.821 71.1105 147.905 70.9503 148.027C70.7901 148.15 70.6608 148.308 70.5727 148.489C70.4846 148.669 70.44 148.868 70.4425 149.069V165.458C70.44 165.659 70.4845 165.857 70.5727 166.038C70.6608 166.219 70.7901 166.377 70.9503 166.5C71.1105 166.622 71.2973 166.706 71.4959 166.745C71.6944 166.784 71.8993 166.776 72.0945 166.723V339.798C72.1029 347.197 75.069 354.29 80.3421 359.521C85.6152 364.753 92.7646 367.696 100.222 367.704H195.286C202.743 367.696 209.893 364.753 215.166 359.521C220.439 354.29 223.405 347.197 223.413 339.798V95.3551C223.405 87.9565 220.439 80.8634 215.166 75.6319C209.893 70.4003 202.743 67.4575 195.286 67.4492ZM217.466 339.798C217.46 345.632 215.121 351.226 210.962 355.351C206.804 359.477 201.166 361.797 195.286 361.804H100.222C94.3413 361.797 88.7035 359.477 84.5453 355.351C80.3871 351.226 78.0481 345.632 78.0415 339.798V95.3551C78.0481 89.5208 80.3871 83.9274 84.5453 79.802C88.7035 75.6765 94.3413 73.356 100.222 73.3494H195.286C201.166 73.356 206.804 75.6765 210.962 79.802C215.121 83.9274 217.46 89.5208 217.466 95.3551V339.798Z" fill="#CCCCCC"/>
<path d="M195.286 365.082H100.222C93.4651 365.074 86.9875 362.408 82.21 357.668C77.4324 352.928 74.745 346.502 74.7373 339.798V95.3551C74.745 88.6518 77.4324 82.2252 82.2099 77.4853C86.9875 72.7453 93.4651 70.0791 100.222 70.0715H195.286C202.042 70.0791 208.52 72.7453 213.297 77.4853C218.075 82.2252 220.762 88.6518 220.77 95.3551V339.798C220.762 346.501 218.075 352.928 213.297 357.668C208.52 362.408 202.042 365.074 195.286 365.082Z" fill="#E6E6E6"/>
<path d="M197.635 361.148H97.8727C93.3157 361.143 88.9469 359.345 85.7246 356.148C82.5023 352.951 80.6898 348.617 80.6846 344.096V91.0577C80.6897 86.5366 82.5023 82.2021 85.7246 79.0052C88.9468 75.8083 93.3157 74.0101 97.8726 74.0049H110.883C111.636 74.0058 112.358 74.303 112.891 74.8314C113.423 75.3598 113.723 76.0762 113.724 76.8235C113.726 79.031 114.611 81.1474 116.184 82.7083C117.758 84.2693 119.891 85.1473 122.116 85.1498H172.07C174.295 85.1473 176.428 84.2693 178.002 82.7084C179.575 81.1474 180.46 79.031 180.463 76.8235C180.463 76.0762 180.763 75.3598 181.296 74.8314C181.828 74.303 182.55 74.0058 183.303 74.0049H197.635C202.192 74.0101 206.561 75.8083 209.783 79.0052C213.005 82.2021 214.818 86.5366 214.823 91.0577V344.096C214.818 348.617 213.005 352.951 209.783 356.148C206.561 359.345 202.192 361.143 197.635 361.148Z" fill="white"/>
<path d="M152.049 79.7413H140.155C139.804 79.7413 139.468 79.6031 139.22 79.3572C138.972 79.1114 138.833 78.7778 138.833 78.4301C138.833 78.0824 138.972 77.7489 139.22 77.503C139.468 77.2571 139.804 77.119 140.155 77.119H152.049C152.399 77.1198 152.734 77.2583 152.981 77.5041C153.228 77.7499 153.367 78.0829 153.367 78.4301C153.367 78.7773 153.228 79.1104 152.981 79.3562C152.734 79.602 152.399 79.7405 152.049 79.7413Z" fill="white"/>
<path d="M160.309 79.4135C160.674 79.4135 160.97 79.1199 160.97 78.7579C160.97 78.3958 160.674 78.1023 160.309 78.1023C159.944 78.1023 159.648 78.3958 159.648 78.7579C159.648 79.1199 159.944 79.4135 160.309 79.4135Z" fill="white"/>
<path d="M160.979 141.358L161.116 144.409C176.833 143.71 195.031 145.069 214.401 148.276V145.183C195.002 142.001 176.762 140.657 160.979 141.358Z" fill="#CCCCCC"/>
<path d="M141.436 201.098C141.314 202.265 141.215 203.439 141.138 204.621C140.976 206.944 140.895 209.286 140.895 211.646C140.907 233.619 148.067 255.002 161.311 272.614C174.554 290.226 193.174 303.127 214.401 309.398V113.875C194.907 119.624 177.57 130.98 164.583 146.506C151.595 162.031 143.54 181.03 141.436 201.098Z" fill="#FF4000"/>
<path d="M90.1439 141.988C91.2629 141.988 92.17 141.088 92.17 139.978C92.17 138.868 91.2629 137.968 90.1439 137.968C89.0248 137.968 88.1177 138.868 88.1177 139.978C88.1177 141.088 89.0248 141.988 90.1439 141.988Z" fill="#CCCCCC"/>
<path d="M85.8254 222.628C88.036 222.628 89.8281 220.85 89.8281 218.657C89.8281 216.464 88.036 214.686 85.8254 214.686C83.6148 214.686 81.8228 216.464 81.8228 218.657C81.8228 220.85 83.6148 222.628 85.8254 222.628Z" fill="#CCCCCC"/>
<path d="M161.203 117.53C162.804 117.53 164.102 116.242 164.102 114.653C164.102 113.065 162.804 111.777 161.203 111.777C159.602 111.777 158.304 113.065 158.304 114.653C158.304 116.242 159.602 117.53 161.203 117.53Z" fill="#CCCCCC"/>
<path d="M95.2475 277.04C96.5249 277.04 97.5604 276.012 97.5604 274.745C97.5604 273.478 96.5249 272.45 95.2475 272.45C93.9701 272.45 92.9346 273.478 92.9346 274.745C92.9346 276.012 93.9701 277.04 95.2475 277.04Z" fill="#CCCCCC"/>
<path d="M141.966 309.169C143.349 309.169 144.47 308.056 144.47 306.684C144.47 305.311 143.349 304.199 141.966 304.199C140.582 304.199 139.461 305.311 139.461 306.684C139.461 308.056 140.582 309.169 141.966 309.169Z" fill="#CCCCCC"/>
<path d="M214.78 56.4702H209.837V51.5661H207.185V56.4702H202.24V59.1028H207.185V64.0069H209.837V59.1028H214.78V56.4702Z" fill="#CCCCCC"/>
<path opacity="0.1" d="M178.869 203.077C183.639 203.077 187.506 199.241 187.506 194.508C187.506 189.775 183.639 185.939 178.869 185.939C174.099 185.939 170.232 189.775 170.232 194.508C170.232 199.241 174.099 203.077 178.869 203.077Z" fill="black"/>
<path opacity="0.1" d="M183.188 263.449C187.958 263.449 191.825 259.613 191.825 254.88C191.825 250.148 187.958 246.311 183.188 246.311C178.418 246.311 174.551 250.148 174.551 254.88C174.551 259.613 178.418 263.449 183.188 263.449Z" fill="black"/>
<path d="M145.084 201.159C134.486 194.098 126.592 187.132 121.621 180.455C116.663 173.793 114.895 167.776 116.366 162.569C117.837 157.362 122.5 153.132 130.226 149.998C137.97 146.856 148.363 144.975 161.116 144.409L160.979 141.358C133.67 142.573 116.774 149.813 113.403 161.745C110.032 173.677 120.674 188.574 143.369 203.693C161.876 216.023 186.664 227.409 214.401 236.427V233.213C187.319 224.334 163.152 213.196 145.084 201.159Z" fill="#CCCCCC"/>
<path opacity="0.1" d="M145.083 203.601C143.831 202.766 142.615 201.931 141.437 201.098C141.314 202.265 141.215 203.439 141.138 204.621C141.868 205.127 142.612 205.631 143.369 206.135C161.876 218.465 186.664 229.851 214.401 238.869V235.655C187.319 226.776 163.154 215.638 145.083 203.601Z" fill="black"/>
<path d="M259.699 154.427C247.595 151.061 235.598 148.319 223.958 146.209V149.312C235.328 151.392 247.044 154.078 258.868 157.366C296.512 167.835 330.576 183.09 352.325 199.221L354.168 196.776C332.127 180.428 297.694 164.992 259.699 154.427Z" fill="#CCCCCC"/>
<path d="M350.067 211.646C350.058 196.29 346.555 181.133 339.82 167.307C333.085 153.481 323.291 141.341 311.169 131.792C299.046 122.244 284.908 115.533 269.808 112.16C254.708 108.787 239.035 108.839 223.958 112.311V310.974C246.627 316.209 270.416 313.659 291.435 303.742C312.455 293.825 329.461 277.126 339.675 256.376C340.205 255.304 340.715 254.221 341.205 253.128C347.067 240.073 350.087 225.938 350.067 211.646L350.067 211.646Z" fill="#FF4000"/>
<path d="M250.005 91.2834C250.655 91.2834 251.183 90.7602 251.183 90.1149C251.183 89.4695 250.655 88.9464 250.005 88.9464C249.354 88.9464 248.827 89.4695 248.827 90.1149C248.827 90.7602 249.354 91.2834 250.005 91.2834Z" fill="#F2F2F2"/>
<path d="M329.701 99.7725C331.174 99.7725 332.369 98.5875 332.369 97.1258C332.369 95.6641 331.174 94.4791 329.701 94.4791C328.228 94.4791 327.033 95.6641 327.033 97.1258C327.033 98.5875 328.228 99.7725 329.701 99.7725Z" fill="#CCCCCC"/>
<path d="M424.315 211.269C426.707 211.269 428.646 209.345 428.646 206.972C428.646 204.599 426.707 202.675 424.315 202.675C421.923 202.675 419.984 204.599 419.984 206.972C419.984 209.345 421.923 211.269 424.315 211.269Z" fill="#CCCCCC"/>
<path d="M390.447 140.183C391.473 140.183 392.305 139.357 392.305 138.339C392.305 137.321 391.473 136.495 390.447 136.495C389.42 136.495 388.588 137.321 388.588 138.339C388.588 139.357 389.42 140.183 390.447 140.183Z" fill="#CCCCCC"/>
<path d="M383.942 200.102C384.969 200.102 385.801 199.277 385.801 198.259C385.801 197.24 384.969 196.415 383.942 196.415C382.916 196.415 382.084 197.24 382.084 198.259C382.084 199.277 382.916 200.102 383.942 200.102Z" fill="#CCCCCC"/>
<path d="M333.048 321.82H329.943V318.741H328.278V321.82H325.175V323.472H328.278V326.551H329.943V323.472H333.048V321.82Z" fill="#CCCCCC"/>
<path d="M404.684 306.059H402.364V303.757H401.118V306.059H398.798V307.295H401.118V309.596H402.364V307.295H404.684V306.059Z" fill="#CCCCCC"/>
<path opacity="0.1" d="M248.827 140.368C253.597 140.368 257.464 136.531 257.464 131.799C257.464 127.066 253.597 123.23 248.827 123.23C244.057 123.23 240.19 127.066 240.19 131.799C240.19 136.531 244.057 140.368 248.827 140.368Z" fill="black"/>
<path opacity="0.1" d="M248.827 216.32C253.597 216.32 257.464 212.484 257.464 207.751C257.464 203.018 253.597 199.182 248.827 199.182C244.057 199.182 240.19 203.018 240.19 207.751C240.19 212.484 244.057 216.32 248.827 216.32Z" fill="black"/>
<path opacity="0.1" d="M295.153 170.359C299.923 170.359 303.79 166.523 303.79 161.79C303.79 157.058 299.923 153.221 295.153 153.221C290.383 153.221 286.516 157.058 286.516 161.79C286.516 166.523 290.383 170.359 295.153 170.359Z" fill="black"/>
<path opacity="0.1" d="M323.812 228.394C328.582 228.394 332.449 224.558 332.449 219.825C332.449 215.093 328.582 211.256 323.812 211.256C319.042 211.256 315.175 215.093 315.175 219.825C315.175 224.558 319.042 228.394 323.812 228.394Z" fill="black"/>
<path d="M373.569 215.938C369.513 209.764 362.986 203.316 354.168 196.776L352.325 199.221C369.461 211.931 377.443 224.08 374.802 233.43C373.331 238.637 368.668 242.866 360.942 246.001C353.197 249.142 342.804 251.023 330.051 251.59C327.342 251.71 324.562 251.77 321.711 251.77C296.758 251.77 266.671 247.186 235.91 238.632C231.876 237.511 227.892 236.337 223.958 235.112V238.309C227.622 239.439 231.329 240.526 235.079 241.572C266.109 250.201 296.487 254.823 321.726 254.823C324.615 254.823 327.441 254.762 330.189 254.64C357.498 253.426 374.394 246.186 377.765 234.254C379.328 228.719 377.917 222.557 373.569 215.938Z" fill="#CCCCCC"/>
<path opacity="0.1" d="M330.052 254.032C327.343 254.152 324.563 254.212 321.71 254.212C296.759 254.212 266.669 249.629 235.909 241.074C231.876 239.953 227.892 238.78 223.958 237.555V240.752C227.622 241.882 231.329 242.969 235.078 244.014C266.109 252.642 296.485 257.265 321.725 257.265C324.615 257.265 327.443 257.204 330.191 257.081C333.51 256.935 336.672 256.7 339.675 256.376C340.206 255.304 340.715 254.221 341.205 253.128C337.715 253.553 333.997 253.854 330.052 254.032Z" fill="black"/>
<path d="M295.119 137.214C301.338 137.214 306.38 132.212 306.38 126.042C306.38 119.871 301.338 114.869 295.119 114.869C288.899 114.869 283.857 119.871 283.857 126.042C283.857 132.212 288.899 137.214 295.119 137.214Z" fill="white"/>
<path d="M295.153 109.597C290.884 109.597 286.79 111.28 283.771 114.275C280.752 117.269 279.057 121.331 279.057 125.567C279.057 134.386 295.153 163.348 295.153 163.348C295.153 163.348 311.249 134.386 311.249 125.567C311.249 121.331 309.553 117.269 306.535 114.275C303.516 111.28 299.422 109.597 295.153 109.597ZM295.153 133.357C293.678 133.357 292.235 132.923 291.009 132.109C289.782 131.296 288.826 130.14 288.261 128.788C287.697 127.436 287.549 125.948 287.837 124.512C288.125 123.077 288.835 121.758 289.878 120.723C290.922 119.688 292.251 118.983 293.698 118.698C295.145 118.412 296.644 118.559 298.007 119.119C299.37 119.679 300.535 120.628 301.355 121.845C302.175 123.062 302.612 124.492 302.612 125.956C302.612 127.919 301.826 129.801 300.427 131.189C299.028 132.577 297.131 133.357 295.153 133.357Z" fill="#3F3D56"/>
<path d="M248.666 177.715C254.885 177.715 259.927 172.713 259.927 166.543C259.927 160.372 254.885 155.37 248.666 155.37C242.446 155.37 237.404 160.372 237.404 166.543C237.404 172.713 242.446 177.715 248.666 177.715Z" fill="white"/>
<path d="M248.7 150.098C244.431 150.098 240.337 151.781 237.318 154.775C234.299 157.77 232.604 161.832 232.604 166.068C232.604 174.887 248.7 203.849 248.7 203.849C248.7 203.849 264.796 174.887 264.796 166.068C264.796 161.832 263.1 157.77 260.081 154.775C257.063 151.781 252.969 150.098 248.7 150.098ZM248.7 173.858C247.224 173.858 245.782 173.424 244.556 172.61C243.329 171.797 242.373 170.641 241.808 169.289C241.244 167.937 241.096 166.449 241.384 165.013C241.672 163.578 242.382 162.259 243.425 161.224C244.468 160.189 245.797 159.484 247.244 159.199C248.691 158.913 250.191 159.06 251.554 159.62C252.917 160.18 254.082 161.129 254.902 162.346C255.721 163.563 256.159 164.993 256.159 166.457C256.159 168.42 255.373 170.302 253.974 171.69C252.575 173.078 250.678 173.858 248.7 173.858Z" fill="#3F3D56"/>
<path d="M248.666 105.791C254.885 105.791 259.927 100.789 259.927 94.6186C259.927 88.4481 254.885 83.4459 248.666 83.4459C242.446 83.4459 237.404 88.4481 237.404 94.6186C237.404 100.789 242.446 105.791 248.666 105.791Z" fill="white"/>
<path d="M248.7 78.174C244.431 78.174 240.337 79.8565 237.318 82.8514C234.299 85.8462 232.604 89.9081 232.604 94.1435C232.604 102.963 248.7 131.925 248.7 131.925C248.7 131.925 264.796 102.963 264.796 94.1435C264.796 89.9081 263.1 85.8462 260.081 82.8514C257.063 79.8565 252.969 78.174 248.7 78.174ZM248.7 101.933C247.224 101.933 245.782 101.499 244.556 100.686C243.329 99.8731 242.373 98.7173 241.808 97.365C241.244 96.0127 241.096 94.5248 241.384 93.0892C241.672 91.6536 242.382 90.335 243.425 89.3C244.468 88.265 245.797 87.5602 247.244 87.2747C248.691 86.9891 250.191 87.1357 251.554 87.6958C252.917 88.2559 254.082 89.2045 254.902 90.4215C255.721 91.6385 256.159 93.0693 256.159 94.533C256.159 95.5048 255.966 96.4671 255.591 97.365C255.216 98.2629 254.667 99.0787 253.974 99.7659C253.281 100.453 252.459 100.998 251.554 101.37C250.649 101.742 249.679 101.933 248.7 101.933Z" fill="#CCCCCC"/>
<path d="M323.976 192.38C330.195 192.38 335.237 187.377 335.237 181.207C335.237 175.036 330.195 170.034 323.976 170.034C317.756 170.034 312.714 175.036 312.714 181.207C312.714 187.377 317.756 192.38 323.976 192.38Z" fill="white"/>
<path d="M324.01 164.762C319.741 164.762 315.647 166.445 312.628 169.44C309.609 172.434 307.914 176.496 307.914 180.732C307.914 189.551 324.01 218.513 324.01 218.513C324.01 218.513 340.106 189.551 340.106 180.732C340.106 176.496 338.41 172.434 335.391 169.44C332.373 166.445 328.279 164.762 324.01 164.762ZM324.01 188.522C322.534 188.522 321.092 188.088 319.866 187.274C318.639 186.461 317.683 185.306 317.118 183.953C316.554 182.601 316.406 181.113 316.694 179.677C316.982 178.242 317.692 176.923 318.735 175.888C319.778 174.853 321.108 174.148 322.555 173.863C324.001 173.577 325.501 173.724 326.864 174.284C328.227 174.844 329.392 175.793 330.212 177.01C331.031 178.227 331.469 179.658 331.469 181.121C331.469 183.084 330.683 184.966 329.284 186.354C327.885 187.742 325.988 188.522 324.01 188.522Z" fill="#CCCCCC"/>
<path d="M178.986 167.241C185.205 167.241 190.247 162.239 190.247 156.068C190.247 149.898 185.205 144.896 178.986 144.896C172.766 144.896 167.725 149.898 167.725 156.068C167.725 162.239 172.766 167.241 178.986 167.241Z" fill="white"/>
<path d="M179.02 139.624C174.751 139.624 170.657 141.306 167.638 144.301C164.62 147.296 162.924 151.358 162.924 155.593C162.924 164.413 179.02 193.375 179.02 193.375C179.02 193.375 195.116 164.413 195.116 155.593C195.116 151.358 193.42 147.296 190.402 144.301C187.383 141.306 183.289 139.624 179.02 139.624ZM179.02 163.383C177.545 163.383 176.103 162.949 174.876 162.136C173.649 161.323 172.693 160.167 172.129 158.815C171.564 157.463 171.416 155.975 171.704 154.539C171.992 153.103 172.702 151.785 173.746 150.75C174.789 149.715 176.118 149.01 177.565 148.724C179.012 148.439 180.511 148.585 181.874 149.146C183.237 149.706 184.402 150.654 185.222 151.871C186.042 153.088 186.479 154.519 186.479 155.983C186.479 157.945 185.693 159.828 184.294 161.216C182.896 162.604 180.998 163.383 179.02 163.383Z" fill="#CCCCCC"/>
<path d="M183.209 227.992C189.429 227.992 194.47 222.99 194.47 216.82C194.47 210.649 189.429 205.647 183.209 205.647C176.99 205.647 171.948 210.649 171.948 216.82C171.948 222.99 176.99 227.992 183.209 227.992Z" fill="white"/>
<path d="M183.243 200.375C178.974 200.375 174.88 202.058 171.861 205.053C168.843 208.047 167.147 212.109 167.147 216.345C167.147 225.164 183.243 254.126 183.243 254.126C183.243 254.126 199.339 225.164 199.339 216.345C199.339 212.109 197.643 208.047 194.625 205.053C191.606 202.058 187.512 200.375 183.243 200.375ZM183.243 224.135C181.768 224.135 180.326 223.701 179.099 222.887C177.872 222.074 176.916 220.918 176.352 219.566C175.787 218.214 175.639 216.726 175.927 215.29C176.215 213.855 176.925 212.536 177.969 211.501C179.012 210.466 180.341 209.761 181.788 209.476C183.235 209.19 184.735 209.337 186.098 209.897C187.461 210.457 188.626 211.406 189.445 212.623C190.265 213.84 190.702 215.27 190.702 216.734C190.702 218.697 189.917 220.579 188.518 221.967C187.119 223.355 185.221 224.135 183.243 224.135Z" fill="#3F3D56"/>
</g>
<defs>
<clipPath id="clip0_111_539">
<rect width="510" height="368" fill="white"/>
</clipPath>
</defs>
</svg>
