<svg width="593" height="520" viewBox="0 0 593 520" fill="none" xmlns="http://www.w3.org/2000/svg">
<g clip-path="url(#clip0_111_580)">
<path d="M452.086 206.795C450.834 207.627 449.607 208.472 448.382 209.342C436.567 242.385 430.567 277.109 430.632 312.071C430.627 316.115 430.718 320.148 430.905 324.171C432.208 354.342 438.16 384.156 448.564 412.629C449.112 414.127 449.671 415.62 450.24 417.105C450.648 418.172 451.063 419.248 451.507 420.304C451.952 420.836 452.39 421.358 452.828 421.88C452.859 421.902 452.886 421.941 452.917 421.964C453.093 422.175 453.27 422.385 453.429 422.593C454.186 423.487 454.954 424.376 455.711 425.27L455.112 425.336L453.61 425.495L453.616 425.505C454.122 425.472 454.637 425.433 455.146 425.385C455.331 425.377 455.533 425.373 455.721 425.349C455.89 425.338 456.068 425.321 456.237 425.31C477.928 423.786 500.105 421.761 519.465 412.304C539.728 402.398 556.36 382.176 554.438 360.308C554.178 357.444 553.593 354.617 552.696 351.876C552.321 350.732 551.89 349.61 551.431 348.492C548.637 341.645 544.007 335.641 538.018 331.097C532.029 326.554 524.897 323.634 517.354 322.64C509.812 321.645 502.131 322.61 495.103 325.437C488.074 328.263 481.951 332.849 477.362 338.722C482.231 315.934 507.14 303.319 529.734 295.322C552.345 287.328 577.81 278.887 588.575 258.074C594.587 246.491 594.125 233.324 589.284 221.359C589.137 221.002 588.983 220.634 588.819 220.273C582.769 206.211 571.455 194.874 557.136 188.528C530.332 177.131 498.686 182.959 472.353 195.342C465.308 198.659 458.533 202.488 452.086 206.795Z" fill="#F2F2F2"/>
<path d="M534.082 349.348C513.564 352.085 494.501 361.134 479.711 375.155C467.121 387.224 458.123 402.348 453.662 418.939C453.402 419.889 453.169 420.835 452.953 421.785C452.387 420.849 451.835 419.892 451.29 418.943C450.939 418.336 450.581 417.719 450.24 417.105C450.648 418.172 451.063 419.248 451.507 420.304C451.952 420.836 452.39 421.358 452.828 421.88C452.859 421.902 452.886 421.941 452.917 421.964C453.093 422.175 453.27 422.385 453.429 422.593C454.186 423.487 454.954 424.376 455.711 425.27L455.112 425.336L453.61 425.495L453.617 425.505C454.122 425.472 454.637 425.433 455.146 425.385C455.331 425.377 455.533 425.373 455.722 425.349C455.77 425.062 455.836 424.778 455.901 424.494C460.246 403.128 472.441 384.005 490.233 370.656C508.025 357.308 530.213 350.637 552.696 351.876C552.321 350.731 551.89 349.61 551.431 348.492C545.633 348.289 539.828 348.575 534.082 349.348Z" fill="white"/>
<path d="M461.703 269.032C453.717 275.385 446.734 282.832 440.975 291.136C437.979 295.56 435.415 300.244 433.317 305.128C432.321 307.395 431.426 309.723 430.632 312.071C430.627 316.114 430.718 320.148 430.905 324.171C431.528 321.096 432.321 318.055 433.28 315.062C433.774 313.42 434.334 311.808 434.934 310.211C441.663 292.332 454.7 277.875 470.348 266.632C487.117 254.6 506.221 245.281 525.689 238.121C545.64 230.752 566.449 225.776 587.652 223.304C588.131 223.245 588.568 223.01 588.872 222.648C589.176 222.286 589.323 221.824 589.284 221.359C589.281 220.952 589.114 220.563 588.819 220.273C588.663 220.138 588.476 220.041 588.274 219.988C588.072 219.936 587.859 219.93 587.654 219.971C585.038 220.276 582.429 220.592 579.823 220.975C558.138 224.103 536.939 229.827 516.715 238.015C497.191 245.892 477.969 255.84 461.703 269.032Z" fill="white"/>
<path d="M564.759 167.246C568.785 167.246 572.049 164.09 572.049 160.197C572.049 156.304 568.785 153.149 564.759 153.149C560.733 153.149 557.47 156.304 557.47 160.197C557.47 164.09 560.733 167.246 564.759 167.246Z" fill="#F2F2F2"/>
<path d="M422.115 518.475H242.388C231.613 518.463 221.283 514.319 213.664 506.952C206.045 499.585 201.759 489.597 201.747 479.178V39.297C201.759 28.8784 206.045 18.89 213.664 11.5229C221.283 4.15581 231.613 0.0118036 242.388 0H422.115C432.89 0.0118016 443.22 4.15581 450.839 11.5229C458.458 18.8899 462.744 28.8784 462.756 39.297V479.178C462.744 489.597 458.458 499.585 450.839 506.952C443.22 514.319 432.89 518.463 422.115 518.475Z" fill="#3F3D56"/>
<path d="M420.104 12.1995H400.098C398.313 12.2012 396.601 12.8877 395.338 14.1085C394.076 15.3293 393.366 16.9845 393.364 18.7109C393.36 22.2406 391.909 25.6248 389.328 28.1206C386.746 30.6165 383.246 32.0202 379.596 32.0235H281.753C278.103 32.0202 274.603 30.6165 272.021 28.1206C269.44 25.6248 267.988 22.2406 267.985 18.7109C267.983 16.9845 267.273 15.3293 266.011 14.1085C264.748 12.8877 263.036 12.2012 261.251 12.1995H243.611C235.439 12.2095 227.605 15.3529 221.826 20.9402C216.048 26.5275 212.797 34.1026 212.787 42.0042V478.758C212.797 486.66 216.048 494.235 221.826 499.822C227.605 505.41 235.439 508.553 243.611 508.563H420.104C428.276 508.553 436.11 505.41 441.888 499.822C447.667 494.235 450.918 486.66 450.928 478.758V42.0042C450.918 34.1026 447.667 26.5275 441.888 20.9402C436.11 15.3529 428.276 12.2095 420.104 12.1995Z" fill="white"/>
<path d="M355.317 20.9677H300.118C299.596 20.9677 299.094 20.7669 298.724 20.4094C298.355 20.0519 298.147 19.5671 298.147 19.0616C298.147 18.556 298.355 18.0712 298.724 17.7137C299.094 17.3562 299.596 17.1554 300.118 17.1554H355.317C355.839 17.1554 356.341 17.3562 356.711 17.7137C357.08 18.0712 357.288 18.556 357.288 19.0616C357.288 19.5671 357.08 20.0519 356.711 20.4094C356.341 20.7669 355.839 20.9677 355.317 20.9677Z" fill="white"/>
<path d="M363.991 20.5865C364.862 20.5865 365.568 19.9037 365.568 19.0615C365.568 18.2194 364.862 17.5366 363.991 17.5366C363.12 17.5366 362.414 18.2194 362.414 19.0615C362.414 19.9037 363.12 20.5865 363.991 20.5865Z" fill="white"/>
<path d="M464.333 173.46C463.392 173.459 462.49 173.098 461.825 172.454C461.16 171.811 460.786 170.939 460.785 170.029V102.933C460.785 102.023 461.159 101.15 461.824 100.506C462.489 99.863 463.392 99.5015 464.333 99.5015C465.274 99.5015 466.177 99.863 466.842 100.506C467.508 101.15 467.882 102.023 467.882 102.933V170.029C467.881 170.939 467.506 171.811 466.841 172.454C466.176 173.098 465.274 173.459 464.333 173.46Z" fill="#3F3D56"/>
<path d="M201.747 123.9C200.806 123.899 199.904 123.537 199.239 122.894C198.574 122.251 198.2 121.379 198.199 120.469V105.22C198.199 104.31 198.573 103.437 199.238 102.794C199.904 102.15 200.806 101.789 201.747 101.789C202.688 101.789 203.591 102.15 204.256 102.794C204.922 103.437 205.296 104.31 205.296 105.22V120.469C205.295 121.379 204.92 122.251 204.255 122.894C203.59 123.537 202.688 123.899 201.747 123.9Z" fill="#3F3D56"/>
<path d="M201.747 152.111C200.806 152.11 199.904 151.749 199.239 151.105C198.574 150.462 198.2 149.59 198.199 148.68V133.431C198.199 132.521 198.573 131.648 199.238 131.005C199.904 130.361 200.806 130 201.747 130C202.688 130 203.591 130.361 204.256 131.005C204.922 131.648 205.296 132.521 205.296 133.431V148.68C205.295 149.59 204.92 150.462 204.255 151.105C203.59 151.749 202.688 152.11 201.747 152.111Z" fill="#3F3D56"/>
<path d="M526.749 520H0.788547C0.579411 520 0.378841 519.92 0.230959 519.777C0.0830782 519.634 0 519.44 0 519.238C0 519.035 0.0830782 518.841 0.230959 518.698C0.378841 518.555 0.579411 518.475 0.788547 518.475H526.749C526.959 518.475 527.159 518.555 527.307 518.698C527.455 518.841 527.538 519.035 527.538 519.238C527.538 519.44 527.455 519.634 527.307 519.777C527.159 519.92 526.959 520 526.749 520Z" fill="#3F3D56"/>
<path d="M49.4015 510.773H59.0691L63.6679 474.718H49.3999L49.4015 510.773Z" fill="#FFB6B6"/>
<path d="M46.9355 507.722L65.9742 507.721H65.975C69.1928 507.721 72.2787 508.957 74.5541 511.157C76.8294 513.357 78.1078 516.341 78.108 519.452V519.833L46.9361 519.835L46.9355 507.722Z" fill="#2F2E41"/>
<path d="M138.507 510.773H148.175L152.774 474.718H138.506L138.507 510.773Z" fill="#FFB6B6"/>
<path d="M136.042 507.722L155.08 507.721H155.081C158.299 507.721 161.385 508.957 163.66 511.157C165.935 513.357 167.214 516.341 167.214 519.452V519.833L136.042 519.835L136.042 507.722Z" fill="#2F2E41"/>
<path d="M126.835 221.114L133.143 260L73.2134 260.762L81.0988 223.402L126.835 221.114Z" fill="#FFB6B6"/>
<path d="M135.509 250.088L150.491 299.648L152.857 503.304H136.692L98.0529 339.677L62.5683 499.032H46.7974L57.837 319.853C57.837 319.853 52.3172 275.631 71.2423 262.669V251.295L135.509 250.088Z" fill="#2F2E41"/>
<path d="M49.5304 288.815C51.1991 288.375 52.7477 287.587 54.0673 286.506C55.3869 285.425 56.4452 284.077 57.1679 282.558C57.8905 281.039 58.2599 279.385 58.2499 277.712C58.2399 276.04 57.8509 274.39 57.1101 272.879L82.6051 192.509L63.8525 188.914L40.5349 267.694C37.9919 269.066 36.0576 271.291 35.0984 273.95C34.1392 276.608 34.2219 279.514 35.3307 282.118C36.4395 284.721 38.4975 286.841 41.1146 288.075C43.7317 289.309 46.7261 289.572 49.5304 288.815Z" fill="#FFB6B6"/>
<path d="M120.662 140.917C131.225 130.704 131.225 114.145 120.662 103.932C110.1 93.7186 92.9741 93.7186 82.4115 103.932C71.8488 114.145 71.8488 130.704 82.4115 140.917C92.9741 151.131 110.1 151.131 120.662 140.917Z" fill="#FFB6B6"/>
<path d="M82.1969 242.081C81.135 241.878 80.1715 241.342 79.4544 240.558C78.7373 239.774 78.3061 238.784 78.227 237.74C77.6323 229.865 74.6903 216.179 69.4837 197.061C68.3104 192.74 68.0951 188.228 68.852 183.821C69.6089 179.414 71.3209 175.212 73.8757 171.49C76.4304 167.767 79.7703 164.609 83.676 162.223C87.5818 159.837 91.9653 158.276 96.5388 157.643C100.874 157.036 105.292 157.276 109.53 158.349C113.767 159.422 117.74 161.306 121.211 163.889C124.683 166.473 127.584 169.703 129.741 173.389C131.899 177.076 133.27 181.143 133.774 185.351C136.35 207.288 131.491 229.326 129.282 237.782C129.014 238.8 128.409 239.705 127.558 240.359C126.708 241.013 125.659 241.379 124.573 241.401L83.2618 242.172C82.9045 242.179 82.5475 242.149 82.1969 242.081Z" fill="#E4E4E4"/>
<path d="M198.571 171.993C198.323 172.531 198.119 173.088 197.961 173.657L146.251 190.647L136.26 182.207L121.115 195.123L137.302 211.726C138.61 213.068 140.332 213.963 142.211 214.277C144.089 214.591 146.022 214.308 147.72 213.469L203.053 186.141C205.054 187.327 207.381 187.897 209.725 187.774C212.069 187.65 214.318 186.84 216.174 185.45C218.031 184.061 219.405 182.157 220.115 179.994C220.825 177.831 220.837 175.509 220.15 173.339C219.462 171.169 218.108 169.252 216.266 167.845C214.425 166.437 212.184 165.605 209.841 165.459C207.498 165.313 205.165 165.86 203.152 167.027C201.139 168.194 199.541 169.926 198.571 171.993H198.571Z" fill="#FFB6B6"/>
<path d="M144.448 191.576L125.598 207.495C125.062 207.948 124.431 208.284 123.748 208.48C123.065 208.676 122.347 208.727 121.642 208.631C120.937 208.534 120.262 208.291 119.662 207.919C119.063 207.548 118.554 207.055 118.169 206.476L104.685 186.175C102.304 183.508 101.114 180.037 101.375 176.524C101.637 173.01 103.328 169.739 106.079 167.43C108.83 165.12 112.417 163.959 116.051 164.202C119.686 164.445 123.073 166.072 125.469 168.726L144.403 184.32C144.945 184.767 145.381 185.321 145.682 185.945C145.982 186.57 146.14 187.249 146.144 187.938C146.148 188.626 145.999 189.308 145.707 189.936C145.414 190.563 144.985 191.123 144.448 191.576V191.576Z" fill="#E4E4E4"/>
<path d="M79.6265 213.087L56.3315 204.238C55.6687 203.986 55.0698 203.599 54.5756 203.104C54.0814 202.608 53.7035 202.015 53.4676 201.365C53.2318 200.715 53.1435 200.024 53.2089 199.339C53.2742 198.653 53.4917 197.989 53.8463 197.392L66.2752 176.471C67.6259 173.198 70.2638 170.577 73.6106 169.182C76.9573 167.787 80.7394 167.733 84.1275 169.031C87.5155 170.329 90.2327 172.874 91.6832 176.106C93.1336 179.339 93.1988 182.996 91.8645 186.275L86.2665 209.707C86.106 210.378 85.7979 211.007 85.3631 211.553C84.9283 212.098 84.3771 212.546 83.7469 212.867C83.1168 213.188 82.4226 213.374 81.7115 213.411C81.0005 213.449 80.2893 213.339 79.6265 213.087V213.087Z" fill="#E4E4E4"/>
<path d="M114.043 116.566C119.936 122.386 127.939 128.741 135.889 125.27C141.109 122.991 143.748 117.424 142.944 111.941C141.5 102.081 133.17 96.2647 125.046 91.4736C114.485 85.2451 102.743 79.6497 90.3901 80.293C78.0377 80.9363 65.3891 89.9524 65.1435 101.911C64.9459 111.528 72.424 120.995 69.2199 130.102C65.9954 139.266 54.0315 142.123 44.0212 141.952C34.0109 141.782 23.0843 140.25 14.762 145.631C4.14529 152.496 3.22012 168.227 9.70447 178.866C16.1888 189.506 27.931 196.016 39.5521 201.139C54.9494 207.926 72.0235 213.215 88.6217 210.029C105.22 206.844 120.54 192.641 119.266 176.325C118.728 169.433 115.437 163.065 112.265 156.872C109.093 150.678 105.917 144.229 105.638 137.323C105.406 131.568 107.72 125.381 112.333 121.981C113.166 121.391 113.785 120.561 114.1 119.61C114.415 118.659 114.41 117.636 114.086 116.687L114.043 116.566Z" fill="#2F2E41"/>
<path d="M444.86 228.65C436.329 233.597 421.131 239.795 405.6 233.426L395.56 229.308L415.679 207.501C399.624 190.385 390.743 168.099 390.767 144.992C390.792 121.885 399.721 99.6157 415.811 82.5315C431.902 65.4473 453.999 54.774 477.79 52.595C501.581 50.416 525.358 56.8876 544.48 70.7466C563.602 84.6057 576.697 104.857 581.208 127.549C585.719 150.241 581.323 173.743 568.877 193.469C556.432 213.196 536.831 227.73 513.9 234.235C490.969 240.74 466.354 238.749 444.86 228.65Z" fill="white"/>
<path d="M444.912 229.826C436.715 234.479 421.101 240.91 405.181 234.38L393.764 229.697L414.24 207.504C401.5 193.647 393.285 176.456 390.63 158.094C387.975 139.732 390.999 121.021 399.32 104.318C407.642 87.6142 420.889 73.6651 437.393 64.227C453.897 54.7889 472.921 50.284 492.068 51.2795C511.215 52.275 529.629 58.7265 544.991 69.8214C560.354 80.9164 571.977 96.1587 578.398 113.629C584.819 131.099 585.75 150.015 581.074 167.996C576.398 185.976 566.324 202.217 552.121 214.673C537.857 227.258 520.023 235.426 500.917 238.127C481.81 240.827 462.305 237.936 444.912 229.826ZM557.229 83.3688C548.848 74.4257 538.728 67.1668 527.445 62.0067C516.163 56.8467 503.94 53.8866 491.474 53.2955C479.008 52.7045 466.543 54.4941 454.793 58.5621C443.043 62.6301 432.236 68.8969 422.991 77.0043C413.746 85.1117 406.244 94.9009 400.913 105.813C395.581 116.724 392.526 128.545 391.921 140.599C391.315 152.653 393.172 164.704 397.385 176.064C401.598 187.423 408.084 197.869 416.473 206.805L417.121 207.496L397.357 228.919L406.019 232.471C421.393 238.777 436.607 232.227 444.308 227.761L444.806 227.472L445.328 227.718C465.179 237.044 487.768 239.397 509.218 234.374C530.667 229.35 549.639 217.263 562.876 200.188C576.113 183.112 582.79 162.114 581.759 140.797C580.729 119.48 572.056 99.1757 557.229 83.3687V83.3688Z" fill="#FF4000"/>
<path opacity="0.1" d="M567.966 144.508C567.965 123.141 559.69 102.55 544.771 86.788C529.853 71.0263 509.371 61.2369 487.36 59.3475C489.936 59.1294 492.541 59.0114 495.175 59.0114C518.618 59.0231 541.097 68.0359 557.669 84.0683C574.241 100.101 583.551 121.84 583.551 144.508C583.551 167.175 574.241 188.915 557.669 204.947C541.097 220.979 518.618 229.992 495.175 230.004C492.545 230.004 489.944 229.884 487.373 229.667C509.381 227.774 529.859 217.984 544.776 202.223C559.692 186.462 567.965 165.872 567.966 144.508Z" fill="black"/>
<path d="M499.328 127.458H436.146V133.132H499.328V127.458Z" fill="#FF4000"/>
<path d="M546.267 147.084H436.146V152.757H546.267V147.084Z" fill="#FF4000"/>
<path d="M546.159 166.71H436.146V172.383H546.159V166.71Z" fill="#FF4000"/>
<path d="M245.785 373.238C236.806 365.364 230.444 355.093 227.503 343.723C224.561 332.352 225.173 320.394 229.26 309.36C233.348 298.326 240.727 288.712 250.466 281.733C260.204 274.755 271.864 270.725 283.971 270.154C296.078 269.582 308.088 272.495 318.483 278.524C328.878 284.553 337.19 293.427 342.369 304.024C347.548 314.621 349.361 326.464 347.578 338.057C345.796 349.65 340.498 360.472 332.355 369.154L345.187 383.063L338.784 385.689C328.877 389.752 319.183 385.799 313.742 382.644C302.738 387.814 290.385 389.681 278.274 388.004C266.162 386.328 254.847 381.185 245.785 373.238Z" fill="white"/>
<path d="M286.878 389.315C271.503 389.304 256.686 383.745 245.325 373.728C236.266 365.783 229.84 355.424 226.858 343.955C223.875 332.486 224.469 320.421 228.565 309.278C232.66 298.134 240.074 288.412 249.873 281.335C259.672 274.258 271.417 270.143 283.63 269.508C295.843 268.873 307.977 271.747 318.504 277.767C329.032 283.787 337.481 292.684 342.789 303.339C348.097 313.993 350.025 325.927 348.332 337.639C346.638 349.352 341.399 360.317 333.273 369.155L346.333 383.311L339.051 386.298C328.896 390.463 318.937 386.361 313.708 383.393C305.336 387.284 296.167 389.308 286.878 389.315ZM246.244 372.748C255.187 380.639 266.378 385.746 278.362 387.405C290.347 389.064 302.57 387.197 313.443 382.049L313.776 381.892L314.094 382.076C319.005 384.925 328.71 389.103 338.516 385.081L344.041 382.815L331.435 369.15L331.848 368.709C339.9 360.125 345.139 349.424 346.902 337.96C348.664 326.497 346.872 314.785 341.751 304.306C336.629 293.828 328.41 285.053 318.131 279.091C307.852 273.13 295.976 270.249 284.004 270.814C272.032 271.379 260.502 275.364 250.873 282.265C241.243 289.166 233.946 298.673 229.904 309.584C225.862 320.494 225.257 332.319 228.166 343.562C231.075 354.806 237.366 364.962 246.244 372.748Z" fill="#FF4000"/>
<path opacity="0.1" d="M235.219 328.973C235.219 315.345 240.497 302.211 250.013 292.157C259.529 282.104 272.593 275.86 286.633 274.654C284.99 274.515 283.328 274.44 281.648 274.44C266.695 274.448 252.358 280.196 241.787 290.423C231.217 300.649 225.279 314.515 225.279 328.973C225.279 343.432 231.217 357.298 241.787 367.524C252.358 377.751 266.695 383.499 281.648 383.507C283.326 383.507 284.985 383.431 286.625 383.292C272.587 382.085 259.525 375.84 250.011 365.787C240.496 355.734 235.219 342.601 235.219 328.973Z" fill="black"/>
<path d="M319.299 318.099H278.999V321.717H319.299V318.099Z" fill="#FF4000"/>
<path d="M319.3 330.617H249.06V334.236H319.3V330.617Z" fill="#FF4000"/>
<path d="M319.299 343.135H249.128V346.754H319.299V343.135Z" fill="#FF4000"/>
<path d="M365.377 396.583C370.167 396.583 374.051 392.828 374.051 388.196C374.051 383.564 370.167 379.809 365.377 379.809C360.586 379.809 356.703 383.564 356.703 388.196C356.703 392.828 360.586 396.583 365.377 396.583Z" fill="#FF4000"/>
<path d="M377.993 241.803C383.655 241.803 388.244 237.365 388.244 231.891C388.244 226.417 383.655 221.979 377.993 221.979C372.332 221.979 367.742 226.417 367.742 231.891C367.742 237.365 372.332 241.803 377.993 241.803Z" fill="#FF4000"/>
</g>
<defs>
<clipPath id="clip0_111_580">
<rect width="593" height="520" fill="white"/>
</clipPath>
</defs>
</svg>
