<svg width="546" height="431" viewBox="0 0 546 431" fill="none" xmlns="http://www.w3.org/2000/svg">
<g clip-path="url(#clip0_111_645)">
<path d="M420.242 325.548C442.701 255.146 435.907 176.535 406.941 116.161L103.733 168.8L394.303 92.8719C271.84 -98.6052 33.484 28.3992 56.4604 270.153L420.242 325.548Z" fill="#E6E6E6"/>
<path d="M433.614 247.725H47.3228V398.548H433.614V247.725Z" fill="#FF4000"/>
<path d="M155.056 229.333C158.521 232.707 159.789 233.797 160.527 233.658C196.287 246.715 164.938 262.017 147.563 236.043L155.056 229.333Z" fill="#FFB8B8"/>
<path d="M37.0547 367.279V397.935L54.6575 396.708L49.7682 364.827L37.0547 367.279Z" fill="#FFB8B8"/>
<path d="M134.85 367.279V397.935L117.247 396.708L122.137 364.827L134.85 367.279Z" fill="#FFB8B8"/>
<path d="M81.0621 209.1L107.467 207.874C168.379 287.942 145.343 269.68 143.651 379.542L111.379 367.28L118.224 291.255C118.228 291.253 120.03 289.746 118.532 289.711C109.162 293.749 102.326 243.763 82.04 249.565C58.9556 248.18 55.1975 291.118 45.8558 291.255L52.7015 367.28L20.4291 379.542C16.8157 258.815 -0.893428 286.087 56.6133 207.874L81.0621 209.1Z" fill="#2F2E41"/>
<path d="M41.9443 388.125C41.9443 388.125 38.0325 378.315 33.1427 383.22C28.2529 388.125 16.5175 402.839 16.5175 402.839C16.5175 402.839 -11.8431 418.78 5.76003 428.589C23.3632 438.399 38.0325 415.101 38.0325 415.101C54.7992 410.717 64.4703 407.911 55.5786 384.979C50.5305 387.718 43.3866 390.889 41.9443 388.125Z" fill="#2F2E41"/>
<path d="M129.96 388.125C129.96 388.125 133.872 378.315 138.762 383.22C143.651 388.125 155.387 402.839 155.387 402.839C155.387 402.839 183.747 418.78 166.144 428.589C148.541 438.399 133.872 415.101 133.872 415.101C117.105 410.717 107.434 407.911 116.326 384.979C121.374 387.718 128.518 390.889 129.96 388.125Z" fill="#2F2E41"/>
<path d="M107.467 70.5402C106.012 101.065 72.7865 98.3777 72.2607 70.5399C73.7151 40.0152 106.941 42.7026 107.467 70.5402Z" fill="#FFB8B8"/>
<path d="M82.0405 86.4807C90.5958 118.901 70.3972 101.251 98.6657 126.945L109.423 99.9689C109.423 99.9689 101.6 96.2903 102.578 82.8021L82.0405 86.4807Z" fill="#FFB8B8"/>
<path d="M134.85 104.874L105.698 96.5305C106.517 118.57 87.7586 114.135 84.4854 103.048L56.6138 123.267C68.3123 177.897 65.3475 180.151 49.7681 215.231C43.8224 222.039 52.7143 225.941 60.4553 222.215C66.3595 217.646 69.3579 213.586 75.6843 214.619C105.578 222.424 130.465 224.266 134.403 221.217C135.812 218.688 134.362 105.313 134.85 104.874Z" fill="#575A89"/>
<path d="M127.026 107.326C128.004 107.326 133.041 104.356 133.041 104.356C147.698 104.047 157.533 227.658 158.32 231.172L148.541 239.755L132.894 189.481L127.026 107.326Z" fill="#575A89"/>
<path d="M58.5693 250.791C59.0694 255.419 59.9203 307.388 74.7679 283.112C76.7159 265.401 70.093 260.114 68.3489 248.339L58.5693 250.791Z" fill="#FFB8B8"/>
<path d="M62.4813 123.267L59.4848 121.184C51.4515 120.853 53.9833 147.515 50.5845 167.041C47.8079 189.789 48.5985 214.871 51.8561 248.405C52.141 260.71 69.7194 252.958 72.2608 252.017C72.2608 252.017 66.3931 201.743 69.327 193.16C72.2608 184.576 62.4813 123.267 62.4813 123.267Z" fill="#575A89"/>
<path d="M106.697 49.1437C103.982 43.6141 99.7307 39.5394 94.7627 37.7038L91.1138 41.364L92.5324 37.0948C91.3394 36.8667 90.132 36.7791 88.9259 36.8335L85.6428 42.1262L87.0016 37.0148C72.9138 38.9114 64.5787 59.1889 71.8925 73.3806C73.0207 69.0334 74.39 64.9543 75.5182 60.6072C76.4049 60.7587 77.3035 60.7642 78.1913 60.6235L79.564 56.6078L79.9474 60.4536C84.2018 59.9889 90.512 58.9686 94.5453 58.0337L94.1532 55.0834L96.4996 57.5351C97.7353 57.1784 98.469 56.855 98.4084 56.6078C101.408 62.6711 104.38 66.5439 107.38 72.6071C108.518 64.0546 110.529 56.9456 106.697 49.1437Z" fill="#2F2E41"/>
<path d="M410.493 265.919H325.182V316.66H410.493V265.919Z" fill="white"/>
<path d="M394.36 276.547H341.314V282.631H394.36V276.547Z" fill="#E6E6E6"/>
<path d="M394.36 288.248H341.314V294.332H394.36V288.248Z" fill="#E6E6E6"/>
<path d="M394.36 299.948H341.314V306.032H394.36V299.948Z" fill="#E6E6E6"/>
<path d="M250.888 277.972L248.113 271.946L245.338 265.919L242.563 271.946L239.788 277.972H242.77V295.423H247.906V277.972H250.888Z" fill="white"/>
<path d="M438.922 402.145C451.542 402.145 461.772 389.318 461.772 373.495C461.772 357.672 451.542 344.845 438.922 344.845C426.302 344.845 416.072 357.672 416.072 373.495C416.072 389.318 426.302 402.145 438.922 402.145Z" fill="#3F3D56"/>
<path d="M443.076 386.192C448.669 386.192 453.203 380.507 453.203 373.495C453.203 366.482 448.669 360.798 443.076 360.798C437.484 360.798 432.95 366.482 432.95 373.495C432.95 380.507 437.484 386.192 443.076 386.192Z" fill="#E6E6E6"/>
<path d="M424.511 393.517L474.365 419.563L472.807 425.749L444.115 421.678L395.559 394.657L422.563 398.564L424.511 393.517Z" fill="#3F3D56"/>
<path d="M468.579 418.389L530.584 163.364L545.683 129.743L545.736 129.418C545.785 129.122 546.893 122.094 544.167 117.005C543.479 115.74 542.591 114.666 541.558 113.85C540.525 113.034 539.369 112.494 538.162 112.263C529.829 110.303 511.185 109.338 510.396 109.298L510.247 109.29L510.1 109.316C509.59 109.403 497.675 111.586 494.982 124.632L482.019 154.212L481.968 154.423L423.286 396.32L426.515 397.552L485.147 155.865L498.153 126.185L498.206 125.912C500.11 116.095 509.215 113.798 510.426 113.536C512.331 113.638 529.853 114.615 537.54 116.422C538.303 116.553 539.037 116.881 539.694 117.385C540.351 117.889 540.917 118.559 541.357 119.351C543.038 122.472 542.617 127.066 542.469 128.273L527.462 161.689L527.408 161.909L465.35 417.155L468.579 418.389Z" fill="#3F3D56"/>
<path d="M477.645 178.669L477.045 182.834L521.826 192.975L522.426 188.81L477.645 178.669Z" fill="#3F3D56"/>
<path d="M469.282 213.307L468.607 217.454L513.068 228.832L513.743 224.685L469.282 213.307Z" fill="#3F3D56"/>
<path d="M454.39 275.255L453.461 279.324L496.87 294.898L497.798 290.829L454.39 275.255Z" fill="#3F3D56"/>
<path d="M483.747 395.325L484.977 391.384L442.844 370.698L440.775 342.609L480.1 361.026L492.84 384.139L495.618 381.733L482.274 357.525L436.919 336.285L439.674 373.687L483.747 395.325Z" fill="#3F3D56"/>
<path d="M498.383 429.493C511.003 429.493 521.233 416.666 521.233 400.843C521.233 385.02 511.003 372.193 498.383 372.193C485.764 372.193 475.534 385.02 475.534 400.843C475.534 416.666 485.764 429.493 498.383 429.493Z" fill="#3F3D56"/>
<path d="M504.356 414.842C509.948 414.842 514.482 409.157 514.482 402.145C514.482 395.132 509.948 389.448 504.356 389.448C498.763 389.448 494.229 395.132 494.229 402.145C494.229 409.157 498.763 414.842 504.356 414.842Z" fill="#E6E6E6"/>
</g>
<defs>
<clipPath id="clip0_111_645">
<rect width="546" height="431" fill="white"/>
</clipPath>
</defs>
</svg>
