<svg width="677" height="508" viewBox="0 0 677 508" fill="none" xmlns="http://www.w3.org/2000/svg">
<g clip-path="url(#clip0_114_246)">
<path d="M36.0003 507.558L35.2523 506.175C45.2813 500.751 57.7629 494.001 64.2822 482.924C70.7088 472.004 70.8529 457.176 64.6585 444.226C59.3869 433.204 49.7033 423.33 36.6547 415.67C34.0809 414.159 31.3791 412.727 28.7662 411.342C22.4504 407.995 15.9196 404.534 10.5345 399.623C3.11771 392.859 -2.49406 381.509 1.68859 371.399C3.06417 368.172 5.31697 365.396 8.19121 363.385C11.0654 361.374 14.446 360.209 17.9489 360.022L18.0376 361.593C14.8285 361.763 11.7313 362.829 9.09762 364.671C6.46391 366.512 4.3991 369.055 3.13751 372.011C-0.749259 381.406 4.58336 392.067 11.5943 398.461C16.8321 403.237 23.2735 406.651 29.5027 409.953C32.1304 411.345 34.8478 412.786 37.4511 414.314C50.7712 422.133 60.67 432.242 66.0773 443.547C72.4945 456.963 72.3261 472.357 65.6376 483.722C58.8962 495.176 46.2011 502.042 36.0003 507.558Z" fill="#F1F1F1"/>
<path d="M27.9169 368.312C35.5172 368.312 41.6785 365.319 41.6785 361.627C41.6785 357.936 35.5172 354.943 27.9169 354.943C20.3166 354.943 14.1553 357.936 14.1553 361.627C14.1553 365.319 20.3166 368.312 27.9169 368.312Z" fill="#F1F1F1"/>
<path d="M38.9257 412.349C46.526 412.349 52.6873 409.356 52.6873 405.665C52.6873 401.973 46.526 398.98 38.9257 398.98C31.3253 398.98 25.1641 401.973 25.1641 405.665C25.1641 409.356 31.3253 412.349 38.9257 412.349Z" fill="#F1F1F1"/>
<path d="M13.7616 419.426C21.3619 419.426 27.5232 416.434 27.5232 412.742C27.5232 409.05 21.3619 406.058 13.7616 406.058C6.16128 406.058 0 409.05 0 412.742C0 416.434 6.16128 419.426 13.7616 419.426Z" fill="#F1F1F1"/>
<path d="M53.0809 456.386C60.6813 456.386 66.8426 453.393 66.8426 449.702C66.8426 446.01 60.6813 443.018 53.0809 443.018C45.4806 443.018 39.3193 446.01 39.3193 449.702C39.3193 453.393 45.4806 456.386 53.0809 456.386Z" fill="#F1F1F1"/>
<path d="M80.6034 456.386C88.2037 456.386 94.365 453.393 94.365 449.702C94.365 446.01 88.2037 443.018 80.6034 443.018C73.0031 443.018 66.8418 446.01 66.8418 449.702C66.8418 453.393 73.0031 456.386 80.6034 456.386Z" fill="#F1F1F1"/>
<path d="M173.373 344.354H205.853C208.07 331.54 208.07 318.441 205.853 305.627H173.373C177.032 318.277 177.032 331.704 173.373 344.354Z" fill="#FF4000"/>
<path d="M73.1393 498.094H82.0584L86.3017 463.692L73.1377 463.692L73.1393 498.094Z" fill="#FFB7B7"/>
<path d="M70.8643 495.182L88.4291 495.181H88.4298C91.3985 495.181 94.2455 496.361 96.3447 498.46C98.4439 500.559 99.6233 503.406 99.6235 506.375V506.739L70.8648 506.74L70.8643 495.182Z" fill="#2F2E41"/>
<path d="M180.295 497.801L188.955 495.67L184.856 461.25L172.073 464.396L180.295 497.801Z" fill="#FFB7B7"/>
<path d="M177.391 495.517L194.447 491.319L194.447 491.319C197.33 490.61 200.376 491.075 202.916 492.612C205.456 494.148 207.282 496.631 207.991 499.514L208.078 499.867L180.153 506.74L177.391 495.517Z" fill="#2F2E41"/>
<path d="M67.6543 489.891L69.5071 480.412C69.5071 480.412 72.9176 443.81 97.3938 407.28L105.361 367.599C105.361 367.599 102.995 337.562 125.831 321.303L132.872 316.453L157.556 317.868L163.257 349.081L174.745 422.933C174.745 422.933 177.709 423.211 178.821 431.751C181.08 435.337 182.417 439.427 182.711 443.655C182.711 443.655 188.59 459.873 190.165 471.814L189.98 483.498L177.566 490.112L151.693 416.941L133.188 376.034C133.188 376.034 124.281 404.855 110.639 429.546C110.639 429.546 91.953 469.99 88.2201 478.207L84.144 491.655L67.6543 489.891Z" fill="#2F2E41"/>
<path d="M150.187 253.648C159.932 253.648 167.831 245.748 167.831 236.004C167.831 226.26 159.932 218.36 150.187 218.36C140.443 218.36 132.544 226.26 132.544 236.004C132.544 245.748 140.443 253.648 150.187 253.648Z" fill="#FFB7B7"/>
<path d="M150.187 253.648C159.932 253.648 167.831 245.748 167.831 236.004C167.831 226.26 159.932 218.36 150.187 218.36C140.443 218.36 132.544 226.26 132.544 236.004C132.544 245.748 140.443 253.648 150.187 253.648Z" fill="#FFB8B8"/>
<path d="M125.883 321.492L131.707 306.943C127.592 293.614 127.844 279.319 132.427 266.143L133.541 265.226C143.249 257.231 151.77 258.687 159.677 268.466C160.95 270.056 162.439 271.46 164.101 272.638C167.588 275.084 173.12 288.377 165.816 296.169L159.972 330.258C160.587 349.079 146.93 341.992 125.883 321.492Z" fill="#3F3D56"/>
<path d="M177.601 341.588C177.483 340.651 177.161 339.751 176.658 338.952C176.154 338.153 175.482 337.474 174.687 336.964C173.893 336.453 172.997 336.122 172.061 335.995C171.125 335.868 170.173 335.948 169.271 336.229L159.815 324.894L151.525 328.96L165.104 344.78C165.676 346.263 166.772 347.485 168.185 348.214C169.598 348.943 171.23 349.128 172.77 348.735C174.311 348.341 175.653 347.396 176.544 346.079C177.434 344.762 177.81 343.164 177.601 341.588V341.588Z" fill="#FFB7B7"/>
<path d="M157.575 341.439L133.898 305.952L140.745 280.221C141.873 277.899 143.878 276.12 146.318 275.275C148.757 274.43 151.433 274.589 153.756 275.716C156.079 276.843 157.859 278.846 158.705 281.285C159.552 283.724 159.396 286.4 158.27 288.724L150.073 305.656L169.301 333.23L157.575 341.439Z" fill="#CCCCCC"/>
<path d="M118.738 232.14C128.087 232.14 135.665 224.561 135.665 215.213C135.665 205.864 128.087 198.286 118.738 198.286C109.39 198.286 101.812 205.864 101.812 215.213C101.812 224.561 109.39 232.14 118.738 232.14Z" fill="#2F2E41"/>
<path d="M104.137 229.229C106.328 230.813 108.867 231.849 111.54 232.25C114.213 232.651 116.943 232.407 119.503 231.537C122.062 230.666 124.376 229.196 126.25 227.248C128.125 225.3 129.505 222.932 130.277 220.341C129.985 222.663 129.215 224.899 128.015 226.908C126.815 228.917 125.212 230.656 123.307 232.014C121.401 233.372 119.235 234.32 116.944 234.799C114.654 235.278 112.289 235.276 109.999 234.795C107.709 234.314 105.544 233.363 103.64 232.002C101.736 230.642 100.135 228.901 98.9375 226.891C97.7402 224.88 96.9727 222.643 96.6835 220.321C96.3943 217.999 96.5897 215.643 97.2573 213.4C96.8781 216.413 97.3168 219.473 98.5274 222.258C99.7379 225.043 101.676 227.451 104.137 229.229Z" fill="#2F2E41"/>
<path d="M170.938 229.248C167.983 223.958 166.853 221.748 163.043 218.531C159.673 215.686 155.529 214.85 152.186 217.546C148.232 215.838 143.832 215.45 139.64 216.442C135.447 217.433 131.687 219.75 128.917 223.049C126.146 226.347 124.514 230.452 124.262 234.752C124.01 239.052 125.152 243.319 127.518 246.919C129.884 250.519 133.348 253.259 137.396 254.733C141.444 256.207 145.859 256.336 149.986 255.101C154.113 253.866 157.731 251.333 160.304 247.878C162.876 244.422 164.265 240.229 164.265 235.922C164.262 235.165 164.216 234.409 164.129 233.658C167.034 233.25 168.033 229.656 170.938 229.248Z" fill="#2F2E41"/>
<path d="M255.834 508H15.9885C15.78 508 15.5799 507.917 15.4325 507.77C15.285 507.622 15.2021 507.422 15.2021 507.214C15.2021 507.005 15.285 506.805 15.4325 506.658C15.5799 506.51 15.78 506.427 15.9885 506.427H255.834C256.042 506.427 256.242 506.51 256.39 506.658C256.537 506.805 256.62 507.005 256.62 507.214C256.62 507.422 256.537 507.622 256.39 507.77C256.242 507.917 256.042 508 255.834 508Z" fill="#CBCBCB"/>
<path d="M621.583 63.4168H620.85V43.3382C620.85 41.8121 620.55 40.301 619.966 38.8911C619.382 37.4812 618.526 36.2001 617.447 35.121C616.367 34.0419 615.086 33.1859 613.677 32.6019C612.267 32.0179 610.755 31.7173 609.229 31.7173H566.69C565.164 31.7173 563.653 32.0179 562.243 32.6019C560.833 33.1859 559.552 34.0419 558.473 35.121C557.394 36.2001 556.538 37.4811 555.954 38.8911C555.37 40.301 555.069 41.8121 555.069 43.3382V153.491C555.069 156.573 556.294 159.528 558.473 161.708C560.652 163.887 563.608 165.111 566.69 165.111H609.229C612.311 165.111 615.267 163.887 617.447 161.708C619.626 159.528 620.85 156.573 620.85 153.491V77.709H621.583V63.4168Z" fill="#E5E5E5"/>
<path d="M609.213 34.7407H603.661C603.916 35.3667 604.013 36.046 603.944 36.7186C603.875 37.3912 603.642 38.0365 603.265 38.5976C602.888 39.1588 602.378 39.6186 601.782 39.9366C601.185 40.2545 600.519 40.4209 599.843 40.4209H575.473C574.797 40.4209 574.131 40.2545 573.535 39.9366C572.938 39.6186 572.428 39.1588 572.051 38.5977C571.674 38.0365 571.441 37.3912 571.372 36.7186C571.303 36.046 571.4 35.3667 571.656 34.7407H566.469C564.168 34.7407 561.96 35.655 560.333 37.2825C558.705 38.91 557.791 41.1174 557.791 43.419V153.41C557.791 155.711 558.705 157.919 560.333 159.546C561.96 161.174 564.168 162.088 566.469 162.088H609.213C610.353 162.088 611.482 161.864 612.534 161.428C613.587 160.991 614.544 160.352 615.35 159.546C616.156 158.74 616.795 157.784 617.231 156.731C617.667 155.678 617.892 154.549 617.892 153.41V43.4191C617.892 42.2794 617.667 41.1509 617.231 40.098C616.795 39.0451 616.156 38.0884 615.35 37.2825C614.544 36.4767 613.587 35.8374 612.534 35.4013C611.482 34.9651 610.353 34.7407 609.213 34.7407Z" fill="white"/>
<path d="M610.537 75.0678H584.035V77.1676H610.537V75.0678Z" fill="#E5E5E5"/>
<path d="M610.537 81.717H584.035V83.8168H610.537V81.717Z" fill="#E5E5E5"/>
<path d="M610.537 88.3662H584.035V90.466H610.537V88.3662Z" fill="#E5E5E5"/>
<path d="M578.918 76.3655H566.115V89.1683H578.918V76.3655Z" fill="#E5E5E5"/>
<path d="M574.87 121.761C577.947 121.761 580.442 119.267 580.442 116.19C580.442 113.113 577.947 110.618 574.87 110.618C571.793 110.618 569.299 113.113 569.299 116.19C569.299 119.267 571.793 121.761 574.87 121.761Z" fill="#FF4000"/>
<path d="M589.726 120.742C592.241 120.742 594.279 118.704 594.279 116.19C594.279 113.675 592.241 111.637 589.726 111.637C587.212 111.637 585.174 113.675 585.174 116.19C585.174 118.704 587.212 120.742 589.726 120.742Z" fill="#FF4000"/>
<path d="M604.584 118.959C606.114 118.959 607.354 117.719 607.354 116.19C607.354 114.66 606.114 113.42 604.584 113.42C603.054 113.42 601.814 114.66 601.814 116.19C601.814 117.719 603.054 118.959 604.584 118.959Z" fill="#FF4000"/>
<path d="M427.419 159.078H329.766C327.452 159.076 325.233 158.155 323.596 156.518C321.959 154.882 321.039 152.663 321.036 150.348V8.73006C321.039 6.4155 321.959 4.19649 323.596 2.55986C325.233 0.923218 327.452 0.0026121 329.766 0H427.419C429.733 0.0026121 431.952 0.923218 433.589 2.55986C435.226 4.19649 436.146 6.4155 436.149 8.73006V150.348C436.146 152.663 435.226 154.882 433.589 156.518C431.952 158.155 429.733 159.076 427.419 159.078Z" fill="#E5E5E5"/>
<path d="M427.591 153.508H329.594C328.881 153.508 328.197 153.224 327.692 152.719C327.188 152.215 326.904 151.531 326.903 150.817V8.26111C326.904 7.54763 327.188 6.8636 327.692 6.35909C328.197 5.85458 328.881 5.57078 329.594 5.56996H427.591C428.304 5.57078 428.988 5.85458 429.493 6.35909C429.997 6.8636 430.281 7.54763 430.282 8.26111V150.817C430.281 151.531 429.997 152.215 429.493 152.719C428.988 153.224 428.304 153.508 427.591 153.508Z" fill="white"/>
<path d="M378.221 3.41625C378.631 3.41625 378.964 3.08375 378.964 2.67359C378.964 2.26342 378.631 1.93092 378.221 1.93092C377.811 1.93092 377.479 2.26342 377.479 2.67359C377.479 3.08375 377.811 3.41625 378.221 3.41625Z" fill="white"/>
<path d="M419.208 49.2899H364.703V52.4215H419.208V49.2899Z" fill="#E5E5E5"/>
<path d="M419.208 59.2068H364.703V62.3385H419.208V59.2068Z" fill="#E5E5E5"/>
<path d="M419.208 69.1238H364.703V72.2555H419.208V69.1238Z" fill="#E5E5E5"/>
<path d="M357.072 51.2253H337.978V70.3201H357.072V51.2253Z" fill="#E5E5E5"/>
<path d="M360.268 109.788C364.458 109.788 367.855 106.392 367.855 102.201C367.855 98.0111 364.458 94.6142 360.268 94.6142C356.078 94.6142 352.681 98.0111 352.681 102.201C352.681 106.392 356.078 109.788 360.268 109.788Z" fill="#FF4000"/>
<path d="M380.501 108.401C383.925 108.401 386.7 105.625 386.7 102.201C386.7 98.7773 383.925 96.0016 380.501 96.0016C377.077 96.0016 374.301 98.7773 374.301 102.201C374.301 105.625 377.077 108.401 380.501 108.401Z" fill="#FF4000"/>
<path d="M400.733 105.973C402.816 105.973 404.505 104.285 404.505 102.201C404.505 100.118 402.816 98.4295 400.733 98.4295C398.65 98.4295 396.961 100.118 396.961 102.201C396.961 104.285 398.65 105.973 400.733 105.973Z" fill="#FF4000"/>
<path d="M613.101 172.18H324.981C323.94 172.18 322.908 172.385 321.946 172.783C320.984 173.182 320.11 173.766 319.374 174.502C318.637 175.239 318.053 176.113 317.654 177.075C317.256 178.037 317.051 179.069 317.051 180.11V340.645C317.051 342.748 317.886 344.765 319.374 346.253C320.861 347.74 322.878 348.575 324.981 348.575H613.101C615.204 348.575 617.221 347.74 618.709 346.253C620.196 344.765 621.031 342.748 621.031 340.645V180.11C621.031 178.007 620.196 175.99 618.709 174.502C617.221 173.015 615.204 172.18 613.101 172.18Z" fill="#3F3D56"/>
<path d="M610.4 186.195H327.684V345.676H610.4V186.195Z" fill="white"/>
<path d="M468.8 181.845C470.401 181.845 471.7 180.547 471.7 178.946C471.7 177.344 470.401 176.046 468.8 176.046C467.199 176.046 465.9 177.344 465.9 178.946C465.9 180.547 467.199 181.845 468.8 181.845Z" fill="white"/>
<path d="M628.97 342.776H601.379V340.788C601.379 340.736 601.369 340.685 601.349 340.637C601.329 340.589 601.3 340.546 601.263 340.509C601.227 340.473 601.183 340.444 601.136 340.424C601.088 340.404 601.036 340.394 600.985 340.394H591.525C591.473 340.394 591.422 340.404 591.374 340.424C591.326 340.444 591.283 340.473 591.246 340.509C591.209 340.546 591.18 340.589 591.161 340.637C591.141 340.685 591.131 340.736 591.131 340.788V342.776H585.218V340.788C585.218 340.736 585.208 340.685 585.188 340.637C585.168 340.589 585.139 340.546 585.103 340.509C585.066 340.473 585.023 340.444 584.975 340.424C584.927 340.404 584.876 340.394 584.824 340.394H575.364C575.312 340.394 575.261 340.404 575.213 340.424C575.166 340.444 575.122 340.473 575.086 340.509C575.049 340.546 575.02 340.589 575 340.637C574.98 340.685 574.97 340.736 574.97 340.788V342.776H569.058V340.788C569.058 340.736 569.047 340.685 569.028 340.637C569.008 340.589 568.979 340.546 568.942 340.509C568.906 340.473 568.862 340.444 568.814 340.424C568.766 340.404 568.715 340.394 568.664 340.394H559.204C559.152 340.394 559.101 340.404 559.053 340.424C559.005 340.444 558.961 340.473 558.925 340.509C558.888 340.546 558.859 340.589 558.839 340.637C558.82 340.685 558.809 340.736 558.809 340.788V342.776H552.897V340.788C552.897 340.736 552.887 340.685 552.867 340.637C552.847 340.589 552.818 340.546 552.782 340.509C552.745 340.473 552.702 340.444 552.654 340.424C552.606 340.404 552.555 340.394 552.503 340.394H543.043C542.991 340.394 542.94 340.404 542.892 340.424C542.844 340.444 542.801 340.473 542.764 340.509C542.728 340.546 542.699 340.589 542.679 340.637C542.659 340.685 542.649 340.736 542.649 340.788V342.776H536.736V340.788C536.736 340.736 536.726 340.685 536.706 340.637C536.687 340.589 536.658 340.546 536.621 340.509C536.584 340.473 536.541 340.444 536.493 340.424C536.445 340.404 536.394 340.394 536.342 340.394H526.882C526.831 340.394 526.779 340.404 526.732 340.424C526.684 340.444 526.64 340.473 526.604 340.509C526.567 340.546 526.538 340.589 526.518 340.637C526.498 340.685 526.488 340.736 526.488 340.788V342.776H520.576V340.788C520.576 340.736 520.566 340.685 520.546 340.637C520.526 340.589 520.497 340.546 520.46 340.509C520.424 340.473 520.38 340.444 520.333 340.424C520.285 340.404 520.233 340.394 520.182 340.394H510.722C510.67 340.394 510.619 340.404 510.571 340.424C510.523 340.444 510.48 340.473 510.443 340.509C510.406 340.546 510.377 340.589 510.358 340.637C510.338 340.685 510.328 340.736 510.328 340.788V342.776H504.415V340.788C504.415 340.736 504.405 340.685 504.385 340.637C504.365 340.589 504.336 340.546 504.3 340.509C504.263 340.473 504.22 340.444 504.172 340.424C504.124 340.404 504.073 340.394 504.021 340.394H429.919C429.867 340.394 429.816 340.404 429.768 340.424C429.72 340.444 429.677 340.473 429.64 340.509C429.603 340.546 429.574 340.589 429.555 340.637C429.535 340.685 429.525 340.736 429.525 340.788V342.776H423.612V340.788C423.612 340.736 423.602 340.685 423.582 340.637C423.562 340.589 423.533 340.546 423.497 340.509C423.46 340.473 423.417 340.444 423.369 340.424C423.321 340.404 423.27 340.394 423.218 340.394H413.758C413.706 340.394 413.655 340.404 413.607 340.424C413.56 340.444 413.516 340.473 413.479 340.509C413.443 340.546 413.414 340.589 413.394 340.637C413.374 340.685 413.364 340.736 413.364 340.788V342.776H407.452V340.788C407.452 340.736 407.441 340.685 407.422 340.637C407.402 340.589 407.373 340.546 407.336 340.509C407.3 340.473 407.256 340.444 407.208 340.424C407.161 340.404 407.109 340.394 407.057 340.394H397.598C397.546 340.394 397.495 340.404 397.447 340.424C397.399 340.444 397.355 340.473 397.319 340.509C397.282 340.546 397.253 340.589 397.233 340.637C397.214 340.685 397.203 340.736 397.203 340.788V342.776H391.291V340.788C391.291 340.736 391.281 340.685 391.261 340.637C391.241 340.589 391.212 340.546 391.176 340.509C391.139 340.473 391.095 340.444 391.048 340.424C391 340.404 390.949 340.394 390.897 340.394H381.437C381.385 340.394 381.334 340.404 381.286 340.424C381.238 340.444 381.195 340.473 381.158 340.509C381.122 340.546 381.093 340.589 381.073 340.637C381.053 340.685 381.043 340.736 381.043 340.788V342.776H375.13V340.788C375.13 340.736 375.12 340.685 375.1 340.637C375.081 340.589 375.052 340.546 375.015 340.509C374.978 340.473 374.935 340.444 374.887 340.424C374.839 340.404 374.788 340.394 374.736 340.394H365.276C365.225 340.394 365.173 340.404 365.126 340.424C365.078 340.444 365.034 340.473 364.998 340.509C364.961 340.546 364.932 340.589 364.912 340.637C364.892 340.685 364.882 340.736 364.882 340.788V342.776H358.97V340.788C358.97 340.736 358.96 340.685 358.94 340.637C358.92 340.589 358.891 340.546 358.854 340.509C358.818 340.473 358.774 340.444 358.726 340.424C358.679 340.404 358.627 340.394 358.576 340.394H349.116C349.011 340.394 348.911 340.435 348.837 340.509C348.763 340.583 348.722 340.683 348.722 340.788V342.776H342.809V340.788C342.809 340.736 342.799 340.685 342.779 340.637C342.759 340.589 342.73 340.546 342.694 340.509C342.657 340.473 342.614 340.444 342.566 340.424C342.518 340.404 342.467 340.394 342.415 340.394H332.955C332.851 340.394 332.75 340.435 332.676 340.509C332.603 340.583 332.561 340.683 332.561 340.788V342.776H314.43C313.187 342.776 311.957 343.021 310.809 343.496C309.662 343.971 308.619 344.668 307.74 345.547C306.862 346.425 306.165 347.468 305.69 348.616C305.214 349.763 304.97 350.994 304.97 352.236V356.513C304.97 359.022 305.966 361.428 307.74 363.203C309.515 364.977 311.921 365.973 314.43 365.973H628.97C631.479 365.973 633.885 364.977 635.659 363.203C637.433 361.428 638.43 359.022 638.43 356.513V352.236C638.43 350.994 638.185 349.763 637.71 348.616C637.234 347.468 636.538 346.425 635.659 345.547C634.781 344.668 633.738 343.972 632.59 343.496C631.443 343.021 630.212 342.776 628.97 342.776Z" fill="#3F3D56"/>
<path d="M532.061 201.38H440.638V204.777H532.061V201.38Z" fill="#CBCBCB"/>
<path d="M532.061 212.137H440.638V215.534H532.061V212.137Z" fill="#CBCBCB"/>
<path d="M532.061 222.895H440.638V226.292H532.061V222.895Z" fill="#CBCBCB"/>
<path d="M432.36 203.479H411.646V224.192H432.36V203.479Z" fill="#CBCBCB"/>
<path d="M468.821 315.965C488.84 315.965 505.069 299.736 505.069 279.717C505.069 259.697 488.84 243.469 468.821 243.469C448.801 243.469 432.572 259.697 432.572 279.717C432.572 299.736 448.801 315.965 468.821 315.965Z" fill="#FF4000"/>
<path d="M462.936 285.125H455.336L468.786 257.791L482.307 285.1H474.7V296.464H462.936V285.125Z" fill="white"/>
<path d="M277.475 148.638C282.632 142.599 289.717 138.528 297.532 137.114L294.06 134.197L297.773 133.876L302.525 137.87L298.531 142.622L294.818 142.943L297.494 139.761C289.616 141.326 282.617 145.8 277.889 152.293C273.162 158.786 271.053 166.821 271.983 174.798C272.913 182.776 276.813 190.111 282.908 195.342C289.002 200.573 296.843 203.317 304.869 203.028L304.963 205.615C298.258 205.856 291.628 204.14 285.882 200.675C280.137 197.21 275.525 192.147 272.61 186.104C269.695 180.062 268.602 173.301 269.466 166.647C270.33 159.994 273.113 153.736 277.475 148.638Z" fill="#E5E5E5"/>
<path d="M668.399 172.337C668.07 181.492 664.117 190.142 657.411 196.383C650.704 202.623 641.793 205.945 632.638 205.615L632.731 203.028C640.757 203.317 648.598 200.573 654.692 195.342C660.787 190.111 664.687 182.776 665.617 174.798C666.547 166.821 664.439 158.786 659.711 152.293C654.984 145.8 647.984 141.326 640.106 139.761L642.783 142.943L639.069 142.622L635.075 137.87L639.827 133.876L643.54 134.197L640.068 137.114C648.235 138.601 655.594 142.979 660.796 149.447C665.999 155.916 668.698 164.041 668.399 172.337H668.399Z" fill="#E5E5E5"/>
<path d="M675.617 366.452H261.983C261.774 366.452 261.574 366.369 261.427 366.222C261.279 366.074 261.196 365.874 261.196 365.666C261.196 365.457 261.279 365.257 261.427 365.11C261.574 364.962 261.774 364.879 261.983 364.879H675.617C675.826 364.879 676.026 364.962 676.173 365.11C676.321 365.257 676.404 365.457 676.404 365.666C676.404 365.874 676.321 366.074 676.173 366.222C676.026 366.369 675.826 366.452 675.617 366.452Z" fill="#CBCBCB"/>
</g>
<defs>
<clipPath id="clip0_114_246">
<rect width="676.404" height="508" fill="white"/>
</clipPath>
</defs>
</svg>
