<svg width="655" height="557" viewBox="0 0 655 557" fill="none" xmlns="http://www.w3.org/2000/svg">
<g clip-path="url(#clip0_114_331)">
<path d="M578.969 318.278C575.374 349.9 567.905 375.288 557.653 395.536C544.011 422.514 520.677 433.384 499.832 444.758C493.809 448.038 487.546 450.834 481.102 453.12C443.17 466.637 400.717 463.051 367.369 455.915C343.98 450.905 320.238 447.823 296.37 446.698C289.563 446.383 282.748 446.226 275.928 446.228C265.41 446.242 76.026 449.933 29.9164 354.081C18.5322 330.436 10.729 301.553 7.92563 266.345C-0.00713396 166.809 43.5924 101.436 99.8311 58.7067C206.217 -22.1231 352.043 -18.7333 456.86 64.2256C526.679 119.485 592.051 203.116 578.969 318.278Z" fill="#F2F2F2"/>
<path d="M204.628 289.461C204.628 368.58 158.821 396.205 102.314 396.205C45.8076 396.205 0 368.58 0 289.461C0 210.342 102.314 109.69 102.314 109.69C102.314 109.69 204.628 210.342 204.628 289.461Z" fill="#FF4000"/>
<path d="M98.587 384.103L99.6347 317.887L143.244 235.969L99.7991 307.5L100.27 277.727L130.325 218.46L100.395 269.848L101.242 216.3L133.426 169.116L101.375 207.879L101.904 109.691L98.5774 239.674L98.851 234.312L66.1295 182.885L98.3264 244.606L95.2775 304.41L95.1867 302.823L57.4648 248.703L95.0721 308.43L94.6909 315.91L94.6226 316.022L94.654 316.636L86.9191 468.365H97.2535L98.4935 389.994L136.009 330.413L98.587 384.103Z" fill="#3F3D56"/>
<path d="M654.811 294.364C654.811 373.483 609.003 401.108 552.497 401.108C495.99 401.108 450.183 373.483 450.183 294.364C450.183 215.245 552.497 114.593 552.497 114.593C552.497 114.593 654.811 215.245 654.811 294.364Z" fill="#FF4000"/>
<path d="M548.77 389.005L549.817 322.789L593.426 240.872L549.982 312.402L550.452 282.629L580.508 223.363L550.577 274.75L551.424 221.202L583.608 174.018L551.557 212.782L552.087 114.593L548.76 244.577L549.034 239.215L516.312 187.787L548.509 249.508L545.46 309.313L545.369 307.725L507.647 253.605L545.255 313.333L544.873 320.812L544.805 320.924L544.837 321.539L537.102 473.267H547.436L548.676 394.897L586.191 335.316L548.77 389.005Z" fill="#3F3D56"/>
<path d="M441.998 227.168C441.998 313.672 391.915 343.876 330.134 343.876C268.354 343.876 218.271 313.672 218.271 227.168C218.271 140.665 330.134 30.6192 330.134 30.6192C330.134 30.6192 441.998 140.665 441.998 227.168Z" fill="#FF4000"/>
<path d="M326.059 330.643L327.204 258.248L374.883 168.684L327.384 246.891L327.899 214.339L360.759 149.541L328.035 205.725L328.961 147.179L364.149 95.5907L329.107 137.972L329.686 30.6195L326.049 172.735L326.347 166.872L290.572 110.645L325.774 178.127L322.44 243.513L322.342 241.777L281.099 182.607L322.217 247.909L321.799 256.085L321.725 256.209L321.759 256.88L313.302 422.77H324.601L325.957 337.085L366.974 271.943L326.059 330.643Z" fill="#3F3D56"/>
<path d="M567.503 480.441C567.503 499.007 449.014 556.781 302.85 556.781C156.686 556.781 38.1973 499.007 38.1973 480.441C38.1973 461.874 147.137 420.209 293.301 420.209C439.465 420.209 567.503 461.874 567.503 480.441Z" fill="#3F3D56"/>
<path opacity="0.1" d="M567.503 480.441C567.503 499.007 449.014 556.781 302.85 556.781C156.686 556.781 38.1973 499.007 38.1973 480.441C38.1973 461.874 147.137 420.209 293.301 420.209C439.465 420.209 567.503 461.874 567.503 480.441Z" fill="black"/>
<path d="M567.503 480.441C567.503 499.007 449.014 514.059 302.85 514.059C156.686 514.059 38.1973 499.007 38.1973 480.441C38.1973 461.874 147.137 420.209 293.301 420.209C439.465 420.209 567.503 461.874 567.503 480.441Z" fill="#3F3D56"/>
<path d="M391.814 387.348C391.814 413.982 408.088 435.534 428.198 435.534L391.814 387.348Z" fill="#3F3D56"/>
<path d="M428.198 435.534C428.198 408.601 446.358 386.807 468.8 386.807L428.198 435.534Z" fill="#FF4000"/>
<path d="M404.997 389.762C404.997 415.062 415.374 435.534 428.198 435.534L404.997 389.762Z" fill="#FF4000"/>
<path d="M428.198 435.534C428.198 401.119 449.188 373.271 475.127 373.271L428.198 435.534Z" fill="#3F3D56"/>
<path d="M420.544 435.874C420.544 435.874 425.704 435.711 427.259 434.574C428.814 433.437 435.196 432.08 435.582 433.903C435.967 435.726 443.336 442.972 437.51 443.02C431.685 443.069 423.975 442.089 422.423 441.118C420.871 440.147 420.544 435.874 420.544 435.874Z" fill="#A8A8A8"/>
<path opacity="0.2" d="M437.614 442.386C431.789 442.434 424.079 441.454 422.527 440.483C421.345 439.744 420.874 437.091 420.716 435.867C420.607 435.872 420.544 435.874 420.544 435.874C420.544 435.874 420.871 440.147 422.423 441.118C423.975 442.089 431.685 443.069 437.51 443.02C439.192 443.006 439.773 442.392 439.741 441.482C439.507 442.032 438.866 442.375 437.614 442.386Z" fill="black"/>
<path opacity="0.1" d="M306.26 491.647C355.986 491.647 396.297 485.062 396.297 476.939C396.297 468.816 355.986 462.231 306.26 462.231C256.534 462.231 216.224 468.816 216.224 476.939C216.224 485.062 256.534 491.647 306.26 491.647Z" fill="black"/>
<path d="M345.822 444.021H336.955V465.033H345.822V444.021Z" fill="#FFB9B9"/>
<path d="M346.504 160.372H312.399V223.405H346.504V160.372Z" fill="#FF6584"/>
<path d="M371.552 279.666L372.732 289.363L341.648 299.059L337.713 281.283L371.552 279.666Z" fill="#FFB9B9"/>
<path d="M325.515 186.34C325.515 186.34 324.728 193.612 323.154 193.612C321.58 193.612 316.072 196.44 316.072 196.44L314.498 204.117L325.515 210.985L343.615 208.965L348.73 200.884L343.615 195.632C343.615 195.632 339.287 185.936 340.86 183.916C342.434 181.896 325.515 186.34 325.515 186.34Z" fill="#FFB9B9"/>
<path opacity="0.1" d="M325.515 186.34C325.515 186.34 324.728 193.612 323.154 193.612C321.58 193.612 316.072 196.44 316.072 196.44L314.498 204.117L325.515 210.985L343.615 208.965L348.73 200.884L343.615 195.632C343.615 195.632 339.287 185.936 340.86 183.916C342.434 181.896 325.515 186.34 325.515 186.34Z" fill="black"/>
<path d="M276.332 438.039C276.332 438.039 272.791 462.28 268.462 463.896C264.134 465.512 284.988 468.34 284.988 468.34L286.562 459.451C286.562 459.451 286.955 443.291 288.529 440.867C290.103 438.443 276.332 438.039 276.332 438.039Z" fill="#FFB9B9"/>
<path d="M316.465 297.039C316.465 297.039 373.518 286.535 373.912 284.515C374.305 282.495 385.716 299.867 378.634 333.804C371.551 367.741 353.845 447.735 353.845 447.735C353.845 447.735 335.745 453.391 336.139 448.947C336.532 444.503 342.434 367.337 342.434 367.337L338.5 334.612L331.811 338.652L303.875 395.214L289.71 444.099C289.71 444.099 271.61 447.331 274.364 440.463C277.119 433.595 286.168 380.265 286.168 380.265L310.957 305.119C310.957 305.119 310.17 297.039 316.465 297.039Z" fill="#2F2E41"/>
<path d="M330.827 191.794C339.954 191.794 347.353 184.197 347.353 174.826C347.353 165.454 339.954 157.857 330.827 157.857C321.701 157.857 314.302 165.454 314.302 174.826C314.302 184.197 321.701 191.794 330.827 191.794Z" fill="#FFB9B9"/>
<path d="M347.943 196.036C347.943 196.036 340.073 203.713 321.58 201.692C303.087 199.672 326.695 244.922 326.695 244.922L334.171 290.575C334.171 290.575 367.223 286.535 368.403 278.859C369.584 271.182 347.943 196.036 347.943 196.036Z" fill="#F2F2F2"/>
<path d="M340.073 239.265C340.073 239.265 330.63 234.417 327.089 221.085C323.547 207.753 320.4 194.016 318.432 194.42C316.771 194.761 301.366 200.863 296.373 204.943C295.452 205.695 294.885 206.379 294.824 206.945C294.431 210.581 308.989 246.942 308.989 246.942C308.989 246.942 320.4 273.202 315.678 281.687C310.956 290.171 310.563 301.079 319.219 300.271C327.876 299.463 356.599 297.847 352.664 275.222C352.664 275.222 360.14 290.979 380.994 279.667C380.994 279.667 393.585 277.647 393.191 273.202C392.798 268.758 373.125 230.377 373.125 230.377C373.125 230.377 369.977 213.409 375.879 206.945L362.501 190.784C362.501 190.784 359.353 185.936 356.205 188.36C353.058 190.784 345.975 194.824 344.795 195.228C343.614 195.632 342.838 193.776 342.838 193.776C340.112 199.631 339.019 206.147 339.68 212.601C340.86 223.105 340.073 239.265 340.073 239.265Z" fill="#2F2E41"/>
<path d="M277.512 459.047C277.512 459.047 276.634 456.219 271.564 459.047C271.564 459.047 273.184 450.159 267.676 450.159C262.167 450.159 260.2 460.664 260.2 460.664C260.2 460.664 258.626 467.532 248.002 470.36C237.378 473.188 245.641 482.884 253.117 482.884C260.593 482.884 270.43 476.824 270.43 476.824C270.43 476.824 290.89 477.228 291.284 473.188C291.677 469.148 289.316 457.027 287.742 457.027C286.169 457.027 283.021 462.684 283.021 462.684L277.512 459.047Z" fill="#2F2E41"/>
<path d="M344.401 451.937C344.401 451.937 338.893 445.877 335.745 455.978C332.597 466.078 330.236 470.118 332.204 471.734C334.171 473.35 335.745 472.542 334.958 475.774C334.171 479.006 337.319 485.874 344.401 485.874C351.484 485.874 353.451 480.622 353.058 476.986C352.664 473.35 349.517 468.906 349.517 468.906L346.369 457.594L344.401 451.937Z" fill="#2F2E41"/>
<path d="M375.486 167.755L354.632 175.028C354.632 175.028 335.746 186.34 344.009 188.764C352.271 191.188 359.354 181.492 359.354 181.492L377.453 176.644L375.486 167.755Z" fill="#FFB9B9"/>
<path d="M319.583 148.586C317.107 150.328 315.136 152.713 313.262 155.12C309.455 160.011 305.724 165.852 306.662 172.039C307.018 174.389 308.035 176.576 308.608 178.88C309.381 181.99 309.33 185.245 309.274 188.454C309.32 189.817 309.155 191.18 308.786 192.49C308.235 193.768 307.587 194.998 306.848 196.171C304.952 199.795 304.906 204.101 304.904 208.215C304.814 209.599 304.997 210.989 305.444 212.299C305.961 213.536 306.925 214.506 307.723 215.573C309.047 217.376 309.931 219.479 310.3 221.705C310.669 223.932 310.512 226.216 309.843 228.368C310.87 228.372 311.877 228.076 312.746 227.514C313.615 226.951 314.309 226.146 314.748 225.193C314.884 226.218 314.798 227.261 314.496 228.248C314.194 229.235 313.683 230.142 312.999 230.902C317.504 229.528 322.332 227.211 323.976 222.691C324.458 221.155 324.73 219.558 324.784 217.945C325.659 206.608 326.158 194.846 322.198 184.225C320.931 180.827 319.207 177.538 318.782 173.926C318.358 170.313 319.656 166.139 322.888 164.647C322.963 165.572 323.363 166.437 324.014 167.082C324.733 167.63 326.063 167.286 326.076 166.366L327.638 168.598C328.236 168.296 328.748 167.838 329.12 167.27L330.19 168.615L332.467 166.915L334.443 169.104C335.204 168.659 335.811 167.981 336.179 167.165C336.604 167.817 337.129 168.534 337.891 168.605C339.548 168.758 339.89 166.057 341.338 165.215C341.873 164.972 342.475 164.935 343.035 165.109C343.594 165.283 344.075 165.657 344.388 166.164C344.985 167.207 345.203 168.434 345.002 169.626C344.403 175.181 339.787 180.25 341.155 185.66C341.925 188.702 344.517 191.141 344.713 194.278C344.869 196.785 343.434 199.156 343.456 201.668C343.482 204.611 345.462 207.111 347.396 209.285C350.837 213.152 354.459 216.839 358.262 220.344L357.087 218.234C357.636 218.19 358.187 218.268 358.703 218.463C359.22 218.658 359.689 218.965 360.079 219.364C360.417 218.151 359.857 216.887 359.328 215.748C356.165 208.927 353.611 201.665 353.23 194.12C352.7 183.633 356.372 172.983 354.045 162.757C352.706 157.032 349.586 151.911 345.158 148.17C343.005 146.351 341.373 145.261 338.586 145.061C335.47 144.783 332.335 144.808 329.224 145.136C325.787 145.472 322.479 146.656 319.583 148.586Z" fill="#FF6584"/>
<path d="M359.354 191.188C359.354 191.188 363.682 191.592 365.649 191.188C367.616 190.784 370.371 188.764 370.371 188.764L385.322 177.452L372.338 179.472C372.338 179.472 374.699 160.887 373.912 160.483C373.125 160.079 412.078 152.403 411.291 164.927C410.504 177.452 388.47 202.096 375.879 206.945L367.616 208.157L359.354 191.188Z" fill="#2F2E41"/>
<path d="M401.753 334.42H216.224V379.244H401.753V334.42Z" fill="white"/>
<path d="M377.539 344.576H239.756V368.388H377.539V344.576Z" fill="#3F3D56"/>
<path d="M271.775 355.959C271.72 355.349 269.09 355.077 265.481 355.23C267.572 352.206 268.784 349.793 268.315 349.413C267.873 349.055 266.064 350.605 263.861 353.123C263.653 349.745 263.17 347.377 262.606 347.377C261.992 347.377 261.473 350.194 261.302 354.066C258.237 351.803 255.762 350.475 255.381 350.97C255.017 351.443 256.674 353.44 259.307 355.828C255.832 356.357 253.383 357.105 253.437 357.705C253.493 358.315 256.123 358.587 259.732 358.434C257.64 361.458 256.429 363.871 256.898 364.251C257.34 364.609 259.149 363.059 261.351 360.541C261.56 363.919 262.043 366.287 262.606 366.287C263.221 366.287 263.74 363.47 263.911 359.597C266.976 361.861 269.451 363.189 269.832 362.694C270.195 362.221 268.539 360.224 265.906 357.836C269.381 357.306 271.83 356.559 271.775 355.959Z" fill="white"/>
<path d="M294.967 355.959C294.912 355.349 292.281 355.077 288.672 355.23C290.764 352.206 291.975 349.793 291.506 349.413C291.064 349.055 289.255 350.605 287.053 353.123C286.845 349.745 286.361 347.377 285.798 347.377C285.183 347.377 284.664 350.194 284.493 354.066C281.428 351.803 278.954 350.475 278.573 350.97C278.209 351.443 279.865 353.44 282.499 355.828C279.023 356.357 276.575 357.105 276.629 357.705C276.684 358.315 279.314 358.587 282.923 358.434C280.832 361.458 279.621 363.871 280.089 364.251C280.531 364.609 282.34 363.059 284.543 360.541C284.751 363.919 285.234 366.287 285.798 366.287C286.412 366.287 286.932 363.47 287.102 359.597C290.167 361.861 292.642 363.189 293.023 362.694C293.387 362.221 291.73 360.224 289.097 357.836C292.572 357.306 295.021 356.559 294.967 355.959Z" fill="white"/>
<path d="M318.158 355.959C318.103 355.349 315.473 355.077 311.864 355.23C313.955 352.206 315.166 349.793 314.698 349.413C314.256 349.055 312.447 350.605 310.244 353.123C310.036 349.745 309.553 347.377 308.989 347.377C308.375 347.377 307.855 350.194 307.685 354.066C304.62 351.803 302.145 350.475 301.764 350.97C301.4 351.443 303.057 353.44 305.69 355.828C302.215 356.357 299.766 357.105 299.82 357.705C299.875 358.315 302.506 358.587 306.115 358.434C304.023 361.458 302.812 363.871 303.281 364.251C303.723 364.609 305.532 363.059 307.734 360.541C307.942 363.919 308.426 366.287 308.989 366.287C309.604 366.287 310.123 363.47 310.294 359.597C313.359 361.861 315.833 363.189 316.214 362.694C316.578 362.221 314.922 360.224 312.288 357.836C315.764 357.306 318.212 356.559 318.158 355.959Z" fill="white"/>
<path d="M341.35 355.959C341.294 355.349 338.664 355.077 335.055 355.23C337.147 352.206 338.358 349.793 337.889 349.413C337.447 349.055 335.638 350.605 333.436 353.123C333.227 349.745 332.744 347.377 332.181 347.377C331.566 347.377 331.047 350.194 330.876 354.066C327.811 351.803 325.336 350.475 324.955 350.97C324.592 351.443 326.248 353.44 328.881 355.828C325.406 356.357 322.957 357.105 323.012 357.705C323.067 358.315 325.697 358.587 329.306 358.434C327.215 361.458 326.003 363.871 326.472 364.251C326.914 364.609 328.723 363.059 330.926 360.541C331.134 363.919 331.617 366.287 332.181 366.287C332.795 366.287 333.314 363.47 333.485 359.597C336.55 361.861 339.025 363.189 339.406 362.694C339.77 362.221 338.113 360.224 335.48 357.836C338.955 357.306 341.404 356.559 341.35 355.959Z" fill="white"/>
<path d="M364.54 355.959C364.485 355.349 361.855 355.077 358.246 355.23C360.337 352.206 361.548 349.793 361.08 349.413C360.638 349.055 358.829 350.605 356.626 353.123C356.418 349.745 355.934 347.377 355.371 347.377C354.757 347.377 354.237 350.194 354.066 354.066C351.002 351.803 348.527 350.475 348.146 350.97C347.782 351.443 349.439 353.44 352.072 355.828C348.596 356.357 346.148 357.105 346.202 357.705C346.257 358.315 348.887 358.587 352.496 358.434C350.405 361.458 349.194 363.871 349.662 364.251C350.105 364.609 351.914 363.059 354.116 360.541C354.324 363.919 354.808 366.287 355.371 366.287C355.986 366.287 356.505 363.47 356.676 359.597C359.74 361.861 362.215 363.189 362.596 362.694C362.96 362.221 361.304 360.224 358.67 357.836C362.146 357.306 364.594 356.559 364.54 355.959Z" fill="white"/>
<path d="M292.464 315.219C292.464 315.219 290.497 341.884 299.94 343.096C309.383 344.308 300.727 312.795 300.727 312.795L292.464 315.219Z" fill="#FFB9B9"/>
<path d="M297.579 206.137L294.825 206.945C294.825 206.945 283.414 300.675 290.89 318.856C290.89 318.856 298.759 314.411 302.694 315.219L308.99 238.861L297.579 206.137Z" fill="#2F2E41"/>
</g>
<defs>
<clipPath id="clip0_114_331">
<rect width="654.811" height="556.781" fill="white"/>
</clipPath>
</defs>
</svg>
