<svg width="500" height="500" viewBox="0 0 500 500" fill="none" xmlns="http://www.w3.org/2000/svg">
<path d="M252.37 499.408C388.478 499.408 498.815 488.708 498.815 475.51C498.815 462.312 388.478 451.613 252.37 451.613C116.261 451.613 5.92407 462.312 5.92407 475.51C5.92407 488.708 116.261 499.408 252.37 499.408Z" fill="#3F3D56"/>
<path d="M461.712 431.115L464.021 452.14L447.853 454.051L450.162 428.248L461.712 431.115Z" fill="#A0616A"/>
<path d="M385.487 142.507C385.487 142.507 387.026 168.31 387.026 169.266C387.026 170.221 376.247 236.161 376.247 236.161C376.247 236.161 360.848 272.476 376.247 271.521C391.646 270.565 387.026 237.117 387.026 237.117L403.195 181.689L396.266 142.507L385.487 142.507Z" fill="#A0616A"/>
<path d="M410.895 431.115L408.585 452.14L424.754 454.051L422.444 428.248L410.895 431.115Z" fill="#A0616A"/>
<path d="M393.186 234.25L389.336 240.94C389.336 240.94 387.027 269.609 389.336 279.166C391.646 288.723 396.266 332.683 396.266 335.55C396.266 338.417 397.036 340.328 396.266 341.284C395.496 342.239 393.186 342.239 394.726 344.151C396.266 346.062 396.266 351.796 396.266 351.796V356.574L406.275 427.293C406.275 427.293 400.116 435.893 404.735 435.893C409.355 435.893 426.294 435.893 425.524 426.337L423.984 425.381C423.984 425.381 421.674 362.308 422.444 359.441C423.214 356.574 422.444 350.84 422.444 350.84C422.444 350.84 420.904 347.973 422.444 347.018C423.984 346.062 423.984 338.417 423.984 338.417L430.913 280.122C430.913 280.122 437.073 319.304 440.923 323.126C444.772 326.949 444.003 336.505 444.003 336.505L447.082 420.603C447.082 420.603 444.002 430.16 447.082 432.071C450.162 433.982 463.251 440.672 464.021 431.115C464.791 421.559 468.641 338.417 468.641 334.594C468.641 330.771 467.871 328.86 468.641 325.993C469.411 323.126 467.871 323.126 468.641 323.126C469.411 323.126 467.101 320.259 467.101 318.348V271.521C467.101 271.521 467.871 261.964 468.641 260.053C469.411 258.142 467.871 256.23 468.641 253.363C469.411 250.496 467.101 240.94 467.101 240.94L432.453 229.472L393.186 234.25Z" fill="#2F2E41"/>
<path d="M420.134 448.317C420.134 448.317 423.984 443.539 418.594 443.539C415.134 443.626 411.726 444.602 408.585 446.406L404.735 463.607C404.735 463.607 388.951 479.376 406.66 477.464C424.369 475.553 421.674 476.987 421.674 476.987C421.674 476.987 427.064 475.075 427.834 473.164C428.604 471.253 426.294 443.539 426.294 443.539C426.294 443.539 423.984 451.184 420.134 448.317Z" fill="#2F2E41"/>
<path d="M453.242 448.317C453.242 448.317 449.392 443.539 454.782 443.539C458.242 443.626 461.65 444.602 464.791 446.406L468.641 463.607C468.641 463.607 484.425 479.376 466.716 477.465C449.007 475.553 449.392 476.987 449.392 476.987C449.392 476.987 444.003 475.075 443.233 473.164C442.463 471.253 447.082 443.539 447.082 443.539C447.082 443.539 449.392 451.184 453.242 448.317Z" fill="#2F2E41"/>
<path d="M403.195 67.0104C414.251 67.0104 423.214 55.886 423.214 42.1634C423.214 28.4407 414.251 17.3163 403.195 17.3163C392.139 17.3163 383.177 28.4407 383.177 42.1634C383.177 55.886 392.139 67.0104 403.195 67.0104Z" fill="#A0616A"/>
<path d="M396.266 60.3208C396.266 60.3208 399.346 79.4339 399.346 82.3009C399.346 85.1679 412.435 93.7687 412.435 93.7687L427.064 70.833C427.064 70.833 417.825 54.5869 417.825 50.7643L396.266 60.3208Z" fill="#A0616A"/>
<path d="M407.815 85.1679C407.815 85.1679 401.104 82.9509 399.07 79.2811C399.07 79.2811 377.787 105.237 377.787 110.015L394.726 147.285C394.726 147.285 394.726 160.665 396.266 161.62C397.806 162.576 396.266 161.62 396.266 165.443C396.266 169.265 391.646 194.113 393.186 197.935C394.726 201.758 396.266 198.891 394.726 204.625C393.186 210.359 389.336 240.94 389.336 240.94C389.336 240.94 403.195 235.206 423.214 244.762C443.232 254.319 467.101 240.94 467.101 240.94C467.101 240.94 460.941 223.738 462.481 218.004C464.021 212.27 458.631 201.758 458.631 201.758L454.782 113.838C454.782 113.838 460.171 74.6557 456.322 72.7444L448.622 68.9217L423.965 65.1603C423.965 65.1603 417.824 84.2122 407.815 85.1679Z" fill="#D0CDE1"/>
<path d="M385.487 103.325L377.787 110.015C377.787 110.015 373.937 124.35 377.787 131.039C381.637 137.729 383.177 147.286 383.177 147.286L398.576 145.374L385.487 103.325Z" fill="#D0CDE1"/>
<path d="M387.911 15.9043L384.439 14.1789C384.439 14.1789 391.699 4.25734 401.801 5.1201L398.96 1.23772C398.96 1.23772 405.905 -2.21321 412.219 6.84553C415.537 11.6075 419.378 17.205 421.771 23.5105H425.49L423.938 27.7523L429.37 31.9941L423.795 31.2321C424.323 34.8942 424.142 38.6596 423.267 42.2179L423.417 45.5707C423.417 45.5707 416.954 33.1591 416.954 31.4336V35.7473C416.954 35.7473 413.481 31.865 413.481 29.2768L411.587 32.2964L410.64 27.5513L398.96 32.2964L400.854 28.4141L393.594 29.7082L396.435 24.9631C396.435 24.9631 388.227 30.571 387.911 35.3161C387.596 40.0611 383.492 46.1003 383.492 46.1003L381.598 41.7866C381.598 41.7866 378.757 22.3749 387.911 15.9043Z" fill="#2F2E41"/>
<path d="M392.554 208.561H86.593V475.329H392.554V208.561Z" fill="#F2F2F2"/>
<path d="M189.172 310.345H112.349V476.8H189.172V310.345Z" fill="#3F3D56"/>
<path d="M147.253 320.331H126.559V344.275H147.253V320.331Z" fill="#F2F2F2"/>
<path d="M174.962 320.331H154.268V344.275H174.962V320.331Z" fill="#F2F2F2"/>
<path d="M147.253 352.982H126.559V377.797H147.253V352.982Z" fill="#F2F2F2"/>
<path d="M174.962 352.982H154.268V377.797H174.962V352.982Z" fill="#F2F2F2"/>
<path d="M179.403 410.842C182.101 410.842 184.288 408.127 184.288 404.779C184.288 401.43 182.101 398.716 179.403 398.716C176.705 398.716 174.518 401.43 174.518 404.779C174.518 408.127 176.705 410.842 179.403 410.842Z" fill="#FF4000"/>
<path d="M366.798 294.544H214.928V452.731H366.798V294.544Z" fill="#3F3D56"/>
<path d="M424.527 258.784H54.6204L79.2839 194.781L84.8034 180.451L92.0244 161.711L97.5439 147.38L103.943 130.779H395.383L399.162 147.38L402.426 161.711L406.694 180.451L409.957 194.781L424.527 258.784Z" fill="#3F3D56"/>
<path d="M225.586 360.134H220.257V400.921H225.586V360.134Z" fill="#FF4000"/>
<path d="M225.586 366.197H220.257V371.157H225.586V366.197Z" fill="#F2F2F2"/>
<path d="M225.586 389.897H220.257V394.858H225.586V389.897Z" fill="#F2F2F2"/>
<path d="M241.128 360.134H228.25V400.921H241.128V360.134Z" fill="#FF4000"/>
<path d="M241.128 366.197H228.25V371.157H241.128V366.197Z" fill="#F2F2F2"/>
<path d="M241.128 389.897H228.25V394.858H241.128V389.897Z" fill="#F2F2F2"/>
<path d="M249.565 360.134H244.237V400.921H249.565V360.134Z" fill="#FF4000"/>
<path d="M249.565 366.197H244.237V371.157H249.565V366.197Z" fill="#F2F2F2"/>
<path d="M249.565 389.897H244.237V394.858H249.565V389.897Z" fill="#F2F2F2"/>
<path d="M257.559 360.134H252.23V400.921H257.559V360.134Z" fill="#FF4000"/>
<path d="M257.559 366.197H252.23V371.157H257.559V366.197Z" fill="#F2F2F2"/>
<path d="M257.559 389.897H252.23V394.858H257.559V389.897Z" fill="#F2F2F2"/>
<path d="M262.693 360.278L257.707 362.611L269.298 400.776L274.284 398.444L262.693 360.278Z" fill="#FF4000"/>
<path d="M264.416 365.951L259.43 368.284L260.84 372.926L265.826 370.593L264.416 365.951Z" fill="#F2F2F2"/>
<path d="M271.152 388.128L266.165 390.461L267.575 395.103L272.561 392.77L271.152 388.128Z" fill="#F2F2F2"/>
<path d="M361.914 360.134H349.036V400.921H361.914V360.134Z" fill="#FF4000"/>
<path d="M361.914 366.197H349.036V371.157H361.914V366.197Z" fill="#F2F2F2"/>
<path d="M361.914 389.897H349.036V394.858H361.914V389.897Z" fill="#F2F2F2"/>
<path d="M345.927 360.134H340.599V400.921H345.927V360.134Z" fill="#FF4000"/>
<path d="M345.927 366.197H340.599V371.157H345.927V366.197Z" fill="#F2F2F2"/>
<path d="M345.927 389.897H340.599V394.858H345.927V389.897Z" fill="#F2F2F2"/>
<path d="M337.934 360.134H332.605V400.921H337.934V360.134Z" fill="#FF4000"/>
<path d="M337.934 366.197H332.605V371.157H337.934V366.197Z" fill="#F2F2F2"/>
<path d="M337.934 389.897H332.605V394.858H337.934V389.897Z" fill="#F2F2F2"/>
<path d="M327.471 360.278L315.88 398.443L320.866 400.776L332.457 362.611L327.471 360.278Z" fill="#FF4000"/>
<path d="M325.748 365.951L324.338 370.593L329.324 372.926L330.734 368.284L325.748 365.951Z" fill="#F2F2F2"/>
<path d="M319.012 388.128L317.603 392.77L322.589 395.103L323.999 390.461L319.012 388.128Z" fill="#F2F2F2"/>
<path d="M366.798 400.921H214.928V404.779H366.798V400.921Z" fill="#F2F2F2"/>
<path d="M309.07 360.134H281.094V400.921H309.07V360.134Z" fill="#FF4000"/>
<path d="M302.187 368.953H287.977V376.669H302.187V368.953Z" fill="#F2F2F2"/>
<path d="M292.195 294.544H289.531V329.819H292.195V294.544Z" fill="#F2F2F2"/>
<path d="M290.863 335.331C293.316 335.331 295.304 332.863 295.304 329.819C295.304 326.775 293.316 324.307 290.863 324.307C288.411 324.307 286.423 326.775 286.423 329.819C286.423 332.863 288.411 335.331 290.863 335.331Z" fill="#F2F2F2"/>
<path d="M402.426 161.711H92.0242L97.5437 147.38H399.162L402.426 161.711Z" fill="#FF4000"/>
<path d="M409.957 194.781H79.2837L84.8032 180.451H406.694L409.957 194.781Z" fill="#FF4000"/>
<path d="M442.463 111.926C442.463 111.926 438.004 126.157 438.935 140.236C439.106 142.757 439.79 145.183 440.923 147.286L386.299 179.473C386.299 179.473 361.618 182.645 367.778 196.024C373.937 209.403 396.266 189.334 396.266 189.334C396.266 189.334 454.782 178.822 459.401 168.31C464.021 157.798 467.101 113.838 467.101 113.838L442.463 111.926Z" fill="#A0616A"/>
<path d="M444.772 72.7444H456.322C456.322 72.7444 464.791 74.6558 467.101 93.7689C469.411 112.882 471.721 117.66 469.411 117.66C467.101 117.66 439.383 116.705 439.383 115.749C439.383 114.793 444.772 72.7444 444.772 72.7444Z" fill="#D0CDE1"/>
<path d="M59.2417 358.229C91.96 358.229 118.483 325.308 118.483 284.698C118.483 244.088 91.96 211.167 59.2417 211.167C26.5234 211.167 0 244.088 0 284.698C0 325.308 26.5234 358.229 59.2417 358.229Z" fill="#FF4000"/>
<path opacity="0.1" d="M59.2418 347.934C87.3795 347.934 110.19 319.622 110.19 284.698C110.19 249.773 87.3795 221.461 59.2418 221.461C31.1041 221.461 8.29395 249.773 8.29395 284.698C8.29395 319.622 31.1041 347.934 59.2418 347.934Z" fill="black"/>
<path d="M56.8004 322.013V312.809C53.052 312.719 49.1742 311.078 46.9124 308.8L48.4633 302.694C51.1513 305.194 54.411 306.567 57.7698 306.612C62.3586 306.612 65.4608 302.876 65.4608 297.682C65.4608 292.67 62.9401 289.572 58.1576 286.838C51.5655 283.193 47.4939 279.001 47.4939 271.073C47.4939 263.509 51.3071 257.768 57.253 256.401V247.197H61.2598V256.037C64.2477 256.087 67.1621 257.194 69.6617 259.226L68.0457 265.241C65.6485 263.204 62.8077 262.123 59.9026 262.142C54.9264 262.142 53.052 266.334 53.052 269.979C53.052 274.718 55.4433 277.087 61.0661 280.368C67.7226 284.195 71.0835 288.934 71.0835 297.044C71.0835 304.243 67.5288 310.987 60.872 312.535V322.013H56.8004Z" fill="#F2F2F2"/>
</svg>
