<svg width="235" height="223" viewBox="0 0 235 223" fill="none" xmlns="http://www.w3.org/2000/svg">
<g clip-path="url(#clip0_1_153)">
<path d="M235 115.719C235.026 130.663 231.616 145.446 224.99 159.11C224.712 159.683 224.431 160.253 224.141 160.82C224.1 160.908 224.053 160.996 224.009 161.085C223.897 161.301 223.786 161.521 223.672 161.737C223.59 161.895 223.508 162.05 223.423 162.208C223.221 162.594 223.015 162.977 222.807 163.359C222.579 163.779 222.347 164.198 222.113 164.616C221.878 165.034 221.641 165.45 221.401 165.866C221.19 166.227 220.978 166.587 220.765 166.946C220.49 167.409 220.209 167.872 219.924 168.335C219.678 168.731 219.431 169.124 219.183 169.515C218.916 169.932 218.647 170.349 218.374 170.767L218.348 170.807C218.289 170.898 218.23 170.989 218.169 171.08C218.113 171.163 218.06 171.243 218.005 171.326C217.949 171.409 217.896 171.489 217.841 171.569V171.572C217.662 171.84 217.483 172.102 217.304 172.367L217.302 172.369C216.9 172.958 216.49 173.544 216.077 174.124C215.309 175.205 214.521 176.27 213.712 177.319C213.712 177.321 213.709 177.321 213.706 177.324C213.223 177.955 212.728 178.581 212.229 179.202C211.91 179.598 211.588 179.992 211.262 180.385C210.937 180.778 210.609 181.168 210.278 181.554C210.205 181.642 210.129 181.73 210.052 181.819C209.63 182.311 209.203 182.803 208.769 183.287C208.675 183.394 208.581 183.499 208.491 183.603C208.347 183.761 208.206 183.919 208.066 184.074C208.019 184.127 207.972 184.178 207.922 184.232C207.682 184.494 207.442 184.756 207.195 185.018V185.021C206.958 185.278 206.718 185.535 206.475 185.791C206.422 185.848 206.369 185.904 206.313 185.96C206.234 186.046 206.152 186.129 206.07 186.214C205.868 186.431 205.66 186.645 205.449 186.859C205.446 186.862 205.446 186.864 205.443 186.867L205.434 186.875V186.878C199.135 193.366 191.999 199.135 184.182 204.059C184.156 204.077 184.128 204.094 184.1 204.11C184.003 204.174 183.906 204.233 183.81 204.294C183.109 204.733 182.403 205.166 181.691 205.589C181.343 205.798 180.994 206.004 180.642 206.207V206.21C180.639 206.21 180.639 206.21 180.636 206.212H180.63L180.625 206.218L180.607 206.226C180.598 206.231 180.592 206.234 180.584 206.239C180.314 206.397 180.047 206.552 179.775 206.707C179.693 206.758 179.611 206.804 179.529 206.849C179.385 206.932 179.239 207.015 179.092 207.098C178.949 207.178 178.802 207.261 178.656 207.341C178.471 207.443 178.286 207.547 178.102 207.646C177.7 207.868 177.298 208.088 176.895 208.304C176.748 208.385 176.599 208.462 176.449 208.543C176.303 208.62 176.153 208.698 176.004 208.775C176.002 208.778 175.999 208.78 175.996 208.782C175.993 208.784 175.99 208.785 175.986 208.786L175.98 208.789L175.974 208.794H175.971C175.561 209.008 175.154 209.222 174.741 209.431L174.738 209.433C174.407 209.602 174.076 209.768 173.742 209.934C172.951 210.327 172.154 210.713 171.354 211.092C170.797 211.357 170.237 211.614 169.675 211.868C169.335 212.023 168.992 212.176 168.649 212.328C168.365 212.454 168.078 212.58 167.793 212.703C167.714 212.737 167.638 212.772 167.559 212.804C167.43 212.861 167.298 212.917 167.169 212.97C167.061 213.016 166.955 213.061 166.847 213.107C166.589 213.219 166.328 213.326 166.07 213.433C165.78 213.553 165.493 213.671 165.203 213.789C164.113 214.233 163.011 214.661 161.907 215.073C157.96 216.548 153.927 217.822 149.826 218.888C149.635 218.939 149.442 218.99 149.248 219.038C147.493 219.487 145.725 219.898 143.945 220.271C140.836 220.924 137.699 221.46 134.533 221.879C134.527 221.879 134.518 221.882 134.512 221.882C134.134 221.933 133.754 221.981 133.376 222.029C133.343 222.034 133.308 222.04 133.273 222.042C133.27 222.045 133.267 222.045 133.261 222.042H133.258C132.839 222.093 132.42 222.144 131.998 222.192C131.969 222.197 131.94 222.2 131.91 222.203C131.518 222.246 131.122 222.288 130.727 222.328C130.302 222.371 129.877 222.411 129.449 222.452H129.446C128.796 222.51 128.145 222.567 127.495 222.615C127.483 222.615 127.471 222.617 127.46 222.617C127.202 222.639 126.944 222.655 126.686 222.674H126.683C123.65 222.893 120.589 223.002 117.5 223C114.145 223 110.824 222.872 107.537 222.617C107.526 222.617 107.514 222.615 107.502 222.615C106.802 222.561 106.103 222.502 105.404 222.438C105.22 222.422 105.038 222.403 104.853 222.387C104.818 222.385 104.783 222.382 104.748 222.377C104.692 222.371 104.636 222.366 104.578 222.361C104.549 222.358 104.516 222.355 104.487 222.35C104.244 222.326 104.001 222.302 103.755 222.275C103.482 222.246 103.207 222.216 102.934 222.184C102.662 222.155 102.386 222.123 102.114 222.088C102.055 222.082 101.993 222.077 101.935 222.066C101.736 222.045 101.536 222.021 101.34 221.994C101.243 221.983 101.15 221.97 101.056 221.957C100.865 221.933 100.678 221.909 100.487 221.882C100.481 221.882 100.473 221.879 100.467 221.879C94.4833 221.09 88.5765 219.874 82.8009 218.243H82.7979C82.4844 218.155 82.1709 218.064 81.8573 217.973C81.7636 217.949 81.6698 217.922 81.576 217.893C80.7614 217.655 79.9517 217.409 79.1469 217.154C78.0364 216.807 76.9337 216.443 75.8388 216.063C75.5399 215.959 75.2439 215.854 74.9451 215.75C74.3502 215.536 73.7583 215.322 73.1694 215.103C72.1643 214.728 71.1661 214.342 70.1747 213.944H70.1718V213.941C69.3895 213.626 68.61 213.305 67.8364 212.97C67.6958 212.911 67.5552 212.853 67.4145 212.791C67.3876 212.784 67.3619 212.773 67.3383 212.759C67.3354 212.759 67.3354 212.756 67.3325 212.756C67.1303 212.671 66.9281 212.582 66.7259 212.494L66.72 212.491C65.6857 212.039 64.6601 211.573 63.6434 211.092C62.3834 210.498 61.1342 209.883 59.8957 209.246C58.8701 208.719 57.8543 208.178 56.8483 207.622C55.6557 206.964 54.4758 206.286 53.3087 205.589C52.9453 205.372 52.582 205.153 52.2186 204.931C51.8905 204.73 51.5652 204.53 51.2399 204.326C50.0913 203.609 48.9573 202.873 47.838 202.119C46.6806 201.34 45.5398 200.542 44.4156 199.725C42.9505 198.66 41.5147 197.565 40.1082 196.439C37.4857 194.347 34.9706 192.15 32.563 189.847C32.4868 189.775 32.4107 189.703 32.3345 189.628C32.0942 189.398 31.8569 189.168 31.6195 188.935C31.2738 188.598 30.9309 188.255 30.591 187.913C30.0284 187.354 29.4756 186.788 28.9326 186.217H28.9296V186.214C28.5985 185.869 28.2762 185.527 27.948 185.179V185.176C27.9011 185.128 27.8572 185.08 27.8132 185.032C27.6052 184.81 27.403 184.59 27.2009 184.366V184.363C26.9254 184.066 26.6558 183.769 26.3921 183.469C26.3335 183.405 26.2778 183.344 26.2222 183.279H26.2192V183.277C26.0024 183.036 25.7885 182.792 25.5775 182.549C25.4691 182.429 25.3636 182.306 25.2581 182.182H25.2552V182.18C24.6164 181.444 23.9904 180.701 23.377 179.951V179.949C23.207 179.743 23.04 179.537 22.8759 179.328H22.873C22.0877 178.359 21.3229 177.379 20.5786 176.388V176.385C20.2974 176.013 20.019 175.639 19.7435 175.261C19.4681 174.884 19.1956 174.506 18.926 174.127H18.9231C18.6447 173.736 18.3693 173.344 18.0968 172.95C18.0821 172.928 18.0675 172.91 18.0558 172.891C17.7862 172.503 17.5205 172.112 17.2588 171.719C17.0478 171.406 16.8398 171.096 16.6376 170.783C16.4969 170.571 16.3592 170.363 16.2244 170.149C16.1746 170.077 16.1307 170.004 16.0867 169.935C15.7761 169.451 15.4714 168.966 15.1666 168.479C14.8121 167.907 14.4605 167.329 14.1176 166.751C13.9769 166.513 13.8363 166.272 13.6986 166.031C13.6488 165.954 13.6048 165.876 13.5609 165.796C13.3968 165.512 13.2327 165.229 13.0715 164.943C12.9104 164.659 12.7492 164.373 12.591 164.086C12.4328 163.8 12.2745 163.514 12.1192 163.225C12.002 163.008 11.8848 162.789 11.7705 162.572C11.7587 162.554 11.7479 162.535 11.7383 162.516C11.6856 162.414 11.6299 162.315 11.5801 162.214C11.5684 162.198 11.5595 162.181 11.5537 162.163C11.4336 161.938 11.3164 161.716 11.2021 161.491C11.0497 161.202 10.9032 160.911 10.7567 160.619C10.6512 160.416 10.5516 160.21 10.449 160.004C10.3025 159.715 10.159 159.423 10.0183 159.129C9.86885 158.827 9.72527 158.522 9.58169 158.217C9.54363 158.139 9.50844 158.064 9.47331 157.987C9.40589 157.848 9.34143 157.708 9.27699 157.569C9.10411 157.2 8.93416 156.826 8.7671 156.454C8.57667 156.034 8.3911 155.613 8.2104 155.191C8.03749 154.798 7.8695 154.404 7.70641 154.008L7.64488 153.864V153.861C5.09885 147.752 3.17247 141.442 1.88998 135.011V135.008C1.15872 131.336 0.638387 127.632 0.331129 123.911C0.313566 123.708 0.298901 123.504 0.28425 123.301C0.0908841 120.783 -0.00385848 118.256 2.30191e-05 115.719C2.30191e-05 114.593 0.0195566 113.472 0.0586256 112.356C0.818381 89.0322 9.92467 66.5775 25.9848 48.4262C26.691 47.6263 27.4099 46.8362 28.1414 46.0559C28.9443 45.1998 29.7608 44.3553 30.591 43.5223C31.1653 42.9445 31.7465 42.3737 32.3345 41.8101C32.3455 41.7987 32.3572 41.788 32.3697 41.778C32.4312 41.7165 32.4956 41.6549 32.563 41.5934C36.1495 38.164 39.9818 34.9564 44.0347 31.9916C44.4976 31.6492 44.9606 31.3148 45.4294 30.9857C45.8455 30.6888 46.2616 30.3944 46.6806 30.1082C47.167 29.7711 47.6563 29.4385 48.1486 29.1103C50.7125 27.3954 53.3526 25.7759 56.0689 24.2519C57.2028 23.6152 58.3495 22.9963 59.5089 22.3952C59.9309 22.1731 60.3586 21.9564 60.7864 21.7397C61.3666 21.4481 61.9468 21.1592 62.5328 20.8783C79.9475 12.4788 99.3927 8.20469 119.086 8.44774C138.779 8.6908 158.091 13.4432 175.251 22.2694C175.333 22.3096 175.415 22.3524 175.494 22.3952C175.998 22.6574 176.499 22.9196 176.997 23.1898C177.648 23.5376 178.293 23.8916 178.934 24.2519C182.169 26.0685 185.298 28.0206 188.322 30.1082C188.791 30.432 189.26 30.7583 189.723 31.0901C190.142 31.387 190.558 31.6893 190.971 31.9916C191.197 32.1575 191.425 32.326 191.651 32.4946C196.599 36.1728 201.211 40.2115 205.443 44.5711L205.449 44.5764C205.514 44.6433 205.578 44.7075 205.639 44.7744C205.842 44.9831 206.044 45.1944 206.243 45.4031C206.269 45.4298 206.296 45.4593 206.322 45.4861C206.615 45.7937 206.906 46.1041 207.195 46.4171C210.718 50.2141 213.948 54.2296 216.862 58.4347C217.946 59.9917 218.984 61.5773 219.974 63.1914C229.856 79.226 235.032 97.3202 235 115.719Z" fill="#3F3D56"/>
<path d="M200.163 6.60336L207.195 180.417V180.42C206.958 180.719 206.718 181.018 206.474 181.317C206.343 181.483 206.208 181.645 206.07 181.81C205.868 182.062 205.66 182.311 205.449 182.561C205.446 182.564 205.446 182.567 205.443 182.57L205.434 182.579V182.582C199.266 190.016 192.13 196.735 184.182 202.592V202.661L184.1 202.651C184.003 202.726 183.906 202.795 183.81 202.867C183.109 203.377 182.403 203.882 181.691 204.375C181.342 204.618 180.993 204.857 180.642 205.094V205.097C180.639 205.097 180.639 205.097 180.636 205.101H180.63L180.624 205.107L180.607 205.116C180.598 205.122 180.592 205.126 180.583 205.132C180.314 205.316 180.047 205.496 179.775 205.677C179.693 205.736 179.611 205.789 179.529 205.842C179.385 205.939 179.238 206.035 179.092 206.132C178.948 206.225 178.802 206.322 178.655 206.415C178.072 206.796 177.483 207.169 176.894 207.537C176.748 207.631 176.598 207.721 176.449 207.814C176.302 207.905 176.153 207.995 176.004 208.086V208.095L175.986 208.098L175.98 208.101L175.974 208.107H175.971C175.561 208.357 175.154 208.606 174.741 208.849L174.738 208.852C174.407 209.048 174.076 209.241 173.741 209.435C172.95 209.893 172.153 210.345 171.353 210.784C170.797 211.092 170.237 211.391 169.674 211.687C169.334 211.868 168.992 212.046 168.649 212.223C168.365 212.37 168.077 212.516 167.793 212.66C167.714 212.7 167.638 212.741 167.559 212.778C167.43 212.843 167.298 212.909 167.169 212.971H67.8363C67.6956 212.903 67.555 212.834 67.4143 212.762C67.3869 212.754 67.3612 212.741 67.3381 212.725C67.3352 212.725 67.3352 212.722 67.3323 212.722C67.1301 212.622 66.9279 212.519 66.7257 212.416L66.7199 212.413C65.6855 211.887 64.66 211.344 63.6432 210.784C61.3371 209.519 59.0721 208.172 56.8481 206.743C55.6555 205.976 54.4756 205.187 53.3085 204.375C52.9451 204.122 52.5818 203.867 52.2184 203.608C51.8903 203.374 51.565 203.141 51.2398 202.904C50.0911 202.069 48.9572 201.212 47.8378 200.333C46.6804 199.427 45.5396 198.497 44.4154 197.545C42.9503 196.305 41.5145 195.029 40.108 193.718C37.4855 191.282 34.9705 188.723 32.5628 186.041C32.4867 185.957 32.4105 185.873 32.3343 185.785C31.7453 185.128 31.1642 184.462 30.5908 183.788L36.4512 6.60334C36.4458 5.52727 36.6614 4.45981 37.087 3.45632C37.9778 1.39992 39.7154 0.000915527 41.7108 0.000915527H194.903C196.925 0.000915527 198.68 1.43423 199.559 3.53423C199.589 3.60285 199.615 3.67139 199.641 3.73993C199.991 4.66075 200.167 5.62886 200.163 6.60336Z" fill="#3F3D56"/>
<path d="M55.8518 20.0856C60.2212 20.0856 63.7633 16.3191 63.7633 11.6729C63.7633 7.02665 60.2212 3.26013 55.8518 3.26013C51.4825 3.26013 47.9404 7.02665 47.9404 11.6729C47.9404 16.3191 51.4825 20.0856 55.8518 20.0856Z" fill="white"/>
<path d="M139.654 34.2197C126.316 37.423 111.537 39.3716 96.5101 39.9051C94.3079 40.0147 92.1004 40.001 89.9 39.8641C85.0644 39.4928 80.9224 38.1051 76.3094 37.3468C74.0918 36.9833 71.6215 36.7175 69.3889 36.3246C69.9048 35.7403 70.43 35.1631 70.9644 34.593C75.7786 34.9644 80.6677 36.18 85.5396 36.7448C93.8215 37.7064 103.101 36.6334 109.379 33.9872C112.425 32.7031 114.759 31.1005 117.794 29.8106C118.207 29.6171 118.654 29.492 119.115 29.4412C120.076 29.3611 120.919 29.7148 121.606 30.0314C126.699 32.3787 134.092 34.2862 140.955 33.2367C141.467 33.6021 140.495 34.0184 139.654 34.2197Z" fill="white"/>
<path d="M137.072 63.541C137.157 63.5267 137.243 63.5155 137.329 63.5019C136.968 63.2977 136.628 63.064 136.314 62.8036L137.072 63.541Z" fill="white"/>
<path d="M193.307 69.8801C189.384 70.1664 185.44 70.3795 181.475 70.5195C178.461 70.6681 175.439 70.6494 172.427 70.4634C165.808 69.9524 160.138 68.0555 153.823 67.0175C148.036 66.0678 141.004 65.6103 137.329 63.5021C146.826 62.0013 156.666 65.0565 166.458 66.1935C174.379 67.0828 182.409 66.7208 190.196 65.1234C191.28 66.6804 192.317 68.266 193.307 69.8801Z" fill="white"/>
<path d="M111.581 134.264V131.702C111.58 130.722 111.17 129.781 110.434 129.069C109.698 128.357 108.691 127.928 107.621 127.872V117.864H106.689V127.86H102.496V134.241H82.6938V207.623H126.49V148.651C126.49 144.967 124.945 141.423 122.172 138.748C119.399 136.072 115.609 134.468 111.581 134.264Z" fill="#2F2E41"/>
<path d="M95.7396 144.664H89.9156V148.918H95.7396V144.664Z" fill="white"/>
<path d="M105.291 144.664H99.467V148.918H105.291V144.664Z" fill="white"/>
<path d="M114.842 144.664H109.018V148.918H114.842V144.664Z" fill="white"/>
<path d="M95.7396 155.511H89.9156V159.765H95.7396V155.511Z" fill="white"/>
<path d="M105.291 155.511H99.467V159.765H105.291V155.511Z" fill="white"/>
<path d="M114.842 155.511H109.018V159.765H114.842V155.511Z" fill="white"/>
<path d="M95.7396 166.359H89.9156V170.613H95.7396V166.359Z" fill="white"/>
<path d="M105.291 166.359H99.467V170.613H105.291V166.359Z" fill="white"/>
<path d="M114.842 166.359H109.018V170.613H114.842V166.359Z" fill="white"/>
<path d="M95.7396 177.207H89.9156V181.461H95.7396V177.207Z" fill="white"/>
<path d="M105.291 177.207H99.467V181.461H105.291V177.207Z" fill="white"/>
<path d="M114.842 177.207H109.018V181.461H114.842V177.207Z" fill="white"/>
<path d="M95.7396 188.055H89.9156V192.309H95.7396V188.055Z" fill="white"/>
<path d="M105.291 188.055H99.467V192.309H105.291V188.055Z" fill="white"/>
<path d="M114.842 188.055H109.018V192.309H114.842V188.055Z" fill="white"/>
<path d="M95.7396 198.902H89.9156V203.156H95.7396V198.902Z" fill="white"/>
<path d="M105.291 198.902H99.467V203.156H105.291V198.902Z" fill="white"/>
<path d="M114.842 198.902H109.018V203.156H114.842V198.902Z" fill="white"/>
<path d="M83.9026 112.915V207.622H56.8483C55.6557 206.964 54.4758 206.286 53.3087 205.589C52.9453 205.372 52.582 205.153 52.2186 204.931C51.8905 204.73 51.5652 204.529 51.24 204.326C50.0913 203.609 48.9574 202.873 47.838 202.119C46.6806 201.34 45.5398 200.542 44.4156 199.725C42.9505 198.66 41.5147 197.565 40.1082 196.439V98.5059H47.9113V87.1277H55.8316V76.2792H56.7633V87.1277H62.5739C63.6898 87.1277 64.76 87.5325 65.5491 88.253C66.3382 88.9734 66.7815 89.9505 66.7816 90.9694V98.5059H68.1207C71.5234 98.506 74.835 99.5098 77.5622 101.368C80.2893 103.226 82.2861 105.838 83.255 108.817C83.4237 109.341 83.5607 109.873 83.6653 110.411C83.8232 111.238 83.9026 112.076 83.9026 112.915Z" fill="#2F2E41"/>
<path d="M71.4402 107.122H52.5703V108.398H71.4402V107.122Z" fill="white"/>
<path d="M71.4402 114.992H52.5703V116.268H71.4402V114.992Z" fill="white"/>
<path d="M71.4402 122.862H52.5703V124.138H71.4402V122.862Z" fill="white"/>
<path d="M71.4402 130.732H52.5703V132.008H71.4402V130.732Z" fill="white"/>
<path d="M71.4402 138.602H52.5703V139.878H71.4402V138.602Z" fill="white"/>
<path d="M71.4402 146.472H52.5703V147.748H71.4402V146.472Z" fill="white"/>
<path d="M71.4402 154.342H52.5703V155.618H71.4402V154.342Z" fill="white"/>
<path d="M71.4402 162.212H52.5703V163.488H71.4402V162.212Z" fill="white"/>
<path d="M71.4402 170.081H52.5703V171.358H71.4402V170.081Z" fill="white"/>
<path d="M71.4402 177.951H52.5703V179.228H71.4402V177.951Z" fill="white"/>
<path d="M71.4402 185.821H52.5703V187.098H71.4402V185.821Z" fill="white"/>
<path d="M71.4402 193.691H52.5703V194.967H71.4402V193.691Z" fill="white"/>
<path d="M60.2581 89.468H54.434V93.722H60.2581V89.468Z" fill="white"/>
<path d="M199.641 3.74012C199.615 3.67049 199.589 3.60361 199.559 3.53412C198.68 1.43396 196.925 0 194.903 0H41.711C39.7156 0 37.978 1.3992 37.0873 3.45651C36.6618 4.45975 36.4462 5.52691 36.4514 6.60271L30.5911 187.913C30.931 188.255 31.2738 188.598 31.6196 188.935C31.8569 189.168 32.0943 189.398 32.3345 189.628L38.1949 6.60272C38.1934 6.08404 38.2683 5.56753 38.4175 5.06707C38.4181 5.05881 38.4201 5.05067 38.4234 5.04297C38.9274 3.37892 40.2108 2.19376 41.7111 2.19376H194.903C195.263 2.19421 195.618 2.26252 195.947 2.39442C197.318 2.92948 198.329 4.48655 198.411 6.35654C198.414 6.43949 198.417 6.51977 198.417 6.60271L205.449 182.56C205.66 182.311 205.868 182.062 206.07 181.811C206.146 181.72 206.22 181.629 206.293 181.54C206.355 181.465 206.416 181.393 206.475 181.318C206.718 181.019 206.958 180.719 207.195 180.419V180.417L200.163 6.60273C200.167 5.62851 199.991 4.66068 199.641 3.74012ZM63.6434 211.092C64.6601 211.574 65.6857 212.04 66.7201 212.491L66.7259 212.494C66.9281 212.582 67.1303 212.671 67.3325 212.756C67.3354 212.756 67.3354 212.759 67.3383 212.759C67.3619 212.773 67.3876 212.784 67.4145 212.791C67.5552 212.852 67.6958 212.911 67.8365 212.97H167.169C167.298 212.917 167.43 212.86 167.559 212.804C167.638 212.772 167.714 212.737 167.793 212.703C168.078 212.58 168.365 212.454 168.649 212.328C168.992 212.176 169.335 212.023 169.675 211.868C170.237 211.614 170.797 211.357 171.354 211.092H63.6434Z" fill="#2F2E41"/>
<path d="M199.289 22.3945H37.323V24.2513H199.289V22.3945Z" fill="#2F2E41"/>
<path d="M201.52 45.4024H35.672V47.2591H201.52V45.4024Z" fill="#2F2E41"/>
<path d="M62.5325 81.4319H60.7864L66.6467 0.833618H68.3928L62.5325 81.4319Z" fill="#2F2E41"/>
<path d="M176.998 81.967H175.252L168.219 0.833618H169.965L176.998 81.967Z" fill="#2F2E41"/>
<path d="M202.399 79.2585H35.965V84.5727H202.399V79.2585Z" fill="#2F2E41"/>
<path d="M119.482 76.3266H121.228C121.648 76.3266 122.065 76.4022 122.453 76.5491C122.842 76.696 123.194 76.9113 123.492 77.1827C123.789 77.4541 124.025 77.7763 124.186 78.1309C124.346 78.4855 124.429 78.8655 124.429 79.2494H116.281C116.281 78.4742 116.618 77.7308 117.218 77.1827C117.819 76.6345 118.633 76.3266 119.482 76.3266V76.3266Z" fill="#2F2E41"/>
<path d="M60.2854 204.765C57.6483 207.173 57.8534 208.176 56.8483 207.622C55.6557 206.964 54.4758 206.286 53.3087 205.589C52.9453 205.372 52.582 205.153 52.2186 204.931C51.8905 204.73 51.5652 204.529 51.24 204.326C50.0913 203.609 48.9573 202.873 47.838 202.119C46.6806 201.34 45.5398 200.542 44.4156 199.725C42.9505 198.66 41.5147 197.565 40.1082 196.439C37.4857 194.347 34.9706 192.15 32.563 189.847C32.4869 189.775 32.4107 189.703 32.3345 189.628C32.0942 189.398 31.8569 189.168 31.6195 188.935L32.8121 185.002L34.2772 127.683L34.3651 110.411L34.371 108.817L35.672 83.8397L35.6808 82.2452L36.4367 48.5707L36.4426 47.2598L36.4543 45.4031L32.3696 41.778L38.3179 24.2519L38.3267 22.3952L38.4175 5.06708L38.4234 3.65183C41.5264 1.07277 45.9187 0.567166 51.2898 1.02195C51.5564 1.04605 51.8289 1.07016 52.1014 1.09686L52.1747 2.19378L52.3094 4.1494V4.15214L53.3643 19.6584V19.6637L53.5518 22.3953L53.6778 24.2519L54.009 29.1103L49.2562 45.4032L49.3822 47.2598L50.2994 60.7221L50.4254 62.5788L50.6861 66.4099L51.7644 82.2452L51.8728 83.8397L52.0955 87.1277L52.3739 91.1942L52.4061 91.6677L52.5321 93.5244L52.8955 98.8591L52.9951 100.347L53.4551 107.123L53.5167 108.027L53.5431 108.399L53.5724 108.817L53.6192 109.512L53.6808 110.411L53.9006 113.638L53.9914 114.991L54.0793 116.267L54.1408 117.19L54.2434 118.678L54.3225 119.828L54.5276 122.862L54.6155 124.138L54.765 126.356L54.8558 127.683L54.8675 127.844L55.0638 130.733L55.1517 132.009L55.2162 132.996L55.3891 135.525L55.4916 137.009L55.6 138.601L55.685 139.877L56.0132 144.688L56.1128 146.175L56.1334 146.472L56.2212 147.748L56.6373 153.853L56.6696 154.343L56.737 155.341L56.7545 155.619L57.2058 162.211L57.2614 163.019L57.2937 163.487L57.3611 164.506L57.742 170.082L57.8299 171.358L57.8856 172.185L57.9852 173.672L58.2753 177.953L58.3632 179.229L58.5068 181.353L58.6093 182.838L58.8115 185.821L58.8994 187.097L59.1309 190.516L59.2335 192.001L59.2979 193.692L59.3477 194.968L60.2854 204.765Z" fill="#CCCCCC"/>
<path d="M206.313 185.96C206.234 186.046 206.152 186.129 206.07 186.214C205.868 186.431 205.66 186.645 205.449 186.859C205.446 186.862 205.446 186.864 205.443 186.867L205.434 186.875V186.878C199.135 193.366 191.999 199.135 184.182 204.059C184.156 204.077 184.128 204.094 184.1 204.11C184.003 204.174 183.906 204.233 183.81 204.294C183.109 204.733 182.403 205.166 181.691 205.589C181.343 205.798 180.994 206.004 180.642 206.207V206.21C180.639 206.21 180.639 206.21 180.636 206.212H180.63L180.625 206.218L180.607 206.226C180.598 206.231 180.592 206.234 180.584 206.239C180.314 206.397 180.047 206.552 179.775 206.707C179.693 206.758 179.611 206.804 179.529 206.849C179.385 206.932 179.239 207.015 179.092 207.098C178.949 207.178 178.802 207.261 178.656 207.341C178.471 207.443 178.286 207.547 178.102 207.646L178.113 206.763L178.131 205.589L178.216 200.19L178.509 195.878L180.247 170.352L180.522 166.312L180.584 165.403L181.366 153.917L181.633 149.974L182.239 141.092L182.512 137.052L182.778 133.149L182.79 132.996L182.813 132.632L182.828 132.41V132.408L183.139 127.876L183.15 127.683L183.37 124.478V124.473L183.684 119.828L183.883 116.912L184.106 113.638L184.284 111.013L184.325 110.411L184.434 108.817L184.44 108.752L185.114 98.827L185.289 96.2399V96.2372L185.474 93.5244L185.6 91.6678L185.861 87.8741L186.136 83.8397L186.245 82.2452L186.629 76.5842V76.5815L186.842 73.4299L187.056 70.2731L187.373 65.6554L187.581 62.5788L187.707 60.7221L188.621 47.2598L188.662 46.6766L188.75 45.4032L189.046 41.0477L182.69 31.0901L183.156 24.2519L183.282 22.3953L184.618 2.77967L184.659 2.19378L184.733 1.09687C190.47 0.521695 195.15 0.944355 198.411 3.65182L198.502 22.3952L198.51 24.2519L200.365 44.7744L200.368 45.4032L200.377 47.2598L201.13 82.2452L201.139 83.8397L202.428 108.817L202.437 110.411L203.105 127.683L203.131 132.996L206.293 181.54L206.313 185.96Z" fill="#CCCCCC"/>
<path d="M181.691 205.589C181.343 205.798 180.994 206.004 180.642 206.207V206.21C180.639 206.21 180.639 206.21 180.636 206.212H180.631L180.625 206.218L180.607 206.226C180.598 206.231 180.592 206.234 180.584 206.239C180.314 206.397 180.047 206.552 179.775 206.707C179.693 206.758 179.611 206.804 179.529 206.849C179.385 206.932 179.239 207.015 179.092 207.098C178.949 207.178 178.802 207.261 178.656 207.341C178.471 207.443 178.286 207.547 178.102 207.646C177.7 207.868 177.298 208.088 176.895 208.304C176.748 208.385 176.599 208.462 176.449 208.542C176.303 208.62 176.153 208.698 176.004 208.775V208.783L175.986 208.786L175.98 208.789L175.974 208.794H175.972C175.561 209.008 175.154 209.222 174.741 209.431L174.738 209.433C174.407 209.602 174.076 209.768 173.742 209.934C172.951 210.327 172.155 210.713 171.354 211.092C170.797 211.357 170.237 211.614 169.675 211.868C169.335 212.023 168.992 212.176 168.649 212.328C168.365 212.454 168.078 212.58 167.793 212.703C167.714 212.737 167.638 212.772 167.559 212.804C167.43 212.86 167.298 212.917 167.169 212.97C167.061 213.016 166.955 213.061 166.847 213.107C166.589 213.219 166.328 213.326 166.07 213.433C165.78 213.553 165.493 213.671 165.203 213.789C164.113 214.233 163.011 214.661 161.907 215.073C157.96 216.548 153.927 217.822 149.826 218.888C149.635 218.939 149.442 218.99 149.248 219.038C147.493 219.487 145.725 219.898 143.945 220.271C140.836 220.924 137.699 221.46 134.533 221.879C134.527 221.879 134.518 221.882 134.513 221.882C134.135 221.932 133.754 221.981 133.376 222.029C133.343 222.034 133.308 222.04 133.273 222.042C133.27 222.045 133.267 222.045 133.261 222.042H133.258C132.839 222.093 132.42 222.144 131.998 222.192C131.969 222.197 131.94 222.2 131.911 222.203C131.518 222.245 131.122 222.288 130.727 222.328C130.302 222.371 129.877 222.411 129.449 222.451H129.446C128.796 222.51 128.145 222.567 127.495 222.615C127.483 222.615 127.471 222.617 127.46 222.617C127.202 222.639 126.944 222.655 126.686 222.674H126.683C123.65 222.893 120.589 223.002 117.5 223C114.145 223 110.824 222.872 107.537 222.617C107.526 222.617 107.514 222.615 107.502 222.615C106.802 222.561 106.103 222.502 105.404 222.438C105.22 222.422 105.038 222.403 104.853 222.387C104.818 222.385 104.783 222.382 104.748 222.377C104.692 222.371 104.637 222.366 104.578 222.361C104.549 222.358 104.516 222.355 104.487 222.35C104.244 222.326 104.001 222.302 103.755 222.275C103.482 222.246 103.207 222.216 102.934 222.184C102.662 222.155 102.386 222.122 102.114 222.088C102.055 222.082 101.994 222.077 101.935 222.066C101.736 222.045 101.536 222.021 101.34 221.994C101.243 221.983 101.15 221.97 101.056 221.957C100.865 221.933 100.678 221.909 100.487 221.882C100.482 221.882 100.473 221.879 100.467 221.879C94.4833 221.09 88.5766 219.874 82.8009 218.243H82.798C82.4844 218.155 82.1709 218.064 81.8574 217.973C81.7636 217.949 81.6699 217.922 81.5761 217.893C80.7615 217.655 79.9518 217.409 79.147 217.154C78.0364 216.807 76.9337 216.443 75.8388 216.063C75.5399 215.958 75.244 215.854 74.9451 215.75C74.3503 215.536 73.7584 215.322 73.1694 215.102C72.1644 214.728 71.1662 214.342 70.1748 213.944H70.1718V213.941C69.3895 213.626 68.61 213.305 67.8365 212.97C67.6958 212.911 67.5552 212.852 67.4146 212.791C67.3876 212.784 67.362 212.773 67.3384 212.759C67.3354 212.759 67.3354 212.756 67.3325 212.756C67.1303 212.671 66.9281 212.582 66.7259 212.494L66.7201 212.491C65.6857 212.039 64.6602 211.573 63.6434 211.092C62.3834 210.498 61.1342 209.883 59.8957 209.246C58.8702 208.719 57.8544 208.178 56.8484 207.622C55.6558 206.964 54.4759 206.286 53.3087 205.589H181.691Z" fill="#2F2E41"/>
<path d="M75.484 14.4771C75.8076 14.4771 76.07 14.1981 76.07 13.8539C76.07 13.5098 75.8076 13.2308 75.484 13.2308C75.1603 13.2308 74.8979 13.5098 74.8979 13.8539C74.8979 14.1981 75.1603 14.4771 75.484 14.4771Z" fill="white"/>
<path d="M111.091 15.2499C111.414 15.2499 111.677 14.9709 111.677 14.6268C111.677 14.2826 111.414 14.0036 111.091 14.0036C110.767 14.0036 110.505 14.2826 110.505 14.6268C110.505 14.9709 110.767 15.2499 111.091 15.2499Z" fill="white"/>
<path d="M133.067 15.8731C133.391 15.8731 133.653 15.5941 133.653 15.2499C133.653 14.9058 133.391 14.6268 133.067 14.6268C132.743 14.6268 132.481 14.9058 132.481 15.2499C132.481 15.5941 132.743 15.8731 133.067 15.8731Z" fill="white"/>
<path d="M163.975 94.7079C164.299 94.7079 164.561 94.4683 164.561 94.1728C164.561 93.8773 164.299 93.6378 163.975 93.6378C163.652 93.6378 163.389 93.8773 163.389 94.1728C163.389 94.4683 163.652 94.7079 163.975 94.7079Z" fill="white"/>
<path d="M128.379 64.6051C128.702 64.6051 128.965 64.3655 128.965 64.07C128.965 63.7745 128.702 63.535 128.379 63.535C128.055 63.535 127.793 63.7745 127.793 64.07C127.793 64.3655 128.055 64.6051 128.379 64.6051Z" fill="white"/>
<path d="M98.9254 92.0325C99.249 92.0325 99.5114 91.793 99.5114 91.4975C99.5114 91.202 99.249 90.9624 98.9254 90.9624C98.6017 90.9624 98.3393 91.202 98.3393 91.4975C98.3393 91.793 98.6017 92.0325 98.9254 92.0325Z" fill="white"/>
<path d="M93.9441 63.9415C94.2677 63.9415 94.5301 63.702 94.5301 63.4065C94.5301 63.111 94.2677 62.8714 93.9441 62.8714C93.6204 62.8714 93.358 63.111 93.358 63.4065C93.358 63.702 93.6204 63.9415 93.9441 63.9415Z" fill="white"/>
<path d="M54.6798 58.3233C55.0034 58.3233 55.2658 58.0838 55.2658 57.7882C55.2658 57.4927 55.0034 57.2532 54.6798 57.2532C54.3561 57.2532 54.0938 57.4927 54.0938 57.7882C54.0938 58.0838 54.3561 58.3233 54.6798 58.3233Z" fill="white"/>
<path d="M188.627 167.57L188.041 167.585L188.92 196.993L189.506 196.978L188.627 167.57Z" fill="#B3B3B3"/>
<path d="M197.71 52.2668L197.124 52.2747L198.004 106.296L198.59 106.288L197.71 52.2668Z" fill="#B3B3B3"/>
<path d="M177.58 108.085H169.306C169.12 108.084 168.935 108.121 168.765 108.193C168.596 108.264 168.446 108.369 168.325 108.499C168.21 108.479 168.093 108.469 167.976 108.469C167.455 108.469 166.956 108.657 166.588 108.993C166.22 109.329 166.013 109.785 166.013 110.26C166.013 110.736 166.22 111.191 166.588 111.527C166.956 111.863 167.455 112.052 167.976 112.052C168.272 112.052 168.564 111.99 168.83 111.871L168.968 113.419L169.517 119.539C169.543 119.615 169.578 119.689 169.621 119.758C169.732 119.944 169.895 120.099 170.095 120.207C170.294 120.315 170.521 120.373 170.753 120.373H176.133C176.365 120.372 176.593 120.315 176.792 120.207C176.992 120.099 177.156 119.944 177.267 119.758C177.309 119.688 177.343 119.615 177.37 119.539L178.816 109.613C178.876 109.436 178.889 109.249 178.855 109.067C178.821 108.885 178.741 108.713 178.62 108.564C178.5 108.415 178.343 108.294 178.163 108.211C177.982 108.128 177.782 108.085 177.58 108.085ZM167.976 111.541C167.604 111.54 167.248 111.405 166.985 111.165C166.723 110.925 166.575 110.6 166.575 110.26C166.575 109.921 166.723 109.596 166.985 109.356C167.248 109.116 167.604 108.981 167.976 108.98C168.001 108.98 168.024 108.986 168.05 108.988C167.994 109.194 168.001 109.41 168.07 109.613L168.662 111.37C168.453 111.481 168.217 111.54 167.976 111.541V111.541Z" fill="#F2F2F2"/>
<path d="M174.741 209.432L173.361 207.136L174.04 206.845L174.582 206.609L176.947 205.59L178.368 204.977L178.954 204.723L179.42 204.522L180.194 205.59L180.583 206.128L180.642 206.208V206.211C180.63 206.215 180.618 206.22 180.607 206.227C180.598 206.232 180.592 206.235 180.583 206.24C180.314 206.398 180.047 206.553 179.775 206.708C179.693 206.759 179.611 206.804 179.529 206.85C179.385 206.933 179.238 207.016 179.092 207.099C178.948 207.179 178.802 207.262 178.655 207.342C178.072 207.669 177.483 207.99 176.894 208.305C176.748 208.386 176.598 208.463 176.449 208.543C176.302 208.621 176.153 208.699 176.004 208.776V208.784L175.986 208.787L175.98 208.79L175.974 208.795H175.971C175.561 209.009 175.154 209.223 174.741 209.432Z" fill="#2F2E41"/>
<g opacity="0.49">
<path opacity="0.49" d="M173.346 104.063C173.413 103.982 173.474 103.897 173.528 103.808C173.424 103.848 173.316 103.878 173.206 103.9L173.346 104.063Z" fill="white"/>
<path opacity="0.49" d="M174.103 98.6047C173.576 97.6827 172.984 96.7663 172.772 95.7443C172.56 94.7203 172.746 93.6682 172.811 92.6279C172.876 91.5875 172.794 90.4755 172.135 89.6248C171.236 92.2236 170.346 95.0871 171.496 97.602C171.995 98.6929 172.845 99.6218 173.393 100.693C173.894 101.671 174.096 102.89 173.528 103.808C174.455 103.466 175.036 102.495 175.072 101.56C175.112 100.52 174.63 99.5268 174.103 98.6047Z" fill="white"/>
</g>
<g opacity="0.49">
<path opacity="0.49" d="M172.352 107.541C172.378 107.509 172.402 107.476 172.422 107.442C172.382 107.457 172.34 107.469 172.297 107.478L172.352 107.541Z" fill="white"/>
<path opacity="0.49" d="M172.646 105.42C172.415 105.075 172.241 104.7 172.129 104.309C172.08 103.906 172.085 103.5 172.144 103.098C172.202 102.693 172.109 102.282 171.882 101.931C171.532 102.941 171.186 104.053 171.633 105.031C171.827 105.454 172.157 105.815 172.37 106.231C172.48 106.416 172.542 106.621 172.552 106.831C172.561 107.041 172.516 107.25 172.422 107.442C172.601 107.361 172.752 107.237 172.858 107.083C172.964 106.929 173.021 106.75 173.023 106.568C173.007 106.162 172.877 105.767 172.646 105.42Z" fill="white"/>
</g>
<path d="M57.5018 25.3836H39.0417C38.4977 25.3836 37.976 25.1863 37.5913 24.8351C37.2067 24.4839 36.9906 24.0075 36.9906 23.5109C36.9906 23.0142 37.2067 22.5378 37.5913 22.1866C37.976 21.8354 38.4977 21.6381 39.0417 21.6381H57.5018C58.0457 21.6381 58.5675 21.8354 58.9521 22.1866C59.3368 22.5378 59.5529 23.0142 59.5529 23.5109C59.5529 24.0075 59.3368 24.4839 58.9521 24.8351C58.5675 25.1863 58.0457 25.3836 57.5018 25.3836Z" fill="#2F2E41"/>
<path d="M215.735 3.8471H22.051C21.507 3.8471 20.9853 3.64979 20.6006 3.29858C20.2159 2.94738 19.9998 2.47104 19.9998 1.97436C19.9998 1.47768 20.2159 1.00134 20.6006 0.650135C20.9853 0.298929 21.507 0.101624 22.051 0.101624H215.735C216.279 0.101624 216.801 0.298929 217.186 0.650135C217.57 1.00134 217.786 1.47768 217.786 1.97436C217.786 2.47104 217.57 2.94738 217.186 3.29858C216.801 3.64979 216.279 3.8471 215.735 3.8471Z" fill="#2F2E41"/>
<path d="M51.0554 44.111H32.5953C32.0513 44.111 31.5296 43.9136 31.1449 43.5624C30.7603 43.2112 30.5442 42.7349 30.5442 42.2382C30.5442 41.7415 30.7603 41.2652 31.1449 40.914C31.5296 40.5628 32.0513 40.3655 32.5953 40.3655H51.0554C51.5994 40.3655 52.1211 40.5628 52.5057 40.914C52.8904 41.2652 53.1065 41.7415 53.1065 42.2382C53.1065 42.7349 52.8904 43.2112 52.5057 43.5624C52.1211 43.9136 51.5994 44.111 51.0554 44.111Z" fill="#2F2E41"/>
<path d="M198.15 25.3836H179.69C179.146 25.3836 178.624 25.1863 178.24 24.8351C177.855 24.4839 177.639 24.0075 177.639 23.5109C177.639 23.0142 177.855 22.5378 178.24 22.1866C178.624 21.8354 179.146 21.6381 179.69 21.6381H198.15C198.694 21.6381 199.216 21.8354 199.6 22.1866C199.985 22.5378 200.201 23.0142 200.201 23.5109C200.201 24.0075 199.985 24.4839 199.6 24.8351C199.216 25.1863 198.694 25.3836 198.15 25.3836Z" fill="#2F2E41"/>
<path d="M205.475 43.3083H187.015C186.471 43.3083 185.95 43.111 185.565 42.7598C185.18 42.4086 184.964 41.9323 184.964 41.4356C184.964 40.9389 185.18 40.4626 185.565 40.1114C185.95 39.7602 186.471 39.5629 187.015 39.5629H205.475C206.019 39.5629 206.541 39.7602 206.926 40.1114C207.31 40.4626 207.527 40.9389 207.527 41.4356C207.527 41.9323 207.31 42.4086 206.926 42.7598C206.541 43.111 206.019 43.3083 205.475 43.3083Z" fill="#2F2E41"/>
<path d="M40.0672 49.8589L39.4812 49.8669L40.3602 103.888L40.9463 103.88L40.0672 49.8589Z" fill="#B3B3B3"/>
<path d="M45.9276 111.927L45.3416 111.935L46.2206 165.956L46.8066 165.948L45.9276 111.927Z" fill="#B3B3B3"/>
<path d="M39.4811 157.672L38.8953 157.686L39.7744 187.094L40.3601 187.08L39.4811 157.672Z" fill="#B3B3B3"/>
<path d="M156.201 176.501V175.48C156.201 175.09 156.037 174.714 155.744 174.431C155.451 174.147 155.05 173.976 154.623 173.954V169.966H154.252V173.949H152.581V176.492H144.692V205.729H162.141V182.233C162.141 180.765 161.526 179.353 160.421 178.287C159.316 177.221 157.806 176.582 156.201 176.501Z" fill="#2F2E41"/>
<path d="M149.889 180.644H147.569V182.339H149.889V180.644Z" fill="white"/>
<path d="M153.695 180.644H151.374V182.339H153.695V180.644Z" fill="white"/>
<path d="M157.5 180.644H155.18V182.339H157.5V180.644Z" fill="white"/>
<path d="M149.889 184.966H147.569V186.661H149.889V184.966Z" fill="white"/>
<path d="M153.695 184.966H151.374V186.661H153.695V184.966Z" fill="white"/>
<path d="M157.5 184.966H155.18V186.661H157.5V184.966Z" fill="white"/>
<path d="M149.889 189.288H147.569V190.983H149.889V189.288Z" fill="white"/>
<path d="M153.695 189.288H151.374V190.983H153.695V189.288Z" fill="white"/>
<path d="M157.5 189.288H155.18V190.983H157.5V189.288Z" fill="white"/>
<path d="M149.889 193.61H147.569V195.305H149.889V193.61Z" fill="white"/>
<path d="M153.695 193.61H151.374V195.305H153.695V193.61Z" fill="white"/>
<path d="M157.5 193.61H155.18V195.305H157.5V193.61Z" fill="white"/>
<path d="M149.889 197.932H147.569V199.627H149.889V197.932Z" fill="white"/>
<path d="M153.695 197.932H151.374V199.627H153.695V197.932Z" fill="white"/>
<path d="M157.5 197.932H155.18V199.627H157.5V197.932Z" fill="white"/>
<path d="M149.889 202.254H147.569V203.949H149.889V202.254Z" fill="white"/>
<path d="M153.695 202.254H151.374V203.949H153.695V202.254Z" fill="white"/>
<path d="M157.5 202.254H155.18V203.949H157.5V202.254Z" fill="white"/>
<path d="M138.886 162.254H138.351V159.251C138.351 158.845 138.175 158.456 137.861 158.169C137.546 157.882 137.12 157.72 136.675 157.72H134.36V153.398H133.989V157.72H130.833V162.254H127.724V205.729H145.174V167.995C145.174 167.241 145.011 166.495 144.695 165.798C144.379 165.102 143.916 164.469 143.332 163.936C142.748 163.403 142.055 162.98 141.292 162.691C140.529 162.403 139.711 162.254 138.886 162.254Z" fill="#2F2E41"/>
<path d="M140.208 165.687H132.69V166.195H140.208V165.687Z" fill="white"/>
<path d="M140.208 168.822H132.69V169.331H140.208V168.822Z" fill="white"/>
<path d="M140.208 171.958H132.69V172.466H140.208V171.958Z" fill="white"/>
<path d="M140.208 175.093H132.69V175.602H140.208V175.093Z" fill="white"/>
<path d="M140.208 178.229H132.69V178.737H140.208V178.229Z" fill="white"/>
<path d="M140.208 181.365H132.69V181.873H140.208V181.365Z" fill="white"/>
<path d="M140.208 184.5H132.69V185.009H140.208V184.5Z" fill="white"/>
<path d="M140.208 187.636H132.69V188.144H140.208V187.636Z" fill="white"/>
<path d="M140.208 190.771H132.69V191.28H140.208V190.771Z" fill="white"/>
<path d="M140.208 193.907H132.69V194.415H140.208V193.907Z" fill="white"/>
<path d="M140.208 197.042H132.69V197.551H140.208V197.042Z" fill="white"/>
<path d="M140.208 200.178H132.69V200.686H140.208V200.178Z" fill="white"/>
<path d="M135.753 158.653H133.432V160.348H135.753V158.653Z" fill="white"/>
<path d="M210.052 179.326V181.819C209.63 182.312 209.202 182.804 208.769 183.288C208.675 183.395 208.581 183.5 208.49 183.604C208.347 183.762 208.206 183.92 208.065 184.075C208.019 184.128 207.972 184.179 207.922 184.233C207.682 184.495 207.441 184.757 207.195 185.019C207.195 185.019 207.198 185.022 207.195 185.022C206.958 185.279 206.718 185.536 206.474 185.792C206.343 185.934 206.208 186.073 206.07 186.215C205.868 186.432 205.66 186.646 205.449 186.86C205.446 186.863 205.446 186.865 205.443 186.868L205.434 186.876V179.326L210.052 179.326Z" fill="#2F2E41"/>
<path d="M216.077 174.125C215.309 175.206 214.521 176.271 213.712 177.32C213.712 177.322 213.709 177.322 213.706 177.325C213.223 177.956 212.727 178.582 212.229 179.203C211.91 179.599 211.588 179.993 211.262 180.386C210.937 180.779 210.609 181.169 210.278 181.555C210.205 181.643 210.128 181.731 210.052 181.82C209.63 182.312 209.202 182.804 208.769 183.288C208.675 183.395 208.581 183.5 208.49 183.604C208.347 183.762 208.206 183.92 208.065 184.075C208.016 184.128 207.969 184.179 207.922 184.233C207.682 184.495 207.441 184.757 207.195 185.019C207.195 185.019 207.198 185.022 207.195 185.022C206.958 185.279 206.718 185.536 206.474 185.792C206.343 185.934 206.208 186.073 206.07 186.215H196.503C195.482 186.214 194.503 185.844 193.781 185.185C193.059 184.526 192.653 183.632 192.653 182.7V177.641C192.654 176.709 193.06 175.815 193.782 175.156C194.504 174.497 195.482 174.126 196.503 174.125H216.077Z" fill="#2F2E41"/>
<path d="M221.136 130.823C220.548 130.637 219.93 130.543 219.308 130.545H217.734C217.161 130.545 216.591 130.623 216.044 130.777C214.888 131.109 213.879 131.768 213.162 132.659C212.445 133.55 212.057 134.626 212.056 135.732V177.935C212.056 178.093 212.065 178.248 212.079 178.401C212.105 178.672 212.155 178.94 212.229 179.204C212.727 178.583 213.222 177.957 213.705 177.325C213.708 177.323 213.711 177.323 213.711 177.32C214.52 176.271 215.308 175.207 216.076 174.126C216.489 173.545 216.899 172.959 217.301 172.371C220.202 168.121 222.771 163.691 224.989 159.112V135.732C224.988 134.649 224.616 133.593 223.925 132.713C223.234 131.833 222.259 131.172 221.136 130.823Z" fill="#2F2E41"/>
<path d="M152.784 209.304L148.795 207.562L154.275 192.338L160.163 194.909L152.784 209.304Z" fill="#FFB6B6"/>
<path d="M179.529 206.85C179.238 207.016 178.948 207.179 178.655 207.342C178.072 207.669 177.483 207.99 176.894 208.305C176.598 208.463 176.299 208.621 176.004 208.776V208.784L175.986 208.787L175.98 208.79L175.529 208.891L174.881 207.329L174.582 206.609L174.16 205.59L173.387 203.725L169.314 193.907L175.646 192.481L175.883 193.366H175.886L176.004 193.805L178.216 201.997L178.667 203.672L178.682 203.723L178.954 204.723L179.189 205.59L179.449 206.558L179.529 206.85Z" fill="#FFB6B6"/>
<path d="M163.378 143.134C163.947 143.978 164.855 144.585 165.907 144.826C166.96 145.067 168.074 144.923 169.012 144.425C169.2 144.32 169.379 144.202 169.546 144.071L182.158 150.679L181.61 143.896L169.718 138.66C169.071 138.067 168.226 137.686 167.317 137.578C166.407 137.47 165.484 137.64 164.692 138.063C163.786 138.56 163.133 139.365 162.876 140.302C162.62 141.239 162.782 142.23 163.327 143.058C163.343 143.083 163.361 143.109 163.378 143.134Z" fill="#FFB6B6"/>
<path d="M176.736 148.191L178.965 149.431L188.978 155.006C189.635 155.381 190.366 155.635 191.131 155.752C191.896 155.869 192.678 155.848 193.433 155.689C194.189 155.53 194.903 155.237 195.534 154.826C196.166 154.415 196.702 153.895 197.113 153.295L197.117 153.29C197.858 152.175 198.12 150.849 197.853 149.567L193.403 129.269C193.239 128.472 192.888 127.717 192.374 127.055C191.861 126.394 191.197 125.841 190.428 125.435C189.659 125.029 188.803 124.78 187.919 124.704C187.035 124.628 186.143 124.727 185.305 124.994C183.896 125.447 182.728 126.372 182.04 127.582C181.351 128.792 181.194 130.197 181.599 131.509L186.252 145.915L179.12 142.879L176.736 148.191Z" fill="#FF4000"/>
<path d="M217.79 168.205C217.787 168.197 217.781 168.168 217.772 168.122L217.764 168.093C217.743 167.997 217.72 167.89 217.693 167.772C217.095 165.061 216.327 162.384 215.393 159.754C214.84 158.143 214.106 156.589 213.204 155.115C213.175 155.067 213.143 155.018 213.111 154.97L213.002 154.81L212.091 155.115L212.056 155.126L198.202 159.762L194.196 161.102L194.07 161.145L193.388 163.687L183.809 162.555L176.003 161.632L173.761 161.367C172.79 161.251 171.802 161.313 170.857 161.55C169.912 161.786 169.027 162.191 168.255 162.742C167.45 163.312 166.777 164.023 166.275 164.834C165.774 165.644 165.454 166.537 165.334 167.461C165.305 167.665 165.287 167.871 165.278 168.074L164.602 191.128V191.157L164.915 191.729L171.464 203.726H176.003L178.681 203.723H180.858L176.331 193.265L176.434 193.123C176.86 192.527 177.128 191.849 177.218 191.142C177.308 190.435 177.217 189.718 176.952 189.049L177.462 187.7C178.52 184.915 178.019 183.578 177.386 181.887C176.817 180.512 176.483 179.066 176.396 177.598L176.29 175.691C178.948 176.116 181.424 176.59 183.809 177.066C184.606 177.224 185.395 177.383 186.176 177.545C188.4 177.997 190.548 178.433 192.652 178.797C196.913 179.538 200.994 179.99 205.187 179.709C205.269 179.704 205.351 179.698 205.434 179.69C206.453 179.616 207.479 179.495 208.516 179.327C209.099 179.23 209.685 179.121 210.277 178.992C210.441 178.955 210.608 178.917 210.772 178.88C211.228 178.77 211.667 178.609 212.079 178.401C212.666 178.102 213.211 177.741 213.705 177.325C213.708 177.323 213.711 177.323 213.711 177.32C214.52 176.271 215.308 175.207 216.076 174.126C216.489 173.545 216.899 172.959 217.301 172.371C217.887 170.902 218.109 169.42 217.79 168.205Z" fill="#2F2E41"/>
<path d="M217.887 163.874C217.843 163.703 217.787 163.529 217.728 163.36C217.263 162.084 216.721 160.831 216.105 159.609C215.414 158.218 214.584 156.728 213.597 155.115C213.119 154.334 212.606 153.521 212.056 152.678C211.78 152.255 211.494 151.824 211.197 151.385C211.186 151.365 211.173 151.346 211.159 151.327L211.074 151.198L197.367 152.873L192.262 153.496L191.958 155.818L191.884 156.394C191.881 156.394 191.881 156.394 191.884 156.396L191.679 157.964V157.967L191.407 160.037L191.383 160.035L183.809 159.139L176.003 158.216L171.81 157.721C170.838 157.605 169.851 157.667 168.906 157.903C167.96 158.139 167.076 158.545 166.304 159.096C165.498 159.666 164.825 160.377 164.324 161.187C163.822 161.997 163.502 162.891 163.383 163.815C163.356 164.002 163.339 164.195 163.33 164.385L159.374 172.943C157.007 178.062 155.5 183.477 154.903 189.006L152.002 197.473L152.415 197.508L158.562 198.03L160.186 198.169L163.761 193.404C164.168 192.861 164.555 192.302 164.915 191.729C165.508 190.794 166.036 189.826 166.494 188.829L174.227 172.028C174.825 172.122 175.417 172.211 176.003 172.296C178.713 172.697 181.315 173.024 183.809 173.278C191.917 174.104 198.937 174.169 205.187 173.468C206.943 173.272 208.639 173.016 210.277 172.697C210.878 172.582 211.471 172.458 212.056 172.325C212.193 172.296 212.328 172.266 212.463 172.234C213.674 171.949 214.787 171.391 215.701 170.612C216.615 169.832 217.3 168.856 217.693 167.772C218.163 166.516 218.23 165.163 217.887 163.874Z" fill="#2F2E41"/>
<path d="M188.739 113.345C193.975 113.345 198.22 109.383 198.22 104.495C198.22 99.6073 193.975 95.6451 188.739 95.6451C183.502 95.6451 179.257 99.6073 179.257 104.495C179.257 109.383 183.502 113.345 188.739 113.345Z" fill="#FFB6B6"/>
<path d="M211.253 151.682C211.238 151.583 211.221 151.484 211.197 151.385C210.972 150.299 210.386 149.234 209.82 148.202C209.281 147.217 208.768 146.286 208.557 145.36C208.349 144.448 208.472 143.533 208.592 142.65C208.721 141.693 208.856 140.703 208.554 139.742C207.023 134.837 204.921 130.096 202.284 125.6C201.618 123.624 200.342 121.864 198.609 120.532C196.876 119.201 194.759 118.354 192.511 118.093C192.774 117.646 192.883 117.137 192.825 116.633C192.788 116.307 192.681 115.991 192.51 115.703C192.338 115.415 192.106 115.161 191.826 114.955C191.557 114.758 191.248 114.61 190.917 114.522C190.585 114.434 190.238 114.407 189.895 114.442L185.488 114.894C184.781 114.975 184.138 115.307 183.699 115.819C183.259 116.33 183.059 116.979 183.141 117.625C183.165 117.824 183.215 118.02 183.287 118.208C179.197 122.965 177.096 127.299 176.902 131.398V131.401C176.879 131.874 176.882 132.348 176.911 132.821C177.004 134.351 177.368 135.857 177.99 137.281C178.723 138.925 179.706 140.468 180.908 141.864C181.154 142.147 181.409 142.426 181.673 142.699C181.919 142.966 182.194 143.247 182.499 143.541L183.27 144.643L183.988 145.674L187.826 153.761L189.781 153.702L190.053 155.481L190.118 155.896L191.383 160.035L191.477 160.345L193.209 159.593L203.541 155.115L211.265 151.765L211.253 151.682Z" fill="#FF4000"/>
<path opacity="0.2" d="M178.106 137.238C178.987 139.208 180.225 141.029 181.769 142.623C182.033 142.911 182.312 143.194 182.605 143.478L184.105 145.627C189.634 141.843 194.113 126.944 194.113 126.944L187.875 125.836L178.106 137.238Z" fill="black"/>
<path d="M174.329 114.172C174.875 115.028 175.034 116.046 174.771 117.008C174.508 117.97 173.844 118.8 172.921 119.322C172.732 119.425 172.533 119.514 172.328 119.588L172.769 132.858L166.475 129.241L167.021 117.193C166.753 116.392 166.783 115.531 167.107 114.747C167.431 113.963 168.03 113.299 168.811 112.858C169.714 112.359 170.796 112.209 171.821 112.439C172.845 112.669 173.727 113.262 174.273 114.086C174.292 114.114 174.311 114.143 174.329 114.172Z" fill="#FFB6B6"/>
<path d="M173.323 127.849L166.401 128.748L166.698 141.835C166.716 142.768 166.994 143.683 167.507 144.49C168.02 145.298 168.751 145.972 169.63 146.449C170.704 147.026 171.955 147.269 173.193 147.141C174.431 147.012 175.59 146.52 176.495 145.738L192.836 131.387C193.986 130.391 194.674 129.031 194.759 127.586C194.844 126.141 194.319 124.721 193.293 123.619C192.287 122.532 190.85 121.854 189.297 121.735C187.744 121.615 186.202 122.064 185.012 122.982C184.965 123.018 184.919 123.055 184.874 123.092C184.713 123.224 184.559 123.364 184.414 123.511L173.623 134.844L173.323 127.849Z" fill="#FF4000"/>
<path d="M154.059 206.818L149.743 204.93L149.066 204.633L147.985 207.056L140.436 208.573C140.063 208.648 139.726 208.83 139.474 209.092C139.222 209.354 139.068 209.683 139.036 210.031C139.003 210.378 139.093 210.726 139.292 211.024C139.491 211.321 139.79 211.553 140.143 211.685L147.519 214.432L149.86 212.509L149.286 215.091L152.063 216.126L155.108 207.279L154.059 206.818Z" fill="#2F2E41"/>
<path d="M214.11 100.657C212.499 98.9409 211.733 96.6642 210.444 94.7155C209.156 92.7669 206.914 91.0229 204.545 91.4763C202.912 91.789 201.65 93.1045 201.012 94.5711C200.373 96.0377 200.253 97.6551 200.141 99.2396C200.181 95.9834 197.831 92.8267 194.594 91.7877C191.358 90.7487 187.485 91.9077 185.451 94.5236C184.563 93.7726 183.405 93.3449 182.195 93.3217C180.985 93.2986 179.808 93.6814 178.887 94.3978C177.068 95.8823 176.665 98.7078 178.003 100.601C179.341 102.495 182.238 103.2 184.364 102.15L185.116 102.781C184.693 104.132 185.513 105.728 186.892 106.237C188.011 106.649 189.59 106.581 190.008 107.652C190.301 108.401 189.754 109.2 189.173 109.776C188.591 110.351 187.901 110.945 187.831 111.741C187.726 112.943 189.085 113.784 190.321 114.038C193.302 114.649 196.609 113.389 198.326 110.987C198.36 110.941 198.396 110.895 198.434 110.848C199.398 109.723 200.101 108.43 200.499 107.048C200.897 105.667 200.982 104.226 200.749 102.813C200.653 102.258 200.75 101.845 201.169 101.714C202.981 101.146 208.056 102.338 209.593 103.416C211.129 104.494 212.359 105.92 213.838 107.067C215.318 108.214 217.204 109.099 219.082 108.787C220.587 108.537 221.867 107.539 222.728 106.336C223.589 105.133 224.084 103.731 224.528 102.337C221.201 104.092 216.647 103.358 214.11 100.657Z" fill="#2F2E41"/>
<path d="M184.182 204.06V204.118L184.1 204.11C184.003 204.175 183.906 204.234 183.81 204.295C183.109 204.734 182.403 205.165 181.691 205.59C181.342 205.799 180.994 206.005 180.642 206.208V206.211C180.639 206.211 180.636 206.213 180.633 206.213H180.63L180.624 206.219L180.607 206.227C180.598 206.232 180.592 206.235 180.583 206.24V156.784C180.583 155.35 180.056 154.186 179.408 154.183H130.624C129.973 154.186 129.449 155.35 129.446 156.784V222.453C128.796 222.511 128.145 222.568 127.495 222.616C127.483 222.616 127.471 222.618 127.459 222.618C127.202 222.64 126.944 222.656 126.686 222.675H126.683C126.528 222.412 126.375 222.148 126.223 221.88V153.41C126.223 153.014 126.24 152.616 126.27 152.222C126.312 151.682 126.385 151.145 126.49 150.612C126.985 148.126 128.104 146.444 129.376 146.438H180.654C180.839 146.439 181.023 146.475 181.193 146.543C181.443 146.644 181.669 146.788 181.858 146.968C182.115 147.212 182.335 147.486 182.511 147.784C183.139 148.792 183.587 150.296 183.745 152.046C183.745 152.062 183.748 152.078 183.748 152.094C183.789 152.527 183.81 152.969 183.807 153.41L183.848 159.143L183.874 162.562L183.953 173.291L183.982 177.1L184.182 204.06Z" fill="#2F2E41"/>
<path d="M145.809 130.533L142.416 144.165L140.247 146.333H138.683L145.131 121.548L145.449 125.758V125.761L145.809 130.533Z" fill="#2F2E41"/>
<path d="M162.14 144.464L142.233 144.349L140.466 144.339L139.206 144.331L137.738 144.323H137.726C137.513 144.323 137.309 144.4 137.158 144.537L134.679 146.8C134.624 146.849 134.579 146.907 134.547 146.971C134.531 146.989 134.519 147.009 134.509 147.03C134.455 147.144 134.433 147.268 134.444 147.391C134.455 147.515 134.5 147.634 134.573 147.738C134.647 147.842 134.747 147.928 134.866 147.989C134.984 148.049 135.117 148.082 135.253 148.084H161.041C161.196 148.084 161.348 148.043 161.478 147.967C161.609 147.892 161.713 147.784 161.78 147.656L161.982 147.255L162.398 146.439L162.87 145.518C162.92 145.42 162.946 145.314 162.946 145.205C162.945 145.01 162.86 144.823 162.709 144.684C162.558 144.546 162.354 144.467 162.14 144.464Z" fill="#2F2E41"/>
<path opacity="0.17" d="M161.982 147.254L161.778 147.657C161.712 147.784 161.608 147.892 161.478 147.967C161.347 148.043 161.196 148.084 161.042 148.084H135.253C135.117 148.082 134.984 148.049 134.865 147.989C134.747 147.929 134.647 147.843 134.573 147.739C134.5 147.635 134.455 147.515 134.444 147.392C134.433 147.269 134.456 147.145 134.509 147.031C134.518 147.01 134.531 146.99 134.547 146.972L161.982 147.254Z" fill="black"/>
<path opacity="0.17" d="M145.449 125.758V125.761L139.928 146.333H138.683L145.131 121.548L145.449 125.758Z" fill="black"/>
<path d="M152.225 129.528L144.41 75.2426C144.381 75.0391 144.265 74.8544 144.087 74.7289L138.708 68.581L138.224 68.2412C138.045 68.1174 137.82 68.0627 137.597 68.0888L136.788 68.1877C136.565 68.214 136.363 68.3201 136.225 68.4826C136.088 68.6452 136.027 68.8509 136.056 69.0545L144.155 125.301V125.303L144.65 128.744L145.239 132.829V132.835L146.153 139.191C146.168 139.3 146.208 139.405 146.271 139.498C146.335 139.591 146.419 139.671 146.519 139.732C146.618 139.794 146.73 139.836 146.848 139.855C146.965 139.874 147.086 139.871 147.202 139.844L147.715 139.726C147.911 139.68 148.084 139.572 148.201 139.421L148.43 139.124L148.535 138.985L152.075 130.076C152.199 129.917 152.253 129.721 152.225 129.528Z" fill="#2F2E41"/>
<path opacity="0.17" d="M138.706 68.5813L148.536 138.986L148.43 139.124L148.202 139.42C148.084 139.571 147.912 139.679 147.715 139.725L147.202 139.843C147.085 139.87 146.964 139.873 146.847 139.854C146.729 139.835 146.617 139.793 146.518 139.731C146.419 139.67 146.335 139.59 146.272 139.497C146.209 139.404 146.169 139.299 146.153 139.191L136.057 69.0554C136.028 68.8517 136.088 68.6458 136.225 68.4829C136.362 68.3199 136.565 68.2133 136.788 68.1865L137.598 68.0892C137.708 68.0756 137.82 68.0822 137.928 68.1085C138.035 68.1348 138.135 68.1803 138.223 68.2424L138.706 68.5813Z" fill="black"/>
<path d="M138.996 70.5947L144.213 77.393L150.413 120.466L147.051 126.555L138.996 70.5947Z" fill="#FF4000"/>
<path d="M217.741 157.436C217.741 157.907 217.585 158.367 217.293 158.754C217.001 159.142 216.587 159.44 216.106 159.609C215.878 159.689 215.638 159.737 215.394 159.753C215.329 159.759 215.262 159.761 215.198 159.761H210.278V181.555C210.205 181.643 210.128 181.731 210.052 181.819C209.63 182.312 209.202 182.804 208.769 183.288C208.675 183.395 208.581 183.5 208.49 183.604C208.347 183.762 208.206 183.92 208.065 184.075C208.016 184.128 207.969 184.179 207.922 184.233C207.682 184.495 207.441 184.757 207.195 185.019C207.195 185.019 207.198 185.022 207.195 185.022C206.958 185.279 206.718 185.536 206.474 185.792C206.031 185.566 205.673 185.222 205.449 184.805C205.446 184.803 205.446 184.8 205.443 184.794C205.44 184.788 205.437 184.782 205.434 184.776C205.27 184.463 205.186 184.12 205.188 183.772V159.761H194.159C193.833 159.763 193.511 159.706 193.21 159.593C192.83 159.454 192.492 159.234 192.226 158.951C191.96 158.668 191.772 158.33 191.68 157.966V157.964C191.543 157.435 191.615 156.88 191.885 156.396C191.882 156.393 191.882 156.393 191.885 156.393C192 156.182 192.151 155.988 192.333 155.821C192.333 155.818 192.333 155.818 192.336 155.815C192.574 155.594 192.857 155.417 193.17 155.297C193.483 155.177 193.819 155.115 194.159 155.114H215.198C215.872 155.115 216.519 155.359 216.996 155.795C217.472 156.23 217.741 156.821 217.741 157.436Z" fill="#2F2E41"/>
<path d="M217.572 112.668C216.525 112.668 215.488 112.857 214.52 113.223C213.553 113.589 212.674 114.125 211.933 114.801C211.193 115.477 210.605 116.28 210.204 117.163C209.804 118.046 209.597 118.993 209.597 119.949V119.949C209.598 121.638 210.241 123.275 211.417 124.578C212.593 125.882 214.229 126.772 216.045 127.095V139.003H221.135V112.668H217.572Z" fill="#2F2E41"/>
<path d="M185.347 94.1317C187.526 96.7731 190.375 103.153 189.339 106.322L185.347 94.1317Z" fill="#FD6584"/>
</g>
<defs>
<clipPath id="clip0_1_153">
<rect width="235" height="223" fill="white"/>
</clipPath>
</defs>
</svg>
