<svg width="235" height="223" viewBox="0 0 235 223" fill="none" xmlns="http://www.w3.org/2000/svg">
<g clip-path="url(#clip0_1_64)">
<path d="M185.572 18.4152C185.308 18.2221 185.041 18.039 184.777 17.8526C177.142 12.4984 168.959 8.1487 160.397 4.89337L158.412 34.9264H145.826V0.509255C145.034 0.329496 144.235 0.159724 143.437 -6.10352e-05V34.9264H128.48C120.246 34.9264 112.35 31.3396 106.528 24.955C100.705 18.5705 97.4346 9.91122 97.4346 0.882124V0.882091C96.6332 1.07184 95.8378 1.2749 95.0425 1.49127V34.9264H82.8604L80.9691 6.28816C72.1702 9.98863 63.8168 14.8549 56.0949 20.7787C55.9614 20.8786 55.8278 20.9818 55.6973 21.0816C55.0264 21.5976 54.3646 22.1236 53.7059 22.6562V137.232H89.6086L88.9742 127.595L85.4832 74.683H155.786L152.295 127.595L151.661 137.232H187.166V19.5737C186.637 19.1809 186.106 18.7947 185.572 18.4152ZM95.0425 65.9447H84.9064L83.0334 37.5495H95.0425V65.9447ZM143.437 65.9447H126.413V65.3821C126.413 65.1117 126.364 64.8439 126.27 64.5941C126.175 64.3443 126.037 64.1173 125.862 63.9263C125.688 63.7352 125.481 63.5837 125.253 63.4805C125.025 63.3773 124.781 63.3244 124.534 63.3249H117.133C116.887 63.3248 116.643 63.3779 116.415 63.4813C116.187 63.5846 115.98 63.7362 115.806 63.9272C115.632 64.1183 115.494 64.3451 115.4 64.5947C115.305 64.8444 115.257 65.1119 115.257 65.3821V65.9447H97.4346V37.5495H143.437V65.9447ZM145.826 65.9447V37.5495H158.239L156.366 65.9447H145.826Z" fill="#F2F2F2"/>
<path d="M224.563 208.237L224.8 202.386C227.274 200.936 230.033 200.17 232.838 200.155C228.977 203.616 229.46 210.287 226.843 214.941C226.016 216.386 224.904 217.608 223.588 218.518C222.272 219.427 220.787 220 219.242 220.194L216.011 222.363C215.568 219.653 215.666 216.87 216.298 214.205C216.93 211.541 218.081 209.058 219.672 206.929C220.576 205.744 221.612 204.688 222.756 203.787C223.529 206.024 224.563 208.237 224.563 208.237Z" fill="#F2F2F2"/>
<path d="M51.2416 201.825L43.4459 199.237C42.4235 194.682 42.4305 189.922 43.4663 185.371C46.6766 192.931 55.8494 194.661 61.1359 200.656C62.7717 202.539 64 204.802 64.7298 207.277C65.4596 209.752 65.6722 212.375 65.3518 214.952L67.0582 221.004C63.2392 220.702 59.5254 219.495 56.1726 217.468C52.8198 215.44 49.9077 212.639 47.6371 209.258C46.3803 207.348 45.348 205.272 44.5644 203.078C47.8708 202.667 51.2416 201.825 51.2416 201.825Z" fill="#F2F2F2"/>
<path d="M218.497 221.406C218.496 221.583 218.431 221.753 218.318 221.879C218.261 221.94 218.195 221.989 218.121 222.022C218.048 222.055 217.969 222.072 217.889 222.072H215.449C215.369 222.072 215.29 222.055 215.216 222.022C215.142 221.988 215.075 221.939 215.019 221.877C214.962 221.815 214.918 221.742 214.887 221.661C214.857 221.58 214.841 221.493 214.842 221.406V140.468C214.842 138.684 214.295 137.236 213.624 137.232H30.7289C30.055 137.236 29.5116 138.684 29.5086 140.468V220.91C29.5081 221.075 29.4516 221.235 29.3501 221.357C29.2486 221.479 29.1093 221.556 28.9591 221.572C28.4674 221.626 27.9756 221.672 27.4868 221.716C27.4747 221.716 27.4626 221.719 27.4504 221.719C27.1833 221.745 26.9161 221.765 26.649 221.789H26.646C26.5063 221.512 26.3728 221.229 26.2362 220.947C26.1924 220.85 26.1695 220.744 26.1694 220.637V136.27C26.1694 135.778 26.1876 135.282 26.2179 134.792C26.2613 134.12 26.3373 133.451 26.4456 132.788C26.9586 129.696 28.1183 127.602 29.4357 127.595H214.915C215.107 127.597 215.297 127.641 215.473 127.725C215.732 127.851 215.966 128.031 216.162 128.254C216.428 128.558 216.656 128.899 216.839 129.27C217.489 130.525 217.953 132.395 218.117 134.573C218.117 134.593 218.12 134.612 218.12 134.632C218.163 135.172 218.184 135.721 218.181 136.27L218.223 143.404L218.251 147.658L218.333 161.007L218.363 165.747L218.497 221.406Z" fill="#E6E6E6"/>
<path d="M234.639 222.898L150.93 223C150.835 223 150.743 222.958 150.675 222.883C150.608 222.809 150.57 222.709 150.57 222.604C150.57 222.499 150.608 222.398 150.675 222.324C150.743 222.249 150.835 222.208 150.93 222.207L234.639 222.105C234.734 222.105 234.826 222.147 234.893 222.221C234.961 222.296 234.999 222.396 234.999 222.501C234.999 222.606 234.961 222.707 234.893 222.781C234.826 222.855 234.734 222.897 234.639 222.898Z" fill="#CACACA"/>
<path d="M130.736 103.948H115.911C115.701 103.948 115.5 104.04 115.352 104.202C115.204 104.365 115.121 104.586 115.121 104.816V130.498H131.528V104.816C131.528 104.702 131.508 104.589 131.468 104.483C131.428 104.378 131.37 104.282 131.296 104.202C131.223 104.121 131.135 104.057 131.039 104.013C130.943 103.97 130.84 103.947 130.736 103.948ZM123.373 118.54C122.91 118.537 122.466 118.334 122.138 117.975C121.81 117.615 121.625 117.128 121.623 116.62V113.658C121.623 113.149 121.807 112.66 122.135 112.3C122.464 111.94 122.909 111.738 123.373 111.738C123.838 111.738 124.283 111.94 124.611 112.3C124.94 112.66 125.124 113.149 125.124 113.658V116.62C125.122 117.128 124.937 117.615 124.609 117.975C124.281 118.334 123.837 118.537 123.373 118.54Z" fill="#2F2E41"/>
<path d="M155.286 63.8676H91.9124C91.3679 63.8685 90.846 64.1061 90.461 64.5283C90.0759 64.9505 89.8593 65.5228 89.8584 66.1199V113.015C89.8589 113.612 90.0755 114.185 90.4606 114.607C90.8457 115.03 91.3678 115.267 91.9124 115.268H155.286C155.831 115.267 156.353 115.03 156.738 114.607C157.123 114.185 157.34 113.612 157.34 113.015V66.1199C157.339 65.5228 157.123 64.9505 156.738 64.5283C156.353 64.1061 155.831 63.8685 155.286 63.8676Z" fill="#3F3D56"/>
<path d="M154.756 65.494H92.4408C92.1492 65.4947 91.8699 65.6221 91.6639 65.8484C91.458 66.0747 91.3423 66.3813 91.3423 66.701V112.434C91.3428 112.753 91.4587 113.059 91.6646 113.285C91.8705 113.511 92.1496 113.638 92.4408 113.639H154.756C155.047 113.638 155.326 113.511 155.532 113.285C155.738 113.059 155.854 112.753 155.855 112.434V66.701C155.854 66.3813 155.739 66.0747 155.533 65.8484C155.327 65.6221 155.048 65.4947 154.756 65.494Z" fill="white"/>
<path d="M115.07 129.676V132.154C115.07 132.283 115.117 132.406 115.199 132.497C115.282 132.587 115.395 132.638 115.512 132.639H131.137C131.254 132.638 131.366 132.587 131.449 132.496C131.532 132.405 131.578 132.283 131.579 132.154V129.676H115.07Z" fill="#3F3D56"/>
<path d="M142.619 133.501H105.545C105.443 133.501 105.343 133.476 105.252 133.428C105.16 133.38 105.079 133.311 105.015 133.224C104.951 133.138 104.906 133.037 104.882 132.929C104.858 132.821 104.857 132.708 104.878 132.599L105.453 129.603C105.486 129.435 105.57 129.285 105.691 129.177C105.812 129.069 105.964 129.01 106.12 129.009H142.044C142.2 129.01 142.352 129.069 142.473 129.177C142.594 129.285 142.679 129.435 142.711 129.603L143.287 132.599C143.307 132.708 143.306 132.821 143.282 132.929C143.258 133.037 143.213 133.138 143.149 133.224C143.085 133.311 143.004 133.38 142.912 133.428C142.821 133.476 142.721 133.501 142.619 133.501Z" fill="#2F2E41"/>
<path d="M107.377 129.549H106.532C106.45 129.549 106.383 129.621 106.383 129.711V130.137C106.383 130.227 106.45 130.3 106.532 130.3H107.377C107.459 130.3 107.525 130.227 107.525 130.137V129.711C107.525 129.621 107.459 129.549 107.377 129.549Z" fill="#3F3D56"/>
<path d="M109.661 129.549H108.815C108.733 129.549 108.667 129.621 108.667 129.711V130.137C108.667 130.227 108.733 130.3 108.815 130.3H109.661C109.743 130.3 109.809 130.227 109.809 130.137V129.711C109.809 129.621 109.743 129.549 109.661 129.549Z" fill="#3F3D56"/>
<path d="M111.944 129.549H111.099C111.017 129.549 110.951 129.621 110.951 129.711V130.137C110.951 130.227 111.017 130.3 111.099 130.3H111.944C112.026 130.3 112.093 130.227 112.093 130.137V129.711C112.093 129.621 112.026 129.549 111.944 129.549Z" fill="#3F3D56"/>
<path d="M114.228 129.549H113.383C113.301 129.549 113.234 129.621 113.234 129.711V130.137C113.234 130.227 113.301 130.3 113.383 130.3H114.228C114.31 130.3 114.376 130.227 114.376 130.137V129.711C114.376 129.621 114.31 129.549 114.228 129.549Z" fill="#3F3D56"/>
<path d="M116.512 129.549H115.666C115.585 129.549 115.518 129.621 115.518 129.711V130.137C115.518 130.227 115.585 130.3 115.666 130.3H116.512C116.594 130.3 116.66 130.227 116.66 130.137V129.711C116.66 129.621 116.594 129.549 116.512 129.549Z" fill="#3F3D56"/>
<path d="M118.796 129.549H117.95C117.868 129.549 117.802 129.621 117.802 129.711V130.137C117.802 130.227 117.868 130.3 117.95 130.3H118.796C118.877 130.3 118.944 130.227 118.944 130.137V129.711C118.944 129.621 118.877 129.549 118.796 129.549Z" fill="#3F3D56"/>
<path d="M121.079 129.549H120.234C120.152 129.549 120.086 129.621 120.086 129.711V130.137C120.086 130.227 120.152 130.3 120.234 130.3H121.079C121.161 130.3 121.227 130.227 121.227 130.137V129.711C121.227 129.621 121.161 129.549 121.079 129.549Z" fill="#3F3D56"/>
<path d="M123.363 129.549H122.517C122.436 129.549 122.369 129.621 122.369 129.711V130.137C122.369 130.227 122.436 130.3 122.517 130.3H123.363C123.445 130.3 123.511 130.227 123.511 130.137V129.711C123.511 129.621 123.445 129.549 123.363 129.549Z" fill="#3F3D56"/>
<path d="M125.647 129.549H124.801C124.719 129.549 124.653 129.621 124.653 129.711V130.137C124.653 130.227 124.719 130.3 124.801 130.3H125.647C125.728 130.3 125.795 130.227 125.795 130.137V129.711C125.795 129.621 125.728 129.549 125.647 129.549Z" fill="#3F3D56"/>
<path d="M127.93 129.549H127.085C127.003 129.549 126.937 129.621 126.937 129.711V130.137C126.937 130.227 127.003 130.3 127.085 130.3H127.93C128.012 130.3 128.079 130.227 128.079 130.137V129.711C128.079 129.621 128.012 129.549 127.93 129.549Z" fill="#3F3D56"/>
<path d="M130.214 129.549H129.369C129.287 129.549 129.22 129.621 129.22 129.711V130.137C129.22 130.227 129.287 130.3 129.369 130.3H130.214C130.296 130.3 130.362 130.227 130.362 130.137V129.711C130.362 129.621 130.296 129.549 130.214 129.549Z" fill="#3F3D56"/>
<path d="M132.498 129.549H131.652C131.57 129.549 131.504 129.621 131.504 129.711V130.137C131.504 130.227 131.57 130.3 131.652 130.3H132.498C132.58 130.3 132.646 130.227 132.646 130.137V129.711C132.646 129.621 132.58 129.549 132.498 129.549Z" fill="#3F3D56"/>
<path d="M134.781 129.549H133.936C133.854 129.549 133.788 129.621 133.788 129.711V130.137C133.788 130.227 133.854 130.3 133.936 130.3H134.781C134.863 130.3 134.93 130.227 134.93 130.137V129.711C134.93 129.621 134.863 129.549 134.781 129.549Z" fill="#3F3D56"/>
<path d="M137.065 129.549H136.22C136.138 129.549 136.071 129.621 136.071 129.711V130.137C136.071 130.227 136.138 130.3 136.22 130.3H137.065C137.147 130.3 137.213 130.227 137.213 130.137V129.711C137.213 129.621 137.147 129.549 137.065 129.549Z" fill="#3F3D56"/>
<path d="M139.349 129.549H138.503C138.422 129.549 138.355 129.621 138.355 129.711V130.137C138.355 130.227 138.422 130.3 138.503 130.3H139.349C139.431 130.3 139.497 130.227 139.497 130.137V129.711C139.497 129.621 139.431 129.549 139.349 129.549Z" fill="#3F3D56"/>
<path d="M141.632 129.549H140.787C140.705 129.549 140.639 129.621 140.639 129.711V130.137C140.639 130.227 140.705 130.3 140.787 130.3H141.632C141.714 130.3 141.781 130.227 141.781 130.137V129.711C141.781 129.621 141.714 129.549 141.632 129.549Z" fill="#3F3D56"/>
<path d="M107.35 130.801H106.505C106.423 130.801 106.356 130.873 106.356 130.963V131.39C106.356 131.479 106.423 131.552 106.505 131.552H107.35C107.432 131.552 107.498 131.479 107.498 131.39V130.963C107.498 130.873 107.432 130.801 107.35 130.801Z" fill="#3F3D56"/>
<path d="M109.634 130.801H108.788C108.706 130.801 108.64 130.873 108.64 130.963V131.39C108.64 131.479 108.706 131.552 108.788 131.552H109.634C109.716 131.552 109.782 131.479 109.782 131.39V130.963C109.782 130.873 109.716 130.801 109.634 130.801Z" fill="#3F3D56"/>
<path d="M111.917 130.801H111.072C110.99 130.801 110.924 130.873 110.924 130.963V131.39C110.924 131.479 110.99 131.552 111.072 131.552H111.917C111.999 131.552 112.066 131.479 112.066 131.39V130.963C112.066 130.873 111.999 130.801 111.917 130.801Z" fill="#3F3D56"/>
<path d="M114.201 130.801H113.356C113.274 130.801 113.208 130.873 113.208 130.963V131.39C113.208 131.479 113.274 131.552 113.356 131.552H114.201C114.283 131.552 114.349 131.479 114.349 131.39V130.963C114.349 130.873 114.283 130.801 114.201 130.801Z" fill="#3F3D56"/>
<path d="M116.485 130.801H115.639C115.558 130.801 115.491 130.873 115.491 130.963V131.39C115.491 131.479 115.558 131.552 115.639 131.552H116.485C116.567 131.552 116.633 131.479 116.633 131.39V130.963C116.633 130.873 116.567 130.801 116.485 130.801Z" fill="#3F3D56"/>
<path d="M118.769 130.801H117.923C117.841 130.801 117.775 130.873 117.775 130.963V131.39C117.775 131.479 117.841 131.552 117.923 131.552H118.769C118.85 131.552 118.917 131.479 118.917 131.39V130.963C118.917 130.873 118.85 130.801 118.769 130.801Z" fill="#3F3D56"/>
<path d="M121.052 130.801H120.207C120.125 130.801 120.059 130.873 120.059 130.963V131.39C120.059 131.479 120.125 131.552 120.207 131.552H121.052C121.134 131.552 121.2 131.479 121.2 131.39V130.963C121.2 130.873 121.134 130.801 121.052 130.801Z" fill="#3F3D56"/>
<path d="M123.336 130.801H122.491C122.409 130.801 122.342 130.873 122.342 130.963V131.39C122.342 131.479 122.409 131.552 122.491 131.552H123.336C123.418 131.552 123.484 131.479 123.484 131.39V130.963C123.484 130.873 123.418 130.801 123.336 130.801Z" fill="#3F3D56"/>
<path d="M125.62 130.801H124.774C124.692 130.801 124.626 130.873 124.626 130.963V131.39C124.626 131.479 124.692 131.552 124.774 131.552H125.62C125.702 131.552 125.768 131.479 125.768 131.39V130.963C125.768 130.873 125.702 130.801 125.62 130.801Z" fill="#3F3D56"/>
<path d="M127.903 130.801H127.058C126.976 130.801 126.91 130.873 126.91 130.963V131.39C126.91 131.479 126.976 131.552 127.058 131.552H127.903C127.985 131.552 128.052 131.479 128.052 131.39V130.963C128.052 130.873 127.985 130.801 127.903 130.801Z" fill="#3F3D56"/>
<path d="M130.187 130.801H129.342C129.26 130.801 129.193 130.873 129.193 130.963V131.39C129.193 131.479 129.26 131.552 129.342 131.552H130.187C130.269 131.552 130.335 131.479 130.335 131.39V130.963C130.335 130.873 130.269 130.801 130.187 130.801Z" fill="#3F3D56"/>
<path d="M132.471 130.801H131.625C131.543 130.801 131.477 130.873 131.477 130.963V131.39C131.477 131.479 131.543 131.552 131.625 131.552H132.471C132.553 131.552 132.619 131.479 132.619 131.39V130.963C132.619 130.873 132.553 130.801 132.471 130.801Z" fill="#3F3D56"/>
<path d="M134.754 130.801H133.909C133.827 130.801 133.761 130.873 133.761 130.963V131.39C133.761 131.479 133.827 131.552 133.909 131.552H134.754C134.836 131.552 134.903 131.479 134.903 131.39V130.963C134.903 130.873 134.836 130.801 134.754 130.801Z" fill="#3F3D56"/>
<path d="M137.038 130.801H136.193C136.111 130.801 136.044 130.873 136.044 130.963V131.39C136.044 131.479 136.111 131.552 136.193 131.552H137.038C137.12 131.552 137.186 131.479 137.186 131.39V130.963C137.186 130.873 137.12 130.801 137.038 130.801Z" fill="#3F3D56"/>
<path d="M139.322 130.801H138.476C138.395 130.801 138.328 130.873 138.328 130.963V131.39C138.328 131.479 138.395 131.552 138.476 131.552H139.322C139.404 131.552 139.47 131.479 139.47 131.39V130.963C139.47 130.873 139.404 130.801 139.322 130.801Z" fill="#3F3D56"/>
<path d="M141.605 130.801H140.76C140.678 130.801 140.612 130.873 140.612 130.963V131.39C140.612 131.479 140.678 131.552 140.76 131.552H141.605C141.687 131.552 141.754 131.479 141.754 131.39V130.963C141.754 130.873 141.687 130.801 141.605 130.801Z" fill="#3F3D56"/>
<path d="M126.305 132.303H117.466C117.385 132.303 117.318 132.376 117.318 132.466V132.892C117.318 132.982 117.385 133.055 117.466 133.055H126.305C126.387 133.055 126.453 132.982 126.453 132.892V132.466C126.453 132.376 126.387 132.303 126.305 132.303Z" fill="#3F3D56"/>
<path d="M151.625 71.7954H93.3165C93.2558 71.794 93.198 71.7666 93.1556 71.7191C93.1131 71.6715 93.0894 71.6077 93.0894 71.5411C93.0894 71.4746 93.1131 71.4107 93.1556 71.3632C93.198 71.3156 93.2558 71.2882 93.3165 71.2869H151.625C151.685 71.2882 151.743 71.3156 151.785 71.3632C151.828 71.4107 151.852 71.4746 151.852 71.5411C151.852 71.6077 151.828 71.6715 151.785 71.7191C151.743 71.7666 151.685 71.794 151.625 71.7954Z" fill="#CACACA"/>
<path d="M97.2856 69.9886C98.0361 69.9886 98.6445 69.3065 98.6445 68.4652C98.6445 67.6239 98.0361 66.9418 97.2856 66.9418C96.5351 66.9418 95.9267 67.6239 95.9267 68.4652C95.9267 69.3065 96.5351 69.9886 97.2856 69.9886Z" fill="#3F3D56"/>
<path d="M101.98 69.9886C102.73 69.9886 103.339 69.3065 103.339 68.4652C103.339 67.6239 102.73 66.9418 101.98 66.9418C101.229 66.9418 100.621 67.6239 100.621 68.4652C100.621 69.3065 101.229 69.9886 101.98 69.9886Z" fill="#3F3D56"/>
<path d="M106.674 69.9886C107.425 69.9886 108.033 69.3065 108.033 68.4652C108.033 67.6239 107.425 66.9418 106.674 66.9418C105.924 66.9418 105.315 67.6239 105.315 68.4652C105.315 69.3065 105.924 69.9886 106.674 69.9886Z" fill="#3F3D56"/>
<path d="M148.798 67.3195H145.464C145.397 67.3209 145.334 67.3507 145.288 67.4025C145.242 67.4542 145.216 67.5238 145.216 67.5963C145.216 67.6688 145.242 67.7384 145.288 67.7902C145.334 67.8419 145.397 67.8717 145.464 67.8732H148.798C148.864 67.8717 148.927 67.8419 148.974 67.7902C149.02 67.7384 149.046 67.6688 149.046 67.5963C149.046 67.5238 149.02 67.4542 148.974 67.4025C148.927 67.3507 148.864 67.3209 148.798 67.3195Z" fill="#3F3D56"/>
<path d="M148.798 68.3588H145.464C145.397 68.3602 145.334 68.39 145.288 68.4418C145.242 68.4936 145.216 68.5632 145.216 68.6356C145.216 68.7081 145.242 68.7777 145.288 68.8295C145.334 68.8813 145.397 68.9111 145.464 68.9125H148.798C148.864 68.9111 148.927 68.8813 148.974 68.8295C149.02 68.7777 149.046 68.7081 149.046 68.6356C149.046 68.5632 149.02 68.4936 148.974 68.4418C148.927 68.39 148.864 68.3602 148.798 68.3588Z" fill="#3F3D56"/>
<path d="M148.798 69.3967H145.464C145.397 69.3982 145.334 69.428 145.288 69.4797C145.242 69.5315 145.216 69.6011 145.216 69.6736C145.216 69.7461 145.242 69.8157 145.288 69.8674C145.334 69.9192 145.397 69.949 145.464 69.9505H148.798C148.864 69.949 148.927 69.9192 148.974 69.8674C149.02 69.8157 149.046 69.7461 149.046 69.6736C149.046 69.6011 149.02 69.5315 148.974 69.4797C148.927 69.428 148.864 69.3982 148.798 69.3967Z" fill="#3F3D56"/>
<path d="M127.128 86.6502H119.842C119.295 86.6502 118.852 87.1367 118.852 87.7368V87.7368C118.852 88.3369 119.295 88.8234 119.842 88.8234H127.128C127.676 88.8234 128.119 88.3369 128.119 87.7368V87.7368C128.119 87.1367 127.676 86.6502 127.128 86.6502Z" fill="#FF4000"/>
<path d="M131.835 90.9966H115.136C114.588 90.9966 114.145 91.4831 114.145 92.0832V92.0832C114.145 92.6833 114.588 93.1698 115.136 93.1698H131.835C132.382 93.1698 132.826 92.6833 132.826 92.0832C132.826 91.4831 132.382 90.9966 131.835 90.9966Z" fill="#E6E6E6"/>
<path d="M131.835 95.343H115.136C114.588 95.343 114.145 95.8294 114.145 96.4295C114.145 97.0297 114.588 97.5162 115.136 97.5162H131.835C132.382 97.5162 132.826 97.0297 132.826 96.4295C132.826 95.8294 132.382 95.343 131.835 95.343Z" fill="#E6E6E6"/>
<path d="M93.8858 136.77H75.6719C75.0278 136.77 74.4101 137.05 73.9546 137.55C73.4992 138.049 73.2433 138.726 73.2433 139.433C73.2433 140.139 73.4992 140.816 73.9546 141.316C74.4101 141.815 75.0278 142.096 75.6719 142.096H82.3503V162.735H87.2074V142.096H93.8858C94.5299 142.096 95.1476 141.815 95.6031 141.316C96.0585 140.816 96.3144 140.139 96.3144 139.433C96.3144 138.726 96.0585 138.049 95.6031 137.55C95.1476 137.05 94.5299 136.77 93.8858 136.77Z" fill="#3F3D56"/>
<path d="M105.907 174.165H57.1902C52.4673 174.146 47.9083 172.265 44.3459 168.864C40.7835 165.464 38.4556 160.772 37.7873 155.645L36.0629 148.689C32.4936 134.275 27.0568 120.497 19.9188 107.776C16.6563 101.966 14.9771 96.3418 18.7911 90.9269C18.8236 90.8808 18.8555 90.8354 18.8869 90.7905C21.946 86.4243 37.1721 85.4792 42.1357 85.2953C42.3318 85.288 42.5286 85.2844 42.7262 85.2844H73.0278C73.2256 85.2844 73.4224 85.2881 73.6182 85.2953C76.294 85.3809 78.8988 86.2591 81.1562 87.8369C83.4135 89.4147 85.2393 91.6332 86.4397 94.2569C87.7207 96.9357 88.3164 99.9447 88.1638 102.965C88.0112 105.985 87.1158 108.903 85.5728 111.41C74.9287 128.944 71.6698 139.938 75.0062 147.058C78.2335 153.944 88.1264 157.465 106.14 158.138C110.98 158.319 113.202 162.452 113.217 166.216C113.233 169.882 111.097 173.931 106.371 174.154C106.218 174.161 106.063 174.165 105.907 174.165Z" fill="#3F3D56"/>
<path d="M65.4662 221.601H83.6802C84.3243 221.601 84.942 221.321 85.3974 220.821C85.8528 220.322 86.1087 219.644 86.1087 218.938C86.1087 218.232 85.8528 217.555 85.3974 217.055C84.942 216.556 84.3243 216.275 83.6802 216.275H77.0017V171.335H72.1447V216.275H65.4662C64.8222 216.275 64.2045 216.556 63.749 217.055C63.2936 217.555 63.0377 218.232 63.0377 218.938C63.0377 219.644 63.2936 220.322 63.749 220.821C64.2045 221.321 64.8222 221.601 65.4662 221.601Z" fill="#3F3D56"/>
<path d="M64.0115 86.9525L64.3933 89.4967C64.574 90.7304 65.228 99.4453 64.7435 100.485C64.7008 98.5438 61.4042 95.4917 59.2683 96.1886L55.9162 97.0053L53.8358 97.5129L52.1424 97.92L47.2219 99.0989C47.2133 99.0362 47.2071 98.9697 47.1985 98.9071C47.1869 98.8281 47.1753 98.7492 47.1606 98.6709C47.069 98.1649 46.9019 97.6789 46.666 97.2325C46.6411 97.8304 46.4801 98.412 46.1978 98.9243C46.1901 98.9377 46.1834 98.9517 46.1777 98.9662C46.0903 99.1213 45.9939 99.2701 45.889 99.4116C45.8841 99.4153 45.8798 99.4197 45.876 99.4247C45.876 99.4247 44.8649 81.7518 44.9708 81.5887C45.0484 81.4727 45.1265 81.3601 45.2082 81.25C45.2893 81.1367 45.3681 81.0272 45.4527 80.9165C45.4636 80.906 45.4728 80.8936 45.48 80.8798C45.7171 80.572 45.9683 80.2775 46.2325 79.9974C46.3102 79.9154 46.3908 79.8328 46.4714 79.7501C47.7024 78.5011 49.1732 77.5708 50.7755 77.0277C50.9562 76.9667 51.1441 76.911 51.335 76.8546C51.5235 76.8021 51.7156 76.7522 51.9089 76.7088L51.9743 76.6941C52.0665 76.6734 52.1623 76.6553 52.2551 76.6379C52.3717 76.6151 52.4889 76.5956 52.6037 76.5801C54.0945 76.3446 55.6132 76.4382 57.0706 76.8554C57.0735 76.8547 57.0741 76.858 57.0771 76.8573C58.2936 77.2059 59.4499 77.7706 60.5 78.5289C62.3164 79.844 63.0234 81.9891 63.5255 84.3976C63.7015 85.2246 63.8497 86.085 64.0115 86.9525Z" fill="#2F2E41"/>
<path d="M81.9516 203.484L85.0893 205.353L93.3954 192.759L88.7642 190.001L81.9516 203.484Z" fill="#FFB6B6"/>
<path d="M83.4619 198.996L89.1581 200.952L88.2514 203.569L92.1574 209.786C92.3503 210.093 92.4487 210.459 92.4382 210.832C92.4277 211.205 92.3088 211.564 92.099 211.857C91.8891 212.151 91.5992 212.363 91.2716 212.463C90.944 212.562 90.5959 212.545 90.278 212.412L83.6469 209.65L83.4008 206.585L82.0577 208.988L79.5575 207.946L83.4619 198.996Z" fill="#2F2E41"/>
<path d="M99.7244 147.156C99.2235 147.289 98.7021 147.301 98.1967 147.19C97.6914 147.079 97.2144 146.847 96.7993 146.512C96.3843 146.177 96.0414 145.746 95.7947 145.25C95.5479 144.754 95.4034 144.204 95.3713 143.64L68.6085 133.082L73.5201 128.395L98.9218 139.486C99.7896 139.489 100.626 139.842 101.273 140.477C101.919 141.112 102.331 141.984 102.43 142.93C102.529 143.875 102.308 144.828 101.809 145.606C101.311 146.385 100.569 146.937 99.7244 147.156Z" fill="#FFB6B6"/>
<path d="M61.1322 106.926C61.1322 106.926 56.6247 107.035 56.2239 112.678C55.8232 118.321 65.6584 132.279 67.1823 134.581C68.7061 136.883 85.632 139.716 85.632 139.716L91.3858 135.135C85.3399 130.839 79.8223 127.545 76.1194 127.694L61.1322 106.926Z" fill="#FF4000"/>
<path d="M55.6039 131.825L56.7023 137C56.7023 137 56.7131 141.772 57.4838 142.652C58.249 143.528 75.0771 141.769 75.0771 141.769C75.0771 141.769 73.2929 134.08 73.3166 128.261L55.6039 131.825Z" fill="#FFB6B6"/>
<path d="M91.1538 198.021L85.0825 194.359C84.967 185.696 89.7189 173.972 95.355 161.692C82.75 164.069 70.8584 164.831 60.5726 161.955C58.884 161.466 57.4387 160.268 56.549 158.62C55.6593 156.972 55.3967 155.006 55.8179 153.148C55.858 152.965 55.9043 152.785 55.9568 152.606C57.1878 148.487 54.4276 145.906 56.9664 141.376C63.6437 138.875 69.9869 138.169 75.7875 140.377L79.4219 149.189L97.4363 146.633C98.3066 146.519 99.1889 146.595 100.032 146.856C100.876 147.118 101.664 147.56 102.351 148.157C103.038 148.754 103.61 149.494 104.035 150.335C104.46 151.175 104.729 152.1 104.826 153.055C104.85 153.27 104.866 153.485 104.874 153.701C101.231 172.427 97.1467 189.276 91.1538 198.021Z" fill="#2F2E41"/>
<path d="M56.4382 96.0642C60.5124 95.15 63.1395 90.787 62.3058 86.3192C61.4721 81.8514 57.4934 78.9707 53.4192 79.8849C49.3449 80.7991 46.7179 85.162 47.5516 89.6298C48.3852 94.0976 52.3639 96.9784 56.4382 96.0642Z" fill="#FFB6B6"/>
<path d="M53.1586 99.0616L60.0984 98.6123C60.3911 98.5934 60.6819 98.675 60.9302 98.8458C61.1785 99.0167 61.3721 99.2682 61.4839 99.5654L63.4451 104.779L71.5959 112.166C71.5959 112.166 74.823 116.67 74.8305 122.486C74.838 128.301 75.9754 141.763 75.9754 141.763C75.9754 141.763 71.2656 134.493 68.3586 136.427C67.864 136.756 67.6901 137.428 67.172 137.768C66.9136 137.938 66.3166 137.773 66.0557 137.943C62.0498 140.551 57.8722 143.098 57.4819 142.651C56.7154 141.774 55.7857 137.293 55.7857 137.293L49.4332 111.698C49.0888 110.351 49.0205 108.938 49.233 107.559C49.4455 106.18 49.9337 104.869 50.6625 103.722C51.1063 103.036 51.5713 102.527 52.0034 102.442C52.9736 102.216 52.4575 99.8312 53.1586 99.0616Z" fill="#FF4000"/>
<path d="M112.193 214.325L115.122 212.092L108.486 198.363L104.163 201.659L112.193 214.325Z" fill="#FFB6B6"/>
<path d="M112.636 205.113L108.045 209.613C100.745 200.693 95.2258 188.183 90.5491 173.977C78.2954 170.041 69.0545 163.695 60.9872 156.159C58.2505 153.619 56.1989 150.357 58.533 147.263C58.6421 147.119 58.756 146.979 58.8748 146.844C61.6307 143.738 68.6195 144.33 72.7127 141.485L81.8566 152.202L81.2814 155.076L98.4563 161.455C99.2827 161.773 100.044 162.267 100.695 162.909C101.347 163.55 101.876 164.327 102.252 165.194C102.628 166.061 102.844 167.001 102.888 167.96C102.931 168.919 102.801 169.878 102.505 170.782C102.44 170.986 102.368 171.187 102.288 171.385L112.636 205.113Z" fill="#2F2E41"/>
<path d="M110.485 213.42L115.174 209.371L116.631 211.669L123.516 211.646C123.856 211.645 124.187 211.763 124.462 211.983C124.736 212.203 124.939 212.513 125.041 212.869C125.144 213.225 125.14 213.607 125.03 213.96C124.92 214.313 124.71 214.618 124.431 214.83L118.606 219.27L116.161 217.762L117.21 220.334L115.014 222.008L110.485 213.42Z" fill="#2F2E41"/>
<path d="M63.4065 163.565C62.932 163.344 62.5075 163.012 62.1628 162.591C61.818 162.171 61.5615 161.673 61.4113 161.132C61.2611 160.592 61.2208 160.021 61.2933 159.462C61.3658 158.902 61.5493 158.367 61.8309 157.893L46.1201 131.895L52.6122 131.353L66.9412 156.888C67.6352 157.459 68.1138 158.29 68.2865 159.223C68.4592 160.155 68.3139 161.125 67.8782 161.948C67.4425 162.771 66.7466 163.39 65.9225 163.688C65.0983 163.986 64.2031 163.942 63.4065 163.565Z" fill="#FFB6B6"/>
<path d="M54.3733 106.021C54.3733 106.021 50.6991 103.156 47.3036 107.419C43.9081 111.682 44.1916 129.318 44.1597 132.162C44.1497 133.053 45.3225 134.975 46.9382 137.194C47.6636 138.191 48.4783 139.247 49.3154 140.298C49.7998 140.906 49.3824 142.171 49.8688 142.762C50.3525 143.349 51.74 143.262 52.2001 143.808C54.384 146.396 56.1582 148.366 56.1582 148.366L63.2678 148.462C63.348 142.667 59.7287 137.493 55.0789 132.493L54.3733 106.021Z" fill="#FF4000"/>
<path d="M64.3401 83.9635C64.0615 84.1143 63.7911 84.2599 63.5256 84.3977C62.4601 84.972 61.3589 85.4632 60.2303 85.8676C60.0425 85.3075 59.756 84.7933 59.3872 84.3545C59.4816 84.9605 59.4335 85.5829 59.2474 86.1629C57.5391 86.6268 55.7459 86.5509 54.0753 85.9439C55.1678 88.1622 55.975 92.8366 55.9163 97.0053C55.8907 99.2095 55.6186 101.272 55.0245 102.754L54.2611 100.207C54.1903 99.2973 54.048 98.3959 53.8358 97.5129C53.3239 95.0353 52.846 96.6919 52.1425 97.9201L47.222 99.0989C47.2134 99.0363 47.2071 98.9697 47.1986 98.9071C47.1869 98.8281 47.1753 98.7492 47.1607 98.6709C47.0691 98.1649 46.902 97.6789 46.6661 97.2325C46.6411 97.8305 46.4802 98.4121 46.1978 98.9244C46.1901 98.9377 46.1834 98.9517 46.1778 98.9662C46.0904 99.1213 45.9939 99.2701 45.8891 99.4116C45.8842 99.4153 45.8798 99.4197 45.876 99.4247C42.6992 99.8909 40.4722 81.9262 44.9715 81.5919C45.1023 81.5822 45.1271 81.3634 45.2083 81.25C45.2894 81.1367 45.3681 81.0273 45.4528 80.9165C45.4636 80.906 45.4728 80.8936 45.48 80.8798C45.7205 80.5744 45.9694 80.2807 46.2325 79.9974C46.3102 79.9154 46.3908 79.8328 46.4715 79.7501C47.7063 78.5072 49.1762 77.5787 50.7761 77.0309C50.9569 76.97 51.1442 76.911 51.335 76.8546C51.5236 76.8021 51.7157 76.7522 51.909 76.7088L51.9744 76.6941C52.0666 76.6734 52.1624 76.6553 52.2552 76.6379C52.3717 76.6152 52.489 76.5956 52.6038 76.5801C53.035 76.8184 53.4039 77.1729 53.676 77.6103L56.8196 76.9049C56.9029 76.8862 56.9868 76.8708 57.0712 76.8586L57.0772 76.8573C61.0018 76.1364 63.5252 79.5966 64.3401 83.9635Z" fill="#2F2E41"/>
<path d="M47.2069 80.7874C46.5338 81.3201 45.8257 81.869 45.0044 82.001C44.183 82.133 43.2215 81.6976 42.9942 80.8221C42.7163 79.7516 43.5978 78.7769 44.39 78.0812L46.9023 75.8752C47.3624 75.4277 47.8818 75.0595 48.4426 74.783C48.7244 74.6471 49.0304 74.5824 49.338 74.5937C49.6456 74.6049 49.947 74.6919 50.2198 74.8482C50.4898 75.0481 50.7087 75.3206 50.8555 75.6395C51.0023 75.9585 51.0722 76.3133 51.0586 76.6703C51.0228 77.3857 50.8075 78.0764 50.4364 78.6662C49.97 79.4633 49.3614 80.1487 48.6471 80.6812C47.9329 81.2136 47.1278 81.582 46.2803 81.7643" fill="#2F2E41"/>
<path d="M66.2613 138.101H48.0474C47.4033 138.101 46.7856 138.382 46.3301 138.881C45.8747 139.381 45.6188 140.058 45.6188 140.764C45.6188 141.471 45.8747 142.148 46.3301 142.647C46.7856 143.147 47.4033 143.427 48.0474 143.427H54.7258V164.066H59.5829V143.427H66.2613C66.9054 143.427 67.5231 143.147 67.9785 142.647C68.434 142.148 68.6898 141.471 68.6898 140.764C68.6898 140.058 68.434 139.381 67.9785 138.881C67.5231 138.382 66.9054 138.101 66.2613 138.101Z" fill="#3F3D56"/>
<path d="M133.551 222.565L0.361444 222.667C0.265762 222.667 0.174096 222.625 0.106537 222.551C0.038978 222.476 0.0010376 222.376 0.0010376 222.271C0.0010376 222.166 0.038978 222.065 0.106537 221.991C0.174096 221.917 0.265762 221.875 0.361444 221.874L133.551 221.772C133.647 221.772 133.738 221.814 133.806 221.889C133.874 221.963 133.911 222.064 133.911 222.168C133.911 222.273 133.874 222.374 133.806 222.448C133.738 222.523 133.647 222.564 133.551 222.565Z" fill="#CACACA"/>
<path d="M172.31 178.352L175.275 181.896L189.15 171.041L184.773 165.811L172.31 178.352Z" fill="#A0616A"/>
<path d="M178.447 183.367V183.364L178.147 179.825L178.01 179.755L177.212 179.339L173.444 177.385L173.366 177.292L172.61 176.386L168.423 180.601L174.094 187.378L177.983 192.025L178.113 191.892C178.646 191.357 179.078 190.711 179.383 189.993C179.688 189.275 179.861 188.497 179.892 187.706C179.923 186.914 179.812 186.123 179.564 185.379C179.316 184.634 178.936 183.951 178.447 183.367H178.447Z" fill="#2F2E41"/>
<path d="M156.949 213.7L161.145 215.097L168.058 198.014L161.865 195.951L156.949 213.7Z" fill="#A0616A"/>
<path d="M167.813 217.524C167.475 216.824 167.013 216.204 166.454 215.701C165.896 215.198 165.251 214.822 164.559 214.595L162.656 211.716L162.507 211.729L157.477 212.235L157.364 212.198L156.296 211.842L154.645 217.804L168.174 222.311L168.226 222.122C168.437 221.363 168.509 220.567 168.439 219.778C168.368 218.989 168.155 218.223 167.813 217.524Z" fill="#2F2E41"/>
<path d="M191.549 124.256C191.549 124.256 218.34 152.62 201.403 161.4H196.169C196.169 161.4 194.596 155.271 190.994 150.103C190.5 149.393 188.647 149.538 188.132 148.846C184.991 144.623 181.585 140.995 179.232 141.139L179.795 160.737L180.706 167.728C181.184 171.342 167.688 202.895 167.688 202.895L159.206 199.239C159.206 199.239 168.043 173.25 168.147 169.504L161.064 128.308L191.549 124.256Z" fill="#2F2E41"/>
<path d="M193.783 125.655C193.647 125.868 193.468 126.046 193.261 126.174C192.92 126.385 192.55 126.536 192.165 126.62C186.134 128.121 166.429 131.234 161.314 129.749C160.686 129.569 160.276 129.316 160.142 128.983C159.714 127.932 159.769 123.487 160.021 118.121C160.066 117.116 161.077 116.028 161.138 114.976C161.18 114.187 160.273 113.444 160.321 112.642C160.655 107.216 161.086 101.687 161.375 98.1915C161.557 95.9445 161.681 94.5397 161.681 94.5397L158.57 73.0253L158.715 72.7623L158.879 72.6724L168.912 67.2264L169.459 65.6951C169.617 65.2542 169.892 64.8755 170.249 64.6079C170.605 64.3403 171.027 64.196 171.459 64.1938L178.068 64.1639C178.411 64.1618 178.749 64.2495 179.055 64.4197C179.36 64.5899 179.625 64.8377 179.825 65.1425L181.616 67.8622L193.456 76.1844L193.41 76.3375L187.855 94.8759L187.827 96.3206V96.324L187.621 107.942L188.195 109.516L187.548 112.099C187.548 112.099 187.846 115.119 189.439 117.362C190.884 119.4 192.724 121.523 193.556 123.248V123.251C194.017 124.203 194.172 125.029 193.783 125.655Z" fill="#FF4000"/>
<path d="M202.69 159.715L201.258 161.699C201.258 161.699 188.088 171.803 187.636 172.747L185.554 174.907L180.518 169.003L183.137 165.404C185.233 162.523 187.941 160.25 191.024 158.783L195.037 154.878L202.69 159.715Z" fill="#2F2E41"/>
<path d="M194.321 131.357L191.923 105.901L191.29 95.4243L198.003 94.0933C198.003 94.0933 197.737 101.585 198.616 105.811C199.484 109.982 198.731 130.798 198.678 131.355C199.171 131.838 199.518 132.474 199.674 133.179C199.83 133.884 199.788 134.624 199.552 135.301C199.316 135.979 198.898 136.562 198.354 136.973C197.809 137.385 197.164 137.605 196.502 137.606C195.841 137.606 195.195 137.386 194.65 136.975C194.105 136.564 193.687 135.982 193.451 135.305C193.214 134.627 193.171 133.887 193.326 133.182C193.482 132.477 193.829 131.841 194.321 131.357Z" fill="#A0616A"/>
<path d="M200.869 111.176L192.241 113.135L191.487 109.837L190.607 108.813L188.85 98.7192L186.329 92.8061L186.984 72.5853L193.388 76.3095L193.395 76.3161C194.375 77.4819 195.05 79.1505 196.172 80.8248C199.709 86.1006 200.101 98.9204 199.994 105.942C199.992 106.058 200.098 106.179 200.225 106.307C200.827 106.914 201.22 107.729 201.337 108.616C201.455 109.503 201.289 110.407 200.869 111.176V111.176Z" fill="#FF4000"/>
<path d="M155.251 132.356L157.649 106.9L158.282 96.423L151.57 95.092C151.57 95.092 151.836 102.583 150.956 106.81C150.088 110.981 150.841 131.797 150.895 132.353C150.402 132.837 150.054 133.473 149.898 134.178C149.742 134.882 149.785 135.622 150.02 136.3C150.256 136.978 150.674 137.561 151.219 137.972C151.763 138.384 152.409 138.604 153.07 138.604C153.731 138.605 154.377 138.385 154.922 137.974C155.467 137.563 155.885 136.98 156.122 136.303C156.358 135.626 156.401 134.886 156.246 134.181C156.09 133.476 155.744 132.84 155.251 132.356Z" fill="#A0616A"/>
<path d="M163.245 93.804L161.375 98.1914L160.722 99.7194L158.964 109.812L158.087 110.834L157.331 114.133L156.976 114.053L150.571 112.599L148.704 112.176C148.283 111.407 148.117 110.503 148.235 109.615C148.352 108.728 148.745 107.912 149.347 107.306C149.475 107.179 149.581 107.056 149.578 106.94C149.472 99.9191 149.863 87.0996 153.4 81.8234C154.523 80.149 155.197 78.4812 156.178 77.3161C156.181 77.3128 156.181 77.3095 156.184 77.3095L158.57 73.0252L158.715 72.7622L158.879 72.6724L163.245 93.804Z" fill="#FF4000"/>
<path d="M174.573 62.1007C179.429 62.1007 183.366 57.7837 183.366 52.4584C183.366 47.1331 179.429 42.8162 174.573 42.8162C169.716 42.8162 165.78 47.1331 165.78 52.4584C165.78 57.7837 169.716 62.1007 174.573 62.1007Z" fill="#A0616A"/>
<path d="M184.458 48.2286C184.427 46.5841 184.257 44.4803 183.207 42.8025C182.321 41.3911 180.533 40.2726 178.866 40.8318C178.885 40.4664 178.811 40.1024 178.652 39.7804C178.493 39.4583 178.257 39.1908 177.968 39.0076C177.336 38.5848 176.577 38.5083 175.906 38.4384C174.216 38.2653 172.464 38.0855 170.752 38.4417C168.83 38.8412 167.258 39.9264 166.441 41.421L166.423 41.4676L166.256 42.3531C166.234 42.4719 166.188 42.5839 166.123 42.6816C166.057 42.7793 165.973 42.8603 165.877 42.919C165.78 42.9786 165.672 43.014 165.561 43.0226C165.451 43.0312 165.34 43.0129 165.236 42.969C165.123 42.9224 165 42.909 164.881 42.9302C164.761 42.9514 164.649 43.0064 164.555 43.0898C164.461 43.1731 164.388 43.282 164.344 43.4056C164.3 43.5292 164.286 43.6633 164.304 43.7945L164.35 44.1474L163.867 44.0475C163.746 44.0218 163.621 44.032 163.504 44.0771C163.388 44.1222 163.285 44.2005 163.205 44.304C163.126 44.4075 163.073 44.5324 163.052 44.6658C163.031 44.7992 163.043 44.9363 163.087 45.0628L163.22 45.4656C163.121 45.4671 163.022 45.4905 162.931 45.5345C162.84 45.5786 162.757 45.6423 162.689 45.7219C162.592 45.838 162.53 45.985 162.514 46.1417C162.498 46.2985 162.527 46.4569 162.598 46.5941C163.139 47.6067 163.906 48.4521 164.826 49.0508C165.24 49.3242 165.687 49.5337 166.153 49.6733C166.25 49.7033 166.35 49.7299 166.453 49.7532C170.18 50.634 174.023 50.7604 177.792 50.126C177.57 50.9413 177.484 51.794 177.54 52.6426C177.661 53.7045 178.229 54.58 178.988 54.873C179.159 54.9368 179.336 54.9836 179.516 55.0128C179.688 55.0434 179.857 55.089 180.023 55.1493C180.267 55.2474 180.483 55.4144 180.649 55.6335C180.816 55.8526 180.926 56.116 180.97 56.3971C181.014 56.6781 180.989 56.9669 180.899 57.2341C180.808 57.5013 180.654 57.7376 180.454 57.9189C180.454 57.9189 181.249 58.6412 181.349 58.6046C181.74 58.4153 182.067 58.0963 182.284 57.6925C183.799 55.3024 184.531 52.12 184.458 48.2286Z" fill="#2F2E41"/>
</g>
<defs>
<clipPath id="clip0_1_64">
<rect width="235" height="223" fill="white"/>
</clipPath>
</defs>
</svg>
