<svg width="235" height="223" viewBox="0 0 235 223" fill="none" xmlns="http://www.w3.org/2000/svg">
<g clip-path="url(#clip0_1_314)">
<path opacity="0.1" d="M235 147.433C235.013 158.765 233.157 169.886 229.634 179.579C229.634 191.433 226.319 202.178 220.941 210.009C219.595 211.97 218.146 213.724 216.611 215.251C216.549 215.316 216.486 215.378 216.422 215.44C216.307 215.553 216.192 215.666 216.075 215.782L215.966 215.888C210.875 220.617 205.138 223.073 199.31 223.017H44.611C33.9435 223.017 24.2868 216.826 17.2902 206.821C10.2936 196.816 5.98183 182.968 5.98183 167.697C2.06396 157.641 -0.0144147 145.902 1.35796e-05 133.911C1.35796e-05 99.9641 16.2775 72.4444 36.3593 72.4444C37.07 72.4444 37.7746 72.4855 38.4751 72.5505C51.0755 36.7341 79.4974 11.7585 112.517 11.7585C132.816 11.7585 151.372 21.192 165.585 36.7786C170.969 31.7054 177.05 29.0451 183.234 29.0572C203.312 29.0572 219.594 56.5769 219.594 90.5238C219.591 92.6717 219.522 94.818 219.388 96.9543C224.228 102.665 228.173 110.232 230.89 119.018C233.607 127.803 235.017 137.549 235 147.433Z" fill="#FF4000"/>
<path opacity="0.1" d="M84.8383 166.844C129.311 166.844 165.363 165.235 165.363 163.249C165.363 161.263 129.311 159.654 84.8383 159.654C40.3658 159.654 4.31381 161.263 4.31381 163.249C4.31381 165.235 40.3658 166.844 84.8383 166.844Z" fill="#FF4000"/>
<g opacity="0.7">
<path opacity="0.7" d="M54.847 136.712H29.1696V160.338H54.847V136.712Z" fill="#65617D"/>
<path opacity="0.1" d="M46.014 140.821H38.208V143.56H46.014V140.821Z" fill="black"/>
<path opacity="0.1" d="M45.0382 141.163H39.1838V143.218H45.0382V141.163Z" fill="black"/>
<path opacity="0.7" d="M80.9353 136.712H55.2579V160.338H80.9353V136.712Z" fill="#65617D"/>
<path opacity="0.1" d="M72.1023 140.821H64.2963V143.56H72.1023V140.821Z" fill="black"/>
<path opacity="0.1" d="M71.1265 141.163H65.2721V143.218H71.1265V141.163Z" fill="black"/>
<path opacity="0.7" d="M54.847 112.401H29.1696V136.027H54.847V112.401Z" fill="#65617D"/>
<path opacity="0.1" d="M46.014 116.509H38.208V119.249H46.014V116.509Z" fill="black"/>
<path opacity="0.1" d="M45.0382 116.852H39.1838V118.906H45.0382V116.852Z" fill="black"/>
<path opacity="0.7" d="M80.9353 112.401H55.2579V136.027H80.9353V112.401Z" fill="#65617D"/>
<path opacity="0.1" d="M72.1023 116.509H64.2963V119.249H72.1023V116.509Z" fill="black"/>
<path opacity="0.1" d="M71.1265 116.852H65.2721V118.906H71.1265V116.852Z" fill="black"/>
<path opacity="0.7" d="M54.847 87.7468H29.1696V111.373H54.847V87.7468Z" fill="#65617D"/>
<path opacity="0.1" d="M46.014 91.8557H38.208V94.595H46.014V91.8557Z" fill="black"/>
<path opacity="0.1" d="M45.0382 92.1981H39.1838V94.2526H45.0382V92.1981Z" fill="black"/>
<path opacity="0.7" d="M80.9353 87.7468H55.2579V111.373H80.9353V87.7468Z" fill="#65617D"/>
<path opacity="0.1" d="M72.1023 91.8557H64.2963V94.595H72.1023V91.8557Z" fill="black"/>
<path opacity="0.1" d="M71.1265 92.1981H65.2721V94.2526H71.1265V92.1981Z" fill="black"/>
<path opacity="0.7" d="M80.9353 63.093H55.2579V86.7195H80.9353V63.093Z" fill="#65617D"/>
<path opacity="0.1" d="M72.1023 67.202H64.2963V69.9413H72.1023V67.202Z" fill="black"/>
<path opacity="0.1" d="M71.1265 67.5444H65.2721V69.5989H71.1265V67.5444Z" fill="black"/>
</g>
<g opacity="0.7">
<path opacity="0.7" d="M107.024 136.37H81.3462V159.996H107.024V136.37Z" fill="#65617D"/>
<path opacity="0.1" d="M98.1906 140.478H90.3846V143.218H98.1906V140.478Z" fill="black"/>
<path opacity="0.1" d="M97.2148 140.821H91.3604V142.875H97.2148V140.821Z" fill="black"/>
<path opacity="0.7" d="M133.112 136.37H107.434V159.996H133.112V136.37Z" fill="#65617D"/>
<path opacity="0.1" d="M124.279 140.478H116.473V143.218H124.279V140.478Z" fill="black"/>
<path opacity="0.1" d="M123.303 140.821H117.449V142.875H123.303V140.821Z" fill="black"/>
<path opacity="0.7" d="M107.024 112.058H81.3462V135.685H107.024V112.058Z" fill="#65617D"/>
<path opacity="0.1" d="M98.1906 116.167H90.3846V118.906H98.1906V116.167Z" fill="black"/>
<path opacity="0.1" d="M97.2148 116.51H91.3604V118.564H97.2148V116.51Z" fill="black"/>
<path opacity="0.7" d="M133.112 112.058H107.434V135.685H133.112V112.058Z" fill="#65617D"/>
<path opacity="0.1" d="M124.279 116.167H116.473V118.906H124.279V116.167Z" fill="black"/>
<path opacity="0.1" d="M123.303 116.51H117.449V118.564H123.303V116.51Z" fill="black"/>
<path opacity="0.7" d="M107.024 87.4044H81.3462V111.031H107.024V87.4044Z" fill="#65617D"/>
<path opacity="0.1" d="M98.1906 91.5133H90.3846V94.2526H98.1906V91.5133Z" fill="black"/>
<path opacity="0.1" d="M97.2148 91.8558H91.3604V93.9102H97.2148V91.8558Z" fill="black"/>
<path opacity="0.7" d="M133.112 87.4044H107.434V111.031H133.112V87.4044Z" fill="#65617D"/>
<path opacity="0.1" d="M124.279 91.5133H116.473V94.2526H124.279V91.5133Z" fill="black"/>
<path opacity="0.1" d="M123.303 91.8558H117.449V93.9102H123.303V91.8558Z" fill="black"/>
<path opacity="0.7" d="M133.112 62.7506H107.434V86.3771H133.112V62.7506Z" fill="#65617D"/>
<path opacity="0.1" d="M124.279 66.8596H116.473V69.5989H124.279V66.8596Z" fill="black"/>
<path opacity="0.1" d="M123.303 67.202H117.449V69.2564H123.303V67.202Z" fill="black"/>
</g>
<path opacity="0.1" d="M180.418 0.037662C180.418 0.037662 163.124 -1.7018 165.157 18.5006C165.157 18.5006 164.747 22.072 166.694 23.6916C166.694 23.6916 166.725 22.1952 168.469 22.7054C169.09 22.877 169.72 22.9275 170.348 22.8561C171.197 22.7584 172.003 22.2031 172.645 21.2741C172.645 21.2741 177.507 17.9253 179.397 4.68078C179.397 4.68078 180.796 1.79082 180.74 1.04778L177.821 3.12623C177.821 3.12623 178.82 6.63597 178.027 9.55333C178.027 9.55333 177.932 3.25292 177.372 3.38989C177.259 3.4207 175.856 4.60546 175.856 4.60546C175.856 4.60546 177.571 10.7175 176.277 15.1621C176.277 15.1621 176.768 7.62896 175.319 5.04717L173.265 7.04686C173.265 7.04686 175.27 13.361 173.91 18.5143C173.91 18.5143 174.26 10.6114 172.832 7.53308L170.971 9.95395C170.971 9.95395 172.854 16.179 171.706 20.4523C171.706 20.4523 171.556 11.2517 170.568 10.5566C170.568 10.5566 168.939 12.9535 168.691 13.9328C168.691 13.9328 169.981 18.4526 169.18 20.8358C169.18 20.8358 168.689 14.7066 168.286 14.6724C168.286 14.6724 166.663 18.7334 166.495 21.5207C166.495 21.5207 166.565 17.3775 167.894 14.2855C167.894 14.2855 166.324 14.734 165.408 16.4324C165.408 16.4324 165.661 13.5596 168.294 13.3096C168.294 13.3096 169.636 10.2279 169.993 10.0396C169.993 10.0396 167.376 9.67659 165.788 10.8476C165.788 10.8476 167.185 8.13916 170.474 9.37185L172.312 6.8688C172.312 6.8688 168.865 6.08468 167.403 6.95098C167.403 6.95098 169.085 4.55409 172.807 6.30382L174.812 4.32467C174.812 4.32467 171.873 3.27004 170.122 3.63985C170.122 3.63985 171.971 1.97914 175.4 3.78024L176.838 2.70848C176.838 2.70848 174.685 2.00311 174.054 1.89012C173.423 1.77712 173.391 1.48949 173.391 1.48949C174.754 1.11039 176.155 1.37 177.435 2.23938C177.435 2.23938 180.471 0.356106 180.418 0.037662Z" fill="#FF4000"/>
<path opacity="0.1" d="M159.087 5.17726C159.087 5.17726 151.281 4.38971 152.195 13.5219C152.195 13.5219 152.013 15.1346 152.888 15.8674C152.888 15.8674 152.902 15.1826 153.691 15.4188C153.971 15.4974 154.256 15.5204 154.539 15.4873C154.923 15.4439 155.287 15.1925 155.577 14.7717C155.577 14.7717 157.775 13.2616 158.629 7.27625C158.629 7.27625 159.26 5.96824 159.235 5.63267L157.916 6.57088C157.916 6.57088 158.368 8.15968 158.013 9.47797C158.013 9.47797 157.97 6.62909 157.717 6.69757C157.666 6.69757 157.031 7.24543 157.031 7.24543C157.031 7.24543 157.807 10.0087 157.222 12.0187C157.222 12.0187 157.444 8.61509 156.789 7.44746L155.86 8.35143C155.86 8.35143 156.768 11.2037 156.152 13.5321C156.152 13.5321 156.31 9.96077 155.665 8.57057L154.825 9.66287C154.825 9.66287 155.675 12.4775 155.158 14.4087C155.158 14.4087 155.09 10.2484 154.642 9.9368C154.642 9.9368 153.906 11.0188 153.794 11.464C153.794 11.464 154.377 13.5184 154.015 14.5799C154.015 14.5799 153.794 11.8098 153.605 11.7995C153.605 11.7995 152.873 13.6349 152.795 14.8812C152.832 13.718 153.05 12.5909 153.428 11.6112C153.005 11.7448 152.614 12.0816 152.304 12.5802C152.304 12.5802 152.419 11.2859 153.609 11.1695C153.609 11.1695 154.225 9.77929 154.377 9.69369C154.377 9.69369 153.194 9.52933 152.477 10.0601C152.477 10.0601 153.107 8.83423 154.595 9.39237L155.416 8.2624C155.416 8.2624 153.859 7.91999 153.198 8.30007C153.198 8.30007 153.958 7.21804 155.64 8.00559L156.544 7.10504C156.544 7.10504 155.217 6.62566 154.424 6.8003C154.424 6.8003 155.26 6.04699 156.809 6.86193L157.456 6.37913C157.456 6.37913 156.482 6.05726 156.197 6.00932C155.911 5.96138 155.897 5.82784 155.897 5.82784C156.514 5.65685 157.147 5.77541 157.725 6.17026C157.725 6.17026 159.112 5.32107 159.087 5.17726Z" fill="#FF4000"/>
<path d="M46.053 220.774C50.6148 220.774 54.3129 219.732 54.3129 218.446C54.3129 217.16 50.6148 216.117 46.053 216.117C41.4912 216.117 37.7931 217.16 37.7931 218.446C37.7931 219.732 41.4912 220.774 46.053 220.774Z" fill="#FF4000"/>
<path d="M49.4692 214.638C49.8463 214.126 50.1207 213.435 50.2559 212.656C50.3586 211.872 50.1573 210.944 49.7054 210.639C49.2001 210.317 48.6598 210.903 48.251 211.491C47.8422 212.08 47.3718 212.755 46.8377 212.628C47.113 212.212 47.3189 211.683 47.4355 211.095C47.5521 210.506 47.5755 209.877 47.5033 209.269C47.4799 209.017 47.416 208.781 47.3184 208.584C47.037 208.084 46.5296 208.297 46.1927 208.691C45.1245 209.944 44.8267 212.365 44.8205 214.539C44.7137 213.755 44.8041 212.936 44.802 212.142C44.8 211.348 44.6664 210.43 44.2577 210.009C44.0056 209.783 43.7221 209.672 43.436 209.687C42.9574 209.656 42.4212 209.738 42.0946 210.324C41.6838 211.05 41.7926 212.269 42.1459 213.063C42.4993 213.858 43.0395 214.368 43.5366 214.919C43.9343 215.314 44.2734 215.854 44.5288 216.498C44.5596 216.588 44.5844 216.683 44.6028 216.782H47.6142C48.2877 216.21 48.9117 215.489 49.4692 214.638Z" fill="#FF4000"/>
<path d="M147.36 117.109C147.343 116.849 147.287 116.601 147.198 116.387C147.109 116.173 146.988 115.999 146.848 115.883C146.73 115.799 146.604 115.756 146.475 115.755C146.347 115.755 146.22 115.798 146.102 115.881C145.984 115.964 145.877 116.086 145.788 116.239C145.699 116.392 145.629 116.574 145.583 116.773L141.021 132.774L139.993 195.778H141.637L142.253 132.914L147.274 118.102C147.364 117.794 147.395 117.447 147.36 117.109Z" fill="#3F3D56"/>
<path opacity="0.1" d="M220.941 210.009C219.595 211.97 218.146 213.724 216.611 215.251C216.587 215.307 216.56 215.36 216.531 215.409C216.368 215.639 216.174 215.801 215.966 215.881C210.875 220.61 205.138 223.066 199.31 223.01H86.3666C73.4252 220.791 65.5288 217.85 65.5288 214.621C65.5288 212.118 70.2699 209.786 78.4333 207.834C79.2796 207.629 80.1622 207.43 81.0812 207.239C81.6467 207.12 82.2253 207.006 82.817 206.896L83.8215 206.701C84.5664 206.56 85.3313 206.421 86.116 206.287H86.1797L87.0014 206.15C87.6957 206.03 88.4044 205.917 89.1274 205.807L89.6533 205.729L90.9947 205.53C91.8657 205.4 92.7558 205.276 93.6652 205.157C94.4197 205.059 95.1866 204.96 95.9659 204.862C103.866 203.886 112.975 203.15 122.886 202.674L125.717 202.513L126.67 202.479L128.683 202.404L129.49 202.376L130.339 202.349L130.943 202.332L133.777 202.257L135.234 202.222H135.532C138.976 202.154 142.485 202.118 146.057 202.116C153.12 202.116 159.968 202.257 166.495 202.524C170.241 202.674 173.874 202.866 177.392 203.099H177.425C187.569 203.763 196.648 204.743 204.162 205.958L204.3 205.982C206.229 206.294 208.055 206.626 209.768 206.968C211.381 207.29 212.895 207.629 214.3 207.975C214.787 208.095 215.259 208.218 215.719 208.338L215.836 208.372C217.784 208.896 219.493 209.43 220.941 210.009Z" fill="#FF4000"/>
<path d="M216.611 215.251C216.587 215.307 216.56 215.36 216.531 215.409C216.368 215.639 216.174 215.801 215.966 215.881C215.55 216.075 215.123 216.19 214.692 216.224H214.563C214.317 216.237 214.07 216.224 213.825 216.183C213.647 216.139 213.466 216.12 213.285 216.124H213.26C212.998 216.186 212.74 216.293 212.49 216.443C211.934 216.697 211.361 216.833 210.785 216.847H210.58C209.935 216.847 209.282 216.809 208.634 216.816C208.53 216.816 208.429 216.816 208.32 216.816C207.211 216.864 206.108 217.158 204.998 217.189H204.643C203.556 217.145 202.445 216.758 201.58 215.662C201.406 215.47 201.264 215.206 201.169 214.895C201.096 214.568 201.071 214.215 201.098 213.868C201.118 213.248 201.19 212.574 201.469 212.156C201.645 211.931 201.846 211.769 202.061 211.68C202.437 211.478 202.815 211.283 203.191 211.087C203.567 210.892 203.996 210.683 204.401 210.485L204.479 210.444L204.705 210.331L204.851 210.249C205.027 210.154 205.197 210.025 205.356 209.865C205.566 209.644 205.743 209.348 205.876 208.999C205.898 208.937 205.923 208.872 205.943 208.807C205.964 208.742 205.943 208.701 205.929 208.646C205.894 208.218 205.867 207.78 205.822 207.362C205.244 207.139 204.717 206.642 204.304 205.931C203.95 205.345 203.651 204.671 203.419 203.934C202.907 202.332 202.644 200.541 202.262 198.839C201.677 196.251 200.824 193.861 199.966 191.491C199.181 189.307 198.392 187.115 197.501 185.05C196.907 183.681 196.268 182.376 195.681 181.003C194.019 177.172 192.826 172.831 192.172 168.231C192.072 167.348 191.93 166.48 191.747 165.636C191.394 164.197 190.746 163.026 190.245 161.711C189.706 160.294 189.337 158.716 189.159 157.065C189.056 156.127 188.883 155.113 188.323 155.01L188.263 155.206C187.1 158.972 185.907 162.807 184.155 165.882C183.874 166.334 183.618 166.826 183.388 167.351C183.204 167.86 183.04 168.389 182.895 168.933C182.618 169.91 182.25 170.808 181.805 171.594C181.672 171.817 181.528 172.02 181.373 172.2C181.168 172.448 180.94 172.639 180.697 172.765C180.602 172.813 180.504 172.85 180.406 172.874C180.406 172.915 180.416 172.953 180.418 172.994C180.42 173.035 180.43 173.083 180.434 173.128C180.737 175.867 180.607 178.69 180.058 181.321C180.044 181.404 180.028 181.482 180.009 181.565C179.924 181.948 179.832 182.325 179.732 182.695C179.481 183.602 179.183 184.472 178.949 185.393C178.91 185.55 178.871 185.708 178.836 185.865C178.015 189.533 178.22 193.628 178.113 197.569C178.104 198.431 178.043 199.289 177.93 200.13C177.791 201.079 177.567 202.058 177.444 203.037C177.331 203.772 177.322 204.539 177.417 205.28L177.368 205.311C177.148 205.448 176.924 205.571 176.7 205.688V205.739C176.78 206.506 176.858 207.273 176.938 208.037C177.006 208.694 177.086 209.406 177.361 209.872C177.436 209.975 177.505 210.089 177.567 210.214C177.729 210.639 177.585 211.2 177.616 211.704C177.661 212.416 178.056 213.022 177.994 213.731C177.966 213.943 177.908 214.14 177.824 214.306C177.741 214.472 177.634 214.601 177.513 214.683C177.412 214.759 177.306 214.815 177.197 214.851L177.129 214.875C177.006 214.912 176.883 214.933 176.759 214.953C175.229 215.207 173.678 215.46 172.162 215.029C171.862 214.943 171.564 214.83 171.26 214.789C170.876 214.76 170.491 214.787 170.11 214.868C167.298 215.312 164.469 215.403 161.649 215.142C160.915 215.073 160.073 214.875 159.685 213.83C159.362 212.964 159.48 211.844 159.642 210.855C159.688 210.491 159.772 210.143 159.89 209.827C159.904 209.793 159.919 209.761 159.936 209.732C160.314 208.947 161.024 208.899 161.636 208.93L163.637 209.03C163.834 209.056 164.033 209.031 164.225 208.954C164.549 208.797 164.796 208.365 165.1 208.122C165.482 207.817 165.963 207.78 166.238 207.259L166.273 207.184C166.321 207.074 166.367 206.959 166.408 206.842C166.408 206.818 166.427 206.794 166.437 206.77C166.445 206.748 166.453 206.728 166.462 206.708C166.714 206.153 167.156 205.968 167.516 205.616C167.57 205.563 167.622 205.502 167.67 205.434L167.711 205.373C167.324 204.912 166.986 204.346 166.712 203.698C166.607 203.509 166.529 203.282 166.484 203.034C166.459 202.848 166.468 202.654 166.509 202.476C166.518 202.432 166.529 202.39 166.542 202.349L166.552 202.315C166.692 201.856 166.979 201.442 167.138 200.973C167.144 200.958 167.148 200.942 167.152 200.925C167.37 200.24 167.413 199.178 167.09 198.627C167.255 194.117 167.998 189.724 168.163 185.201C168.228 183.41 168.202 181.613 168.251 179.815C168.3 178.017 168.415 176.274 168.537 174.511C168.808 170.481 169.465 166.533 169.373 162.485C169.365 162.108 169.374 161.73 169.401 161.355C169.4 161.328 169.4 161.301 169.401 161.273C169.467 160.444 169.622 159.641 169.859 158.904C170.157 158.07 170.494 157.278 170.868 156.534C172.131 153.795 173.649 151.056 174.099 147.686C174.331 145.947 174.845 144.355 175.356 142.79C175.658 141.858 175.973 140.903 176.455 140.218C176.717 139.916 176.96 139.572 177.181 139.191C177.517 138.465 177.53 137.462 177.729 136.599C177.832 136.15 177.99 135.739 178.068 135.277C178.068 135.229 178.082 135.185 178.089 135.137C178.134 134.67 178.158 134.199 178.16 133.726C178.16 133.589 178.173 133.456 178.183 133.322C178.303 131.968 178.539 130.65 178.883 129.408C178.927 129.251 178.968 129.09 179.009 128.932C178.061 128.011 177.225 126.802 176.544 125.368C176.313 124.904 176.112 124.4 175.946 123.865C175.523 122.464 175.426 120.868 175.227 119.334C174.75 115.677 173.66 112.233 173.508 108.494C173.462 107.353 173.508 106.175 173.269 105.097C173.204 104.805 173.126 104.522 173.037 104.248C173 104.131 172.965 104.015 172.928 103.905L172.887 103.775L172.783 103.433L172.614 103.652C168.412 109.137 163.999 114.161 159.406 118.691L159.011 119.081C158.806 119.246 158.627 119.49 158.489 119.793C158.473 119.838 158.459 119.882 158.444 119.927C158.35 120.252 158.325 120.612 158.239 120.954C158.054 121.738 157.579 122.238 157.095 122.471C156.218 122.847 155.287 122.647 154.496 121.913C154.395 121.827 154.291 121.738 154.2 121.639C153.96 121.861 153.707 122.041 153.444 122.176C152.623 122.574 151.762 122.557 150.912 122.553C150.061 122.55 149.192 122.553 148.387 123.019C147.849 123.324 147.327 123.827 146.768 123.875C146.704 123.882 146.639 123.882 146.575 123.875C146.257 123.814 145.947 123.662 145.659 123.426L145.49 123.3C145.403 123.231 145.318 123.154 145.236 123.07C145.146 122.978 145.062 122.869 144.987 122.745C144.878 122.563 144.799 122.338 144.757 122.091C144.729 121.912 144.729 121.725 144.757 121.546C144.765 121.466 144.79 121.393 144.827 121.341C144.864 121.305 144.906 121.287 144.948 121.29C145.184 121.285 145.419 121.319 145.651 121.389C145.787 121.42 145.924 121.433 146.062 121.427H146.135C146.257 121.405 146.374 121.342 146.48 121.242C146.586 121.142 146.678 121.007 146.752 120.844C146.774 120.794 146.792 120.739 146.805 120.68C146.83 120.584 146.843 120.48 146.842 120.375C146.843 120.349 146.843 120.323 146.842 120.297C146.756 120.232 146.67 120.166 146.587 120.088C146.544 120.05 146.503 120.009 146.462 119.968L146.437 119.94C146.364 119.857 146.295 119.762 146.232 119.656C146.192 119.59 146.157 119.517 146.127 119.437C146.073 119.313 146.032 119.174 146.006 119.026C145.837 118.967 145.662 118.976 145.495 119.05C145.271 119.153 145.045 119.372 144.823 119.447C144.711 119.494 144.593 119.486 144.484 119.423C144.163 119.232 144.05 118.581 143.983 118.023C143.97 117.917 143.956 117.807 143.946 117.698C143.922 117.487 143.922 117.271 143.946 117.061C144.045 116.582 144.235 116.17 144.486 115.886L145.16 114.945L145.209 114.876C145.209 114.784 145.186 114.691 145.178 114.599C145.155 114.387 145.155 114.17 145.178 113.959C145.278 113.481 145.467 113.07 145.718 112.787L147.21 110.695C147.489 110.305 147.793 109.894 148.157 109.853C148.697 109.791 149.128 110.538 149.533 111.137C150.043 111.89 150.661 112.507 151.341 112.582C151.665 112.607 151.988 112.532 152.296 112.363L152.471 112.267C152.434 112.14 152.397 112.014 152.362 111.887C152.302 111.678 152.243 111.466 152.185 111.253C153.06 111.161 153.855 110.36 154.519 109.401C155.182 108.442 155.751 107.309 156.421 106.367C157.144 105.34 157.974 104.576 158.707 103.587C160.412 101.282 161.544 97.8959 163.368 95.8654C164.001 95.1566 164.732 94.5917 165.164 93.537C165.297 93.1946 165.398 92.8522 165.535 92.5098C165.973 91.4825 166.723 91.01 167.341 90.2978C167.959 89.5856 168.497 88.5412 169.001 87.5379C169.358 86.8223 169.718 86.1067 170.059 85.3705C170.373 84.3946 170.638 83.3742 170.967 82.412C171.246 81.5991 171.571 80.8331 171.938 80.1247C172.022 79.8508 172.109 79.5768 172.201 79.3098C172.294 79.0427 172.361 78.8612 172.448 78.6249C172.507 78.4708 172.569 78.3236 172.633 78.1729C172.446 77.6217 172.267 77.1457 172.183 76.9368L172.142 76.8444C171.96 76.5226 171.767 76.2207 171.562 75.9404C171.348 75.8862 171.135 75.8107 170.926 75.7144C169.658 75.1353 168.539 73.8772 167.743 72.1342C166.946 70.3912 166.516 68.2598 166.517 66.0686C166.516 66.0584 166.516 66.048 166.517 66.0378C166.518 64.4686 166.742 62.922 167.17 61.5248C167.257 61.244 167.349 60.9735 167.45 60.7099C167.356 60.6605 167.265 60.5986 167.177 60.525C167.027 60.4018 166.896 60.2225 166.795 60.0011C166.711 59.8038 166.657 59.5761 166.636 59.3368C166.602 58.7724 166.652 58.2026 166.784 57.6795C166.84 57.4277 166.904 57.1808 166.975 56.9399C166.981 56.9258 166.986 56.9109 166.99 56.8954C167.908 53.8137 169.866 51.9201 171.821 51.7866C173.931 51.6462 175.985 53.2966 177.649 55.6593C178.145 56.3383 178.59 57.1169 178.972 57.9774C179.841 59.9908 180.233 62.5658 180.348 65.1167C180.391 65.9057 180.383 66.7002 180.323 67.4862C180.302 67.7663 180.267 68.0433 180.221 68.3149C180.194 68.4758 180.159 68.6367 180.122 68.7977C180.085 68.9586 180.063 69.0305 180.03 69.1401V69.1572C179.999 69.2668 179.964 69.3695 179.929 69.4722L179.911 69.5167L179.884 69.5886C179.9 69.6537 179.919 69.7222 179.937 69.7872C179.956 69.8523 179.972 69.9139 179.993 69.9756H180.017C180.428 70.0304 180.808 70.1262 181.227 70.181C181.424 70.1966 181.62 70.2471 181.811 70.3317C182.222 70.5371 182.532 71.0371 182.877 71.4411C183.731 72.4478 184.783 72.9169 185.623 73.9578C186.856 75.4918 187.472 78.0257 188.22 80.2959C189.206 83.3365 190.812 85.9252 191.521 89.1781C191.841 90.655 192.163 92.1297 192.486 93.6021C193.117 96.4886 193.748 99.3889 194.604 102.111C195.796 105.898 197.408 109.302 198.363 113.281C198.458 113.679 198.636 114.008 198.865 114.205C200.166 117.269 201.323 120.496 202.326 123.858C202.854 125.635 203.353 127.48 203.507 129.449C203.627 131.202 203.54 132.978 203.25 134.675C203.087 135.683 202.886 136.673 202.649 137.64C202.556 137.978 202.487 138.333 202.443 138.698C202.443 138.736 202.443 138.773 202.443 138.811C202.402 139.468 202.552 140.119 202.593 140.776C202.627 141.306 202.592 141.841 202.488 142.345C202.472 142.423 202.453 142.502 202.435 142.581C202.307 142.981 202.2 143.398 202.112 143.827C202.105 143.879 202.099 143.932 202.096 143.985C202.028 144.728 202.205 145.478 202.301 146.221C202.663 148.905 202.597 151.699 202.507 154.439C202.46 155.808 203.123 156.907 203.678 157.918C204.705 159.811 205.508 162.026 206.282 164.232C206.705 165.351 207.061 166.537 207.344 167.772C207.638 169.183 207.755 170.676 207.918 172.138C208.441 176.658 210.152 180.65 210.617 185.18C210.832 187.255 211.381 189.193 212.205 190.789C212.453 191.217 212.682 191.674 212.889 192.159C213.032 192.545 213.146 192.959 213.228 193.392C213.43 194.398 213.525 195.456 213.509 196.518C213.476 197.026 213.494 197.539 213.56 198.038C213.753 199.089 214.444 199.668 214.729 200.658C215.015 201.647 214.818 202.914 214.935 204.037C215.027 204.943 215.32 205.757 215.756 206.318C215.592 206.557 215.419 206.776 215.243 207.002C215.406 207.214 215.55 207.466 215.668 207.749C215.749 207.939 215.818 208.142 215.873 208.355C216.145 209.406 216.153 210.656 216.375 211.779C216.469 212.245 216.603 212.738 216.521 213.21C216.485 213.346 216.462 213.489 216.451 213.635C216.451 213.943 216.644 214.145 216.718 214.426C216.745 214.567 216.749 214.718 216.73 214.862C216.711 215.007 216.67 215.141 216.611 215.251Z" fill="url(#paint0_linear_1_314)"/>
<path d="M173.136 81.7101C174.393 81.1451 175.513 79.9638 176.609 78.7961L180.432 74.7385C179.395 74.6016 178.499 73.3689 177.967 71.876C177.435 70.383 177.215 68.647 177.035 66.9418C175.391 68.0101 173.968 69.8215 172.641 71.7356C172.115 72.4923 170.997 73.636 170.835 74.8173C170.673 75.9986 171.708 76.9574 172.109 77.7483C172.246 78.012 173.543 81.5217 173.136 81.7101Z" fill="#FBBEBE"/>
<path opacity="0.1" d="M173.136 81.7101C174.393 81.1451 175.513 79.9638 176.609 78.7961L180.432 74.7385C179.395 74.6016 178.499 73.3689 177.967 71.876C177.435 70.383 177.215 68.647 177.035 66.9418C175.391 68.0101 173.968 69.8215 172.641 71.7356C172.115 72.4923 170.997 73.636 170.835 74.8173C170.673 75.9986 171.708 76.9574 172.109 77.7483C172.246 78.012 173.543 81.5217 173.136 81.7101Z" fill="black"/>
<path d="M152.247 115.225C151.573 115.801 150.856 116.39 150.102 116.307C149.424 116.236 148.806 115.623 148.296 114.873C147.886 114.277 147.462 113.534 146.922 113.596C146.561 113.637 146.257 114.044 145.977 114.431L144.488 116.51C144.237 116.79 144.048 117.199 143.948 117.674C143.918 117.996 143.93 118.325 143.983 118.639C144.05 119.194 144.163 119.841 144.484 120.03C144.804 120.218 145.154 119.814 145.493 119.66C145.7 119.571 145.917 119.578 146.122 119.679C146.327 119.779 146.512 119.97 146.657 120.232C146.778 120.43 146.851 120.696 146.863 120.978C146.863 121.598 146.452 122.005 146.074 122.036C145.696 122.067 145.334 121.861 144.96 121.899C144.938 121.894 144.915 121.897 144.893 121.907C144.871 121.918 144.851 121.935 144.833 121.959C144.815 121.982 144.8 122.012 144.789 122.045C144.779 122.078 144.772 122.115 144.769 122.152C144.746 122.369 144.756 122.591 144.798 122.8C144.84 123.008 144.913 123.195 145.01 123.344C145.205 123.641 145.432 123.873 145.679 124.029C145.967 124.266 146.277 124.416 146.596 124.474C147.226 124.543 147.806 123.96 148.403 123.621C149.209 123.169 150.075 123.156 150.926 123.159C151.776 123.163 152.639 123.183 153.455 122.786C154.27 122.389 155.044 121.509 155.363 120.197C155.4 120.075 155.413 119.935 155.398 119.8C155.366 119.656 155.305 119.535 155.225 119.458C154.079 118.044 153.615 116.325 152.325 115.308L152.247 115.225Z" fill="#FBBEBE"/>
<path opacity="0.1" d="M152.247 115.225C151.573 115.801 150.856 116.39 150.102 116.307C149.424 116.236 148.806 115.623 148.296 114.873C147.886 114.277 147.462 113.534 146.922 113.596C146.561 113.637 146.257 114.044 145.977 114.431L144.488 116.51C144.237 116.79 144.048 117.199 143.948 117.674C143.918 117.996 143.93 118.325 143.983 118.639C144.05 119.194 144.163 119.841 144.484 120.03C144.804 120.218 145.154 119.814 145.493 119.66C145.7 119.571 145.917 119.578 146.122 119.679C146.327 119.779 146.512 119.97 146.657 120.232C146.778 120.43 146.851 120.696 146.863 120.978C146.863 121.598 146.452 122.005 146.074 122.036C145.696 122.067 145.334 121.861 144.96 121.899C144.938 121.894 144.915 121.897 144.893 121.907C144.871 121.918 144.851 121.935 144.833 121.959C144.815 121.982 144.8 122.012 144.789 122.045C144.779 122.078 144.772 122.115 144.769 122.152C144.746 122.369 144.756 122.591 144.798 122.8C144.84 123.008 144.913 123.195 145.01 123.344C145.205 123.641 145.432 123.873 145.679 124.029C145.967 124.266 146.277 124.416 146.596 124.474C147.226 124.543 147.806 123.96 148.403 123.621C149.209 123.169 150.075 123.156 150.926 123.159C151.776 123.163 152.639 123.183 153.455 122.786C154.27 122.389 155.044 121.509 155.363 120.197C155.4 120.075 155.413 119.935 155.398 119.8C155.366 119.656 155.305 119.535 155.225 119.458C154.079 118.044 153.615 116.325 152.325 115.308L152.247 115.225Z" fill="black"/>
<path d="M176.301 78.7071C175.983 78.3642 175.621 78.1479 175.244 78.0749C174.867 78.0018 174.485 78.074 174.128 78.2859C173.412 78.7156 172.77 79.4289 172.257 80.3643C171.744 81.2358 171.3 82.2127 170.936 83.2714C170.587 84.2987 170.32 85.3739 169.97 86.3977C169.354 88.2296 168.549 89.8458 167.739 91.4483C167.236 92.4447 166.727 93.4548 166.082 94.1876C165.437 94.9203 164.716 95.3689 164.278 96.3859C164.14 96.7077 164.042 97.0707 163.906 97.396C163.477 98.4438 162.748 99.0053 162.113 99.7073C160.293 101.728 159.161 105.09 157.46 107.381C156.727 108.367 155.899 109.141 155.178 110.147C154.506 111.082 153.946 112.202 153.276 113.161C152.606 114.119 151.819 114.91 150.946 114.999C151.53 117.167 152.226 119.293 153.227 120.981C154.227 122.67 155.727 123.748 157.093 123.087C157.577 122.854 158.052 122.361 158.237 121.581C158.295 121.179 158.376 120.788 158.479 120.413C158.616 120.112 158.794 119.869 158.999 119.704C164.483 114.369 169.71 108.332 174.633 101.649C175.954 99.8545 177.265 98.2486 178.621 96.5126C179.107 95.9379 179.556 95.2816 179.962 94.554C180.527 93.4285 180.881 92.0494 180.977 90.5902C181.073 89.1311 180.909 87.6569 180.504 86.3532C180.141 85.3557 179.724 84.4149 179.259 83.5419C178.414 81.7074 177.418 80.0799 176.301 78.7071Z" fill="#FF4000"/>
<path opacity="0.1" d="M176.301 78.7071C175.983 78.3642 175.621 78.1479 175.244 78.0749C174.867 78.0018 174.485 78.074 174.128 78.2859C173.412 78.7156 172.77 79.4289 172.257 80.3643C171.744 81.2358 171.3 82.2127 170.936 83.2714C170.587 84.2987 170.32 85.3739 169.97 86.3977C169.354 88.2296 168.549 89.8458 167.739 91.4483C167.236 92.4447 166.727 93.4548 166.082 94.1876C165.437 94.9203 164.716 95.3689 164.278 96.3859C164.14 96.7077 164.042 97.0707 163.906 97.396C163.477 98.4438 162.748 99.0053 162.113 99.7073C160.293 101.728 159.161 105.09 157.46 107.381C156.727 108.367 155.899 109.141 155.178 110.147C154.506 111.082 153.946 112.202 153.276 113.161C152.606 114.119 151.819 114.91 150.946 114.999C151.53 117.167 152.226 119.293 153.227 120.981C154.227 122.67 155.727 123.748 157.093 123.087C157.577 122.854 158.052 122.361 158.237 121.581C158.295 121.179 158.376 120.788 158.479 120.413C158.616 120.112 158.794 119.869 158.999 119.704C164.483 114.369 169.71 108.332 174.633 101.649C175.954 99.8545 177.265 98.2486 178.621 96.5126C179.107 95.9379 179.556 95.2816 179.962 94.554C180.527 93.4285 180.881 92.0494 180.977 90.5902C181.073 89.1311 180.909 87.6569 180.504 86.3532C180.141 85.3557 179.724 84.4149 179.259 83.5419C178.414 81.7074 177.418 80.0799 176.301 78.7071Z" fill="black"/>
<path d="M167.474 205.732C167.115 206.075 166.673 206.266 166.421 206.821C166.339 206.999 166.283 207.208 166.195 207.379C165.922 207.913 165.437 207.937 165.057 208.242C164.753 208.482 164.506 208.927 164.184 209.067C163.991 209.144 163.792 209.169 163.594 209.143L161.597 209.043C160.965 209.012 160.223 209.067 159.855 209.927C159.736 210.242 159.651 210.589 159.605 210.954C159.451 211.937 159.325 213.049 159.648 213.912C160.034 214.94 160.881 215.148 161.61 215.217C164.427 215.477 167.252 215.385 170.061 214.943C170.441 214.862 170.824 214.836 171.207 214.864C171.511 214.905 171.809 215.018 172.109 215.104C173.623 215.532 175.172 215.282 176.7 215.029C176.958 215.008 177.213 214.918 177.454 214.762C177.574 214.68 177.68 214.551 177.763 214.386C177.847 214.221 177.905 214.024 177.932 213.813C177.996 213.108 177.6 212.508 177.556 211.8C177.526 211.3 177.669 210.742 177.505 210.317C177.444 210.192 177.375 210.077 177.3 209.975C177.024 209.499 176.944 208.804 176.877 208.153L176.517 204.636C176.507 204.389 176.446 204.154 176.345 203.972C176.269 203.881 176.182 203.822 176.09 203.797C174.524 203.209 172.92 203.746 171.365 204.075C170.565 204.27 169.755 204.338 168.947 204.277C168.598 204.239 168.463 204.171 168.202 204.551C167.941 204.931 167.801 205.414 167.474 205.732Z" fill="#3F3D56"/>
<path d="M205.274 209.964C204.999 210.22 204.705 210.413 204.399 210.536C203.592 210.929 202.787 211.339 201.983 211.765C201.769 211.854 201.568 212.015 201.393 212.238C201.114 212.649 201.042 213.32 201.022 213.95C200.995 214.297 201.02 214.65 201.093 214.977C201.19 215.284 201.331 215.546 201.504 215.737C202.425 216.898 203.626 217.258 204.781 217.258C205.935 217.258 207.081 216.932 208.236 216.881C209.631 216.819 211.062 217.148 212.404 216.498C212.66 216.34 212.926 216.232 213.197 216.176C213.377 216.171 213.557 216.191 213.735 216.234C214.454 216.352 215.181 216.242 215.875 215.909C216.084 215.831 216.279 215.67 216.442 215.44C216.523 215.323 216.581 215.168 216.608 214.996C216.635 214.824 216.63 214.642 216.594 214.474C216.52 214.197 216.331 213.995 216.329 213.69C216.339 213.543 216.362 213.4 216.397 213.265C216.481 212.796 216.346 212.306 216.251 211.844C215.986 210.522 216.029 209.002 215.555 207.855C215.08 206.708 214.209 206.235 213.382 206.054C212.709 205.896 212.025 205.928 211.358 206.15C210.608 206.417 209.908 206.975 209.173 207.331C208.319 207.74 207.428 207.881 206.543 207.746C205.956 207.663 206.157 207.817 205.958 208.639C205.817 209.187 205.578 209.65 205.274 209.964Z" fill="#3F3D56"/>
<path d="M172.45 76.9608C175.74 76.9608 178.407 72.515 178.407 67.0308C178.407 61.5466 175.74 57.1008 172.45 57.1008C169.16 57.1008 166.493 61.5466 166.493 67.0308C166.493 72.515 169.16 76.9608 172.45 76.9608Z" fill="#FBBEBE"/>
<path d="M215.637 206.414C213.788 209.06 211.292 210.218 208.858 210.259C207.831 210.276 206.765 210.091 205.89 209.204C205.828 208.643 205.804 208.037 205.742 207.475C204.68 207.105 203.856 205.664 203.343 204.068C202.829 202.472 202.568 200.699 202.186 199.007C201.603 196.432 200.748 194.059 199.894 191.703C199.109 189.533 198.322 187.355 197.429 185.304C196.837 183.934 196.196 182.647 195.611 181.28C193.952 177.477 192.762 173.164 192.108 168.591C192.008 167.713 191.866 166.851 191.683 166.012C191.33 164.581 190.683 163.417 190.184 162.112C189.645 160.704 189.276 159.135 189.097 157.493C188.996 156.562 188.824 155.555 188.263 155.459C187.084 159.277 185.882 163.156 184.099 166.262C183.819 166.711 183.562 167.199 183.333 167.721C183.149 168.228 182.984 168.754 182.84 169.296C182.563 170.268 182.196 171.16 181.751 171.939C181.378 172.604 180.887 173.051 180.35 173.213C180.746 176.503 180.51 179.918 179.676 182.972C179.428 183.876 179.13 184.739 178.896 185.653C177.939 189.42 178.16 193.669 178.06 197.754C178.051 198.61 177.99 199.462 177.879 200.298C177.63 201.969 177.117 203.746 177.365 205.417C174.789 207.057 171.928 206.955 169.2 206.263C168.666 206.182 168.148 205.919 167.678 205.492C167.291 205.036 166.953 204.473 166.679 203.828C166.574 203.64 166.496 203.414 166.451 203.167C166.345 202.387 166.862 201.798 167.103 201.113C167.343 200.428 167.386 199.343 167.055 198.781C167.22 194.299 167.963 189.923 168.128 185.427C168.193 183.646 168.167 181.859 168.216 180.075C168.265 178.291 168.38 176.555 168.5 174.802C168.771 170.799 169.428 166.875 169.336 162.852C169.307 161.613 169.478 160.385 169.831 159.294C170.128 158.465 170.464 157.677 170.837 156.938C172.098 154.223 173.614 151.501 174.064 148.148C174.296 146.419 174.81 144.837 175.319 143.283C175.621 142.355 175.936 141.406 176.416 140.725C176.678 140.423 176.921 140.079 177.142 139.698C177.478 138.975 177.491 137.986 177.69 137.123C177.793 136.678 177.951 136.267 178.027 135.808C178.09 135.301 178.12 134.785 178.119 134.267C178.185 132.61 178.567 131.007 178.97 129.49C178.023 128.577 177.187 127.376 176.505 125.95C176.276 125.487 176.076 124.985 175.909 124.453C175.486 123.063 175.389 121.478 175.19 119.954C174.715 116.318 173.625 112.897 173.473 109.182C173.428 108.048 173.473 106.877 173.236 105.806C173.127 105.352 173 104.912 172.854 104.487C172.711 104.071 172.602 103.624 172.53 103.159C172.398 102.149 172.579 101.104 172.53 100.077C172.481 99.1697 172.248 98.3205 172.133 97.4337C172.016 96.2798 171.996 95.1042 172.074 93.9411C172.125 92.5714 172.304 91.1572 172.234 89.8047C172.121 87.5666 172.292 85.3139 172.736 83.1935C173.18 81.073 173.888 79.1325 174.812 77.4984L174.859 77.4196C175.252 76.7348 175.681 76.1287 176.034 75.4028C176.515 74.4303 176.856 73.2867 177.363 72.3416C177.585 71.9205 177.836 71.5438 178.056 71.1192C178.257 70.6739 178.481 70.257 178.723 69.8728C178.846 69.6828 178.995 69.5457 179.157 69.4735C179.318 69.4012 179.488 69.3961 179.652 69.4585C179.693 69.9692 179.789 70.4633 179.935 70.9172C180.362 70.972 180.743 71.0713 181.168 71.1261C181.365 71.1417 181.56 71.1922 181.751 71.2767C182.152 71.4788 182.472 71.9616 182.815 72.3759C183.67 73.3791 184.719 73.8448 185.56 74.8789C186.792 76.4026 187.408 78.9194 188.152 81.1759C189.136 84.1994 190.74 86.7709 191.439 90.0033L192.402 94.3999C193.033 97.2693 193.663 100.149 194.518 102.854C195.707 106.621 197.318 110.014 198.273 113.955C198.368 114.35 198.545 114.676 198.772 114.873C200.073 117.913 201.229 121.119 202.229 124.46C202.757 126.227 203.256 128.063 203.408 130.018C203.632 132.781 203.18 135.575 202.552 138.157C202.45 138.527 202.381 138.919 202.346 139.321C202.305 139.975 202.455 140.619 202.496 141.273C202.536 141.884 202.482 142.501 202.338 143.067C202.211 143.465 202.103 143.879 202.016 144.307C201.905 145.094 202.102 145.895 202.209 146.683C202.57 149.35 202.505 152.114 202.414 154.846C202.367 156.216 203.031 157.301 203.583 158.304C204.61 160.184 205.411 162.383 206.186 164.577C206.607 165.691 206.962 166.87 207.246 168.097C207.539 169.498 207.657 170.981 207.819 172.436C208.341 176.925 210.05 180.893 210.514 185.396C210.729 187.459 211.277 189.385 212.1 190.967C212.348 191.395 212.576 191.853 212.784 192.337C212.926 192.721 213.039 193.133 213.121 193.563C213.323 194.563 213.418 195.614 213.402 196.668C213.37 197.173 213.387 197.683 213.454 198.178C213.647 199.223 214.337 199.798 214.62 200.781C214.904 201.764 214.709 203.024 214.826 204.14C214.914 205.041 215.204 205.854 215.637 206.414Z" fill="#FF4000"/>
<path d="M153.479 112.144C152.805 112.719 152.089 113.308 151.335 113.226C150.657 113.154 150.038 112.541 149.529 111.791C149.118 111.195 148.695 110.452 148.155 110.514C147.793 110.555 147.489 110.962 147.21 111.349L145.721 113.428C145.47 113.709 145.28 114.117 145.18 114.592C145.151 114.914 145.163 115.243 145.215 115.558C145.283 116.112 145.396 116.759 145.716 116.948C146.037 117.136 146.386 116.732 146.725 116.578C146.932 116.49 147.15 116.496 147.355 116.597C147.56 116.698 147.744 116.889 147.89 117.15C148.011 117.348 148.084 117.614 148.095 117.896C148.095 118.516 147.684 118.924 147.306 118.954C146.928 118.985 146.567 118.78 146.193 118.817C146.17 118.813 146.148 118.815 146.126 118.826C146.104 118.836 146.083 118.853 146.065 118.877C146.048 118.901 146.033 118.93 146.022 118.963C146.011 118.996 146.004 119.033 146.002 119.071C145.979 119.287 145.989 119.51 146.031 119.718C146.073 119.926 146.145 120.113 146.242 120.262C146.437 120.559 146.665 120.792 146.912 120.947C147.199 121.184 147.509 121.335 147.828 121.392C148.459 121.461 149.038 120.879 149.636 120.54C150.441 120.088 151.308 120.074 152.158 120.077C153.009 120.081 153.872 120.101 154.687 119.704C155.503 119.307 156.277 118.427 156.595 117.116C156.633 116.993 156.645 116.854 156.63 116.718C156.599 116.574 156.538 116.453 156.458 116.376C155.312 114.962 154.847 113.243 153.557 112.226L153.479 112.144Z" fill="#FBBEBE"/>
<path d="M169.551 60.929C169.196 61.0249 168.894 61.4255 168.557 61.6481C168.331 61.7945 168.089 61.8592 167.847 61.838C167.604 61.8167 167.368 61.71 167.152 61.5248C167.002 61.403 166.87 61.2248 166.768 61.0043C166.493 60.3674 166.589 59.4429 166.758 58.6965C167.555 55.1662 169.683 52.9816 171.79 52.8412C173.898 52.7008 175.948 54.341 177.61 56.6865C178.104 57.3633 178.548 58.137 178.931 58.9909C179.798 60.994 180.19 63.5519 180.305 66.0857C180.374 67.149 180.331 68.2242 180.18 69.2633C180.107 69.7683 179.973 70.2436 179.788 70.6607C179.602 71.0778 179.368 71.4282 179.099 71.691C178.512 72.1909 177.807 72.0334 177.213 71.5541C176.62 71.0747 176.11 70.3179 175.601 69.5955C175.37 69.2245 175.097 68.9346 174.798 68.7428C174.648 68.6542 174.487 68.6394 174.333 68.7002C174.179 68.7609 174.038 68.8946 173.929 69.0853C173.654 69.6365 173.723 70.5405 173.473 71.1397C173.222 71.739 172.7 71.8246 172.261 71.8246C171.821 71.8246 171.375 71.7629 171.112 71.1808C170.872 70.6535 170.907 69.8831 170.997 69.2188C171.088 68.5545 171.242 67.8971 171.203 67.2157C171.119 65.846 170.4 65.0037 170.176 63.7436C170.03 62.9184 170.35 62.5691 170.317 61.8227C170.293 61.1653 169.87 60.8434 169.551 60.929Z" fill="#3F3D56"/>
<path opacity="0.1" d="M188.267 155.373V155.459C187.088 159.277 185.886 163.156 184.103 166.262C183.823 166.711 183.567 167.199 183.337 167.721C183.153 168.228 182.988 168.754 182.844 169.296C182.567 170.268 182.2 171.16 181.755 171.939L180.268 173.179L184.993 132.089L188.267 155.373Z" fill="black"/>
<path opacity="0.1" d="M181.4 93.1843C180.994 93.9119 180.545 94.5682 180.058 95.1429C178.703 96.855 177.388 98.4712 176.071 100.279C175.01 101.72 173.934 103.13 172.842 104.511C172.699 104.095 172.59 103.648 172.518 103.183C172.386 102.173 172.567 101.128 172.518 100.101C172.468 99.1936 172.236 98.3445 172.121 97.4576C172.004 96.3037 171.984 95.1281 172.062 93.965C172.113 92.5953 172.292 91.1812 172.222 89.8286C172.108 87.5852 172.28 85.327 172.726 83.2021C173.173 81.0772 173.884 79.1335 174.812 77.4984L174.859 77.4196C175.08 77.2053 175.315 77.0309 175.558 76.8991C175.916 76.6898 176.298 76.6204 176.675 76.6964C177.052 76.7724 177.413 76.9917 177.731 77.3374C178.848 78.7103 179.844 80.3378 180.689 82.1723C181.154 83.0452 181.57 83.9861 181.934 84.9835C182.34 86.286 182.506 87.7594 182.411 89.2185C182.316 90.6776 181.964 92.0574 181.4 93.1843Z" fill="black"/>
<path d="M177.534 75.6254C177.215 75.2825 176.853 75.0662 176.477 74.9932C176.1 74.9202 175.718 74.9924 175.361 75.2042C174.645 75.6339 174.003 76.3472 173.489 77.2827C172.976 78.1541 172.533 79.131 172.168 80.1898C171.819 81.217 171.552 82.2922 171.203 83.316C170.587 85.1479 169.781 86.7641 168.972 88.3666C168.469 89.363 167.959 90.3731 167.314 91.1059C166.669 91.8387 165.948 92.2872 165.511 93.3042C165.373 93.6261 165.274 93.989 165.139 94.3143C164.71 95.3621 163.98 95.9237 163.346 96.6256C161.526 98.6458 160.394 102.008 158.693 104.299C157.959 105.285 157.132 106.059 156.411 107.066C155.739 108.001 155.178 109.12 154.508 110.079C153.839 111.038 153.052 111.829 152.179 111.918C152.762 114.085 153.459 116.212 154.459 117.9C155.459 119.588 156.959 120.666 158.325 120.006C158.81 119.773 159.284 119.28 159.469 118.499C159.527 118.098 159.609 117.707 159.712 117.331C159.849 117.03 160.027 116.787 160.231 116.623C165.715 111.287 170.942 105.25 175.866 98.5671C177.187 96.7728 178.497 95.1669 179.853 93.4309C180.339 92.8562 180.789 92.1999 181.194 91.4723C181.76 90.3468 182.113 88.9678 182.21 87.5086C182.306 86.0494 182.142 84.5752 181.737 83.2715C181.373 82.2741 180.957 81.3332 180.492 80.4603C179.647 78.6258 178.651 76.9982 177.534 75.6254Z" fill="#FF4000"/>
<g opacity="0.1">
<path opacity="0.1" d="M172.672 70.4447C172.261 70.4447 171.786 70.383 171.523 69.8009C171.285 69.2736 171.318 68.5032 171.408 67.8389C171.499 67.1746 171.653 66.5172 171.614 65.8358C171.529 64.4661 170.811 63.6238 170.587 62.3637C170.441 61.5385 170.761 61.1892 170.728 60.4428C170.7 59.7956 170.278 59.4737 169.96 59.5593C169.605 59.6552 169.303 60.0558 168.966 60.2784C168.74 60.4248 168.498 60.4896 168.255 60.4683C168.013 60.4471 167.776 60.3403 167.561 60.1551C167.41 60.0333 167.279 59.8552 167.177 59.6347C166.901 58.9978 166.998 58.0733 167.166 57.3268C167.166 57.2994 167.181 57.2754 167.187 57.248C167.015 57.7062 166.871 58.1913 166.756 58.6965C166.587 59.4429 166.491 60.3674 166.766 61.0043C166.868 61.2248 167 61.403 167.15 61.5248C167.366 61.71 167.602 61.8167 167.845 61.838C168.087 61.8592 168.329 61.7945 168.555 61.6481C168.892 61.4255 169.194 61.0249 169.549 60.929C169.868 60.8434 170.289 61.1653 170.317 61.8124C170.35 62.5589 170.03 62.9081 170.176 63.7334C170.396 64.9934 171.115 65.8495 171.203 67.2054C171.244 67.8903 171.094 68.5477 170.997 69.2085C170.901 69.8694 170.874 70.6433 171.112 71.1706C171.375 71.7527 171.846 71.8075 172.261 71.8143C172.676 71.8212 173.21 71.7732 173.473 71.1295C173.586 70.8062 173.661 70.4491 173.693 70.0783C173.413 70.4104 173.023 70.4515 172.672 70.4447Z" fill="black"/>
<path opacity="0.1" d="M179.51 70.3214C178.923 70.8213 178.218 70.6638 177.624 70.1844C177.031 69.705 176.521 68.9483 176.012 68.2258C175.781 67.8549 175.508 67.5649 175.209 67.3732C175.059 67.2846 174.898 67.2698 174.744 67.3305C174.59 67.3913 174.449 67.525 174.34 67.7156C174.2 68.0594 174.112 68.4539 174.083 68.8661C174.19 68.7612 174.309 68.6956 174.432 68.6738C174.555 68.6519 174.68 68.6743 174.798 68.7394C175.097 68.9312 175.37 69.2211 175.601 69.592C176.11 70.3145 176.628 71.0747 177.213 71.5506C177.799 72.0266 178.512 72.1875 179.099 71.6876C179.619 71.1807 179.997 70.3526 180.153 69.3832C179.984 69.7732 179.764 70.0941 179.51 70.3214Z" fill="black"/>
</g>
<path d="M128.387 217.521C131.791 217.521 134.55 212.922 134.55 207.249C134.55 201.576 131.791 196.977 128.387 196.977C124.984 196.977 122.225 201.576 122.225 207.249C122.225 212.922 124.984 217.521 128.387 217.521Z" fill="#3F3D56"/>
<path opacity="0.1" d="M128.387 217.521C131.791 217.521 134.55 212.922 134.55 207.249C134.55 201.576 131.791 196.977 128.387 196.977C124.984 196.977 122.225 201.576 122.225 207.249C122.225 212.922 124.984 217.521 128.387 217.521Z" fill="black"/>
<path d="M128.387 213.755C130.543 213.755 132.29 210.842 132.29 207.249C132.29 203.656 130.543 200.743 128.387 200.743C126.232 200.743 124.484 203.656 124.484 207.249C124.484 210.842 126.232 213.755 128.387 213.755Z" fill="#65617D"/>
<path opacity="0.1" d="M128.387 213.755C130.543 213.755 132.29 210.842 132.29 207.249C132.29 203.656 130.543 200.743 128.387 200.743C126.232 200.743 124.484 203.656 124.484 207.249C124.484 210.842 126.232 213.755 128.387 213.755Z" fill="black"/>
<path d="M123.663 191.156L127.705 206.393C127.765 206.621 127.864 206.816 127.988 206.955C128.113 207.093 128.258 207.17 128.408 207.175C128.557 207.18 128.705 207.113 128.833 206.983C128.96 206.853 129.063 206.665 129.129 206.441L133.934 190.128L123.663 191.156Z" fill="#3F3D56"/>
<path opacity="0.1" d="M123.663 191.156L127.705 206.393C127.765 206.621 127.864 206.816 127.988 206.955C128.113 207.093 128.258 207.17 128.408 207.175C128.557 207.18 128.705 207.113 128.833 206.983C128.96 206.853 129.063 206.665 129.129 206.441L133.934 190.128L123.663 191.156Z" fill="black"/>
<path d="M89.9738 217.521C93.3773 217.521 96.1364 212.922 96.1364 207.249C96.1364 201.576 93.3773 196.977 89.9738 196.977C86.5703 196.977 83.8112 201.576 83.8112 207.249C83.8112 212.922 86.5703 217.521 89.9738 217.521Z" fill="#3F3D56"/>
<path opacity="0.1" d="M89.9738 217.521C93.3773 217.521 96.1364 212.922 96.1364 207.249C96.1364 201.576 93.3773 196.977 89.9738 196.977C86.5703 196.977 83.8112 201.576 83.8112 207.249C83.8112 212.922 86.5703 217.521 89.9738 217.521Z" fill="black"/>
<path d="M89.9738 213.755C92.1293 213.755 93.8767 210.842 93.8767 207.249C93.8767 203.656 92.1293 200.743 89.9738 200.743C87.8182 200.743 86.0708 203.656 86.0708 207.249C86.0708 210.842 87.8182 213.755 89.9738 213.755Z" fill="#65617D"/>
<path opacity="0.1" d="M89.9738 213.755C92.1293 213.755 93.8767 210.842 93.8767 207.249C93.8767 203.656 92.1293 200.743 89.9738 200.743C87.8182 200.743 86.0708 203.656 86.0708 207.249C86.0708 210.842 87.8182 213.755 89.9738 213.755Z" fill="black"/>
<path d="M85.2491 191.156L89.2918 206.393C89.352 206.621 89.4501 206.816 89.5746 206.955C89.6991 207.093 89.8448 207.17 89.9944 207.175C90.144 207.18 90.2914 207.113 90.4192 206.983C90.5469 206.853 90.6497 206.665 90.7154 206.441L95.5201 190.128L85.2491 191.156Z" fill="#3F3D56"/>
<path opacity="0.1" d="M85.2491 191.156L89.2918 206.393C89.352 206.621 89.4501 206.816 89.5746 206.955C89.6991 207.093 89.8448 207.17 89.9944 207.175C90.144 207.18 90.2914 207.113 90.4192 206.983C90.5469 206.853 90.6497 206.665 90.7154 206.441L95.5201 190.128L85.2491 191.156Z" fill="black"/>
<path d="M148.387 117.794C148.37 117.534 148.314 117.286 148.225 117.072C148.136 116.858 148.015 116.684 147.875 116.568C147.758 116.484 147.631 116.441 147.503 116.44C147.374 116.44 147.248 116.482 147.129 116.566C147.011 116.649 146.905 116.77 146.815 116.924C146.726 117.077 146.656 117.259 146.61 117.458L143.075 132.089L142.048 197.833H143.691L144.307 132.23L148.301 118.787C148.391 118.479 148.422 118.131 148.387 117.794Z" fill="#3F3D56"/>
<path d="M75.6971 192.696L81.2434 186.875L141.123 186.019L142.664 192.696H75.6971Z" fill="#FF4000"/>
<path d="M75.6971 198.86V192.696L143.749 191.601L143.683 195.778H76.9296V198.86H75.6971Z" fill="#3F3D56"/>
<path d="M84.3247 221.117C87.7282 221.117 90.4873 216.518 90.4873 210.844C90.4873 205.171 87.7282 200.572 84.3247 200.572C80.9212 200.572 78.1621 205.171 78.1621 210.844C78.1621 216.518 80.9212 221.117 84.3247 221.117Z" fill="#3F3D56"/>
<path d="M84.3247 217.35C86.4803 217.35 88.2277 214.437 88.2277 210.844C88.2277 207.251 86.4803 204.339 84.3247 204.339C82.1692 204.339 80.4218 207.251 80.4218 210.844C80.4218 214.437 82.1692 217.35 84.3247 217.35Z" fill="#65617D"/>
<path d="M79.6001 194.751L83.6428 209.988C83.7029 210.217 83.8011 210.412 83.9256 210.55C84.0501 210.689 84.1957 210.765 84.3453 210.77C84.495 210.775 84.6424 210.709 84.7701 210.579C84.8979 210.449 85.0006 210.26 85.0663 210.036L89.8711 193.724L79.6001 194.751Z" fill="#3F3D56"/>
<path d="M132.187 221.117C135.591 221.117 138.35 216.518 138.35 210.844C138.35 205.171 135.591 200.572 132.187 200.572C128.784 200.572 126.025 205.171 126.025 210.844C126.025 216.518 128.784 221.117 132.187 221.117Z" fill="#3F3D56"/>
<path d="M132.188 217.35C134.343 217.35 136.09 214.437 136.09 210.844C136.09 207.251 134.343 204.339 132.188 204.339C130.032 204.339 128.285 207.251 128.285 210.844C128.285 214.437 130.032 217.35 132.188 217.35Z" fill="#65617D"/>
<path d="M127.463 194.751L131.506 209.988C131.566 210.217 131.664 210.412 131.788 210.55C131.913 210.689 132.058 210.765 132.208 210.77C132.358 210.775 132.505 210.709 132.633 210.579C132.761 210.449 132.863 210.26 132.929 210.036L137.734 193.724L127.463 194.751Z" fill="#3F3D56"/>
<path d="M109.078 165.817H83.4004V189.443H109.078V165.817Z" fill="#65617D"/>
<path opacity="0.1" d="M100.245 169.926H92.4388V172.665H100.245V169.926Z" fill="black"/>
<path opacity="0.1" d="M99.269 170.268H93.4146V172.323H99.269V170.268Z" fill="black"/>
<path d="M135.166 165.817H109.489V189.443H135.166V165.817Z" fill="#65617D"/>
<path opacity="0.1" d="M126.333 169.926H118.527V172.665H126.333V169.926Z" fill="black"/>
<path opacity="0.1" d="M125.357 170.268H119.503V172.323H125.357V170.268Z" fill="black"/>
<path d="M109.078 141.506H83.4004V165.132H109.078V141.506Z" fill="#65617D"/>
<path opacity="0.1" d="M100.245 145.615H92.4388V148.354H100.245V145.615Z" fill="black"/>
<path opacity="0.1" d="M99.269 145.957H93.4146V148.012H99.269V145.957Z" fill="black"/>
<path d="M135.166 141.506H109.489V165.132H135.166V141.506Z" fill="#65617D"/>
<path opacity="0.1" d="M126.333 145.615H118.527V148.354H126.333V145.615Z" fill="black"/>
<path opacity="0.1" d="M125.357 145.957H119.503V148.012H125.357V145.957Z" fill="black"/>
<path d="M109.078 116.852H83.4004V140.478H109.078V116.852Z" fill="#65617D"/>
<path opacity="0.1" d="M100.245 120.961H92.4388V123.7H100.245V120.961Z" fill="black"/>
<path opacity="0.1" d="M99.269 121.303H93.4146V123.358H99.269V121.303Z" fill="black"/>
<path d="M135.166 116.852H109.489V140.478H135.166V116.852Z" fill="#65617D"/>
<path opacity="0.1" d="M126.333 120.961H118.527V123.7H126.333V120.961Z" fill="black"/>
<path opacity="0.1" d="M125.357 121.303H119.503V123.358H125.357V121.303Z" fill="black"/>
<path d="M135.166 92.1982H109.489V115.825H135.166V92.1982Z" fill="#65617D"/>
<path opacity="0.1" d="M126.333 96.3071H118.527V99.0464H126.333V96.3071Z" fill="black"/>
<path opacity="0.1" d="M125.357 96.6495H119.503V98.704H125.357V96.6495Z" fill="black"/>
</g>
<defs>
<linearGradient id="paint0_linear_1_314" x1="180.323" y1="217.227" x2="180.323" y2="51.7934" gradientUnits="userSpaceOnUse">
<stop stop-color="#808080" stop-opacity="0.25"/>
<stop offset="0.54" stop-color="#808080" stop-opacity="0.12"/>
<stop offset="1" stop-color="#808080" stop-opacity="0.1"/>
</linearGradient>
<clipPath id="clip0_1_314">
<rect width="235" height="223" fill="white"/>
</clipPath>
</defs>
</svg>
