<svg width="537" height="483" viewBox="0 0 537 483" fill="none" xmlns="http://www.w3.org/2000/svg">
<path d="M86.3738 365.247C85.6338 365.281 84.9011 365.087 84.2751 364.691C83.6492 364.294 83.1602 363.715 82.8744 363.032C82.5886 362.348 82.5198 361.593 82.6774 360.87C82.8349 360.146 83.2112 359.488 83.7552 358.985C83.8463 358.623 83.9117 358.363 84.0028 358C83.9702 357.922 83.9374 357.843 83.9044 357.764C83.1588 356.003 81.9095 354.502 80.3133 353.448C78.7172 352.395 76.8454 351.837 74.933 351.844C73.0207 351.851 71.1531 352.423 69.5648 353.488C67.9765 354.553 66.7384 356.064 66.0059 357.831C63.0785 364.881 59.3514 371.944 58.4338 379.398C58.0296 382.694 58.2001 386.034 58.9376 389.271C52.062 374.272 48.4917 357.971 48.4687 341.472C48.4673 337.332 48.6973 333.195 49.1577 329.08C49.5383 325.707 50.0662 322.358 50.7415 319.033C54.4267 300.991 62.3389 284.081 73.8285 269.691C79.3894 266.657 83.8866 261.991 86.7141 256.322C87.7384 254.284 88.4623 252.109 88.8634 249.864C88.2361 249.946 87.5985 249.998 86.9712 250.039C86.7758 250.049 86.5701 250.059 86.3747 250.07L86.301 250.073C85.6116 250.104 84.9279 249.935 84.3323 249.586C83.7367 249.238 83.2545 248.724 82.9438 248.108C82.6332 247.492 82.5073 246.799 82.5813 246.113C82.6553 245.427 82.926 244.776 83.3609 244.241C83.6317 243.907 83.9028 243.574 84.1739 243.241C84.5853 242.727 85.0069 242.223 85.4182 241.709C85.4657 241.66 85.5104 241.608 85.5519 241.555C86.0251 240.968 86.498 240.392 86.9712 239.806C86.1076 238.466 84.9462 237.343 83.5775 236.526C78.8367 233.749 72.2962 235.672 68.8716 239.961C65.4369 244.249 64.789 250.265 65.9819 255.623C67.155 260.182 69.0955 264.508 71.7203 268.416C71.4631 268.745 71.1957 269.064 70.9387 269.393C66.2389 275.436 62.1428 281.925 58.7089 288.768C59.544 281.102 58.5474 273.348 55.801 266.143C53.0175 259.428 47.8003 253.773 43.206 247.968C37.6874 240.996 26.3711 244.039 25.3988 252.877C25.3894 252.963 25.3802 253.049 25.3713 253.134C26.0537 253.519 26.7217 253.928 27.3752 254.36C28.1963 254.909 28.8325 255.692 29.2005 256.609C29.5685 257.525 29.6511 258.531 29.4375 259.495C29.224 260.459 28.7241 261.336 28.0035 262.012C27.2829 262.687 26.3752 263.129 25.3993 263.279L25.2993 263.294C25.5424 265.754 25.9721 268.191 26.5848 270.586C28.3599 277.27 31.4968 283.515 35.7988 288.93C40.1007 294.345 45.475 298.813 51.5846 302.054C51.9857 302.26 52.3765 302.465 52.7776 302.661C49.3276 312.438 47.1636 322.622 46.3399 332.957C45.8736 339.054 45.9011 345.179 46.4222 351.272L46.3913 351.056C45.0749 344.281 41.4606 338.168 36.1589 333.749C28.2845 327.28 17.1595 324.898 8.66446 319.699C7.76164 319.119 6.71188 318.81 5.639 318.807C4.56611 318.804 3.51486 319.109 2.60923 319.684C1.70359 320.259 0.981339 321.081 0.527667 322.054C0.073996 323.026 -0.0921838 324.108 0.0487398 325.171C0.0601331 325.247 0.0717173 325.323 0.083484 325.398C1.34984 325.914 2.58285 326.508 3.77533 327.177C4.45775 327.562 5.12574 327.971 5.77933 328.403C6.60041 328.952 7.23662 329.736 7.60462 330.652C7.97261 331.568 8.05523 332.574 7.84163 333.538C7.62804 334.503 7.1282 335.38 6.40761 336.055C5.68702 336.73 4.77928 337.172 3.80333 337.322L3.70333 337.338C3.63133 337.348 3.56964 337.358 3.49776 337.369C5.66151 342.535 8.6984 347.29 12.4754 351.426C17.1413 356.433 22.7807 360.434 29.0478 363.184C35.3148 365.934 42.0775 367.374 48.9211 367.418H48.9315C50.7892 375.491 53.4809 383.348 56.9631 390.865H85.6548C85.7577 390.546 85.8502 390.217 85.9428 389.898C83.287 390.065 80.6208 389.906 78.0036 389.425C80.1324 386.813 82.2611 384.18 84.3899 381.568C84.4374 381.519 84.482 381.468 84.5236 381.414C85.6034 380.077 86.6935 378.75 87.7732 377.414L87.7738 377.412C87.8314 373.314 87.3611 369.226 86.3747 365.248L86.3738 365.247Z" fill="#F2F2F2"/>
<path d="M439.738 391.253C439.738 391.409 439.708 391.564 439.648 391.709C439.588 391.853 439.501 391.984 439.39 392.095C439.28 392.206 439.148 392.293 439.004 392.353C438.859 392.413 438.704 392.443 438.548 392.443H1.25763C0.942022 392.443 0.639336 392.317 0.416168 392.094C0.193 391.871 0.067627 391.568 0.067627 391.253C0.067627 390.937 0.193 390.634 0.416168 390.411C0.639336 390.188 0.942022 390.063 1.25763 390.063H438.548C438.704 390.062 438.859 390.093 439.004 390.152C439.148 390.212 439.28 390.299 439.39 390.41C439.501 390.521 439.588 390.652 439.648 390.797C439.708 390.941 439.738 391.096 439.738 391.253V391.253Z" fill="#CCCCCC"/>
<path d="M206.349 234.285C207.367 234.625 208.298 235.184 209.076 235.923C209.854 236.662 210.461 237.562 210.854 238.561C211.246 239.56 211.415 240.633 211.348 241.704C211.281 242.775 210.98 243.818 210.467 244.76L220.993 257.82L214.617 266.153L200.01 247.501C198.485 246.533 197.367 245.039 196.87 243.302C196.372 241.565 196.528 239.706 197.31 238.077C198.091 236.448 199.443 235.162 201.109 234.463C202.775 233.764 204.639 233.701 206.349 234.285V234.285Z" fill="#A0616A"/>
<path d="M211.056 269.856L205.111 255.066L216.109 247.256L221.249 256.469L228.756 261.589L238.727 270.444C241.43 268.225 262.169 251.605 268.804 258.67C269.61 259.464 270.235 260.423 270.636 261.481C271.037 262.539 271.204 263.671 271.125 264.799C270.712 270.178 265.007 274.693 264.791 274.86L252.201 286.682C251.731 287.483 246.782 295.718 241.126 297.151C240.32 297.373 239.476 297.424 238.649 297.302C237.822 297.18 237.029 296.888 236.321 296.443C223.449 288.54 215.22 280.763 212.198 273.704C211.66 272.474 211.276 271.181 211.056 269.856V269.856Z" fill="#2F2E41"/>
<path d="M204.824 463.419L195.14 463.871L188.786 426.735L203.079 426.067L204.824 463.419Z" fill="#A0616A"/>
<path d="M210.016 481.604L203.144 481.925L201.614 475.495L198.776 482.13L180.552 482.982C179.678 483.023 178.814 482.783 178.086 482.299C177.358 481.814 176.804 481.109 176.506 480.287C176.207 479.465 176.178 478.569 176.424 477.73C176.671 476.891 177.179 476.153 177.874 475.623L191.958 464.891L191.651 458.332L207.002 458.53L210.016 481.604Z" fill="#2F2E41"/>
<path d="M103.718 383.683L100.19 374.654L133.341 356.749L150.087 367.275L103.718 383.683Z" fill="#A0616A"/>
<path d="M88.1515 394.421L85.648 388.014L91.2503 384.507L84.0566 383.941L77.4166 366.948C77.0983 366.133 77.0487 365.238 77.275 364.393C77.5013 363.549 77.9918 362.798 78.6747 362.252C79.3577 361.706 80.1973 361.392 81.0712 361.357C81.945 361.322 82.8072 361.567 83.5319 362.056L98.2068 371.965L104.322 369.575L109.048 384.182L88.1515 394.421Z" fill="#2F2E41"/>
<path d="M294.161 356.808C294.161 356.808 290.139 382.484 271.127 384.385C252.116 386.286 234.591 377.721 234.591 377.721L181.359 361.327C181.359 361.327 124.739 377.414 115.233 379.949C115.233 379.949 108.676 365.067 108.896 364.106C110.917 355.261 113.551 361.244 113.551 361.244L173.754 334.628C173.754 334.628 183.26 332.093 199.737 339.064C216.213 346.035 260.354 362.839 260.354 362.839L294.161 356.808Z" fill="#2F2E41"/>
<path d="M293.941 355.234C293.941 355.234 297.112 385.993 278.592 390.692C260.988 395.159 236.705 390.576 236.705 390.576L207.756 387.554C207.756 387.554 206.488 424.75 206.488 443.128C200.606 443.928 194.68 444.351 188.744 444.396C187.477 444.396 187.393 443.732 187.393 443.732L184.938 379.445C184.766 376.65 185.181 373.85 186.156 371.224C187.131 368.599 188.645 366.208 190.6 364.203C192.555 362.198 194.908 360.625 197.508 359.584C200.108 358.544 202.897 358.059 205.695 358.161C207.062 358.214 208.495 358.31 209.996 358.452C227.805 360.159 249.914 356.529 249.914 356.529L293.941 355.234Z" fill="#2F2E41"/>
<path d="M242.573 310.613C242.573 310.613 235.055 356.079 240.136 359.708C245.216 363.337 252.184 363.352 252.184 363.352L253.804 338.248L242.573 310.613Z" fill="#2F2E41"/>
<path d="M255.113 254.775L245.06 264.328C240.388 268.768 237.291 274.61 236.239 280.969C235.187 287.328 236.237 293.856 239.23 299.565L244.035 308.728L255.113 254.775Z" fill="#2F2E41"/>
<path d="M257.361 256.382L243.74 271.897C240.75 275.302 238.898 279.554 238.44 284.062V284.062C238.232 286.109 238.316 288.175 238.688 290.199L243.821 318.104L247.68 358.403C247.68 358.403 277.467 367.428 280.515 353.492C283.564 339.556 257.361 256.382 257.361 256.382Z" fill="#FF4000"/>
<path d="M249.594 345.216L245.239 335.199L241.544 309.086C241.342 307.566 245.478 282.705 251.466 256.031L258.744 245.842L262.942 241.994L274.899 249.833C279.213 252.115 288.644 281.897 282.839 302.972C280.842 310.222 284.333 319.248 284.871 325.909L293.159 346.274L295.121 358.051L294.822 358.165C294.523 358.279 289.727 358.927 270.146 362.19C253.922 364.894 262.806 351.591 249.594 345.216Z" fill="#2F2E41"/>
<path d="M211.266 334.273C211.861 333.38 212.645 332.629 213.562 332.071C214.479 331.514 215.507 331.165 216.574 331.047C217.64 330.93 218.72 331.049 219.736 331.394C220.752 331.739 221.68 332.303 222.455 333.046L237.817 326.311L244.187 334.648L222.359 343.855C221.025 345.073 219.29 345.76 217.483 345.785C215.677 345.81 213.924 345.172 212.557 343.991C211.189 342.81 210.303 341.168 210.065 339.377C209.827 337.586 210.254 335.77 211.266 334.273V334.273Z" fill="#A0616A"/>
<path d="M246.828 339.056L230.997 340.917L226.343 328.256L236.581 325.71L243.49 319.808L254.649 312.506C253.216 309.316 242.613 284.946 251.171 280.395C252.148 279.825 253.237 279.473 254.363 279.364C255.489 279.254 256.625 279.39 257.694 279.761C262.776 281.571 265.638 288.259 265.742 288.511L273.851 303.761C274.501 304.424 281.151 311.358 281.051 317.192C281.053 318.028 280.882 318.855 280.547 319.622C280.213 320.388 279.723 321.077 279.108 321.644C268.107 331.993 258.445 337.896 250.841 338.963C249.513 339.16 248.165 339.191 246.828 339.056V339.056Z" fill="#2F2E41"/>
<path d="M257.114 240.712C267.578 239.458 275.021 229.77 273.74 219.074C272.458 208.377 262.937 200.721 252.473 201.975C242.009 203.229 234.566 212.917 235.847 223.614C237.129 234.31 246.65 241.966 257.114 240.712Z" fill="#A0616A"/>
<path d="M304.485 206.869C300.815 203.5 298.687 198.7 295.601 194.744C292.516 190.788 287.578 187.508 282.964 189.067C279.783 190.142 277.607 193.324 276.715 196.686C275.823 200.049 276.008 203.617 276.2 207.112C275.425 199.976 269.902 193.63 263.162 192.131C259.748 191.461 256.208 191.891 253.054 193.361C249.899 194.83 247.293 197.263 245.609 200.308C243.638 198.877 241.211 198.218 238.788 198.457C236.364 198.696 234.112 199.816 232.459 201.604C230.882 203.548 230.009 205.97 229.983 208.474C229.958 210.978 230.782 213.416 232.32 215.392C233.904 217.248 236.111 218.461 238.526 218.805C240.941 219.149 243.399 218.599 245.437 217.259L247.105 218.46C246.892 219.984 247.223 221.533 248.037 222.838C248.852 224.143 250.099 225.12 251.561 225.598C253.904 226.233 257.041 225.704 258.158 227.95C258.939 229.518 258.056 231.398 257.045 232.797C256.034 234.195 254.811 235.661 254.88 237.42C254.984 240.074 257.922 241.591 260.458 241.849C263.558 242.092 266.661 241.404 269.368 239.873C272.075 238.343 274.264 236.039 275.654 233.257C275.708 233.148 275.768 233.038 275.833 232.927C277.464 230.233 278.529 227.235 278.962 224.116C279.395 220.998 279.187 217.823 278.352 214.787C278.014 213.596 278.1 212.669 278.903 212.281C282.374 210.604 292.829 211.998 296.181 213.989C299.533 215.98 302.365 218.807 305.622 220.964C308.88 223.12 312.88 224.606 316.552 223.472C318.019 222.929 319.363 222.098 320.504 221.027C321.645 219.955 322.56 218.667 323.194 217.236C324.49 214.317 325.349 211.223 325.743 208.053C322.591 210.297 318.769 211.401 314.906 211.186C311.044 210.971 307.369 209.449 304.485 206.869V206.869Z" fill="#2F2E41"/>
<path d="M307.371 333.827L307.361 333.814L307.371 333.84V333.827Z" fill="#2F2E41"/>
<path d="M183.245 242.724C175.034 243.983 166.634 242.779 159.107 239.264C151.581 235.749 145.265 230.082 140.96 222.978C136.654 215.874 134.552 207.653 134.919 199.354C135.286 191.055 138.105 183.052 143.021 176.355C147.937 169.659 154.727 164.571 162.535 161.734C170.342 158.897 178.815 158.439 186.883 160.418C194.951 162.397 202.251 166.724 207.859 172.851C213.468 178.979 217.134 186.632 218.393 194.842C219.229 200.294 218.983 205.857 217.669 211.214C216.355 216.571 213.999 221.616 210.735 226.063C207.471 230.509 203.364 234.268 198.647 237.127C193.93 239.986 188.696 241.888 183.245 242.724V242.724ZM170.815 161.671C162.995 162.87 155.706 166.362 149.871 171.703C144.035 177.045 139.914 183.997 138.03 191.68C136.145 199.364 136.581 207.434 139.283 214.869C141.985 222.305 146.831 228.772 153.208 233.454C159.586 238.135 167.208 240.821 175.111 241.17C183.015 241.519 190.845 239.517 197.61 235.417C204.376 231.316 209.774 225.302 213.121 218.134C216.469 210.965 217.615 202.966 216.416 195.146C215.62 189.954 213.809 184.969 211.086 180.477C208.363 175.985 204.783 172.073 200.548 168.964C196.314 165.856 191.508 163.612 186.407 162.361C181.305 161.109 176.007 160.875 170.815 161.671V161.671Z" fill="#3F3D56"/>
<path d="M330.816 83.5147C322.606 84.7738 314.206 83.5699 306.679 80.0552C299.153 76.5405 292.837 70.8728 288.532 63.7688C284.226 56.6649 282.124 48.4438 282.491 40.145C282.858 31.8463 285.677 23.8428 290.593 17.1465C295.508 10.4502 302.299 5.3619 310.107 2.52507C317.914 -0.311762 326.387 -0.76972 334.455 1.2091C342.523 3.18793 349.822 7.51466 355.431 13.6421C361.04 19.7696 364.705 27.4227 365.965 35.6335C366.801 41.0853 366.555 46.6484 365.241 52.0051C363.927 57.3619 361.571 62.4073 358.307 66.8535C355.043 71.2997 350.936 75.0595 346.219 77.9182C341.502 80.7769 336.268 82.6786 330.816 83.5147V83.5147ZM318.387 2.46222C310.567 3.66143 303.278 7.15256 297.442 12.4941C291.607 17.8357 287.486 24.7878 285.601 32.4713C283.717 40.1548 284.153 48.2246 286.855 55.6602C289.557 63.0959 294.403 69.5634 300.78 74.2448C307.157 78.9263 314.78 81.6116 322.683 81.961C330.587 82.3104 338.417 80.3083 345.182 76.2078C351.948 72.1074 357.346 66.0928 360.693 58.9246C364.04 51.7564 365.187 43.7565 363.988 35.9367C362.38 25.4506 356.672 16.0328 348.12 9.75516C339.568 3.47748 328.873 0.854125 318.387 2.46222V2.46222Z" fill="#3F3D56"/>
<path d="M501.012 178.666C492.801 179.925 484.401 178.721 476.875 175.207C469.348 171.692 463.033 166.024 458.727 158.92C454.422 151.816 452.319 143.595 452.686 135.296C453.053 126.998 455.873 118.994 460.788 112.298C465.704 105.602 472.495 100.513 480.302 97.6764C488.109 94.8396 496.583 94.3816 504.65 96.3605C512.718 98.3393 520.018 102.666 525.626 108.794C531.235 114.921 534.901 122.574 536.16 130.785C536.996 136.237 536.75 141.8 535.436 147.156C534.122 152.513 531.766 157.559 528.502 162.005C525.239 166.451 521.131 170.211 516.414 173.07C511.697 175.928 506.464 177.83 501.012 178.666V178.666ZM488.582 97.6136C480.762 98.8128 473.474 102.304 467.638 107.646C461.802 112.987 457.681 119.939 455.797 127.623C453.912 135.306 454.348 143.376 457.05 150.812C459.752 158.247 464.598 164.715 470.975 169.396C477.353 174.078 484.975 176.763 492.879 177.112C500.782 177.462 508.612 175.46 515.378 171.359C522.143 167.259 527.541 161.244 530.888 154.076C534.236 146.908 535.382 138.908 534.183 131.088C532.575 120.602 526.867 111.184 518.315 104.907C509.763 98.6288 499.068 96.0055 488.582 97.6136Z" fill="#3F3D56"/>
<path d="M346.429 26.9924L351.22 25.246C351.22 25.246 347.781 30.5284 347.035 30.9462C347.113 31.9445 347.265 32.9357 347.49 33.9115C344.246 76.0906 306.497 63.4669 306.497 63.4669C319.293 61.808 319.577 56.4026 319.577 56.4026C311.997 56.4522 309.771 51.8362 309.771 51.8362C310.49 52.085 311.276 52.0599 311.977 51.7657C312.679 51.4714 313.247 50.9287 313.574 50.2414C305.249 49.3935 305.139 41.418 305.139 41.418C306.724 42.2295 308.491 42.6204 310.27 42.5533C309.214 41.6024 300.322 33.7596 304.156 28.4167C304.156 28.4167 311.208 37.4522 325.874 36.1136L326.832 35.7643C326.555 35.0781 326.376 34.3562 326.301 33.62C325.879 30.8674 326.568 28.0599 328.215 25.815C329.863 23.5701 332.335 22.0719 335.088 21.6497C342.007 20.5886 344.096 24.315 344.096 24.315L348.584 20.5918C348.485 20.607 348.749 25.625 346.429 26.9924Z" fill="#3F3D56"/>
<path d="M502.803 114.88C505.57 114.464 508.389 115.16 510.644 116.815C512.899 118.471 514.408 120.952 514.84 123.716L518.041 144.587C518.457 147.353 517.761 150.172 516.105 152.427C514.45 154.683 511.969 156.191 509.205 156.624L488.334 159.824C485.567 160.24 482.749 159.544 480.493 157.889C478.238 156.233 476.729 153.752 476.297 150.988L473.096 130.117C472.681 127.351 473.376 124.532 475.032 122.277C476.688 120.021 479.168 118.513 481.932 118.08L502.803 114.88V114.88ZM502.163 110.706L481.292 113.906C477.423 114.511 473.949 116.623 471.632 119.781C469.314 122.938 468.34 126.884 468.922 130.757L472.123 151.628C472.728 155.498 474.84 158.971 477.997 161.289C481.155 163.607 485.101 164.581 488.974 163.998L509.845 160.797C513.715 160.192 517.188 158.081 519.505 154.923C521.823 151.766 522.797 147.82 522.215 143.946L519.014 123.076C518.409 119.206 516.297 115.733 513.14 113.415C509.982 111.098 506.036 110.123 502.163 110.706V110.706Z" fill="#3F3D56"/>
<path d="M507.534 124.836C506.706 124.961 505.862 124.752 505.188 124.256C504.514 123.759 504.064 123.015 503.939 122.187C503.813 121.359 504.021 120.515 504.517 119.84C505.013 119.165 505.756 118.715 506.584 118.588C507.412 118.461 508.256 118.668 508.932 119.164C509.607 119.659 510.058 120.402 510.186 121.23C510.313 122.058 510.107 122.902 509.613 123.578C509.118 124.254 508.375 124.706 507.548 124.834L507.534 124.836Z" fill="#3F3D56"/>
<path d="M494.288 129.003C495.939 128.75 497.629 128.992 499.142 129.699C500.656 130.406 501.926 131.545 502.792 132.974C503.658 134.403 504.081 136.056 504.007 137.725C503.933 139.394 503.366 141.004 502.377 142.35C501.389 143.697 500.023 144.72 498.453 145.291C496.883 145.861 495.179 145.953 493.556 145.555C491.934 145.157 490.466 144.287 489.338 143.055C488.21 141.823 487.473 140.284 487.22 138.632C487.051 137.536 487.101 136.417 487.365 135.34C487.629 134.263 488.103 133.248 488.76 132.354C489.416 131.459 490.242 130.703 491.191 130.128C492.139 129.554 493.192 129.171 494.288 129.003ZM493.648 124.829C491.171 125.209 488.863 126.315 487.014 128.006C485.166 129.698 483.861 131.9 483.264 134.334C482.667 136.767 482.805 139.323 483.661 141.679C484.517 144.034 486.051 146.082 488.071 147.565C490.091 149.048 492.506 149.898 495.009 150.009C497.512 150.12 499.992 149.485 502.135 148.187C504.278 146.888 505.988 144.983 507.048 142.713C508.108 140.442 508.471 137.908 508.091 135.432V135.432C507.582 132.11 505.774 129.127 503.066 127.139C500.357 125.151 496.969 124.32 493.648 124.829V124.829Z" fill="#3F3D56"/>
<path fill-rule="evenodd" clip-rule="evenodd" d="M204.042 197.21C203.246 192.024 200.98 187.175 197.514 183.236C194.047 179.298 189.524 176.435 184.481 174.987C179.438 173.539 174.086 173.566 169.058 175.066C164.03 176.565 159.537 179.474 156.11 183.447C152.684 187.421 150.468 192.293 149.725 197.487C148.981 202.681 149.742 207.979 151.916 212.754C154.09 217.529 157.587 221.581 161.992 224.431C166.398 227.281 171.527 228.808 176.774 228.833L173.866 209.87L166.973 210.927L165.77 203.079L172.663 202.022L171.746 196.042C170.703 189.242 174.179 184.861 180.377 183.91C182.417 183.626 184.475 183.492 186.534 183.509L187.559 190.188L184.135 190.713C180.766 191.23 180.032 193.483 180.362 195.632L181.143 200.723L188.669 199.569L188.67 207.601L182.346 208.57L185.254 227.535C191.483 225.545 196.798 221.397 200.242 215.838C203.686 210.279 205.033 203.674 204.042 197.21L204.042 197.21Z" fill="#3F3D56"/>
</svg>
