<svg width="235" height="223" viewBox="0 0 235 223" fill="none" xmlns="http://www.w3.org/2000/svg">
<path d="M190.022 131.472C187.862 132.665 184.069 133.646 179.679 134.435C167.743 136.583 151.386 137.345 151.386 137.345C151.386 137.345 67.2993 147.803 4.27788 108.91C4.27788 108.91 -4.88875 101.704 3.61475 92.0056C4.92417 90.5565 6.31623 89.2832 7.77477 88.2005L7.87866 88.0447C8.84589 86.7043 9.89117 85.4963 11.002 84.4352C14.2668 81.2698 19.7796 77.5177 26.4904 79.2181L192.011 119.361C192.011 119.361 198.057 127.021 190.022 131.472Z" fill="#3F3D56"/>
<path d="M157.042 113.278L191.693 76.4138L206.965 80.3747L192.011 119.361C192.011 119.361 157.44 119.775 157.042 113.278Z" fill="#3F3D56"/>
<path d="M69.8059 90.8819L138.826 61.8563L149.951 65.3432L118.773 86.3741L109.03 102.722L69.8059 90.8819Z" fill="#3F3D56"/>
<path d="M179.679 134.435C167.743 136.583 151.386 137.345 151.386 137.345C151.386 137.345 67.2993 147.803 4.27788 108.91C4.27788 108.91 -4.88875 101.704 3.61475 92.0055L3.64349 92.1845C3.64349 92.1845 17.242 105.966 82.2152 117.471L179.679 134.435Z" fill="#FF4000"/>
<path d="M168.585 133.64L199.443 152.533L207.195 151.243L188.738 130.441C188.738 130.441 166.412 123.298 168.585 133.64Z" fill="#3F3D56"/>
<path d="M14.8327 94.2031C13.3606 94.2396 9.98746 90.5372 7.88977 88.0447C8.857 86.7042 9.90228 85.4962 11.0131 84.4351C12.7041 86.3808 15.7125 89.5296 17.3858 89.407C19.8017 89.2578 17.0498 94.1435 14.8327 94.2031Z" fill="#FF4000"/>
<path d="M155.02 198.946L135.208 200.501L79.5051 144.18L69.1648 133.723L64.1427 128.641C73.5657 116.709 112.012 133.166 112.012 133.166C112.748 134.097 112.982 135.645 112.949 137.355C112.885 140.557 111.881 144.316 111.494 145.668C111.402 146 111.344 146.175 111.344 146.175L155.02 198.946Z" fill="#3F3D56"/>
<path d="M89.7726 169.745L86.3354 173.007L88.4176 167.329C87.828 166.623 87.0985 166.233 86.3442 166.218H86.289C86.0506 166.225 85.8123 166.199 85.5772 166.139L84.4145 167.246L84.9119 165.887C84.0882 165.453 83.3766 164.642 82.8783 163.567L80.7983 165.556L82.1113 161.969C80.8955 159.778 79.2554 158.436 77.4495 158.436C75.2855 158.436 73.358 160.365 72.1135 163.375C71.7445 164.276 71.2228 165.014 70.6016 165.515C69.9803 166.016 69.2817 166.261 68.5768 166.225H68.4619C66.0724 166.225 64.1361 170.285 64.1361 175.297C64.1361 180.309 66.0724 184.369 68.4619 184.369C68.987 184.366 69.5037 184.172 69.9672 183.802C70.7808 183.21 71.6702 182.89 72.5743 182.864C73.4783 182.838 74.3754 183.106 75.2037 183.65C75.9041 184.118 76.6626 184.361 77.4296 184.361C78.1966 184.361 78.955 184.118 79.6555 183.65C80.4769 183.116 81.3652 182.853 82.2602 182.879C83.1553 182.904 84.0362 183.218 84.8434 183.799C85.3041 184.159 85.8157 184.349 86.3354 184.352C88.7249 184.352 90.6612 180.292 90.6612 175.28C90.6784 173.353 90.3729 171.45 89.7726 169.745Z" fill="#F2F2F2"/>
<path opacity="0.03" d="M83.3071 183.02C82.0589 182.666 80.7687 182.876 79.6003 183.623C78.9004 184.093 78.1423 184.336 77.3755 184.336C76.6087 184.336 75.8505 184.093 75.1507 183.623C74.3227 183.078 73.4255 182.809 72.5212 182.835C71.617 182.861 70.7274 183.182 69.9142 183.776C69.4496 184.144 68.9323 184.339 68.4067 184.342C66.2847 184.342 64.5185 181.134 64.1516 176.905C64.5762 176.442 64.9366 175.86 65.2126 175.191C66.4571 172.185 68.3846 170.256 70.5486 170.256C72.7126 170.256 74.6202 172.145 75.8624 175.128C76.2332 176.027 76.7526 176.767 77.3703 177.277C77.9881 177.786 78.6831 178.047 79.3881 178.035H79.4433C81.1321 178.028 82.5954 180.057 83.3071 183.02Z" fill="black"/>
<path d="M186.81 165.436L183.373 168.698L185.455 163.02C184.866 162.314 184.136 161.924 183.382 161.909H183.327C183.088 161.916 182.85 161.89 182.615 161.83L181.452 162.937L181.949 161.578C181.126 161.144 180.414 160.333 179.916 159.258L177.836 161.247L179.149 157.66C177.933 155.469 176.293 154.127 174.487 154.127C172.323 154.127 170.396 156.056 169.151 159.066C168.782 159.967 168.26 160.705 167.639 161.206C167.018 161.707 166.319 161.952 165.614 161.916H165.5C163.11 161.916 161.174 165.976 161.174 170.988C161.174 176 163.11 180.06 165.5 180.06C166.025 180.057 166.541 179.863 167.005 179.493C167.818 178.901 168.708 178.581 169.612 178.555C170.516 178.529 171.413 178.797 172.241 179.341C172.942 179.809 173.7 180.052 174.467 180.052C175.234 180.052 175.993 179.809 176.693 179.341C177.514 178.807 178.403 178.544 179.298 178.57C180.193 178.595 181.074 178.909 181.881 179.49C182.342 179.85 182.853 180.04 183.373 180.043C185.762 180.043 187.699 175.983 187.699 170.971C187.716 169.044 187.41 167.141 186.81 165.436Z" fill="#F2F2F2"/>
<path opacity="0.03" d="M180.345 178.711C179.097 178.357 177.806 178.567 176.638 179.314C175.938 179.784 175.18 180.027 174.413 180.027C173.646 180.027 172.888 179.784 172.188 179.314C171.36 178.769 170.463 178.5 169.559 178.526C168.655 178.552 167.765 178.873 166.952 179.467C166.487 179.835 165.97 180.03 165.444 180.034C163.322 180.034 161.556 176.825 161.189 172.596C161.614 172.133 161.974 171.551 162.25 170.882C163.495 167.876 165.422 165.947 167.586 165.947C169.75 165.947 171.658 167.836 172.9 170.819C173.272 171.721 173.793 172.462 174.413 172.972C175.033 173.481 175.73 173.741 176.437 173.726H176.492C178.17 173.719 179.633 175.748 180.345 178.711Z" fill="black"/>
<path d="M186.81 56.7187L183.373 59.9802L185.455 54.3024C184.866 53.597 184.136 53.2063 183.382 53.192H183.327C183.088 53.199 182.85 53.1724 182.615 53.1125L181.452 54.2195L181.949 52.8605C181.126 52.427 180.414 51.6151 179.916 50.5404L177.836 52.5291L179.149 48.9427C177.933 46.7518 176.293 45.4094 174.487 45.4094C172.323 45.4094 170.396 47.3385 169.151 50.3481C168.782 51.2494 168.26 51.9879 167.639 52.4887C167.018 52.9894 166.319 53.2343 165.614 53.1986H165.5C163.11 53.1986 161.174 57.259 161.174 62.2706C161.174 67.2822 163.11 71.3425 165.5 71.3425C166.025 71.34 166.541 71.1455 167.005 70.7757C167.818 70.1839 168.708 69.8638 169.612 69.8375C170.516 69.8112 171.413 70.0792 172.241 70.6233C172.941 71.0946 173.699 71.3397 174.466 71.3425C175.233 71.3454 175.992 71.106 176.693 70.6398C177.514 70.106 178.403 69.8431 179.298 69.8688C180.193 69.8945 181.074 70.2083 181.881 70.789C182.342 71.1495 182.853 71.3393 183.373 71.3425C185.762 71.3425 187.699 67.2822 187.699 62.2706C187.718 60.3375 187.412 58.4283 186.81 56.7187Z" fill="#F2F2F2"/>
<path opacity="0.03" d="M180.345 69.9935C179.097 69.6394 177.806 69.8494 176.638 70.5968C175.938 71.0667 175.18 71.3096 174.413 71.3096C173.646 71.3096 172.888 71.0667 172.188 70.5968C171.36 70.0513 170.463 69.7823 169.559 69.8087C168.655 69.835 167.765 70.1559 166.952 70.7493C166.487 71.1179 165.97 71.3124 165.444 71.3161C163.322 71.3161 161.556 68.1076 161.189 63.8782C161.614 63.4158 161.974 62.8338 162.25 62.1646C163.495 59.1583 165.422 57.2292 167.586 57.2292C169.75 57.2292 171.658 59.1185 172.9 62.1016C173.272 63.0031 173.793 63.7448 174.413 64.2543C175.033 64.7638 175.73 65.0236 176.437 65.0085H176.492C178.17 65.0018 179.633 67.0303 180.345 69.9935Z" fill="black"/>
<path d="M44.8966 44.9884L43.1835 46.6158L44.2224 43.7852C43.9288 43.4314 43.5646 43.2353 43.1879 43.2284H43.1614C43.0422 43.2302 42.9232 43.2169 42.8055 43.1886L42.2264 43.7388L42.474 43.0759C42.063 42.86 41.708 42.4552 41.4594 41.9191L40.4227 42.9135L41.0858 41.1269C40.8101 40.5922 40.4583 40.1564 40.056 39.8513C39.6537 39.5463 39.2111 39.3797 38.7604 39.3636C37.6818 39.3636 36.7202 40.3248 36.1079 41.8263C35.9237 42.277 35.6628 42.6462 35.3521 42.8961C35.0414 43.1459 34.6919 43.2675 34.3396 43.2482H34.2821C33.0907 43.2482 32.1248 45.2768 32.1248 47.7759C32.1248 50.2751 33.0907 52.3003 34.2821 52.3003C34.5442 52.299 34.8021 52.2023 35.0337 52.0186C35.4394 51.7224 35.8833 51.5622 36.3344 51.549C36.7856 51.5358 37.2333 51.6701 37.6464 51.9423C37.9943 52.1742 38.3708 52.2941 38.7516 52.2941C39.1324 52.2941 39.5089 52.1742 39.8568 51.9423C40.2666 51.6757 40.7099 51.5446 41.1566 51.5577C41.6032 51.5709 42.0427 51.728 42.4452 52.0186C42.6749 52.1968 42.9294 52.291 43.1879 52.2937C44.3793 52.2937 45.3453 50.2685 45.3453 47.7693C45.3537 46.8006 45.1994 45.8442 44.8966 44.9884Z" fill="#F2F2F2"/>
<path opacity="0.03" d="M41.6716 51.6111C41.0487 51.4322 40.4043 51.5373 39.8215 51.9128C39.4733 52.1433 39.097 52.263 38.7163 52.2641C38.3313 52.2639 37.9508 52.1408 37.6 51.9028C37.1867 51.6317 36.739 51.4984 36.2879 51.5121C35.8368 51.5259 35.393 51.6863 34.9873 51.9824C34.7565 52.1661 34.4993 52.2628 34.238 52.2641C33.1792 52.2641 32.2972 50.6632 32.1138 48.5551C32.325 48.3228 32.505 48.0326 32.6443 47.7C33.2632 46.1985 34.2247 45.2372 35.2968 45.2372C36.3688 45.2372 37.3259 46.1885 37.9493 47.6701C38.1351 48.1207 38.3957 48.4911 38.7057 48.745C39.0157 48.9989 39.3644 49.1277 39.7176 49.1186H39.7464C40.5797 49.1186 41.3158 50.1328 41.6716 51.6111Z" fill="black"/>
<path d="M197.416 207.07L195.703 208.698L196.742 205.867C196.448 205.513 196.084 205.317 195.707 205.31H195.681C195.562 205.312 195.442 205.299 195.325 205.27L194.746 205.821L194.993 205.158C194.582 204.942 194.227 204.537 193.979 204.001L192.942 204.995L193.605 203.209C193.329 202.674 192.978 202.238 192.575 201.933C192.173 201.628 191.73 201.462 191.28 201.445C190.201 201.445 189.24 202.407 188.627 203.908C188.443 204.359 188.182 204.728 187.871 204.978C187.561 205.228 187.211 205.349 186.859 205.33H186.801C185.61 205.33 184.644 207.359 184.644 209.858C184.644 212.357 185.61 214.382 186.801 214.382C187.063 214.381 187.321 214.284 187.553 214.1C187.959 213.804 188.403 213.644 188.854 213.631C189.305 213.618 189.753 213.752 190.166 214.024C190.514 214.256 190.89 214.376 191.271 214.376C191.652 214.376 192.028 214.256 192.376 214.024C192.786 213.758 193.229 213.626 193.676 213.64C194.122 213.653 194.562 213.81 194.965 214.1C195.194 214.279 195.449 214.373 195.707 214.376C196.899 214.376 197.865 212.35 197.865 209.851C197.873 208.882 197.719 207.926 197.416 207.07Z" fill="#F2F2F2"/>
<path opacity="0.03" d="M194.191 213.693C193.568 213.514 192.924 213.619 192.341 213.995C191.993 214.225 191.616 214.345 191.236 214.346C190.851 214.346 190.47 214.223 190.119 213.985C189.706 213.714 189.258 213.58 188.807 213.594C188.356 213.608 187.912 213.768 187.507 214.064C187.276 214.248 187.019 214.345 186.757 214.346C185.698 214.346 184.817 212.745 184.633 210.637C184.844 210.405 185.024 210.114 185.164 209.782C185.782 208.28 186.744 207.319 187.816 207.319C188.888 207.319 189.845 208.27 190.469 209.752C190.654 210.203 190.915 210.573 191.225 210.827C191.535 211.081 191.884 211.21 192.237 211.2H192.266C193.099 211.2 193.835 212.215 194.191 213.693Z" fill="black"/>
<path d="M38.2654 215.688L36.5523 217.316L37.5912 214.485C37.2976 214.131 36.9333 213.935 36.5567 213.928H36.5302C36.411 213.93 36.292 213.917 36.1743 213.888L35.5952 214.438L35.8427 213.776C35.4318 213.56 35.0767 213.155 34.8281 212.619L33.7915 213.613L34.4546 211.827C34.1788 211.292 33.827 210.856 33.4247 210.551C33.0225 210.246 32.5799 210.079 32.1292 210.063C31.0505 210.063 30.089 211.025 29.4767 212.526C29.2924 212.977 29.0316 213.346 28.7209 213.596C28.4101 213.846 28.0607 213.967 27.7084 213.948H27.6509C26.4595 213.948 25.4935 215.976 25.4935 218.476C25.4935 220.975 26.4595 223 27.6509 223C27.9129 222.999 28.1708 222.902 28.4024 222.718C28.8082 222.422 29.252 222.262 29.7032 222.249C30.1544 222.236 30.6021 222.37 31.0152 222.642C31.3631 222.874 31.7396 222.994 32.1204 222.994C32.5011 222.994 32.8777 222.874 33.2256 222.642C33.6354 222.375 34.0787 222.244 34.5253 222.257C34.972 222.271 35.4115 222.428 35.814 222.718C36.0436 222.896 36.2981 222.991 36.5567 222.993C37.7481 222.993 38.7141 220.968 38.7141 218.469C38.7225 217.5 38.5681 216.544 38.2654 215.688Z" fill="#F2F2F2"/>
<path opacity="0.03" d="M35.0403 222.311C34.4173 222.132 33.7729 222.237 33.1902 222.612C32.842 222.843 32.4656 222.963 32.085 222.964C31.7 222.964 31.3194 222.84 30.9687 222.602C30.5553 222.331 30.1076 222.198 29.6565 222.212C29.2054 222.226 28.7617 222.386 28.356 222.682C28.1252 222.866 27.868 222.963 27.6066 222.964C26.5478 222.964 25.6659 221.363 25.4824 219.255C25.6936 219.022 25.8736 218.732 26.0129 218.4C26.6318 216.898 27.5934 215.937 28.6654 215.937C29.7375 215.937 30.6946 216.888 31.3179 218.37C31.5037 218.82 31.7644 219.191 32.0744 219.445C32.3844 219.699 32.7331 219.827 33.0863 219.818H33.115C33.9483 219.818 34.6844 220.833 35.0403 222.311Z" fill="black"/>
<path d="M117.403 11.3093L113.966 14.5708L116.048 8.89296C115.458 8.18754 114.729 7.79684 113.975 7.78258H113.919C113.681 7.78957 113.443 7.76294 113.208 7.70303L112.045 8.81009L112.542 7.45112C111.718 7.0176 111.007 6.20572 110.509 5.13093L108.429 7.11967L109.742 3.53332C108.526 1.3424 106.886 0 105.08 0C102.916 0 100.988 1.92907 99.7438 4.93869C99.3748 5.83995 98.8531 6.57851 98.2319 7.07922C97.6106 7.57993 96.912 7.8249 96.2071 7.78921H96.0922C93.7027 7.78921 91.7664 11.8495 91.7664 16.8612C91.7664 21.8728 93.7027 25.9331 96.0922 25.9331C96.6172 25.9306 97.134 25.736 97.5975 25.3663C98.411 24.7745 99.3005 24.4544 100.205 24.4281C101.109 24.4017 102.006 24.6698 102.834 25.2138C103.534 25.6852 104.292 25.9302 105.059 25.9331C105.826 25.936 106.585 25.6965 107.286 25.2304C108.107 24.6966 108.995 24.4336 109.891 24.4594C110.786 24.4851 111.667 24.7989 112.474 25.3796C112.934 25.7401 113.446 25.9299 113.966 25.9331C116.355 25.9331 118.291 21.8728 118.291 16.8612C118.311 14.9281 118.005 13.0188 117.403 11.3093Z" fill="#F2F2F2"/>
<path opacity="0.03" d="M110.937 24.5841C109.689 24.23 108.399 24.44 107.231 25.1874C106.531 25.6572 105.773 25.9001 105.006 25.9001C104.239 25.9001 103.481 25.6572 102.781 25.1874C101.953 24.6418 101.056 24.3729 100.151 24.3992C99.2473 24.4256 98.3577 24.7465 97.5444 25.3398C97.0798 25.7085 96.5626 25.9029 96.0369 25.9066C93.9149 25.9066 92.1488 22.6981 91.7819 18.4688C92.2065 18.0064 92.5668 17.4243 92.8429 16.7551C94.0873 13.7488 96.0148 11.8198 98.1788 11.8198C100.343 11.8198 102.25 13.7091 103.493 16.6922C103.864 17.5937 104.386 18.3354 105.005 18.8449C105.625 19.3543 106.323 19.6142 107.029 19.599H107.085C108.762 19.5924 110.226 21.6209 110.937 24.5841Z" fill="black"/>
<path d="M234.551 68.1903L232.838 69.8177L233.877 66.9871C233.583 66.6333 233.219 66.4372 232.842 66.4303H232.816C232.697 66.4321 232.577 66.4188 232.46 66.3905L231.881 66.9407L232.128 66.2778C231.717 66.0619 231.362 65.6571 231.114 65.121L230.077 66.1154L230.74 64.3288C230.464 63.7941 230.113 63.3583 229.71 63.0532C229.308 62.7482 228.865 62.5816 228.415 62.5655C227.336 62.5655 226.375 63.5267 225.762 65.0282C225.578 65.4789 225.317 65.8481 225.006 66.098C224.696 66.3478 224.346 66.4694 223.994 66.4502H223.936C222.745 66.4502 221.779 68.4787 221.779 70.9778C221.779 73.477 222.745 75.5022 223.936 75.5022C224.198 75.5009 224.456 75.4042 224.688 75.2205C225.094 74.9243 225.538 74.7641 225.989 74.7509C226.44 74.7377 226.888 74.872 227.301 75.1442C227.649 75.3761 228.025 75.496 228.406 75.496C228.787 75.496 229.163 75.3761 229.511 75.1442C229.921 74.8776 230.364 74.7465 230.811 74.7596C231.257 74.7728 231.697 74.93 232.1 75.2205C232.329 75.3987 232.584 75.4929 232.842 75.4956C234.034 75.4956 235 73.4704 235 70.9712C235.008 70.0025 234.854 69.0461 234.551 68.1903Z" fill="#F2F2F2"/>
<path opacity="0.03" d="M231.326 74.813C230.703 74.6341 230.058 74.7392 229.476 75.1147C229.128 75.3452 228.751 75.4649 228.371 75.466C227.989 75.4635 227.613 75.3404 227.265 75.1047C226.852 74.8336 226.404 74.7003 225.953 74.714C225.502 74.7278 225.058 74.8882 224.653 75.1843C224.422 75.368 224.165 75.4647 223.903 75.466C222.844 75.466 221.963 73.8651 221.779 71.757C221.99 71.5247 222.17 71.2345 222.31 70.9019C222.928 69.4004 223.89 68.4391 224.962 68.4391C226.034 68.4391 226.991 69.3904 227.615 70.872C227.799 71.3201 228.058 71.689 228.366 71.9428C228.674 72.1966 229.021 72.3267 229.372 72.3205H229.401C230.234 72.3205 230.97 73.3348 231.326 74.813Z" fill="black"/>
</svg>
